<svg xmlns="http://www.w3.org/2000/svg" viewBox="0 0 370.61 600"><title>Asset 13</title><g id="Layer_2" data-name="Layer 2"><g id="Layer_1-2" data-name="Layer 1"><path d="M17.32,409.78h99.73c2-12.7,1.3-24.37.59-36.14-11-1.45-21.7-1.82-31.82-4.35-43-10.76-77.69-45.71-84.23-91.38-7.19-50.23,10.11-92.14,50.64-123.7,26.15-20.37,56-33.78,86.39-46.27,29.17-12,57.62-25.32,83.83-43.1A235.4,235.4,0,0,0,287.17,0h21.2V409.27h58.92c3.31,10.06,4.52,162.54,1.89,188.51-.29.28-.58.6-.9.87s-.67.7-1,.7q-169.5.36-339,.65c-3.37,0-6.73-.31-9.94-.47C15.6,590.25,14.63,431.89,17.32,409.78Zm275-381.39c-4.27,4.52-6.9,7.18-9.38,10s-4.65,6.16-7.44,8.74c-32.6,30.1-70.22,52.13-110.87,69.46-30.1,12.83-61,24-88.41,42.54C52.8,175,33.33,194,24.16,221.64c-5.26,15.85-6.65,32.12-5.21,48.84a92.09,92.09,0,0,0,18.47,48.26c23.07,30.63,65.17,44.18,102.93,33.1,48-14.1,66.42-51.92,67-93.16.35-24.76-8.9-47.53-27.48-65.38-2.2-2.12-4-4.68-7.33-8.67,7.78,0,13.26.1,18.73,0,4.29-.1,6.92,2,9.52,5.27C222.48,217,229.51,248.46,223,281.38c-8.62,43.83-35.35,73.62-78.83,87.06-3.13,1-6.23,2-10.4,3.39v54.94H33c-2.51,33.4-1.38,146.33,1.27,155.08,106,.19,211.82-.35,317.55.39,2.62-11.29,2.57-143.85-.22-155.45-19.19-.31-38.9,2.09-59.21-2Z"/></g></g></svg>