<svg xmlns="http://www.w3.org/2000/svg" viewBox="0 0 368.43 600"><title>Asset 95</title><g id="Layer_2" data-name="Layer 2"><g id="Layer_1-2" data-name="Layer 1"><path d="M368.43,149.35c-18.58-2.73-33.34-11.46-48.18-20.33-21-12.55-38.85-28.9-56.68-45.33-7.25-6.67-13.83-14.1-21.28-20.52-9.86-8.48-20.27-16.33-30.47-24.41a79.3,79.3,0,0,0-41.22-17.1,77,77,0,0,0-19.23.63c-14.23,2.09-28.1,5.81-39.19,15.62-10,8.87-17.42,19.28-21,32.84a67,67,0,0,0,1,37.31,51.49,51.49,0,0,0,23.28,28.53c11.59,6.83,33,14.32,36.61,15.69,3,1.14,5.62,2.14,9.09,3.73-5.57,1.15-11.19,2.12-16.71,3.5-13.15,3.3-25.76,7.9-36.13,17.09-12.65,11.2-21.49,24.23-22.13,42-.47,13,1,25.59,7.74,36.59,4.23,6.93,10.34,13.1,16.71,18.25A69.13,69.13,0,0,0,145,288.11c13.07,1.87,25.25-.71,37-5.82a150.93,150.93,0,0,0,22.1-11.69c11.83-7.7,23-16.45,34.81-24.15,12.22-7.95,25.43-12.09,40.53-10.18,9.65,1.22,18.28,4,24.73,11,3.28,3.53,5,8.83,6.49,13.63,4.06,13.26-3.44,28.19-16.31,33.59-4,1.67-7.85,3.59-13.35,6.12,3.89,1.89,7.05,3.71,10.41,5A28.67,28.67,0,0,1,310,332.48a58.43,58.43,0,0,1-.63,10.52c-2.92,14.61-19.64,21.28-34.27,21.17-15.13-.1-28.62-5.77-41.35-13.13-5.88-3.4-10.54-8.86-16.24-12.64-11.91-7.91-23.83-15.89-36.36-22.74-9.71-5.3-20.31-6.86-31.87-5.55a91.56,91.56,0,0,0-32,9.59c-11.77,6.1-20.42,15.64-26.6,28.12-6.76,13.66-5.86,27.36-4.94,41.46a14.21,14.21,0,0,0,1.11,4.43c6.84,16.28,18.26,28.11,33.75,36.67,11.36,6.27,23.26,9.14,35.78,11.23a60.11,60.11,0,0,1,7.28,1.64c-16.74,1.94-32.71,6.27-47.1,14.72C99.41,468,86.09,481.71,84.12,502.72a127,127,0,0,0,.93,27.74c1.34,10.5,8.35,18.19,15.33,25.65,11,11.76,25.23,17.2,40.6,19,10.66,1.22,21.82,2.65,32.26-1.67a255.86,255.86,0,0,0,27-12.66,193.46,193.46,0,0,0,24.56-16.37c7.54-5.88,14.21-12.86,21.34-19.27,11-9.87,21.94-19.86,33.22-29.42a200.27,200.27,0,0,1,19.42-14.32c12.31-8.11,24.46-16.59,38.23-22.16A98.34,98.34,0,0,1,353.38,454c2.82-.82,6,.23,9.35,1.17-1.21,3-2.72,6.61-4.36,10.26-7.25,16.09-14.55,32.26-21.69,48.4-4.12,9.3-9.65,18.38-6.74,29.33a26.82,26.82,0,0,0,1.7,5.61c6.32,12.18,6.22,24.34.12,36.5-4,7.9-11.71,10.2-19.27,12.43-13.4,4-27.14,1.53-40.75,1.59-11.18,0-22.37.21-33.55,0-18.39-.28-36.78-.51-55.14-1.31C166,597.29,149,595.89,132,594.69c-15.83-1.12-30.73-5.93-45.09-12.27-9.36-4.14-19-8.2-27.2-14.17-10.43-7.63-20-16.69-29-26C18.34,529.6,11.92,513.26,5.91,497c-2.26-6.11-2.08-13.13-3.13-19.71-.55-3.44-1.87-6.82-2-10.25-.37-14.4-1.46-28.89-.29-43.18,1.22-15,4.71-29.75,11.89-43.33.74-1.39.47-3.31.86-4.29,19-36.86,48.95-61.54,87.19-76.64l.22-1.84c-5.41-2.85-11-5.48-16.21-8.6-7.7-4.58-15.6-9-22.64-14.45A222.74,222.74,0,0,1,39.2,254.15c-4.74-4.89-8.41-10.82-12.49-16.34-1.29-1.75-2-3.17-3.52-5.51a86,86,0,0,1-10.73-22.08C10.84,205,9.4,200.37,7.83,194.8a156,156,0,0,1-3.74-19.92c-2.14-8.76-1.87-17.49-1.43-26C3.25,137.34,5.93,125.91,8,114.5a134.48,134.48,0,0,1,4.13-16.91,133.22,133.22,0,0,1,14.2-29.8c9-14.52,20.81-25.86,33.88-35.95A128,128,0,0,1,96.6,12.62,222.15,222.15,0,0,1,151.37,1.08C162.45.16,173.64.69,184.78.52c10.27-.15,20.54-.6,30.81-.51,20.24.19,40.47.7,60.7,1,10.66.17,21.32-.09,32,.42,9.9.46,19.41,3.42,27.25,9.41,6.67,5.11,10,12.76,9.54,21.4-.36,7.33-.85,14.34-4.88,21.32-6.7,11.6-2.08,23.26,2.94,34.48,5.41,12.1,10.65,24.29,15.94,36.45,2.73,6.28,5.49,12.55,8.09,18.88C367.8,145,367.91,146.89,368.43,149.35Z"/></g></g></svg>