<svg xmlns="http://www.w3.org/2000/svg" viewBox="0 0 277.72 615.69"><title>Asset 77</title><g id="Layer_2" data-name="Layer 2"><g id="Layer_1-2" data-name="Layer 1"><path d="M.45,359.91c-.14-1.43-.64-2.94-.37-4.29,3-14.61,9.06-28.09,16.41-40.88a162,162,0,0,1,18.84-26.85c5.48-6.21,9.91-13.4,15.75-19.2,11.61-11.54,22.55-23.93,37.29-31.91,7.57-4.11,14.78-8.88,22.3-13.09,2.54-1.42,5.52-2.07,8.32-3,12-4,24.52-5.55,36.75-3.08,14.81,3,23.45,9.34,25.49,26,.84,6.89-1.11,14.55-3.41,21.31-6.41,18.89-13.68,37.48-20.58,56.21-6.28,17-12.45,34.06-18.81,51-3.32,8.87-7.11,17.55-10.41,26.43-3.83,10.27-7.32,20.67-11,31-2.23,6.26-4.58,12.48-6.82,18.73-3.3,9.24-6.49,18.5-9.83,27.72-1.76,4.84-3.76,9.58-5.59,14.39-4.42,11.65-9.25,23.18-13.08,35A163.6,163.6,0,0,0,75.29,553c-.59,4.29,1.19,9.25,3,13.44,2.72,6.38,9,8.1,15.21,8.76,13.69,1.45,25.78-2.41,36.86-10.69,7.09-5.31,13.13-11.54,19.3-17.76,8.24-8.31,14.72-17.86,20.71-27.82,3.77-6.27,7.92-12.31,11.59-18.63,2.66-4.59,4.71-9.54,7.24-14.21,2.13-3.93,4.54-7.72,6.92-11.51.37-.59,1.28-.86,3-1.91,0,2.33.33,3.91-.05,5.29-2,7.19-3.51,14.62-6.41,21.44a169.18,169.18,0,0,1-18.48,33c-5.41,7.48-11.21,14.68-16.94,21.93-4.19,5.32-8.37,10.68-12.88,15.72a93.51,93.51,0,0,1-9.86,9.11c-6.2,5.18-12.25,10.6-18.9,15.12-6.11,4.16-13,7.09-19.42,10.88-9.5,5.66-19.94,8.38-30.69,9.74-12,1.51-24.13,1.51-34.53-6a21.72,21.72,0,0,1-9.51-18.28c.06-12.75,2.63-25.07,6.69-37.09,5-14.66,9.87-29.34,15.18-43.87,6.39-17.48,13.31-34.76,19.74-52.22,4.82-13.1,9.07-26.41,13.83-39.54,6.34-17.5,13-34.91,19.38-52.38q8.27-22.47,16.31-45c4.18-11.74,8.56-23.43,12-35.39a41,41,0,0,0,.86-16.27c-.8-6.15-5.93-9.47-11.44-11.34a32,32,0,0,0-17.19-1.06c-8.44,1.73-16,5.52-23.6,9.09-4.52,2.12-8.45,5.92-12,9.58-6.8,7-13.33,14.24-19.66,21.65-9.85,11.53-17.41,24.55-24.12,38.13-3.43,6.93-7.34,13.64-11.2,20.36a36.94,36.94,0,0,1-4,4.91Z"/><path d="M233.67,16.25a8.38,8.38,0,0,1-.89,3.47c-.2.34-.39.69-.6,1C228.68,26.87,225,32.92,221.36,39c-1.76,2.9-3.21,3.19-6.19,1.51-3.61-2-4.45-3.69-2.78-6.68,2.83-5.05,6-9.93,8.87-14.93.77-1.32,1.44-2.7,2.2-4.25.36-.75.76-1.55,1.19-2.41l-.18,0a4.24,4.24,0,0,1,1.84-.28,4,4,0,0,1,2,.83C229.73,13.68,231.5,14.84,233.67,16.25Z"/><path d="M241,124.52a20.65,20.65,0,0,1,2.7,1c6.68,4,13.41,8,20,12.1,3.11,2,3.08,4,.44,8.15-1.76,2.76-2.75,2.88-6.18.81-6.38-3.86-12.72-7.8-19.17-11.54-2.42-1.4-3-3.12-1.63-5.33A60.66,60.66,0,0,1,241,124.52Z"/><path d="M102.2,100.88c-3.64,0-7.28,0-10.92,0-3.11,0-4.11-1.26-4.11-4.83,0-4.05,1-5.56,3.92-5.62,4.63-.11,9.27-.1,13.91-.08,2.81,0,5.61.16,8.42.2,3.93.06,5.17,1.38,5.18,5.57,0,4-.94,5-5,5-3.82,0-7.63,0-11.44,0Z"/><path d="M186.68,174.83c0,4,.09,7.94,0,11.91-.1,3.44-1.34,4.4-5.15,4.34s-5-1-5-4.47c-.06-7.62,0-15.23.12-22.85.07-3.54,1.91-4.76,6.17-4.55,3.34.16,4.23,1.12,4.25,4.7s0,7.28,0,10.92Z"/><path d="M129.16,60.79c-1.5,2.41-2.42,4.95-4.23,6.31-.9.68-3.62-.47-5.2-1.36-6.07-3.42-12-7.1-18-10.62-3.25-1.9-3.69-3.45-1.75-6.88,2-3.59,3.42-4.05,6.66-2.18,6.32,3.65,12.67,7.24,18.92,11C126.84,57.84,127.74,59.29,129.16,60.79Z"/><path d="M242.12,67.22c-3.16-.83-4.31-3.2-5.11-5.81-.68-2.18.5-3.28,2.34-4.28,6.28-3.41,12.45-7,18.7-10.47,3.86-2.13,5.34-1.74,7.4,1.69s1.59,5.23-2.06,7.32c-6.47,3.71-13,7.27-19.57,10.88A12.94,12.94,0,0,1,242.12,67.22Z"/><path d="M129.14,130.93c-1.19,1.32-1.94,2.66-3.08,3.33-6.87,4-13.86,7.78-20.76,11.73-1.84,1-3.09.57-4.31-.9-3.52-4.24-3-7.05,1.83-9.75,5.62-3.15,11.17-6.46,16.88-9.44,1.58-.83,4.2-1.61,5.35-.86C126.79,126.16,127.65,128.64,129.14,130.93Z"/><path d="M154,36.76c-.33,3.25-3.1,3.81-5.15,5s-3.58.18-4.61-1.59c-2.75-4.74-5.39-9.54-8.1-14.3-1.06-1.87-2.13-3.73-3.29-5.53-1.94-3-1.71-4.21,1.3-6,4.65-2.83,5.23-2.74,8,1.89,3.69,6.09,7.29,12.24,10.9,18.38A15.82,15.82,0,0,1,154,36.76Z"/><path d="M153.86,154.93a19.88,19.88,0,0,1-1,2.16c-4,6.62-8.18,13.17-12.07,19.87-1.56,2.68-3.08,2.84-5.61,1.38-4.29-2.47-5.24-3.49-3.7-6.18,3.94-6.89,8.1-13.65,12.25-20.41,1.12-1.83,2.75-3.08,5-1.71C150.68,151.27,153.54,151.67,153.86,154.93Z"/><path d="M233.1,174.92c0,2.24-3.45,5.6-6,5.71a5.09,5.09,0,0,1-3.68-2.35c-3.93-6.71-7.59-13.59-11.39-20.39-1.56-2.81.06-4.32,2.14-5.71,3.15-2.1,4.64-2.14,6.43.21a42.81,42.81,0,0,1,3,5.14c2.69,4.76,5.39,9.5,8.05,14.27C232.23,173,232.73,174.16,233.1,174.92Z"/><path d="M262.24,101.38c-3.83,0-7.66.07-11.49,0-3.48-.08-4.4-1.26-4.3-5.17.11-4.12.92-5.2,4.27-5.19q11,0,22,.23c4.12.06,5.22,1.46,5,6.14-.17,3.82-.82,4.36-5,4.32-3.5,0-7,0-10.48,0Z"/><path d="M187.3,16c0,3.66.08,7.33,0,11s-1.16,4.41-5.11,4.36c-4.11-.06-5.19-.81-5.2-4.27,0-7.67.08-15.33.31-23,.09-3,1.62-4.05,5.09-4.11s4.92.91,5.06,4c.19,4,0,8,0,12Z"/><path d="M184.43,51.48c20.36-1.32,44.6,19.17,42.5,46.62-1.8,23.46-20.19,40.28-43.35,40.46-23.41.18-43.51-19.42-43.75-42.71C139.56,70.35,163,49.5,184.43,51.48Z"/></g></g></svg>