<svg xmlns="http://www.w3.org/2000/svg" viewBox="0 0 625.83 600"><title>Asset 9</title><g id="Layer_2" data-name="Layer 2"><g id="Layer_1-2" data-name="Layer 1"><path d="M367.35,308.38c16.3,31.41,34.55,59,56.3,84.15A238.06,238.06,0,0,0,459,425.63c22.59,17.23,48.35,23.47,77.07,20.3,27.56-3.05,45.39-18.19,57.36-41.35,12.88-24.92,14.79-52.11,13.74-79.61-.13-3.38-2.24-7.14-1.26-10,1.21-3.46,4.38-8.1,7.3-8.57s8.47,2.94,9.45,5.81a63.31,63.31,0,0,1,2.89,20.08c.08,26.44,1,53-.88,79.31-2.74,37.6-11.25,73.92-29.57,107.58C565.84,572.92,520.9,598.35,460,599.93c-58.48,1.53-103.45-23.43-141-65.43-35-39.18-60.56-84.47-82.35-131.87-14.58-31.71-27.57-64.15-41-96.4C193.53,301,193,295.08,191,286.81c6.66.82,11.78.18,15.54,2.14,20.31,10.61,41.85,13.9,64.43,12.78,36.73-1.81,62.08-21.54,73.42-56.88,9-28,9.44-55.1-5.73-81.38-7.16-12.39-17.31-20.67-30.51-25.93-41.17-16.38-81.6-1.37-101.75,38.05-3.48,6.8-6.53,13.89-10.76,20.2-1.29,1.92-5.92,2.44-8.84,2.08-1.47-.18-3.45-3.72-3.57-5.83a40.49,40.49,0,0,1,1.22-12.6c9.66-35.38,18.91-71,38.59-102.53,13.14-21.06,27.6-40.68,49.51-54.22,32-19.78,66.8-26,103.09-21.07C428,8.78,468.47,35.8,492.24,83.39c26.91,53.91,22.09,107.24-10,157.94C462,273.24,431.66,291,396.05,300.88,387.2,303.34,378.27,305.53,367.35,308.38Z"/><path d="M169.73,591.15c-26.42.36-50.21.71-74,1-11.08.13-22.16.19-33.24.07-14.49-.15-29,.09-43.45-1C3.3,590.09.15,586.34,0,570.44c-.11-11.93.91-23.88.94-35.82q.21-84.45.12-168.92c0-53.76-.17-107.52-.14-161.28q0-83.17.41-166.37c0-5.76,1.28-11.51,2.14-18.72,7.4-1,14-2.52,20.51-2.56,41.84-.24,83.68-.18,125.53-.15a81.12,81.12,0,0,1,12.76.75c5.59.89,9.16,4.47,9.87,10.16a104.32,104.32,0,0,1,.52,12.76q0,235.64-.11,471.28c0,19.63.17,39.27-.12,58.9C172.36,576.22,171,581.94,169.73,591.15Z"/></g></g></svg>