<svg xmlns="http://www.w3.org/2000/svg" viewBox="0 0 486.34 650"><title>Asset 52</title><g id="Layer_2" data-name="Layer 2"><g id="Layer_1-2" data-name="Layer 1"><path d="M68.67,605.91a63.53,63.53,0,0,0,24.1,8.64c42.2,6.59,74.93-9.74,100.85-42.07,19.63-24.48,31.89-52.76,41.6-82.29,8.42-25.64,13.43-52.07,18.49-78.52,14.64-76.59,35.69-151.19,70.08-221.55a541.82,541.82,0,0,1,39.1-67.47c.81-1.18,1.55-2.41,2.7-4.2-10.6,0-20.63.33-30.63-.06-34.33-1.36-66.14-10.39-94-31.34C233.31,81.31,225.36,76,215.35,75c-12.1-1.19-20.49,3.33-25.87,14.3-2.27,4.64-4.21,9.47-6.75,14-12.53,22.21-39.28,17.8-49.75-.76-5-8.85-6.67-18.42-6.13-28.41,1.36-24.9,11.13-45.45,32.06-59.8C172.18,5.18,187.3,1.57,203.16.32c36.44-2.87,63.85,13.9,87.1,39.77,9.87,11,19.42,22.26,32.13,30.19,18.4,11.49,38.08,13.17,58.53,7,12.4-3.75,21.22-12.36,28.24-22.87,7.53-11.25,14.61-22.8,22.29-33.95A59.82,59.82,0,0,1,442,9.1c9.25-7.86,19.82-8.36,30.66-3.88,9.79,4.05,14.49,13.83,13.63,26.39-1,14.31-7.56,26.1-16.29,36.89-12,14.82-27.18,25.58-44.11,34.08a19.33,19.33,0,0,0-6.57,5.44C405.75,125.88,396.88,146.2,389,167A710.43,710.43,0,0,0,351.4,306.48c-6.69,41.86-15.13,83.21-27.48,123.74-9,29.67-18.05,59.37-31.19,87.57C277.45,550.59,258,580.47,231,605c-28.31,25.76-61.24,41.68-99.58,44.31-31.08,2.12-61.88-.19-90.9-13.21-14.1-6.32-26.46-15-33.88-29-7.15-13.5-9.33-27.72-2.46-42,6.43-13.42,23.69-22.21,38.58-20.32,17.46,2.21,30.26,13,33.3,29C77.73,582.55,77.77,593.49,68.67,605.91Z"/></g></g></svg>