<svg xmlns="http://www.w3.org/2000/svg" viewBox="0 0 778.97 600"><title>Asset 49</title><g id="Layer_2" data-name="Layer 2"><g id="Layer_1-2" data-name="Layer 1"><path d="M185,299.74q0,66.87,0,133.75c0,1.74,0,3.49.06,5.23.7,11.13,6.13,16.26,17.31,16.46a71.57,71.57,0,0,1,8.55.34c14.94,2.05,24.79,12.69,25.16,28.74.57,24.58.39,49.18.34,73.77,0,6.32-.08,12.76-1.26,18.92-2.79,14.65-13.43,23-28.28,23q-87.34,0-174.69,0C14.08,600,1.44,588.7,1.1,570.55q-.82-42.81,0-85.66c.32-17.85,12.77-29.4,30.6-29.65,12.53-.19,25.06,0,37.6-.08,12.22-.05,18-5.52,18-17.64q.08-137.55,0-275.11c0-11.86-5.77-17.37-17.7-17.43-12.53-.07-25.07.08-37.6,0C12.17,144.74.07,132.46,0,112.57,0,85.92,0,59.26,0,32.61,0,14.5,11.09-.17,32.62,0,87.2.43,141.78.31,196.36,0,209.63,0,219.66,5,226,16.18a332.47,332.47,0,0,1,15.65,32q67.89,156.2,135.58,312.5A50.81,50.81,0,0,0,382.84,371c4.29,5.71,9.89,5.63,14.2-.1a44.72,44.72,0,0,0,4.94-9.17q69.93-162,139.85-324.11A173.81,173.81,0,0,1,553.67,15C560.1,4.65,569.65,0,582.09,0c55,.23,110.11.1,165.17.11,19,0,31.45,12,31.58,31.06q.28,41.17,0,82.35c-.11,19-12.41,31.14-31.44,31.36-12.38.15-24.75,0-37.13,0-13.11,0-18.64,5.4-18.65,18.43q0,136.85,0,273.69c0,12.49,5.63,18,18,18.08,12.05,0,24.11-.06,36.17,0,19.53.17,31.79,11.67,32.08,31.15q.62,41.18,0,82.34c-.28,19.91-12.47,31.31-32.25,31.32H573.38c-18.06,0-29.78-10.59-30.6-28.68-.66-14.72-.35-29.5-.37-44.25,0-13.64-.25-27.3.22-40.93.71-20.14,12-30.75,32-31a39.28,39.28,0,0,0,8.46-.91c5.64-1.36,9-5.22,10-10.83a48.26,48.26,0,0,0,.71-9q0-134.46,0-268.93a54.11,54.11,0,0,0-.92-10.87c-1.65-8-7.47-11.2-15.31-8.85-6.38,1.91-9.66,6.72-12.12,12.47Q541.39,214.59,517.2,270.9,483,350.81,448.72,430.73a58.25,58.25,0,0,0-2.36,6.21c-2.84,9.32,1.55,15.83,11.34,16.3,7.44.36,14.91.14,22.37.16,18.27.06,27.33,9,27.36,27.11q.09,46.39,0,92.81c0,17.83-8.95,26.68-26.6,26.68H297.57c-16.84,0-26-8.89-26.07-25.77q-.19-47.34,0-94.7c.06-17,9.35-26,26.42-26.12,7-.05,14,.06,20.94-.05,12.78-.2,17.69-7.33,12.72-19.11C318,402,304.1,369.86,290.33,337.68Q252.17,248.6,214,159.5c-2.62-6.13-5.73-11.69-12.73-13.76-7.86-2.31-13.67.87-15.29,8.9a58.11,58.11,0,0,0-.92,11.35Q185,232.86,185,299.74Z"/></g></g></svg>