<svg xmlns="http://www.w3.org/2000/svg" viewBox="0 0 590.4 600"><title>Asset 29</title><g id="Layer_2" data-name="Layer 2"><g id="Layer_1-2" data-name="Layer 1"><path d="M.33,581.36v-19.3c8.59-1.71,16.76-3.9,25.08-4.91,29.71-3.62,37.33-18.23,41.34-44.63.64-4.19.18-8.55.18-12.83q0-202.42-.06-404.83A120.12,120.12,0,0,0,64.1,69.5c-4.1-18.81-16.74-29-35.25-32.57-4.7-.9-9.47-1.5-14.13-2.55-16-3.6-16-3.65-13.56-21.69,21.25-6.27,167.88-7,200.34-.85.35,3.81,1,7.92,1.07,12,.15,5.85-3.33,8.62-8.79,9.5-7.37,1.19-14.75,2.35-22.08,3.77-16.83,3.27-30.8,13.14-33.58,33.71-1.21,9-2.52,18-2.56,27-.25,48.73-.11,97.46-.1,146.19a107.79,107.79,0,0,0,.13,11.23c1.18,11.22,7.57,18.61,18.6,18.23C206.39,271.72,253.3,258,286,213.05c19.37-26.7,31.58-56.88,44.49-86.84,9.92-23,20-46.08,31.87-68.14,15.36-28.59,38.86-48.5,71.31-55C464-3,493.5-1.58,518.06,20.79c11.33,10.33,17.72,23.3,19,39.7H520.65c-1.27-2.73-3-5.91-4.24-9.28-7.11-19.77-22.29-30.44-41.94-33-35.47-4.58-65.23,6.35-86.86,36.39C371.5,77,360.86,102,350.66,127.32c-13.37,33.2-26.89,66.31-48.78,95.21-16.44,21.71-35.87,39.57-61,50.75-2.7,1.2-5.15,2.93-9.33,5.35,32.21,5.7,61,14.38,87.77,29.46,32.76,18.46,56.11,45.41,74.15,77.92,13.94,25.14,21.15,52.33,27.92,79.88,6.61,26.89,11.52,54.3,24.25,79.43,12.27,24.24,30.91,38.19,58.58,36.78,27.87-1.43,50.71-12.25,63.28-39.05,1.36-2.9,2.42-5.95,3.73-8.87,4-8.92,7.52-9.87,19.16-4.77-4.31,28.6-20.28,48.61-46.08,60.72-28,13.15-57.08,11.84-86.18,3.77C414,581.67,383,552.58,358.07,515.64c-23.84-35.28-38.86-74.83-56.19-113.34-9.17-20.38-19.28-40.71-31.85-59.1-21.15-30.95-52.37-46.07-89.47-49.47-6.36-.58-12.66-1.88-19-2.49-17.19-1.64-24.74,4.9-26,22.34-.19,2.67-.08,5.35-.08,8q0,91.58.1,183.14a77.05,77.05,0,0,0,2.13,19c5.67,21.73,15.65,30.06,37.89,33.17,8.39,1.17,16.71,2.92,26,4.57v18.88a14.43,14.43,0,0,1-1.2,1.24,3.09,3.09,0,0,1-1.3.83,62.68,62.68,0,0,1-7.93.81q-92.37,0-184.72-.17C4.94,583.06,3.44,582.26.33,581.36Z"/></g></g></svg>