<svg xmlns="http://www.w3.org/2000/svg" viewBox="0 0 678.33 600"><title>Asset 83</title><g id="Layer_2" data-name="Layer 2"><g id="Layer_1-2" data-name="Layer 1"><path d="M678.18,475.72c1.6,28.09-10.31,49.78-14.22,56.34a101.75,101.75,0,0,1-18.13,22.76c-7.12,6.84-14.05,14.07-22,19.84-16.4,11.9-35.07,18.62-55,22.25-15.22,2.78-30.4,4.3-45.7,1.9-14.9-2.35-29.32-5.89-43-13A115.23,115.23,0,0,1,433.13,542c-5.29-8.86-7.65-19.49-11.32-29.31-.37-1-.64-1.94-1.31-4-3.21,4.12-5.78,7.64-8.57,11-16.07,19.23-36.75,31.47-60,39.92-15.57,5.65-31.7,7.46-48.09,8.88a206.66,206.66,0,0,1-51.39-2.16c-20.08-3.31-38.93-10.64-56.86-20.59-19.16-10.64-33.9-25.4-46.07-43.41-13.67-20.22-18-38.95-21-51.75-5.25-22.44-4.69-37.71-4.37-67.52.61-56.56-.57-113.12-.8-169.68,0-6.28-.08-11.66,0-21.52,0-5.37,0-15.92,0-21.21,0-3.47,0-6.6-.17-10-.13-14.2-.68-28.32-6.29-41.84-7.63-18.42-20.64-30.18-40.47-34.34C66,82.31,56,81.55,45.66,84.53c-16.1,4.62-26.41,15.64-34.42,29.38C7.61,120.15,4.75,126.83.3,133.24A110.31,110.31,0,0,1,.56,114,115.36,115.36,0,0,1,15,69.23,119.23,119.23,0,0,1,44.56,33C56.81,23,70.41,14.39,85.73,9.19,109.54,1.1,134-2,158.87,1.27c23.71,3.09,45.48,12.11,63.73,27.61,11.93,10.12,20.83,23,28.09,37.21,9.35,18.34,8.37,37.46,8.15,56.84-.15,13.13,0,26.27,0,39.41.07,16.21.24,32.4.29,48.61.05,16,.1,31.93,0,47.9,0,4.49-.9,9-1,13.48-.05,3.57.74,7.15.76,10.74.12,13.6-.57,27.24.26,40.78,1.22,19.82,2.44,39.75,5.58,59.31s9.2,38.71,22,54.56a66.73,66.73,0,0,0,15.12,14c13.17,8.51,27.29,13.71,43.69,13.56,14.31-.14,27.76-2.45,39.67-9.71,8.29-5,15.44-12.19,22.45-19.07,8-7.89,10.61-27.36,10.94-42.29.69-30.86.09-49-.92-84.22-.8-27.48-.13-29.21-1.29-47.6-2.75-43.95-8-57.53-17.16-67.73a57.2,57.2,0,0,0-22-15.12c-13-4.84-27.26-4.26-42.09.21-12.35,3.71-20.55,13.94-27.36,24.59-4.4,6.88-7.84,14.38-12.47,23a102.52,102.52,0,0,1,1.69-31,112,112,0,0,1,7.46-22.28,141.3,141.3,0,0,1,27-39c12.37-12.78,27-22.29,42.9-29.41a115.06,115.06,0,0,1,47.76-10.54c14.21.05,28.64-1.52,42.45,2.66a268.51,268.51,0,0,1,32.3,12.47c5.78,2.61,10.94,6.74,16.09,10.54,20.48,15.14,33.3,35.65,38.59,60.15,2.79,12.87,2.45,26.48,2.87,39.78.58,18.53.53,37.08.79,55.64.4,29.55,1.23,59.12,1.11,88.69-.09,24.93-.53,49.87,0,74.78.31,15.45.61,31.12,8.08,45.49,9.39,18,23.73,28.66,44,31.68,10.77,1.61,21.36,1.56,30.84-3.59A76.71,76.71,0,0,0,659,498.3c8.44-8.83,14-18.73,16.52-23.41,1-1.73,1.7-3.19,2.22-4.22C677.88,471.84,678.06,473.6,678.18,475.72Z"/></g></g></svg>