<svg xmlns="http://www.w3.org/2000/svg" viewBox="0 0 475.85 600"><title>Asset 14</title><g id="Layer_2" data-name="Layer 2"><g id="Layer_1-2" data-name="Layer 1"><path d="M0,301A388.92,388.92,0,0,1,21.13,170.74C35.44,128.7,57.27,90.89,89.49,60,121.88,29,160.08,9,205.11,2.61,266.64-6,322.64,6.49,371.45,45.7c25.42,20.42,45.74,45.53,61.55,74.17,20,36.12,31.79,75,38.4,115.48,5.7,35,5.24,70.38,2.44,105.39-3.78,47.3-16.21,92.7-38.86,134.88-20.08,37.41-47,68.64-82.57,92.09-20.47,13.49-43,22.24-66.89,27.18-51.19,10.58-100.54,5-147-19.55C96.31,553,65.82,518.77,42.69,477.44,21.86,440.22,10.41,399.91,4.21,358.11,1.42,339.28,1.33,320.05,0,301ZM314.37,44.69a7.67,7.67,0,0,0-9.27-.41c-7.32,5-10.24,11.55-12,19-4.52,19.42-9.06,38.84-13.76,58.21q-18.4,76-37,152-14,57.47-27.95,114.94c-6.68,27.6-13.37,55.19-19.85,82.84-6.08,26-12.09,52-17.74,78.09a33.6,33.6,0,0,0,18,37.29c23.24,11.43,47.41,12.68,71.72,4.33,23.67-8.13,41.46-24.43,56.79-43.71,19.29-24.26,32.67-51.72,42.61-80.82,8.92-26.11,16-52.75,18.83-80.35,2.26-22.34,5.61-44.62,6.64-67,.84-18.55-1.05-37.22-1.64-55.84a450.31,450.31,0,0,0-15.75-104.14c-10.23-37.56-24.59-73.36-48.95-104.3C322.13,51,318.24,47.91,314.37,44.69ZM86.4,324.9c0,8.9-.69,15.79.13,22.5,2.93,24,5.9,48,9.75,71.81,5.69,35.29,14,70,29.65,102.35a103.5,103.5,0,0,0,19,26.88c10.81,11,22.14,7.72,27.52-6.66A136.89,136.89,0,0,0,177.24,526q19-79.19,37.91-158.4c9.32-38.76,18.94-77.45,28.17-116.23,15-63.14,30-126.29,44.5-189.55,2.14-9.36,2.08-19.35,2-29,0-9.94-6.25-16.92-14.68-20.79-15.7-7.21-32.35-10.24-49.7-7.73-36.32,5.25-63.43,24.87-84.09,54.3-27,38.46-39.69,82.37-47.56,127.9-3,17.52-4.69,35.31-6.19,53-1.68,19.84-2.9,39.75-3.45,59.65C83.94,308.35,85.73,317.65,86.4,324.9Z"/></g></g></svg>