<svg xmlns="http://www.w3.org/2000/svg" viewBox="0 0 491.64 600"><title>Asset 23</title><g id="Layer_2" data-name="Layer 2"><g id="Layer_1-2" data-name="Layer 1"><path d="M189.23,300.5q0,118.25.08,236.49a172.25,172.25,0,0,0,1.75,23.46c1.51,10.89,6.71,14.87,17.62,14.17s20.64-4.51,30.27-9.33a107.87,107.87,0,0,1,19.69-7.72c8.6-2.33,16.57,1.16,20.55,7.75A21,21,0,0,1,277,589.44c-6.66,7.62-15.53,10.37-25.22,10.32-27.35-.16-54.71-.76-82.07-.91q-44.86-.26-89.73,0c-16.46.11-32.91,1-49.37,1.13a41.8,41.8,0,0,1-14.14-2.25c-8-2.85-13.72-8.29-15.82-17-3.34-13.89,6.94-26.08,21-23.79,6.6,1.07,12.88,4.23,19.27,6.54,9.48,3.43,18.72,7.76,28.43,10.2,12.9,3.24,19.8-2.26,21.27-15.54A183.25,183.25,0,0,0,92,538.41q.21-177.18.25-354.35c0-41.32.21-82.63-.09-123.95a109.43,109.43,0,0,0-3.26-24c-2.08-8.88-7.47-12.58-16.33-10.65-9.31,2-18.33,5.46-27.34,8.68-7.11,2.54-13.8,6.48-21,8.37-10.31,2.7-19.15-2-22.59-10.6C-2.12,22.69.78,10.23,9.14,5.66,14.91,2.5,21.93.07,28.41,0,56-.18,83.63.92,111.24,1c67.42.24,134.87-1.06,202.25.67,53.65,1.37,102,18.89,139.74,59.08,21.83,23.25,33.86,51.28,37.28,83.09a190.72,190.72,0,0,1-10.07,85.25c-14.14,39.77-41.69,67.74-79,86.41a216.32,216.32,0,0,1-89.11,22.79c-26.06,1-52.16,1.33-78.25,1.46-12.52.06-21.4-6.77-24.79-17.55-4.07-13,4.13-24.35,17.57-24.58A33.34,33.34,0,0,1,247,303.5c33.42,23.6,82.48,9.47,108.31-23.38,19.88-25.29,29.7-54.56,33.58-86,3.19-25.81,2.91-51.58-4.73-76.79C369.85,70,331.11,39.5,281.72,37.36c-24.54-1.06-49.12-1.19-73.68-1.6-12.84-.21-18.64,5.43-18.71,18.36-.15,27.63-.11,55.26-.09,82.89,0,27.37.13,54.75.16,82.12q0,40.69,0,81.37Z"/></g></g></svg>