<svg xmlns="http://www.w3.org/2000/svg" viewBox="0 0 442.54 600"><title>Asset 1</title><g id="Layer_2" data-name="Layer 2"><g id="Layer_1-2" data-name="Layer 1"><path d="M442.17,352.52c0-4.79,0-5.85-.05-5.85-12.25,0-30.82.23-43.07.19-2.77,0-6.24-.16-10.46-.4,2.07-3.1,4.19-6.06,5.54-8,6.2-8.79,12.6-17.43,18.58-26.36,9.65-14.35,16.1-30.21,21.16-46.65,6.55-21.27,8.2-43.06,7.86-65.27-.48-31.65-9.46-60.7-24.45-88.16-3.73-6.86-8.43-13.16-12.61-19.78-7.92-12.52-18-23.36-28.95-33A301.25,301.25,0,0,0,341.1,33.29,197,197,0,0,0,276.62,6.52l-.31-.08a206.88,206.88,0,0,0-41.3-6c-4.49-.21-8.85-.31-13-.3-31.25-1.37-61.14,5.1-90,16.6A212.51,212.51,0,0,0,72.75,53,209.19,209.19,0,0,0,14.9,131.45c-13.67,32.21-17,65.86-13.7,100.13,2.46,25,10.53,48.78,22.19,71.16,16.42,31.52,39.94,56.67,69.21,76.61a208.47,208.47,0,0,0,60.31,28.09c19.33,5.56,38.88,9.78,59.17,10.07s40.52-1.08,60.51-5.64a225.86,225.86,0,0,0,59.53-22.6c16.1-8.91,31.21-19.33,44.4-32.34,1.63-1.6,3-2.49,5.64-4.93,0,6.3.68,14.68.74,20.76.17,17.39-.13,34.77-3,52-5.84,35.19-18.38,67.36-41.9,94.82a149.05,149.05,0,0,1-130,51.28c-43.25-4.72-77.83-24.61-104.18-59C86.37,489,76,462.94,70.17,435.07a.22.22,0,0,1,0-.11c-.26-1.2-.5-2.38-.72-3.52a.32.32,0,0,0,0-.09c-1.25-6.52-2-12-2.48-16.19-.36-3.06-.63-6.1-.86-8.92a.49.49,0,0,1,0-.11c-.43-6.43-.88-13-1.43-20.74L.53,391.65c0,4.58-.06,8.21,0,11.82,0,1.3.07,2.59.13,3.88v.21c.09,3.57.28,7.62.68,11.47A106.36,106.36,0,0,0,6.2,441.34v0a236.57,236.57,0,0,0,14,38.29c7.5,16.49,17.8,31.06,29.43,44.59,15.59,18.12,34.2,32.74,54.77,45.09,43.32,26,90.5,33.4,139.94,29.81,18.1-1.31,35.74-5.63,53-11.54,22.64-7.76,43.34-19.26,62.57-33.33A204.76,204.76,0,0,0,401.36,513c17.31-22.54,28.92-47.66,35.73-75.07C444.06,409.81,442.47,381.11,442.17,352.52Zm-61.05-121a222.22,222.22,0,0,1-6.73,36.79,176.4,176.4,0,0,1-15.31,38c-10.32,18.57-22.71,35.33-39.35,48.8-30.8,24.93-65.79,37.06-105.52,34.49a153.68,153.68,0,0,1-36-6.44,145.66,145.66,0,0,1-47.5-25.68,149.46,149.46,0,0,1-26.42-27.33c-10.13-13.53-18.76-28.1-24.71-44.08-.72-1.94-1.64-3.79-2.61-6h0c-1-2.81-1.89-5.74-2.7-8.79-.94-3.53-1.78-7-2.54-10.35a9.06,9.06,0,0,0-.2-1.49A253.77,253.77,0,0,1,65.93,191c1-19.37,3.37-38.46,9.25-57.08,9.25-29.26,23.85-55.06,46.1-76.53A143.6,143.6,0,0,1,200.94,18a35.12,35.12,0,0,0,3.76-.81A158.49,158.49,0,0,1,241,17a149.85,149.85,0,0,1,18.73,3.31c36.19,9.29,65.14,29.81,87.05,60,24.18,33.33,34.49,71.62,35.82,112.39A280,280,0,0,1,381.12,231.55Z"/></g></g></svg>