<svg xmlns="http://www.w3.org/2000/svg" viewBox="0 0 787.98 600"><title>Asset 48</title><g id="Layer_2" data-name="Layer 2"><g id="Layer_1-2" data-name="Layer 1"><path d="M82.05,561.25c12.32-.3,22.31-4.82,29.74-13.25a169.79,169.79,0,0,0,20.4-27.73c16.61-29.14,27.17-60.87,37.31-92.66,18.94-59.4,34.77-119.68,49.72-180.19,9.15-37.07,4.26-72.13-16.18-104.91-24.24-38.89-48-78.09-71.93-117.16-.77-1.26-1.48-2.57-2.54-4.43,2-.11,3.42-.27,4.86-.27,43.57,0,87.15.05,130.72-.11,3.79,0,5.65,1.44,7.48,4.44q78.92,129.17,158,258.24Q472.37,353.11,515.16,423c.83,1.36,1.71,2.69,3.13,4.91,4-15.89,7.58-30.72,11.41-45.48C547.55,313.6,565.13,244.7,583.52,176c8.67-32.39,19.56-64.13,33.83-94.57,9.32-19.88,20.25-38.75,36.16-54.24C671.89,9.31,694,.53,719.6,0,731.88-.21,743.82.75,755.18,6c27.87,12.76,40.48,45.1,28,71.22-11.55,24.07-46.06,35.84-69.49,16-5.2-4.41-10.07-9.22-15-13.92-12.46-11.81-26.79-12-39.67-.47-10.06,9-16.13,20.8-21.54,32.89-13.92,31.11-23.69,63.68-32.21,96.55-17.49,67.51-34.31,135.2-51.13,202.88-9.28,37.32-3.05,72.12,17.66,104.61,13.7,21.5,26.62,43.49,39.88,65.26.77,1.26,1.47,2.57,2.56,4.49-2,.11-3.47.26-4.9.26-43.58,0-87.15,0-130.73.11-3.51,0-5.4-1.12-7.21-4.07Q365.33,408,259.16,234.45c-.85-1.4-1.71-2.79-3.16-5.16-2.1,8.22-3.95,15.44-5.78,22.65-16.49,64.8-32.15,129.83-52.2,193.67-9.55,30.41-20.11,60.46-35.47,88.56-9,16.48-19.57,31.79-34.16,44-17.22,14.37-37.16,21.13-59.49,21.81-16.33.5-31.75-1.72-45.48-11.35-22.84-16-30.16-46.3-16.66-69.28,14.56-24.8,49.42-30,69.91-10.45a40.7,40.7,0,0,1,7.51,48.58C83.61,558.47,83,559.5,82.05,561.25Z"/></g></g></svg>