<svg xmlns="http://www.w3.org/2000/svg" viewBox="0 0 491.95 600"><title>Asset 103</title><g id="Layer_2" data-name="Layer 2"><g id="Layer_1-2" data-name="Layer 1"><path d="M486.79,309.28c-8.68-18.44-31.37-21.32-44.12-13.59-12.23,7.41-19.67,19-26.73,30.73-14,23.37-27.23,47.32-49.68,64.08-10.22,7.62-21,14.43-34.09,15.76-12.41,1.26-18.52-5.18-16.8-17.55,1.6-11.54,3.72-23,5.27-34.55Q330,284.47,339,214.77c1.06-8.16,1.74-16.36,2.65-25.19H282.73c-3.06,19.95-5.44,36.1-7,46.62-9.25,63.37-13.43,95.09-14,99-1.73,12.15-3.28,24.34-5.25,36.47-.84,5.17-.67,11.53-7.35,13.29-7.32,1.91-11.15-3.94-14.77-8.48-13-16.44-25.7-33.19-38.47-49.85-4.38-5.72-5.29-12.21-3.26-19A107.19,107.19,0,0,1,197.38,296C208.53,270,219.29,243.76,231,218c11.48-25.39,23.35-50.63,36.06-75.41,8.39-16.34,19-31.51,34.74-41.93,15-9.91,29.63-11.41,42.93.82,5.05,4.64,10,9.4,14.77,14.34a45.31,45.31,0,0,0,53.45,8.31c18.23-9.86,27.77-25.95,31.85-45.49,6.48-31-9-62.06-36.22-72.58-24.09-9.31-48-7.73-70.76,4.25-27.13,14.32-45,38.11-60.32,63.63a617.47,617.47,0,0,0-31.24,60.37c-14.62,32-28,64.56-41.94,96.87-7.42,17.22-14.64,34.54-22.41,51.6-4.79,10.55-11.39,11.8-20,4-11.06-10-23.1-18.29-37.18-23.46a95.67,95.67,0,0,0-49.85-4.57c-23,3.93-42.58,14.37-56.58,33.41-1.44,2-2.58,3.78-4.86,7.4-5.22,8.28-7.84,12.43-9.72,17.42-.6,1.62-2.06,5.78-3,14.73-.77,7.59-3.06,33.31,8.7,56.54,1.61,3.17,3,5.44,3.49,6.15,10,15.91,24.52,25.67,44,28.23,33.91,4.44,61.2-9,83.24-33.54,10.79-12,19.64-25.76,29.31-38.77,5.66-7.62,11.89-8,17.78-.56,6.72,8.47,12.76,17.51,19.81,25.71q14.84,17.24,30.76,33.5c6.26,6.41,11,12.93,9.7,22.43-1.18,8.66-2,17.38-3.1,26.05Q236.46,519.7,228.51,582c-.71,5.51-1.51,11-2.36,17.24,3.28.26,5.7.61,8.11.62,14.83,0,29.65-.28,44.44.14,6.26.18,8.59-2.45,9.28-8.1,1.19-9.71,2.65-19.39,3.93-29.09,4.36-33.24,8.95-66.43,12.82-99.72a18.7,18.7,0,0,1,19.62-16.26c34.25,1.93,67.82-1.27,98.94-17.95,28.89-15.5,51.29-36.79,62.78-68.12C492.3,343.77,495.07,326.83,486.79,309.28ZM155.9,327.93c-7.82,11.72-17.05,22-30.32,27.79-17.43,7.63-41.71-.32-42.11-29-.13-16.29,12.79-30.27,30.72-33.21,17.2-2.82,30.09,5.31,41.31,16.89C159.6,314.6,159.43,322.65,155.9,327.93Z"/></g></g></svg>