<svg xmlns="http://www.w3.org/2000/svg" viewBox="0 0 615.71 600"><title>Asset 96</title><g id="Layer_2" data-name="Layer 2"><g id="Layer_1-2" data-name="Layer 1"><path d="M214.43,554.29c-9.09,5-17.31,9.23-25.22,14-19.77,11.86-41.34,18.15-64,20.39a414.27,414.27,0,0,1-44.67,2.17c-19.35-.18-38.25-3.74-55.11-13.89C13.46,569.74,5.69,559.39,2,545.37c-4.36-16.54-1.22-31.6,5.91-46.25,5.73-11.76,15.24-20,26.54-26.42,19.72-11.28,40.88-16.31,63.5-17.23,19.52-.79,39-.3,57.63,4.95,11.6,3.27,22.62,9.5,33,15.82C196.45,481,202.89,488,210,493.93a34.73,34.73,0,0,0,4.53,2.69c1.35-1.59,2.8-2.75,3.52-4.25,5.92-12.35,12.24-24.54,17.43-37.19,12.36-30.08,22.57-60.89,29-92.81,2.93-14.39,4.87-29,7.42-43.47.69-4,1.4-8.09,3.14-11.63,1.07-2.17,3.86-4.11,6.29-4.9A151.63,151.63,0,0,0,326.93,278c2.72-2.09,5.24-4.39,7.79-6.72,1.06-.83,3.11-2.38,4-2.94-.25,3-1.09,9.86-1.68,12.82-6.41,32.25-12.68,64.53-19.66,96.66C311,407.34,300,435.33,286.29,462.24c-6.76,13.29-14.1,26.36-22.1,38.93-5.26,8.27-12,15.61-18.42,23.09-3.65,4.27-3.32,8,.22,11.78,11.52,12.4,22.21,25.77,34.85,36.9,14.91,13.13,33,20,53.47,19.12,4-.17,8.08.36,12.11.28a188.13,188.13,0,0,0,61.86-12.06c24.06-8.94,45.17-22.39,62.59-41.1,11.09-11.9,22.22-24.09,31.14-37.6,12.75-19.31,23.81-39.78,30.53-62.25,4.79-16,11.22-31.59,14.77-47.83,6.66-30.43,10.17-61.32,8.21-92.63-.77-12.47.19-25.08-1.17-37.45-2-18.42-5.56-36.67-12.16-54.12-4.61-12.21-9-24.57-14.49-36.38a182.21,182.21,0,0,0-31-46.62c-6-6.51-11.19-13.86-17.74-19.71a283.18,283.18,0,0,0-27.11-20.86A240.17,240.17,0,0,0,426.12,68c-19.08-9.94-39-17.47-60.71-19.56-3.6-.35-7.16-1.09-10.75-1.55-.5-.06-1.08.42-2.54,1.05,1,2.12,1.55,4.44,2.93,6.08C365.9,67,372.53,82.1,377,98.05c5.39,19.3,9,39.29,6.06,59.18-3.67,24.38-5.49,49.69-18.91,71.39-8.33,13.48-17.39,26.53-30.21,36.72-13.46,10.71-27.14,21.14-43.1,27.36-17.71,6.9-35.3,14.8-55.1,14.83-16.65,0-33.33,2-49.95,1.51-14.52-.42-28.55-4.74-41.88-10.76-6.06-2.74-12.53-5-17.92-8.73-8.87-6.17-17.12-13.26-25.45-20.2-11.86-9.89-19.58-23.1-23.49-37.41-3.71-13.58-6.32-28-3.29-42.45a10.52,10.52,0,0,0,.62-2.94C72.87,171.42,81,159.27,87.77,147.2c4.84-8.62,12.29-15.94,19.28-23.16,8.67-9,18-17.31,27.17-25.73,14.63-13.38,32.42-21.74,50.06-30,21.38-10,43.6-17.93,67.06-21.84,11.5-1.91,23-3.91,34.49-5.91A34.37,34.37,0,0,0,290,39.2c-1.15-1.91-1.73-3.67-2.93-4.73-9.93-8.78-19.14-18.58-32.41-22.66-17.63-5.43-34.85-5.88-52.79,0-19.45,6.42-33.4,19.08-43.49,35.65C151.54,58.67,148,71.82,142.81,84c-.95,2.23-2.35,4.72-4.27,6-16.59,11.21-32.09,23.54-43.89,40-1.55,2.15-3.81,3.79-5.73,5.67L86.58,135c.73-7.93,1.06-15.93,2.33-23.77,1-5.93,3.23-11.63,4.72-17.49,3.89-15.37,11.85-28.84,21.24-41.13a125.94,125.94,0,0,1,35.64-31.42C164.81,12.58,179.8,5.69,196.42,3c16.36-2.62,32.73-4.49,49.32-1.49,6.71,1.21,13.63,1.15,20.38,2.18,18.6,2.84,35.63,10.35,52.25,18.67,5.14,2.56,9.48,6.86,13.88,10.72,4.83,4.22,10.34,5.37,16.59,6,15.2,1.41,30.44,3,45.45,5.72a289.5,289.5,0,0,1,39.85,9.85c20.66,6.84,41,14.69,59.17,27.14,7.49,5.12,15.86,9,22.95,14.64,8.18,6.46,15.22,14.34,23,21.29,18.65,16.61,33.12,36.61,45.15,58.14,7.5,13.42,12.13,28.44,18.19,42.69,7,16.37,8.63,33.69,10.78,51.15a310,310,0,0,1-.22,77.06c-1.72,13.61-2.84,27.37-5.69,40.76a212.51,212.51,0,0,1-11.12,36.35c-7,16.93-14.44,33.76-23.37,49.7-6.53,11.66-15.35,22.13-23.89,32.53a294.23,294.23,0,0,1-25.41,27.53,218.16,218.16,0,0,1-25.55,20.11c-9.24,6.41-18.66,12.87-28.8,17.61-19.34,9.06-39.07,17.25-60.57,20.25-9.13,1.27-18,4.61-27.08,5.95a274.71,274.71,0,0,1-29.54,2.32c-16.14.62-32.1-.88-48.12-3.34a177.61,177.61,0,0,1-78.22-31.94,70.65,70.65,0,0,1-5.91-5.18C218,557.67,216.14,555.89,214.43,554.29ZM326.65,139c-.47-5.13-1.24-13-1.86-20.79-1.87-23.35-9.86-44.66-21.31-64.87-2.26-4-5.48-6.2-9.88-5.47-8.51,1.42-17,3.21-25.38,5.06-17.42,3.82-34.07,9.55-49.7,18.44-16.76,9.54-33.43,19.55-46.12,33.94-15.87,18-28.7,38.11-37,61.21-6.5,18.23-7.32,36.7-7.07,55.42.25,19.59,8.51,36.82,19.12,52.68A60.57,60.57,0,0,0,179.21,299a93.79,93.79,0,0,0,52.19,1.11c25-6.47,45-21.41,60.76-41.84,11.48-14.89,19-31.87,24.72-49.65C323.8,186.87,326.22,164.41,326.65,139ZM190.39,532.37c-1.37-2.62-2.12-4.74-3.41-6.43-8-10.52-16.12-21-24.34-31.4-7.12-9-13.55-19-24.39-23.88-9.06-4.07-18.6-8.57-28.24-9.42-11.11-1-21,5.63-28.89,13.35-15.51,15.28-21.51,35.06-24.39,56-1.57,11.42,2.21,22.08,5.31,32.6,4,13.48,19,22.21,33,21.25,16.36-1.11,31.78-5.87,46.49-12.53,7.89-3.57,14.82-9.35,22-14.35a91.78,91.78,0,0,0,11.35-9C180.25,543.45,185.15,537.9,190.39,532.37Z"/></g></g></svg>