<svg xmlns="http://www.w3.org/2000/svg" viewBox="0 0 510.08 600"><title>Asset 86</title><g id="Layer_2" data-name="Layer 2"><g id="Layer_1-2" data-name="Layer 1"><path d="M266.87,553.32c11,5.54,22.24,3.94,33.16,4.28a130.57,130.57,0,0,0,53.36-10c13.16-5.36,26.23-12.37,37.22-21.27,16.93-13.71,31.69-30,48.06-44.48,7-6.16,15.11-11.82,23.71-15.19C486,457.44,504.44,476,501,499.55c-1.94,13.43-9.55,23.23-19.2,31.94-10.23,9.24-21.94,16-34.45,21.69a270.54,270.54,0,0,1-76.82,21.46c-20.36,2.65-40.63,6.09-61.24,4.8A307.18,307.18,0,0,1,277,576c-12-2-23.71-5.52-35.66-7.77-3.5-.65-7.57.14-11,1.29-15.66,5.22-31,11.56-46.84,16.06a408.84,408.84,0,0,1-50.52,11.27,264.53,264.53,0,0,1-47.2,3c-16.49-.5-33.2-2.93-48.58-9.26-26.62-11-43.82-30-34.67-63,4.13-14.92,14.83-25.11,29.08-31.48,23-10.27,46.52-10.17,70.56-4.51,22.46,5.28,43.32,14.6,64.26,23.94,21.59,9.62,43.29,19.06,65.39,27.4,4.27,1.61,10.95-1.36,15.88-3.63,18.38-8.45,36.25-18,52.62-30,15.8-11.59,32.34-22.38,47-35.29,13.26-11.68,25.07-25.22,36.32-38.93,10.69-13,21.08-26.61,29.31-41.24,9.41-16.71,16.74-34.66,24.15-52.41,9.12-21.87,13.73-45.13,15-68.55,1.22-21.94.3-44.16-1.71-66.07a283.25,283.25,0,0,0-9.93-53c-5.62-19.29-12.86-38.13-23.06-55.83a176.54,176.54,0,0,0-37.8-46.3c-14.32-12.35-30.74-21-48.78-27.09-20.53-7-41.57-7.58-62.71-7.09-15.92.37-31.58,3.55-46.1,10.53-11.93,5.75-24.1,11.25-35.24,18.32-20.52,13-36.93,30.5-51.13,50.2-17.34,24.07-29.42,50.55-38.18,78.77-8,25.91-12.84,52.3-12.86,79.44,0,17.47-.68,35.06,1.14,52.36a386.43,386.43,0,0,0,10.46,59.06c5,18.9,12.47,37.26,23.87,53.62,13.83,19.83,31.47,34.88,55.68,39a124.55,124.55,0,0,0,39.63.05c29.13-4.64,50.38-21.39,64.72-47.12,11.22-20.13,16.81-41.82,18.51-64.61.87-11.78,3.3-23.19,9.62-33.17,6.51-10.3,17.49-16.56,29.72-13.77,4.34,1,8.78,4.6,11.66,8.22,6.3,7.89,7.22,17.84,7,27.46-.4,17-3,33.81-9.37,49.59-3.74,9.33-9.53,17.85-14.55,26.64-6.71,11.75-17.06,20.25-26.82,29.19a86.36,86.36,0,0,1-15.3,11.34c-32.79,18.72-67.77,29.32-105.92,27.57-23.45-1.08-45.6-6.41-66-18.64C106,454,94.07,445.76,84.26,434.94c-10.23-11.29-20-23.05-26.42-37.15-5.53-12.22-11.78-24.17-16.37-36.73-4-10.88-6.56-22.35-8.92-33.73-4.1-19.71-4.83-39.78-4.21-59.84.6-19.64,2.44-39.24,8.05-58.13,5.44-18.28,11.19-36.53,18.22-54.24,4.87-12.26,11.62-23.89,18.5-35.22C79.7,109,86.58,98,95.05,88.65a367.84,367.84,0,0,1,39.1-37.86c12.15-10,26-17.9,39.44-26.33,4.56-2.87,9.81-4.76,14.9-6.66,18.1-6.72,36.43-12.32,55.66-15.38C265.63-1,287-.19,308.43,1.2c11.7.76,23.27,3.93,34.82,6.37a155.14,155.14,0,0,1,34.83,11.67,244.74,244.74,0,0,1,22,11.8,205.3,205.3,0,0,1,57.35,51.15,236.13,236.13,0,0,1,29.8,50.44C492.94,146,497,160,501.45,173.84a156.77,156.77,0,0,1,7.74,46c.1,8.15,1.35,16.35.71,24.43-1.28,16.42-2.9,32.87-5.47,49.13-3.11,19.69-10.51,38.23-18.62,56.31-4.87,10.86-11.16,21.16-17.62,31.2-8.42,13.09-17.16,26-26.66,38.33-7.41,9.59-16,18.29-24.4,27.07S400,464,390.88,472.28a300.1,300.1,0,0,1-24.27,19.36c-11.87,8.69-23.81,17.35-36.21,25.27C317.57,525.1,304.2,532.44,291,540,283.16,544.52,275.18,548.75,266.87,553.32Zm-61.56,2.93c-.88-1-1.23-1.71-1.8-2-8.09-3.68-16.12-7.53-24.35-10.88-11.6-4.73-23.21-9.44-35-13.5C127,524,109.77,523.83,93,531.48,85.53,534.91,82,543.78,82.71,552c1,10.35,10.9,19.09,20.28,19.95s18.93,1.65,28.28.92c22.21-1.74,43.67-7.69,65.14-13.31C199.3,558.76,202,557.46,205.31,556.25Z"/></g></g></svg>