<svg xmlns="http://www.w3.org/2000/svg" viewBox="0 0 597.45 600"><title>Asset 104</title><g id="Layer_2" data-name="Layer 2"><g id="Layer_1-2" data-name="Layer 1"><path d="M0,286c2.32-5.8,3.93-9.94,5.63-14q25.26-61.2,50.58-122.37c7.18-17.31,6.21-34.23-1.41-51.13C48.31,84.1,44.72,69.07,46.56,53.19,49.81,25.28,69,4.82,97,1.78c18.34-2,37-1.58,55.48-1.65Q234.72-.16,317,.06c29.59,0,59.13.87,88.23,7.17,28.95,6.27,56.32,16.39,81.37,32.43,35,22.4,60.45,53,78.2,90.34,17.14,36.12,26.31,74.3,29.94,113.88,4.16,45.25,3.9,90.52-2.86,135.52-4.46,29.69-12,58.77-24.56,86.08-15.8,34.23-37.63,64.09-68.47,86.6a233.64,233.64,0,0,1-53.07,28.76c-37.95,14.82-77.47,19.12-117.79,19-64.39-.09-128.78,0-193.16,0-11.79,0-23.72.69-35.33-.84-42.7-5.64-62.06-42.24-49.63-83.24,2.6-8.58,6-16.91,8.71-25.47,4.41-14,2.64-27.74-2.89-41.13Q29.21,385.1,2.77,321a11.61,11.61,0,0,1-.85-6.38c5.64,2.16,11.38,4.06,16.89,6.52a363.55,363.55,0,0,1,71.4,42A582.34,582.34,0,0,1,156,421.44c20.07,20.63,40,41.45,60.71,61.39,16.14,15.51,32.77,30.67,50.42,44.41a159.39,159.39,0,0,0,74.24,32.38c24.43,3.83,47.86.26,70.75-7a106.79,106.79,0,0,0,53.49-38c13.6-17.93,20.4-38.22,24.24-60.16,4.16-23.66,1.09-46.3-7.14-68.33-5.4-14.44-14.09-27.1-25.09-38.1-30.32-30.35-68.24-42.55-109.76-46.27a41.81,41.81,0,0,1-4.44-.58,18.52,18.52,0,0,1-3.12-1.58c7-.81,12.65-1.38,18.28-2.12,28.39-3.75,55-12.26,79.06-28.29A121.15,121.15,0,0,0,490.41,151.2c-1.31-9-2.68-18.22-5.33-26.93-12.69-41.64-40.41-68-82.36-79.54a153.78,153.78,0,0,0-72.26-2.59c-25,5.11-46.94,17.19-67.19,32.42-27.95,21-51.73,46.47-75.86,71.54-27.89,29-55.76,58-87.36,83.06-27.4,21.75-56.93,39.94-89.35,53.27C7.81,283.62,4.76,284.43,0,286Z"/></g></g></svg>