<svg xmlns="http://www.w3.org/2000/svg" viewBox="0 0 564.36 600"><title>Asset 22</title><g id="Layer_2" data-name="Layer 2"><g id="Layer_1-2" data-name="Layer 1"><path d="M450.33,288.07v8.6a42.41,42.41,0,0,1-5.74.78c-51.72,0-103.43-.08-155.15.11-9.67,0-19.53.31-29,2.16-26.27,5.16-43.07,23-43.88,49.69-1.21,40.23-.69,80.53,0,120.79.14,8.57,3.14,17.51,6.57,25.53,14.89,34.8,55.77,44.37,83.37,18.19,13-12.33,22.43-28.55,32.69-43.55,7.71-11.29,13.65-23.79,21.26-35.16,29.07-43.46,68.69-59.52,120-48.61,57.39,12.21,89.21,57.42,83,120.23-3,30.35-16.68,54.75-41.62,72.68-21.39,15.37-51.05,20.84-74.55,18.82-28.21-2.44-51.49-15.89-75.13-29.15-21.94-12.3-43.67-26.2-69-29.15-21.62-2.52-43.86-2.33-65.57-.47-17.15,1.46-30.86,12.73-43.52,24.12C178,578.19,160.46,590.4,139.18,595.8c-51.55,13.08-122.1-1.91-135.7-80.75A213.3,213.3,0,0,1,.13,479.32Q-.16,297.61.35,115.9A171.89,171.89,0,0,1,5.43,75.26c12-48.08,46-73.95,96.26-75.21,32.83-.82,61.91,8.26,86.59,30.39,5.52,4.95,11.4,9.51,17.2,14.14,14.88,11.87,32.12,15.86,50.89,17.5,45.8,4,84.88-12.95,122.64-35.9,19.77-12,40.4-23.12,63.92-25.32C506-5.06,563.39,32.74,564.34,103.53c.43,31.29-7,59.63-30.25,81.82-49.88,47.69-133,38.73-172-18.68-11.85-17.45-21.79-36.18-33-54.08a148.16,148.16,0,0,0-14.82-19.86C298.68,75.15,279,66.91,255.93,73.13c-22.65,6.11-32.63,24.56-37.56,45.92a102,102,0,0,0-2.4,22c-.24,29.14-.63,58.29.09,87.41.95,38.24,22.25,59.14,60.38,59.43,52,.38,104,.11,156,.13Z"/></g></g></svg>