<svg xmlns="http://www.w3.org/2000/svg" viewBox="0 0 593.36 600"><title>Asset 74</title><g id="Layer_2" data-name="Layer 2"><g id="Layer_1-2" data-name="Layer 1"><path d="M153.91,588.12v11.81H.09V588c7.55-1.42,14.63-2.69,21.68-4.09C39.35,580.41,44.85,574,45.66,556c.22-4.83.13-9.68.13-14.53V59.52c0-36-3-39.55-38.35-45-2.34-.36-4.62-1-7.44-1.68V.18H11.33c97.27,0,194.55-.51,291.82.21,47.29.34,93.21,8.86,134.34,34,48.07,29.34,69.94,74.23,73.18,129.08,2.63,44.72-7.2,85.75-38.76,119.52-19.61,21-43.43,35.76-69.63,47-7,3-14.19,5.86-20.75,9.71-14.85,8.73-16.15,15.68-5.31,29q22.18,27.18,45.08,53.77c37.52,43.78,74.89,87.7,113,131,15.14,17.21,33.91,29.7,58.08,34.23.31,3.78.63,7.63,1,12.34H415V588.19c10.32-2.12,20.3-3.5,29.87-6.28,17.93-5.19,22.52-16.06,12.63-32-7-11.22-15.8-21.36-24.27-31.6-39.08-47.25-78.45-94.25-117.38-141.61-7.35-8.94-15.88-10.49-25.86-7.3-39.48,12.62-79.22,24.55-118.23,38.5-45.42,16.25-71.3,54-72.59,102.8-.43,16.12-.48,32.28.05,48.4.52,15.75,6.8,22.22,22.62,24.65C132.11,585.38,142.49,586.59,153.91,588.12ZM98.61,452.51c18.51-32.57,47.87-48.85,81.28-59.7,23-7.46,46.08-14.43,68.89-22.31,52.49-18.12,105.85-34.23,157-55.66,58.56-24.56,93.13-69,93.76-135.39.42-44-10.45-84.09-42.83-115.67-31.39-30.61-71-44.81-113.44-48.5-39.29-3.41-79-2.76-118.46-3.32-32.69-.46-65.39-.29-98.08,0-18.16.16-26.25,8.27-27.55,26.52-.4,5.63-.51,11.28-.51,16.93q0,185.87,0,371.74Z"/></g></g></svg>