<svg xmlns="http://www.w3.org/2000/svg" viewBox="0 0 448.37 600"><title>Asset 2</title><g id="Layer_2" data-name="Layer 2"><g id="Layer_1-2" data-name="Layer 1"><path d="M346.29,0C313.66,8.24,197.53,41.74,125.88,151.84c-8.76,13.45-42.19,67-53.88,144.85-10.25,68.23,1.53,119.76,4.2,130.84,8.32,34.57,18,74.77,53.18,109.16,12.14,11.88,42.47,41.53,89.56,44.78,60.82,4.21,102.2-38.9,109.86-46.88,27.15-28.28,35.63-59.38,41.28-81.17,6.05-23.3,19.56-103.18-18.89-175.16C301.88,186,204.46,179.07,193.05,177.5c21.83-.48,52.71-.1,88.17,9.33,24.55,6.52,56.62,15,89.56,40.58a206.3,206.3,0,0,1,58.08,70.67c40.43,82.78,6.15,165,2.1,174.24-27.57,63.21-77.86,93.2-94.46,102.16-50.91,27.46-98.09,26-116.86,25.19C200,598.81,142,595.46,88.09,552.79c-51.17-40.53-68.18-92.42-76.27-118.26C8.36,423.47-6.65,373,3.43,307.18,21.24,190.89,103.24,119.82,130.08,96.56,213.65,24.13,305,5.65,346.29,0Z"/></g></g></svg>