<svg xmlns="http://www.w3.org/2000/svg" viewBox="0 0 322.1 600"><title>Asset 19</title><g id="Layer_2" data-name="Layer 2"><g id="Layer_1-2" data-name="Layer 1"><path d="M0,.07H100.33q30.3,130,60.47,259.42l1.95.15Q191.54,130,220.4,0H320c2.09,6.37,2.9,580.28,1,598.28-5.49,1.87-68.06,2.45-80.57.55-.55-33.79-.13-67.81-.3-101.82s-.34-68.28-.41-102.43c-.07-34,0-68,0-102l-1.76-.31C212.89,365.7,187.82,439.13,163,512c-5.8,1-5.86-2.9-6.72-5.36-3.62-10.38-6.93-20.88-10.41-31.31Q115,382.94,84.13,290.54a4.56,4.56,0,0,0-2.7-2.79V599.27H0Z"/></g></g></svg>