<svg xmlns="http://www.w3.org/2000/svg" viewBox="0 0 542.81 600"><title>Asset 105</title><g id="Layer_2" data-name="Layer 2"><g id="Layer_1-2" data-name="Layer 1"><path d="M173.05,502.21c3.56-1.06,7.11-2.2,10.7-3.18,25.32-7,51.2-8,77.27-7.82,30.57.26,61.15.3,91.72-.08,24.53-.3,46.69-8.51,67.18-21.74a167,167,0,0,0,40.69-37.61c8.46-10.74,16.74-21.65,25.71-31.95,6.76-7.74,15.87-10.91,26.26-11.89,17.95-1.69,35.51,20.69,28.74,36.85a430.15,430.15,0,0,1-21.68,43.59c-8.83,15.78-18.82,30.9-28.16,46.4-5.5,9.13-6.55,18.92-4,29.26A123.23,123.23,0,0,1,490.18,559c2.61,21-11.5,39.44-33.8,39.06-40.9-.7-81.83-.22-122.75-.07q-92.43.33-184.85.92c-39.31.25-78.61.76-117.92,1.11a86.11,86.11,0,0,1-11-.56c-10.63-1.3-16.94-6.14-19-14.28-2.57-10.18.71-21,9-26.35,14.83-9.6,30-18.62,45-28C85.3,511.6,116,492.8,146.08,473c30.27-20,60.41-40.27,89.52-61.88a541.29,541.29,0,0,0,54.5-47c15.85-15.43,30.17-32.5,44.41-49.49,5.67-6.77,9.82-15,13.78-23,17.69-35.77,22.59-73.31,12.44-112-7.49-28.56-23.86-51.78-49.26-67.3-16.86-10.3-35.89-15.13-55.75-16.09-24.67-1.19-48.8,1.19-71.16,12.56-25.88,13.16-44.92,33-56.22,60-13.75,32.85-9.62,65.17,2.09,97.5,2.79,7.71,5.23,15.87,5.82,24,1.25,17.18-11.52,26-27.62,19.86-20-7.64-31.57-23.58-39-42.39-19.42-49.21-19.35-99,.1-148C88.26,73,122.32,40.74,167.66,19.92,208.79,1.05,252.1-2.33,296.49,1.28a211.19,211.19,0,0,1,91.82,29A193.62,193.62,0,0,1,437.2,71.06c24,28,38,60,40.91,96.57A244,244,0,0,1,471.3,247c-6.18,24.52-19.54,45.41-34.9,65.08a337.62,337.62,0,0,1-90.52,80.42c-23.84,14.62-47,30.39-70.73,45.15-25.33,15.73-51,30.85-76.55,46.27q-11.78,7.11-23.45,14.41a19.72,19.72,0,0,0-2.73,2.54Z"/></g></g></svg>