<svg xmlns="http://www.w3.org/2000/svg" viewBox="0 0 797.06 600"><title>Asset 17</title><g id="Layer_2" data-name="Layer 2"><g id="Layer_1-2" data-name="Layer 1"><path d="M393.78,282.22c9.48-2.15,19.05-4.25,28.58-6.5,39.33-9.31,78.76-18.25,117.94-28.17,22-5.59,43.48-13.3,62.74-25.88,26.67-17.4,40-42.39,42.18-73.88,1.86-26.64-1.09-52.15-15.76-75.28-18.28-28.79-46-44.14-77.52-53.46C507.3,5.87,461.65,5.79,416,10.78,362.68,16.6,312.28,32.07,266.2,60c-42.87,26-77.44,60-95.35,107.66-15.57,41.4-11.51,82,11.33,120.37,3.53,5.92,9.27,11.75,2.5,18.85s-12.74,1.19-18.23-2c-29.81-17.13-44.58-44-47.67-77.42-4.72-51,14.63-92.06,52.39-125.68,39.34-35,85.19-58.13,134.59-74.74C364,7.54,423.79-2.47,485.25.52,535.46,3,584.41,11.86,628.84,37.23,654.06,51.64,675.16,70.48,686.7,98c17.41,41.48,4.16,86.78-34.13,113.39-13.59,9.45-29.16,16.07-43.84,24a10.43,10.43,0,0,0-4.54,3.65c3.2.51,6.4,1.07,9.62,1.52,53.6,7.43,102.17,25.87,140.47,65.74,30.28,31.52,44.34,69.23,42.64,113.2-2,52.13-25.39,92.82-65,125C700.11,570.1,663,584.7,623.23,591.91c-71.05,12.89-141.41,8.33-210.7-11.84-20.39-5.94-39.7-14.42-57.13-26.9-32.47-23.25-41.81-65.53-17.31-97.67,1.8-2.35,2.75-5.55,3.44-8.51,2.34-10,2.22-10,12.51-6.86.1.66.57,1.63.27,2.09-10.31,15.69-7,32.15-2.06,48.26,11.71,38.2,38.72,62.37,74.14,78.07,48,21.27,98.54,25.84,150.29,21.72C604,588.09,630.35,582,655,569.93c56.62-27.71,87-73.67,93.54-135.92,3.35-31.73.42-62.8-12.54-92.1-23.32-52.73-65.33-81.68-120.9-92.83-18.78-3.77-36.64-2.56-55.39,2.68-44.69,12.48-90,22.77-135,34-9.61,2.39-19.14,5.13-28.82,7.17-5.21,1.1-7.77,3.58-9.51,8.7-19.17,56.53-42.72,111.11-74.65,161.72C283.59,507.87,251.25,548.79,205,576c-51.28,30.17-104.68,31.27-158.18,6.81C21.77,571.36,5.18,550.91,1.1,523c-4.32-29.62,4.25-56.29,22.66-79.84C45.43,415.43,73.6,395.78,104,379.11c59.92-32.83,124.4-53.71,190-71.68,13.58-3.73,27.27-7,40.77-11,2.75-.81,6.32-3.33,7.06-5.79,16.64-55.63,30.48-111.82,30.48-170.42,0-18.59-3.74-36.47-14.53-52-3.46-5-8.86-8.59-13.17-13-1.65-1.7-4.22-5.28-3.81-5.74a44,44,0,0,1,9.8-8.42c1.15-.7,4.95.59,5.66,1.95,5.87,11.26,16.55,16.53,26.43,23.32,35.33,24.29,46,59.22,40.06,100.11-5.65,39.07-14.48,77.41-29.4,114.14C393.26,280.73,393.45,281,393.78,282.22Zm-56.67,24.69c-58,15.19-112.87,31.5-164.73,56.68-28.55,13.87-55.59,30.06-78.85,51.89-31.63,29.68-49,65.19-44.09,109.68,4.16,37.94,24.11,60.16,60.19,65.54,22.88,3.42,44-2.17,63.48-14.44,28.4-17.88,49.78-42.75,68.87-69.77,32.61-46.15,56.48-96.84,76.79-149.32C324.94,341.21,330.52,325,337.11,306.91Z"/><path d="M192.18,148.88c-7,34.21-2.09,66.24,13.77,96.66a125,125,0,0,0,32.93,40.32c1.42,1.14,3.58,2,4.13,3.48,1.45,3.86,3.8,8.5,2.72,11.83-.88,2.73-6.36,5.93-9.51,5.65-19.55-1.74-36.93-7.07-46.46-27.18C169.92,237.72,167.83,196,189,154,189.86,152.23,191.1,150.59,192.18,148.88Z"/></g></g></svg>