<svg xmlns="http://www.w3.org/2000/svg" viewBox="0 0 417.93 600"><title>Asset 106</title><g id="Layer_2" data-name="Layer 2"><g id="Layer_1-2" data-name="Layer 1"><path d="M183.06,165.82c-.69,2.4-1.51,4.77-2.07,7.2-8,35-19.18,69-36,100.86a278.74,278.74,0,0,1-36.72,53.93c-19,21.67-40.75,39.7-66.3,52.83-11.47,5.89-23.78,10.18-35.83,14.87-4.32,1.69-5.93.26-5.95-3.9C.16,377-.1,362.42,0,347.83s.83-29.15,1-43.73c.21-19.18.06-38.37.2-57.56.14-17.41.59-34.82.64-52.24,0-4.52,2-6,6.09-6.25,48.66-3,87-25.84,118.53-61.72C153.17,96,169,60,180.6,21.81c1.69-5.53,3-11.19,4.27-16.83C186.06-.07,184.79.87,190,.73q52.8.21,105.58,0C318.66.68,341.79.2,364.92,0c16.34-.11,32.69,0,49,0,2.7,0,4.2.75,3.94,3.83-.23,2.86,0,5.75-.14,8.63-.45,14.36-1,28.72-1.4,43.09-.48,18.16-1,36.32-1.18,54.48-.14,13.29.33,26.59.37,39.89,0,11.13-.2,22.26-.25,33.39-.06,15.58-.05,31.16-.09,46.74,0,16.47,0,32.93-.21,49.4-.36,25.12-1.09,50.23-1.38,75.35-.23,21.18.05,42.36-.09,63.53-.15,23.23-.53,46.45-.78,69.68q-.48,43.4-.91,86.81-.1,10.57,0,21.14c0,3.35-2.14,4-4.73,4-9.68,0-19.37-.11-29.05-.19q-27.56-.24-55.11-.49-48.23-.5-96.46-1c-13.25-.15-26.5-.38-39.76-.42-4.06,0-5-1.24-4.65-5.53.83-11.17.88-22.41,1.06-33.63.32-20.92.74-41.85.72-62.77,0-28.22-.71-56.43-.59-84.65.14-32.14,1-64.27,1.26-96.41.17-19-.18-38-.12-57,0-11.54.61-23.08.55-34.61,0-8.14-1.42-22.84-.91-33.36.41-8.26.61-12.4.85-13.65l.48-6.09c.18-2.22.29-3.76-.57-4.31A2,2,0,0,0,183.06,165.82Z"/></g></g></svg>