<svg xmlns="http://www.w3.org/2000/svg" viewBox="0 0 485.67 600"><title>Asset 7</title><g id="Layer_2" data-name="Layer 2"><g id="Layer_1-2" data-name="Layer 1"><path d="M459.53,420.44c9.28,4.84,8.37,12.92,8.66,20.3.79,20.44,1.12,40.9,2,61.34.6,13.61.58,27.45,3.24,40.7,1.89,9.42,7.8,18,12.22,27.67-2.43,6.89-8.58,5.38-14.55,4.51-22.23-3.23-44.09-2.48-65.59,5-12.82,4.44-25.83,8.52-39,11.68-50.64,12.11-101,10.68-151.7-1.51-44-10.6-83.06-29.94-117.46-59.12C64.09,502.76,40,467.72,24.71,427.34c-31.38-82.7-33.47-166.68-2.85-249.88C51,98.19,108.33,46.64,187.28,17.83,241.69-2,297.3-3.68,353.62,5c14.16,2.17,27.88,7.77,41.55,12.52C415.61,24.59,436.31,28,458,25.37c8.25-1,16.72-.16,24.58-.16,1,3.28,2.46,5.66,1.88,6.35-15.67,18.67-12.06,41.74-14,63.26-1.91,21.19-1.56,42.58-2.27,63.88-.14,4.24.17,8.7-1.07,12.63-.89,2.82-4.69,7.29-6,6.91-3.54-1-6.87-3.88-9.44-6.75-1.51-1.69-1.7-4.77-2-7.28-2.19-16.86-4.79-33.7-6.25-50.63-2.81-32.3-18.8-56.46-45.88-72.79-49.48-29.85-103-35-157.76-19.45C202,32.05,175.7,59.09,154.65,91.27c-31.23,47.75-42.78,101.69-48,157.3a522.22,522.22,0,0,0,10.22,165.17c10.64,46.94,28.3,90.95,62.81,126.61,36.64,37.86,81.68,51,132.57,46,21-2,42.17-5.49,62-14.23,17.42-7.67,33.07-17.56,46-31.61,11.85-12.89,19.75-27.72,22.15-45.2,2.2-16,3.89-32.15,6.47-48.13C450.38,437.69,449.5,426.71,459.53,420.44Z"/></g></g></svg>