<svg xmlns="http://www.w3.org/2000/svg" viewBox="0 0 502.33 685.21"><title>Asset 69</title><g id="Layer_2" data-name="Layer 2"><g id="Layer_1-2" data-name="Layer 1"><path d="M57.71,190.73H18.64c.48-7.38.62-14.57,1.45-21.68,7.45-64.33,42.51-109,99-138.1C151.56,14.24,186.42,5.57,222.59,2.08c29.49-2.84,59-3,88.45.93,36.44,4.85,71.17,14.9,101.38,36.74,41.18,29.78,58.15,70.52,52.75,120.7C460,208.9,432.47,241.16,389.92,262c-29,14.19-60.12,21.23-92.09,24-33.45,2.88-66.75,6.25-99.06,16-40.72,12.31-77.93,30.81-108.43,61.22-2.67,2.67-5.18,5.51-8.62,9.19,34-7.64,67.23-4.55,100.24-4.75,66.66-.38,133.33-.23,200,0,23,.08,45.27,4.44,65.72,15.6,28.38,15.5,44.22,40.26,50.72,71.23A176.75,176.75,0,0,1,502,487.39c.5,27.19.4,54.4.09,81.6-.26,23-5.33,44.89-17.06,64.83-15.58,26.49-39.59,41.35-69.05,47.53A170,170,0,0,1,381.71,685q-132.81.43-265.62.09C93.89,685,72.67,680,53.22,669,24,652.5,8.79,626.18,2.91,594A180.7,180.7,0,0,1,.26,564.07C-.11,538.94,0,513.81.17,488.68.65,427.18,23.28,375,67.38,332.35c37.07-35.88,81.94-58,131.11-71.89,27.08-7.69,54.77-11.76,82.87-13.71,30.13-2.09,59.92-6.49,88-18.48,19.57-8.36,36.5-20.17,47.23-39.18,24.11-42.7,10.1-96.08-32-122.12C365.5,55.1,344.36,48.59,322.36,45.11c-48.09-7.6-96-6.64-143.43,5C151.54,56.89,126,67.91,104.18,86.21c-29.58,24.76-44.32,56.84-46.45,95C57.56,184.3,57.71,187.37,57.71,190.73Z"/></g></g></svg>