<svg xmlns="http://www.w3.org/2000/svg" viewBox="0 0 549.91 829.74"><title>Asset 55</title><g id="Layer_2" data-name="Layer 2"><g id="Layer_1-2" data-name="Layer 1"><path d="M407,84.26A101.62,101.62,0,0,0,385.27,66.8c-21.69-13.25-45.61-19-70.68-20.39C271.45,44,230.24,51.65,191.37,70.83c-38.72,19.1-70.13,46.8-94.61,82.21C59.89,206.37,42.55,265.59,46.41,330.4c2.92,49,18.91,93.46,51.86,130.55,31.63,35.62,71.27,54.48,119.48,53.84,33.49-.44,65.73-6.19,95.53-22.3,32.31-17.47,53.81-43.8,64.13-79.11.87-3,2.1-3.65,5-3.31,11.91,1.37,23.83,2.76,35.78,3.56,4.28.29,5.28,1.89,5.41,5.72.84,24.51,2,49,2.73,73.53.43,13.32.33,26.66.49,40,0,1,.11,2,.23,3.9,2.39-2,4.32-3.46,6.15-5.07,22.75-20,39.17-43.87,45.12-74,6.86-34.83,1-67.58-16.73-98.26-1-1.8-1.95-3.23-4.61-2.68-36,7.48-72.51,12.4-107.63,23.63-7.36,2.35-14.33,6.38-20.95,10.49-6.11,3.8-9.61,9.92-10.26,17.28-.18,2.09-1,2.73-3,2.72-13.32,0-26.65-.08-40,0-3.16,0-2.93-1.86-2.84-4,1-22.56,11.33-39.95,29.62-52.64,14.49-10.06,30.81-16.29,47.68-21,29.8-8.34,60.25-13.53,90.78-18.41A345.12,345.12,0,0,0,476.72,307c6-1.65,11.81-4.87,17.15-8.25A21.22,21.22,0,0,0,504,281.84c.17-2.31,1-3.21,3.44-3.19q19.59.15,39.17,0c2.75,0,3.39,1.1,3.28,3.59-.79,18.08-8,33.08-22,44.41-7,5.65-14.87,10.19-22.86,15.57.62,1.31,1.5,3.19,2.4,5.05,20,41.6,24.86,84.87,13.41,129.63-9.19,36-29.32,65.16-57.59,88.72-10.4,8.67-21.78,16.19-32.89,24a7.51,7.51,0,0,0-3.74,6.32c-2.13,25.88-3.68,51.86-7,77.6-3.88,30.24-11.4,59.68-25.48,87-13.19,25.6-31.27,46.77-58.42,57.81-43.81,17.82-86.23,15.89-124.37-14.38-24.06-19.09-34-45.39-32.58-76,1.5-32.45,17.37-57.26,41.49-77.6,19.62-16.55,41.92-28.78,65-39.64,25.42-12,51.08-23.44,76.57-35.26,6-2.79,11.88-6,17.69-9.27a5.06,5.06,0,0,0,2.44-3.53c-.18-21.46-.55-42.92-.89-64.38,0-.21-.26-.41-.62-.94-2.11,2-4.17,4-6.26,5.92-25.89,24.22-56.42,39.94-90.56,48.67-34.57,8.84-69.6,11.85-104.92,5.19-42.57-8-78-29.18-107.57-60.45-39.92-42.25-61.8-93-69-150.29-5.58-44.44.13-87.79,14.05-130.1C32.85,165.6,59.89,121.05,98.1,83.61c42.34-41.48,92.46-68.52,151-78.91,39-6.93,78-6.84,116.31,4.66a170.25,170.25,0,0,1,73.34,43.77c.64.65,1.33,1.25,2.31,2.16,6.71-10.95,7.54-23,8.07-35.26h46c-.9,8.55-1.33,16.9-2.73,25.08a98.14,98.14,0,0,1-22.51,48.3c-1.76,2-1.44,3.51-.44,5.66,16.1,34.66,19.4,70.67,8.42,107.17-13.16,43.72-42.75,70.27-87.92,78.53-47,8.59-81.47-24.7-91.71-58-8.79-28.63-3.23-71,30.52-98,10.75-8.58,22.75-15.76,34.76-22.55S388.1,94.07,400.41,88C402.52,87,404.5,85.67,407,84.26ZM381.44,617c-1.62.68-2.2.91-2.77,1.17-28.16,13-56.43,25.81-84.43,39.18-16.59,7.92-32.61,17-46.56,29.23-13.41,11.77-22.39,25.84-23.39,44.28-1.46,26.8,12.19,45.15,38.38,50.85,11,2.41,22.21,2.36,33.38.89a72.46,72.46,0,0,0,35.1-14.29c15.61-11.9,24.94-28.17,31.79-46.1,8-20.92,12.09-42.78,14.71-64.92C379.2,644.24,380.14,631.1,381.44,617ZM431.88,124.3l-10.69,5.28c-16.59,8.18-33.37,16-49.72,24.64-21.29,11.23-32.88,28.51-31.1,53.44,1.25,17.41,12.54,30.73,28.82,32.27,22.53,2.12,46.68-6,59.37-30.64,9.42-18.28,11-38,8.84-58C436.43,142.39,433.86,133.69,431.88,124.3Z"/></g></g></svg>