<svg xmlns="http://www.w3.org/2000/svg" viewBox="0 0 538.04 780.17"><title>Asset 65</title><g id="Layer_2" data-name="Layer 2"><g id="Layer_1-2" data-name="Layer 1"><path d="M381.67,0c20.85,85.57,41.58,170.69,62.53,256.68-2.95-.78-5.28-1.35-7.58-2-41.53-12-83.84-17.37-127-14.1C257.55,244.51,209,259,166.27,290.08A179.89,179.89,0,0,0,136,318c10.45-4.56,20.12-9.16,30.07-13.07,40.58-15.95,82.77-21.55,126.08-18.15,55.4,4.35,105.72,22.76,149.78,56.92,46,35.7,77.82,81.33,90.16,138.61,16.89,78.36-2.69,148-55.59,207.73-39.81,45-90.29,72.26-148.94,84.12-45.93,9.29-91.67,8.36-136.49-6.58C131,747.55,85.45,709.13,51.84,656.05,28.56,619.28,14.22,579,6.46,536.32c-7.94-43.68-7.78-87.59-3.71-131.6A469.53,469.53,0,0,1,31.66,279.13c30.72-80,81.28-144.8,150.52-195a473.07,473.07,0,0,1,181.93-81C369.72,1.93,375.41,1.1,381.67,0ZM297.43,533.07c-.32-57.94-2.05-115.82-10.92-173.19-2.11-13.63-6.14-27-9.69-40.35-1-3.73-2.78-8.47-7.38-8.42s-6.15,4.88-7.26,8.57c-2.77,9.16-5.59,18.38-7.26,27.77-8,45.07-10.08,90.67-11.59,136.3-1.54,46.24-.89,92.48,1.65,138.68,1.93,35,4.35,69.88,11.75,104.2A119.29,119.29,0,0,0,264.66,750c2.52,5.61,6.73,5.43,9.84,0a58.85,58.85,0,0,0,5.13-12.19c6.45-21.15,9-43,11.3-64.89C295.76,626.43,297.52,579.79,297.43,533.07Z"/></g></g></svg>