<svg xmlns="http://www.w3.org/2000/svg" viewBox="0 0 509.59 600"><title>Asset 15</title><g id="Layer_2" data-name="Layer 2"><g id="Layer_1-2" data-name="Layer 1"><path d="M139.52,4.26l-12.17,6.13C121,13.56,114.43,16.3,108.43,20c-10.54,6.48-15.8,16.26-15.81,28.7q-.08,70.8-.12,141.59,0,109.28.08,218.53c0,29.83,6.63,58.28,18.29,85.73a166.46,166.46,0,0,0,45,61.52c20.22,17.48,44,27.79,70.26,32.93a179.47,179.47,0,0,0,43.9,3c45.28-2.32,86.24-15.9,119.09-48.5,22.24-22.07,36-49,42.82-79.61A196.34,196.34,0,0,0,436.78,421q0-184.59.15-369.17c0-16.48-8.37-31-25.72-36.65-10-3.3-20.53-5.27-30.84-7.76C376.69,6.51,373,5.84,368.89,5c-.19-1.52-.34-2.76-.5-4.08,1.07-.41,1.83-1,2.52-.91,17.85,1.9,35.65,4.46,53.55,5.66a202.76,202.76,0,0,0,46.46-1.93c12.5-2.05,25.29-2.4,38.44-3.55.08,1.76.14,3,.23,5-9.27,1.84-18.34,3.46-27.32,5.46-11.83,2.63-23,6.45-31.52,16-4.38,4.9-7.42,10.23-7.69,16.71-.47,11.66-.59,23.33-.71,35-.16,16.55-.19,33.1-.28,49.64,0,5.42-.13,10.84-.1,16.27q.12,29.75.33,59.49c.11,13.54.48,27.08.44,40.62,0,11.66-.64,23.31-.71,35-.08,13.55.19,27.12.22,40.68,0,11.1-.11,22.2-.13,33.31,0,6,.1,12,.08,17.95-.05,20.1.05,40.21-.24,60.31a170.66,170.66,0,0,1-10.68,57.56c-14.8,39.7-40.4,69.92-78,89.79a179.32,179.32,0,0,1-66.18,19.67c-24,2.47-47.82,1.58-71.71-1.41A227.58,227.58,0,0,1,151.63,580c-42.72-18.78-73-49.72-90-93.45-10.1-26-14.65-53-14.7-80.79q-.18-103.12-.1-206.27,0-71.22,0-142.43c0-1.36,0-2.73,0-4.09-.1-18.7-8.91-31.53-26.1-38.71C15.16,12,9.62,9.66,4.12,7.28,1.24,6-1.25,4.46.69,0c5.33.58,10.66,1.2,16,1.73,14.07,1.4,28.13,3.68,42.22,3.89S87.12,4,101.23,3c10.32-.69,20.63-1.44,31-2a41.69,41.69,0,0,1,6.89.74Z"/></g></g></svg>