<svg xmlns="http://www.w3.org/2000/svg" viewBox="0 0 930.33 650"><title>Asset 39</title><g id="Layer_2" data-name="Layer 2"><g id="Layer_1-2" data-name="Layer 1"><path d="M42.55,630.3c2.28-1,4.56-2,6.83-3,43.67-19.69,83-46.37,120.47-75.79,59.75-46.88,113.25-100,159.09-160.67,33-43.71,61-90.3,79.39-142.21,11.52-32.57,18.75-66,17.95-100.72-.75-32.36-11.64-60.51-37.22-81.61C369.73,50.35,347,45.14,322,46.06a11,11,0,0,0,.86,2.23c24.37,35.22,34.09,74.76,33.54,117-.8,60.35-19.64,115.32-51.68,166-25.54,40.38-57.87,74.17-99.2,98.73-30,17.84-62.24,28.63-97.5,28.55-51.27-.12-90.54-32.07-103.21-83.2-9.37-37.85-4.13-74.56,8.29-110.61,16-46.51,43.7-85.69,78.13-120.24,46.17-46.31,99.68-81.16,162-101.88,6.13-2,12.37-3.78,18.62-5.39,6.09-1.57,12.26-2.8,19.42-4.41L269.47.68,270,0c5,3.47,10.09,6.69,14.81,10.46,7.32,5.85,14.26,12.2,21.59,18a11,11,0,0,0,6.75,2.44c30.13-1.43,59.89.5,88.58,10.6,52,18.33,81.06,55.4,88.78,109.76,5.19,36.51-3.08,70.73-17.06,104-20.88,49.67-50.7,93.83-84.62,135.32A856.09,856.09,0,0,1,190,568.68,656.18,656.18,0,0,1,112,612c-1.39.65-2.75,1.38-4.11,2.07l.66,1.62c16.24-6.19,32.81-11.64,48.65-18.71,45.25-20.18,85.47-48.42,123.91-79.32C340.08,470.24,393.44,417,444.82,361.68c44.61-48,88.26-96.94,133.17-144.67C625.08,167,675.31,120.22,731.83,80.76c15.33-10.7,31.35-20.41,47.06-30.57L780.5,52a32.54,32.54,0,0,0-4,2.91c-53,52.19-103.62,106.49-149,165.48-34,44.2-64.84,90.44-87.85,141.5-14.22,31.58-24.7,64.26-28.44,98.86-2.56,23.6-2.1,46.91,7.75,69.1,15.79,35.54,47.9,53.86,86.64,50.81,49.24-3.88,92.31-23.25,131.22-52.2,79-58.74,132.56-135.83,162.07-229.56,10.17-32.29,15.65-65.58,13.85-99.5-4.56-86.09-46.47-147.07-125-182.81-4.64-2.11-9.5-3.76-14.25-5.63.1-.47.2-.94.31-1.41,7.36,1.6,14.9,2.63,22,4.92,34.81,11.16,62.75,32.46,85.82,60.23,38.87,46.8,53.23,101,47.41,161.12-9.46,97.77-49.71,182.27-110.91,257.66-33.4,41.14-72.4,76.18-117.58,104.11-41.62,25.74-86.18,43.66-135,50-25.67,3.35-51.26,4.14-76.37-4.17C442.49,628,402.7,586.27,408,519.09c3.3-41.41,16-79.78,36-115.8C453.49,386.2,464.59,370,475,353.43a6.57,6.57,0,0,0,1.31-3.48c-7.35,7.84-14.67,15.72-22.06,23.52-47.91,50.59-98,98.89-152.75,142.06-40.77,32.13-83.59,61.09-130.77,83.14-33.6,15.71-68.46,27.24-105.52,31.23-7.43.8-14.92,1.06-22.38,1.56ZM315.7,143.17c0-3.07,0-6.15,0-9.22-.26-27.34-3.31-54.2-13.21-80-1.33-3.46-2.58-4.6-6.6-3.69a401.08,401.08,0,0,0-171.79,85.08C68.71,181.86,30,238.68,18.93,311.74c-3.28,21.74-4.19,43.52,2.35,64.91,10,32.79,29.91,56.39,63.74,66,22.19,6.31,44,2.62,65.17-5.2,36.64-13.54,65.3-38,89.18-68C291.9,303.26,315.34,227,315.7,143.17Z"/></g></g></svg>