<svg xmlns="http://www.w3.org/2000/svg" viewBox="0 0 606.72 600"><title>Asset 50</title><g id="Layer_2" data-name="Layer 2"><g id="Layer_1-2" data-name="Layer 1"><path d="M554,418.78c1.86-.09,3-.18,4.12-.19,14.82,0,29.64.07,44.46-.06,3.07,0,4.21.65,4.12,4q-2,72.36-55.51,121c-30.9,28.1-67.7,44.34-108.42,51.85C390.31,605,338.91,599.18,289,581.6c-28.48-10-56.28-22-84.23-33.47-29.65-12.17-59.45-23.79-90.92-30.52-30.67-6.56-61.6-8.84-92.87-5.89-1.9.18-3.81.21-6.26.35C9.78,477.66,4.9,443.4,0,409c8.34-1.92,16.18-3.56,24-5.53,26.29-6.66,51.26-16.36,73.46-32.34,29.19-21,47.11-49.7,57.14-83.77,6.23-21.19,8.32-43,10-64.93,3.32-43.59,13.44-85.4,34.68-124,19.93-36.18,47.43-64.74,85.27-82.43A168.61,168.61,0,0,1,369.44.48c54.7,4,97.44,28.91,127.09,75.16,17.62,27.48,24.75,58.21,25,90.64.07,8.81,0,17.62,0,26.79H468.88c0-5.95-.1-11.81,0-17.67.36-17.48-.9-34.79-7.09-51.31-14.45-38.57-42.07-62.8-82.51-69.47C325.75,45.78,284,66.94,253.24,110.55c-18.1,25.64-27.61,54.84-32.53,85.52-2.56,16-3.66,32.19-5.47,48.29C209.69,294,195,340.13,162.39,379.13c-24.32,29.07-55,49.21-89.95,63.21A327.08,327.08,0,0,1,20.6,458.25a7.4,7.4,0,0,0-3.13,1.36c6.05-.29,12.1-.63,18.16-.88,43.18-1.82,85.29,4.45,126.62,16.66,35,10.35,68.66,24.48,102.41,38.3,27.39,11.22,54.9,22.18,84,28.37,49.41,10.54,97,6,141.62-18.9,27.45-15.34,47.66-37.38,58-67.59A106.12,106.12,0,0,0,554,423.3C554,421.92,554,420.54,554,418.78Z"/></g></g></svg>