<svg xmlns="http://www.w3.org/2000/svg" viewBox="0 0 492.41 552.55"><title>Asset 60</title><g id="Layer_2" data-name="Layer 2"><g id="Layer_1-2" data-name="Layer 1"><path d="M0,552.53V541.59c5.21-.37,10.29-.55,15.32-1.13,15.3-1.76,29.71-6.13,42.12-15.64,16.44-12.6,23.63-29.7,23.67-50.06.08-32.48,0-65,0-97.45q0-149.76,0-299.52c0-20-7-36.91-22.9-49.53C47.29,19.63,34.61,15,21,12.88,14.13,11.81,7.15,11.4,0,10.66V.17C1.13.11,2.18,0,3.24,0q127.4,0,254.81.07c25.64,0,51.08,2.39,76,8.64,24.64,6.17,47.44,16,66.14,33.85,16.35,15.57,26.29,34.75,31.21,56.58,4.41,19.55,5.76,39.35,2.6,59.23q-9.18,57.69-59.53,87.53l-1.35.83a14.24,14.24,0,0,0,1.95.78c30.06,6.9,55,22.6,76,44.79a147.43,147.43,0,0,1,36.77,67.94c4.63,19.13,5.44,38.49,3.75,58-1.8,20.8-6.6,40.75-16.39,59.31-13.21,25-33.17,42.91-58.51,55.07a186.87,186.87,0,0,1-63.17,17.4c-14.69,1.44-29.49,2.33-44.25,2.35q-152.73.3-305.48.11ZM251.59,264c0-1.79.1-3.77,0-5.73s.51-2.78,2.5-3.27a162.28,162.28,0,0,0,32.3-11.59c33.58-16.38,52.06-43.52,57.38-80.13,2.21-15.22,2-30.5,1.25-45.77-.93-19.13-3.71-37.95-10.84-55.91-7.07-17.8-18-32.38-35-41.92-12-6.75-25-9.94-38.64-10.6-20.9-1-41.55.56-61.22,8.49-16.06,6.47-27.84,17.34-33.67,34-3.36,9.56-4,19.51-4,29.54q0,147.06,0,294.11c0,33.77-.21,67.55.16,101.33.25,23.87,11.3,41.7,32.17,53.38,14,7.85,29.39,11.25,45.18,12.81a210.64,210.64,0,0,0,54.08-1.48c16.7-2.65,32.65-7.54,47.17-16.43,25.46-15.58,39.52-39.06,45.45-67.58a233.83,233.83,0,0,0,.84-93.17,119.81,119.81,0,0,0-24.16-52.87c-21.15-26.29-49.72-38.91-82.17-44.05C271.06,265.67,261.58,265.05,251.59,264Z"/></g></g></svg>