<svg xmlns="http://www.w3.org/2000/svg" viewBox="0 0 492.88 600"><title>Asset 18</title><g id="Layer_2" data-name="Layer 2"><g id="Layer_1-2" data-name="Layer 1"><path d="M482.42,51.41C459.7,7.49,420.35-5.65,375.44,2.1c-38.37,6.59-68.87,40.31-74.23,79.35-1.2,8.81-2.11,17.67-3.28,27.55-72.35.62-144.35.39-217.42.62V57.09H0v59.44H0v17.26H0v100.7h81.3V189.05c72.89.14,144.68-.25,217.26.78v10.48c0,18.26.09,36.54-.12,54.81-.5,47-1,94.06-1.78,141.09a187.61,187.61,0,0,1-11.54,61.72C272.42,492.49,250.1,517,212,522.5c-25.66,3.68-49.7-.62-70.31-18.45-17.74-15.39-26.61-35.75-32-57.4a284.87,284.87,0,0,1-8.06-78.14,65.51,65.51,0,0,1,1.26-7.86h26.5v-80H0v80.51H22.31c.3,2.32.58,3.51.6,4.72.41,22.55.5,45.05,4.09,67.48,4.83,30.14,12.56,59.25,27.38,86.06,16.17,29.23,38.8,52.17,69.81,65.37,45.83,19.5,92.52,20,139.23,3.14,32.93-11.84,57.84-33.71,76.31-63.31a221.13,221.13,0,0,0,28.63-70c3.77-17.15,7-34.67,7.93-52.16,1.57-28.67,1.16-57.45,1.45-86.17.36-37.14.56-74.28.88-111.42.05-4.83.41-9.66.61-14.42,8.62-.39,16.28-.69,23.91-1.08,37-1.87,64.29-19.1,79.73-52.73C495.76,108.58,496.8,79.22,482.42,51.41ZM411.26,96.15c-1.11,5.87-6.59,11.39-12.28,12.39a39.85,39.85,0,0,1-6.46.43c-4,.07-8,0-12.27,0-2.73-13.28.37-21.68,9.18-26.94,6.34-3.77,10.87-3.6,16.26.38C410.39,85.89,412.34,90.42,411.26,96.15Z"/></g></g></svg>