<svg xmlns="http://www.w3.org/2000/svg" viewBox="0 0 457.32 600"><title>Asset 108</title><g id="Layer_2" data-name="Layer 2"><g id="Layer_1-2" data-name="Layer 1"><path d="M449.91,332.78c-13.08-41.33-40.74-65.72-55.87-79.07-11.1-9.8-35.51-30.87-74.13-42.19a183.92,183.92,0,0,0-50-7.41,122.75,122.75,0,0,0,17.3-40.3,120,120,0,0,0,2.86-20.71h0a136.77,136.77,0,0,1,25.46,6.09,151.63,151.63,0,0,1,43.33,24.13c11,8.62,18.19,16.65,27,26.42,6.52,7.22,11.78,13.74,15.75,18.93a4,4,0,0,0,3.62,1.53h.07c1.5-.18,3.1-2.44,3.46-4.76a8.83,8.83,0,0,0-.6-4.34,11.53,11.53,0,0,0-1.05-2.3,73.31,73.31,0,0,0-10.8-14.37c-15.68-18.64-31.89-29.23-42.56-36.11a241.74,241.74,0,0,0-32.7-17.49,276.88,276.88,0,0,0-29.93-11.5c.06-4,0-9.57-.47-16.24-1.13-14.81-2.91-38.2-16.35-60.83a106.86,106.86,0,0,0-37.25-36.87c-5.63-3.33-42.38-24.26-84.4-11-9.88,3.12-35.77,11.28-46,35-2.12,4.92-9.09,21.08-.38,36.11a34.9,34.9,0,0,0,31.18,17.11c16.79-.77,26.64-14.69,28.88-17.86,5-7.13,3.19-9.43,9.13-18.25,3.2-4.76,9.45-14.06,19.76-18.25,15-6.08,30.43,2,35.73,4.57C250.2,52,258,70.19,262.9,81.13A106.32,106.32,0,0,1,272,128.64h0a266.61,266.61,0,0,0-59.3,2.43c-20.4,3.15-70.46,13.31-115.56,47C42.31,219-6,295.49.6,384.94c5.65,76.83,50.22,127.33,63.58,141.41C121,586.2,190.5,595.85,209.58,598.2a239.87,239.87,0,0,0,98.36-8.26c40.61-12.49,66.77-32.89,72.7-37.63,16.1-12.89,53.15-46.14,68.42-100.08,6.24-22,7.36-43.05,7.7-49.89C457.57,385.73,458.78,360.75,449.91,332.78ZM344.44,546.6c-10.6,9-54.89,45.31-117.46,41.63-42-2.48-71.34-21.78-83.83-30.23C54.51,498,49.91,382,49.64,371s-1.08-96.46,58.73-165.65c11.91-13.76,33.06-37.66,69.86-53,39.53-16.5,75.32-14.05,92.64-11.68a141.23,141.23,0,0,1-19.19,65.57,116.71,116.71,0,0,0-26,2.85c-8.18,1.85-47.18,10.69-51.69,33.08-1.16,5.71-.26,13.32,4.36,18.05,8.32,8.5,24.76,3.72,32.32,1.52,21.45-6.23,34.45-21.82,40.48-29.08a97.35,97.35,0,0,0,12.36-19c13.88,1.51,69.93,9.2,109.47,57,33.13,40.07,34.92,84.41,35.93,109.48C409.6,398.37,413.22,488.36,344.44,546.6ZM246.63,215.32h0c-4.64,9.88-12.85,22.9-27.08,32.5-12.08,8.14-24.24,11-30.22,8.56a12.86,12.86,0,0,1-5.7-4.43,10.92,10.92,0,0,1-1.57-6.84,13,13,0,0,1,3.7-7.42,60.9,60.9,0,0,1,19.39-14.11C221.05,217,237.22,215.58,246.63,215.32Z"/></g></g></svg>