<svg xmlns="http://www.w3.org/2000/svg" viewBox="0 0 629.58 600"><title>Asset 88</title><g id="Layer_2" data-name="Layer 2"><g id="Layer_1-2" data-name="Layer 1"><path d="M413.71,20.48c-2.33,3.51-4.95,6.86-6.93,10.56-6.23,11.57-12.47,23.16-18.24,35-5.17,10.58-9.89,21.39-14.46,32.25a27.22,27.22,0,0,0-2.2,10.65q.6,39.48,1.75,79c1.42,46,3.09,92.06,4.58,138.1,1.19,36.76,2.17,73.52,3.44,110.28.86,24.75,1.42,49.55,3.33,74.23,1.13,14.59,3.93,29.15,7.26,43.43,3.15,13.52,11,24.56,24.15,30.18,7.15,3.07,15.16,4.15,22.82,6,1.85.44,3.85.19,5.79.3,2.84.15,4.87,1.15,4.84,4.47s-1.93,4.56-4.82,4.48a73,73,0,0,1-11.56-.87c-11.21-2.16-22.39-4.66-32.66-9.85-15.22-7.69-27-19.21-35.79-33.74-12.71-21-18.6-44.11-20.79-68.24-1.27-14.06-1.81-28.2-2.38-42.31q-2.29-56.85-4.29-113.71c-.81-23.21-1.26-46.44-1.93-69.66a97.91,97.91,0,0,0-1.69-16.85,12.53,12.53,0,0,0-1,2.35c-4.27,22.43-8.6,44.84-12.74,67.3-4.7,25.49-8.87,51.08-13.94,76.5-5.6,28.08-11.12,56.22-18.28,83.92-5,19.22-12.64,37.74-19.16,56.55a6.51,6.51,0,0,1-2.15,3.36,5.38,5.38,0,0,1-4.11.58c-.78-.28-1.48-2.2-1.35-3.29a20.3,20.3,0,0,1,1.75-5.49c12.14-28,19.88-57.42,25.84-87.24,7.46-37.37,14.09-74.92,21-112.41,2.46-13.32,4.43-26.73,7.1-40,4.91-24.46,10.25-48.84,15.22-73.29a64.44,64.44,0,0,0,1.46-14.37Q331.89,129.74,329.78,61c-.42-13.5-1.56-27-2.42-41.23a16,16,0,0,0-2.72,2.36C312.44,40.35,302.9,60,294.39,80.17c-14.79,35.07-25.19,71.47-33.45,108.58-9.55,42.93-16.39,86.31-22.83,129.78-5.53,37.32-11.08,74.65-17.63,111.81-5.16,29.35-12.43,58.27-22.82,86.32a23.88,23.88,0,0,0-1,9.1c.93,20.87,2.08,41.74,3,62.61.25,5.26-.74,6.31-5.83,6.37q-13.93.15-27.88-.06c-5.61-.08-6.36-.92-6.65-6.38-.14-2.71,0-5.44-.37-8.12-.44-3.39-1.66-3.91-4.69-2.13s-6,3.6-8.85,5.54c-10.33,7-22,10.45-34.08,12.41A149.68,149.68,0,0,1,93,598.16a89.65,89.65,0,0,1-44.78-10.33c-24.3-12.6-40-32.25-45.89-59.4C-2.5,506,.11,484.56,10.62,464.17A89,89,0,0,1,36.3,433.91c24.05-18.33,51.23-23.33,80.2-17.44,23.58,4.79,42.76,17.17,56.4,37.68,8.37,12.6,13.68,26.38,18,40.68.68,2.22,1.34,4.44,2.06,6.65.11.32.51.55,1.46,1.52.85-2.17,1.69-4,2.27-5.83,9.6-30.94,15.87-62.63,20.86-94.57q8.19-52.49,15.93-105c7.5-50.78,16.42-101.27,30.08-150.81,9.74-35.34,21.7-69.88,39.26-102.19,7.29-13.4,15.72-26.18,23.66-39.22,2.18-3.59,5.39-5.56,9.65-5.34,8.7.43,17.4.82,26.08,1.56,5.07.44,6.09,1.73,6.27,7.2.61,18.19,1.06,36.38,1.62,54.57.18,5.71.54,11.42.82,17.13l1.43.34c1.39-2.64,3-5.18,4.13-7.93,8.05-19.79,19-38,30-56.27,1.29-2.14,3.42-3.83,4.44-6.06,3.66-8,9.58-10.86,18.22-9.76,6.31.81,12.77.39,19.12,1,6.68.62,7.55,1.61,7.81,8.28.83,21.86,1.52,43.72,2.28,65.57q2,56.87,4,113.73c.91,25.34,1.92,50.67,2.82,76q2.71,76.89,5.33,153.78c.61,17.8,1,35.61,1.61,53.4.82,23.4,1.36,46.83,6.26,69.87,2,9.32,4.74,18.24,10.1,26.36,7.18,10.89,17.6,16.86,29.68,19.76a90.27,90.27,0,0,0,38.62.78c13.79-2.7,25.66-9,36.51-17.91a76.44,76.44,0,0,0,25.37-38.63,82.2,82.2,0,0,0-1.74-52.42c-8.24-22.62-23.34-38.74-45.17-48.8a81.79,81.79,0,0,0-27.29-7.41c-1.16-.1-2.64,0-3.35-.66-1.13-1-2.49-2.71-2.36-4s2-3.17,3.14-3.14a59.15,59.15,0,0,1,13.23,1.46c16.75,4.32,31.91,11.89,44.55,23.83,16.11,15.2,26.71,33.42,29.2,55.83,1.47,13.24.87,26.28-3.08,39.08a82.8,82.8,0,0,1-17.35,30.51,92.55,92.55,0,0,1-37.68,26.26c-29.68,11-58.53,8.17-85.61-7.14-21.24-12-33.52-31.84-41.76-54.56-8.66-23.84-10.76-48.62-12-73.57-1.16-23.38-1.94-46.78-2.79-70.18-.84-22.82-1.52-45.65-2.34-68.48q-2-57.15-4.15-114.31c-.51-14.51-.78-29-1.34-43.53q-2.13-55.4-4.42-110.79c-.35-8.71-.61-17.41-.95-26.12-.05-1.3-.32-2.6-.49-3.91ZM157.63,547.7h0c-.63-8.68-1-17.38-1.93-26-.92-8.84-2.16-17.65-3.51-26.44-2.35-15.35-6-30.41-13.06-44.33-7.5-14.71-18.67-25.26-35.63-27.64a79.83,79.83,0,0,0-44.67,6.52c-33.75,15.11-54.65,49.7-50.5,87.74,3.76,34.57,27.44,61.14,60.14,69.63,30.09,7.81,58.21,1.82,83.41-17,4.71-3.52,7-7.37,6.2-13.21C157.69,553.91,157.78,550.79,157.63,547.7Z"/></g></g></svg>