<svg xmlns="http://www.w3.org/2000/svg" viewBox="0 0 547.88 610"><title>Asset 42</title><g id="Layer_2" data-name="Layer 2"><g id="Layer_1-2" data-name="Layer 1"><path d="M81,610v-8.69h99.32l0-.49c-6.77-1.27-13.61-2.25-20.3-3.86-24.48-5.93-46-17-61.63-37.4-13.72-18-20.19-38.39-16.5-61,2.76-16.85,12.18-29.27,29.25-34,16.23-4.47,31-1.11,42.86,11.33,15,15.74,15.1,41.86.59,57.89S115.26,552,97.73,538.93c-.21-.15-.46-.22-1.49.12,2.79,4.66,5.25,9.54,8.41,13.94,10.63,14.82,25.19,24.45,42.06,30.81a145,145,0,0,0,57.3,8.45V17.74c-1.33-.06-2.6-.16-3.87-.16q-41.85,0-83.7,0c-23.2,0-45.44,4.2-65.87,15.72-15.21,8.58-27,20.47-34.38,36.48-.21.44-.36.9-.85,2.13,2.16-1.48,3.64-2.59,5.21-3.56,14.06-8.74,34.74-7.42,48,3,13.91,11,19.32,29.56,13.7,47A41,41,0,0,1,44.79,147C19.52,148.05.24,129.79,0,104.08c-.3-34,15.31-59.3,43.88-76.92,15.94-9.83,33.57-14.87,52-17.22a7,7,0,0,0,3.38-1H.24V0H547.88V8.7H442.64v.39c7.78,1.55,15.66,2.73,23.32,4.73,23.72,6.2,44.46,17.48,59.33,37.53,13.28,17.92,19.43,38.11,15.81,60.43-3.11,19.13-16.79,32.43-34.8,35-18.29,2.62-36.08-6.5-44.11-22.61-8.7-17.45-4.68-38.86,9.6-51.24,14.52-12.58,37-13.84,52.84-3l2,1.36c-.55-1.53-.76-2.41-1.15-3.2-9.9-20-26.27-32.73-46.51-41a125.68,125.68,0,0,0-46.27-9.4c-33-.34-65.93-.15-98.89-.18-.51,0-1,.09-1.85.17V591.93c.19.09.51.39.85.4,26.14.71,51.22-3.4,74.08-16.93,13.83-8.19,24.67-19.28,31.7-33.88a6.32,6.32,0,0,0,.45-1.08,4.33,4.33,0,0,0-.09-1.1c-1.16.7-2.2,1.31-3.23,1.95-16.34,10-39,7.55-52.62-5.75s-16.5-35.5-6.5-52.37a42.27,42.27,0,0,1,42.58-19.92c18.17,2.78,29.35,13.8,34,31.13,5.19,19.5.62,37.93-8.91,55.07-12.7,22.87-33,36.54-57.4,44.34-10.15,3.25-20.77,5.05-30.51,7.35H460.93V610Z"/></g></g></svg>