<svg xmlns="http://www.w3.org/2000/svg" viewBox="0 0 485.5 600"><title>Asset 36</title><g id="Layer_2" data-name="Layer 2"><g id="Layer_1-2" data-name="Layer 1"><path d="M255.06,194.46c15.69,2.19,31.07,3.59,46.13,6.57,56,11.05,105.79,34.25,143.09,78.76,49.31,58.84,54.66,138.11,14.49,205-35.84,59.7-89.45,95.48-156.87,108.46C225,608,150.47,599.11,81.13,560.53c-28.2-15.7-51.46-37-64.22-67.59-6.79-16.28-9.24-33.09-2-50.11,7.83-18.42,24.87-28.5,44.17-26.09,17.17,2.14,31.59,17,33.91,35,2.48,19.31-7.66,36.72-25.81,44.32-1.57.66-3.12,1.38-5.05,2.24,6.68,18.53,17.65,33.75,31.67,46.8,25.35,23.6,55.88,37.12,89.33,44.14,38.22,8,76.76,10.77,114.61-1.34,65.9-21.08,108.44-65.84,128.73-131.59,14.62-47.38,14.8-95-3.82-141.36-24.23-60.25-70.61-94.71-132.91-109-9.2-2.12-18.65-3.11-28-4.51a41.08,41.08,0,0,0-6,0c-1.89,16.46-3.13,32.82-5.74,49-6.47,39.88-18.54,77.56-46.62,108.14-23,25.08-52.24,37.45-85.79,40.31-19.79,1.68-39.71,1.41-58.14-6.36-12.66-5.34-25.54-12-35.74-21C-6.88,344.4-7.63,300,20.06,267.34c22.78-26.86,52.72-41.92,85.23-52.86,31.1-10.46,63.3-15.27,95.88-18,1.45-.13,2.9-.3,4.77-.49V166.56c-21.19-4.45-42.27-8-62.89-13.4-34.45-8.95-67.51-21.65-94.88-45.28A101.91,101.91,0,0,1,26.1,81c-10-17.79-4.88-38,10.74-51.17C51.53,17.45,69.23,12.73,87.7,10.2c44-6,83.27,3.36,115.35,35.72,21,21.2,34.28,47,42.47,75.34C249,133.39,251,146,253.2,158.45c.66,3.62,1.71,5.13,5.57,5.14,43,.09,84.33-7,122.19-28.61,22-12.53,39.1-29.76,49.19-52.55-6.65-5.38-14-9.54-18.92-15.67a41.21,41.21,0,0,1-.06-51.27C422.66.93,443-4,460.56,3.47s27,26.17,24,46.93c-4,26.91-19.82,46.43-40.11,62.67-30.39,24.32-66,37.48-103.47,46.14a345.3,345.3,0,0,1-79.25,9.09c-2.18,0-4.35.28-6.64.43Zm-48,7.25c-3.4-.17-5.35-.53-7.25-.33-28.06,2.9-55.61,8-81.53,19.71C60,247.39,38.86,295.43,52.62,352.3c8.49,35.08,37.31,50.51,71.5,39,24.5-8.27,39.74-26.58,51.45-48.38,13.46-25.05,20.78-52.16,24.79-80.09C203.24,242.7,204.81,222.43,207,201.71Zm-1.72-42.19c-.71-7-1.19-12.68-1.87-18.31-3.81-31.9-11.12-62.77-27.94-90.61C163.17,30.21,146.14,16.33,121.73,13,94.85,9.33,73,25.6,69.94,52.44c-2.35,20.72,4.55,38.81,18.13,54.34,13.9,15.89,31.38,26.71,50.65,34.89A253,253,0,0,0,205.3,159.52Z"/></g></g></svg>