<svg xmlns="http://www.w3.org/2000/svg" viewBox="0 0 424.42 600"><title>Asset 73</title><g id="Layer_2" data-name="Layer 2"><g id="Layer_1-2" data-name="Layer 1"><path d="M338.17,34.36c4,8.21,3.11,17.14,2.75,20.62-.56,5.47-2.11,10.66-11,27.15-11.14,20.66-11.84,18.32-14.09,25.09-5.19,15.64-2.09,30.18,0,37.11A57.3,57.3,0,0,0,331,170.1c3.2,3.08,14.65,13.77,32.65,15.12,21.4,1.61,36.19-11.15,39.87-14.43,14-12.51,17-28.47,19.24-40.21a99.72,99.72,0,0,0-5.5-55.32C406.41,48.48,387,34.42,376,26.46A141.35,141.35,0,0,0,303.8.34c-40.93-2.87-70.73,13.23-82.13,19.59A156.55,156.55,0,0,0,170.47,66a148.8,148.8,0,0,0-21.65,44.67,149.29,149.29,0,0,0-5.16,33.68c-.41,10.09-1.1,31.56,7.56,55.33,12,32.83,35.2,52,48.8,63.23,4.36,3.6,17.11,12.13,42.61,29.21C261.83,305,267,308,279.41,316.85c20.57,14.62,30.86,21.94,37.8,29.21,21.51,22.51,26.75,50.24,29.21,63.23,1.43,7.56,10.7,61.16-22.34,110.31a157.86,157.86,0,0,1-41.93,41.24A162.45,162.45,0,0,1,169.09,587c-14.61-2.17-30.31-4.51-47.08-15.81a86.16,86.16,0,0,1-30.93-35.74,83,83,0,0,1-7.21-42.61,80.16,80.16,0,0,1,8.59-28.18c1.12-2.15,3.94-7.31,15.12-20.62,14.94-17.8,17.08-17.14,22.68-25.09,3.28-4.66,14.61-20.73,13.06-42.27-1.84-25.62-20.58-40.81-22-41.92-23.26-18.26-52.07-10.21-57.39-8.6C30,336.43,16,371.31,9.64,387.29c-17.76,44.36-6.76,86.08-.35,104.13,17.45,49.14,54.55,74.09,68.05,82.14,18.7,11.15,34.61,15.25,48.8,18.9,60.55,15.58,112,3.13,132-2.75,44.56-13.12,73.59-35.12,81.79-41.58,14.32-11.29,40.37-32.3,59.11-69.77,7.5-15,22.39-45.71,19.93-87.63-.81-13.75-3.13-49.07-27.15-80.41-8.74-11.41-17.47-18.54-32.65-30.93-8.16-6.67-18.94-14.83-53.61-36.09-45.67-28-55-31-73.54-47.77-11.24-10.16-20.42-18.59-28.52-33-4.57-8.11-16.67-30.31-13.75-60.14,3.59-36.56,27.23-58.85,33.34-64.26,1.46-1.3,37.37-32.17,80.07-24.06C311.35,15.65,330.82,19.35,338.17,34.36Z"/></g></g></svg>