<svg xmlns="http://www.w3.org/2000/svg" viewBox="0 0 518.28 793.76"><title>Asset 71</title><g id="Layer_2" data-name="Layer 2"><g id="Layer_1-2" data-name="Layer 1"><path d="M518.28,397c-1.1,63.22-8.21,126.12-27.58,187.22-14,44.26-33.46,85.81-62.39,122.45-26.72,33.84-58.95,60.91-100.23,74.79-71.27,23.94-137.3,13-196.59-33.66-36-28.37-61.23-65.34-80.89-106.31C28.68,595.85,15.46,547.6,8,497.67,2.14,458.73-1,419.55.3,380.18c2.26-66.95,12-132.59,36.15-195.53,15.82-41.31,36.84-79.58,66.79-112.49C132.56,39.94,167.4,16,210.2,6.1,278.47-9.67,340,5.12,393.62,50.56c31.77,26.92,54.83,60.53,72.95,97.68,22.66,46.45,36.13,95.67,43.75,146.64A768.15,768.15,0,0,1,518.28,397ZM390,182.41c-.31-37.76-11.4-74.61-37.28-106.18-20.95-25.56-47.47-42-80.81-45.74-38.15-4.25-70,9.42-96.39,36.25-29,29.53-43.22,65.86-45.71,106.78-1.91,31.42,2.4,62,16.53,90.51,5.5,11.09,12.59,21.37,18.43,32.31,7.08,13.26,12.14,27.42,8.1,42.51-2.68,10-7.25,19.58-11.79,28.95-4.3,8.88-10.24,17-14.47,25.87-17.46,36.75-21.24,75.34-13.66,115,7,36.77,23.41,68.68,52.14,93.34,26.92,23.1,58,33.07,93.38,27,29.36-5.08,53-20.32,71.95-42.89,27.68-33,39.47-71.76,39.49-114.4,0-34.93-8.21-67.53-27.76-96.92-3.26-4.9-5.75-10.32-8.45-15.57-10.09-19.57-10.48-39.45-.94-59.23,4.6-9.55,9.91-18.79,15.35-27.9C384.1,245.25,389.61,215.84,390,182.41Z"/></g></g></svg>