<svg xmlns="http://www.w3.org/2000/svg" viewBox="0 0 812.87 600"><title>Asset 10</title><g id="Layer_2" data-name="Layer 2"><g id="Layer_1-2" data-name="Layer 1"><path d="M90.24,140.62l-33.4-22c2.89-6.21,4.23-11.48,7.31-15.38C100,57.8,144.86,25,200.89,9.14,259.07-7.3,315.79-.85,371,22.77c28.14,12,52.94,29.6,78.14,46.51,24.49,16.43,49,32.59,77.35,42.1,66.43,22.3,130.14,18,190.26-19.43A139.74,139.74,0,0,0,766,40c7-12.79,9.89-13.56,23.15-6.28,8.27,4.54,18.84,6.51,23.68,18.62C786.19,102,745,134.74,692.15,154.91S585.65,173,530.71,161.53c-10.45,22.62-7.69,46.54-14,68.55-6.11,21.42-9.5,43.59-15.18,65.14-5.87,22.24-13.05,44.12-19.88,66.91,22.07,13.52,45.42,12.18,68.29,12.93,23.38.77,46.19-1.83,68.56-9.6s43.23-18.42,60.23-34C695.57,316,709,296.8,725.14,277.85c5.35,1.89,12,3.89,18.41,6.6,5.55,2.36,10.75,5.53,15.2,7.87.5,3.43,1.5,5.48.89,6.82-15.36,34.22-38.48,61.84-70.16,82.2C624.79,423,554.93,430.43,481.26,413.17c-6-1.4-12-2.46-19.74-4-4.71,8-9.32,15.43-13.45,23.07a359.11,359.11,0,0,1-71.51,93.07C324.76,573.45,264.11,599,192.63,600c-41.34.55-79.82-6.92-115.36-28.08-67-39.9-92.9-118.45-67.91-188.15,29.26-81.61,90.2-124.07,174.26-134.2,53.53-6.46,105.6,2.22,153.07,28.53,27.23,15.09,52.28,34.12,78.36,51.31,6.6,4.35,13.38,8.43,22,13.83,3.56-7.71,7.06-13.67,9.13-20.09C462.69,272.05,473.4,219.64,481,166.58c1-7,.13-14.17.13-23-40.35-25-79.86-52.86-122.37-75-81-42.18-175.92-25.78-240.8,41.57C109.3,119.08,101.2,128.53,90.24,140.62Zm329,250c-31.91-21.86-60.75-42.65-90.62-61.87C272.28,292.46,212,282.62,147.44,303.84,96.83,320.47,63,354.37,50.75,405.49c-16.08,66.88,14.72,125.16,85.31,143.15,49.26,12.54,97.26,6.16,143.6-13.78C345.47,506.54,386.15,453.94,419.24,390.57Z"/></g></g></svg>