<svg xmlns="http://www.w3.org/2000/svg" viewBox="0 0 562.36 600"><title>Asset 35</title><g id="Layer_2" data-name="Layer 2"><g id="Layer_1-2" data-name="Layer 1"><path d="M281.25.18q118.08,0,236.15,0c26.63,0,44.57,18,44.73,44.87.11,17.36-.45,34.74.17,52.08.74,20.72-5.33,39.36-15.44,57q-15.95,27.78-32.29,55.35C504.11,227,500.74,246.07,501,266.21q.78,57.77.86,115.53c0,9.93-.62,19.86-4.74,29.25-7.61,17.33-21.36,25.47-39.59,26.72-17.07,1.17-34.2,0-51.31,1.27-25.34,1.85-41.77,16.12-54.16,36.65-18.62,30.9-37,61.93-55.81,92.73-8.1,13.29-19.18,23.38-33.91,29.28-5.54,2.22-11.22,2.22-16.84,2.23-61.58.13-123.17.23-184.75,0-19.72-.09-38-13.92-32.5-38.16a69.44,69.44,0,0,1,8.2-20.36q27.74-46.5,55.73-92.84a7.84,7.84,0,0,0,.8-1.17c.93-2.6,4.23-5,2.74-7.61s-5.2-1.51-7.94-1.47c-13.09.2-26.14-.24-39.21-1-28.34-1.55-45-17.51-45.57-46-.7-37.32-.27-74.67-.17-112A52.66,52.66,0,0,1,5,263.06c6.25-19.47,21.09-31.39,41.6-32,20.9-.65,41.83-.95,62.74-1,34.72-.14,69.45-.24,104.16.24,8.18.11,13.72-2.24,17-9.62,1.87-4.26,7.76-8.29,5.67-12.27-2.2-4.18-8.73-1.62-13.26-1.63-45.66-.18-91.32,0-137-.08-12.6,0-25.19-.6-37.79-.71C18.59,205.69,1.93,187.54,1,160.39-.38,121.68-.27,82.85,1,44.12,1.78,18.68,17-.15,47.23,0c78,.4,156,.13,234,.13Z"/></g></g></svg>