<svg xmlns="http://www.w3.org/2000/svg" viewBox="0 0 405.69 600"><title>Asset 4</title><g id="Layer_2" data-name="Layer 2"><g id="Layer_1-2" data-name="Layer 1"><path d="M397.24,364.36a167,167,0,0,1,8.42,52.39c0,57.57-29.41,108.92-75.43,142.52,1.34-1,2.68-1.94,4-3,32.66-25,55.8-56.78,66.54-96.94,3.46-12.89,4.59-26,4.9-39.37A159.78,159.78,0,0,0,397.24,364.36ZM342.62,282c-.27-.38-.52-.77-.75-1.14-.41.51-.84,1-1.27,1.51q4.06,3.4,7.91,7A89.53,89.53,0,0,1,342.62,282Zm54.62,82.37a.56.56,0,0,0,0-.12c-8.4-24.61-22.74-46.77-41.62-67.14-2.37-2.56-4.77-5.11-7.07-7.75a89.53,89.53,0,0,1-5.89-7.36c-.27-.38-.52-.77-.75-1.14-4.4-7-4.2-14.89-.95-22.34a91.54,91.54,0,0,1,9.46-16c15.1-21.33,24.47-44.94,26.73-70.87q2.89-33.18-7.73-62.46a1.11,1.11,0,0,0-.07-.16C343.05,45.17,278.26,0,202.5,0,133.89,0,74.29,37,44.15,91.46a167.79,167.79,0,0,0-8.95,20.93,132.49,132.49,0,0,0-6.34,61.54c3.17,25.3,12.52,47.81,26.89,68.56a106.85,106.85,0,0,1,7.85,12.36c4.6,9.14,4.52,18.16,0,26.49a30.83,30.83,0,0,1-2.45,3.83c-.72,1-1.5,2-2.36,2.94-7.79,8.8-16.3,17.05-23.42,26.36C16.33,339.31,4.19,367.3,1,398.53c-4.95,48.15,8.67,90.81,39.59,128A192.62,192.62,0,0,0,99.77,574.4a31.82,31.82,0,0,1,2.74,1.76.56.56,0,0,0,0,.12A219.48,219.48,0,0,0,202.5,600c41.73,0,80.5-11.34,112.77-30.8,5-3.15,9.86-6.3,14.57-9.65a3.48,3.48,0,0,1,.39-.28c1.34-1,2.68-1.94,4-3,32.66-25,55.8-56.78,66.54-96.94,3.46-12.89,4.59-26,4.9-39.37A159.78,159.78,0,0,0,397.24,364.36ZM285,447.89c-1.09,26.73-3.54,53.18-11.67,78.8-5,15.82-12.34,30.4-24.3,42.34S222.6,586,206.44,586.69c-34,1.54-55.47-16.33-68.56-46-7.73-17.54-12-36.11-13.67-55.2-1.44-16.31-2.55-32.67-3.82-49-.74-32,6.55-62.45,15.76-92.69a380,380,0,0,0,11.4-46.33c1.9-11,1.64-22.52,1.23-33.76-.83-23.16-9.76-44.37-17.19-65.89-4.86-14.07-8.82-28.49-9.89-43.22-1-14.31,0-28.84,1.06-43.2a144.4,144.4,0,0,1,12.5-48.65c7.3-16.33,17.36-30.6,33-40,28.38-17,62.83-11.39,85.16,13.54,12,13.38,19.46,29.14,24.22,46.21q17.6,63.06-6.33,124.1a346.28,346.28,0,0,0-12.88,41.21c-3.75,15-2.76,30.38-1.4,45.66,1.74,19.41,8.18,37.65,14.21,56A275.25,275.25,0,0,1,285,447.89Z"/></g></g></svg>