<svg xmlns="http://www.w3.org/2000/svg" viewBox="0 0 356.46 600"><title>Asset 98</title><g id="Layer_2" data-name="Layer 2"><g id="Layer_1-2" data-name="Layer 1"><path d="M278.06,181.19c4.29-5.34,8.72-9.91,12-14.82,3-4.57,7.51-5.12,12-5.41,16.3-1.06,21.47,7,22.49,22.12.91,13.5-1.43,26.58-7.92,38.51-7.84,14.39-17.4,27.47-32.14,35.75-4.29,2.42-6.33,5.38-6.28,11,.22,24.34-.38,48.69-.5,73-.09,16.29.25,32.57.19,48.85,0,11.53-.71,23.05-.59,34.57.18,18,.45,36.1,1.42,54.12a59.68,59.68,0,0,0,4.48,19c4.42,10.78,14,13.41,24.72,13.67,6.42.16,13.06.24,19.19,1.89,10.51,2.84,18.55,9.07,23.54,19.41,7.76,16.08,7.42,32.31,1.18,48.28-4.18,10.73-12.49,17.67-24.95,17.84q-4.47.06-8.94.24c-10.07.42-18.13-5.31-27-8.57-10.47-3.83-21.22-5.37-32-.86-7.05,3-13.86,7.2-21.21,8.55-11.44,2.1-23.1,3.81-33.58-5.27-5.94-5.14-8.72-11.44-10.84-18.12-4.07-12.75-3.3-25.68,1.6-38.15,3.9-9.88,10.65-17.07,20.31-22.06,9-4.66,18.39-2.43,27.58-2.89,14.13-.7,20.82-7.32,23.64-20.59a246.26,246.26,0,0,0,4.36-33.05c.62-8.7-.28-17.5-.3-26.26,0-13.77.22-27.53.2-41.3,0-20.14-.24-40.28-.26-60.41s.11-40,.14-60a28.22,28.22,0,0,0-.57-3.56c-4.57,1.27-8.8,2.7-13.14,3.58-9.3,1.9-18.67,3.52-28,5.25-10.58,2-21.21,3.73-31.72,6.08-4.74.79-3.65.75-4.72,4.94-2.32,11.63-4,23.39-6.13,35.06-1.8,9.78-3.89,19.51-6,29.23-3.28,15.19-6.29,30.45-10.13,45.49C166,412.2,161.32,428,156.48,443.64c-1.92,6.22-4.94,12.11-7.45,18.15-.54,1.31-1,2.57-1.47,4-3.44,9.74-6.38,17.62-12,25.33-2.6,4-5,8.07-7.42,12.07a105.34,105.34,0,0,1-26.62,29.62c-8.61,6.53-18.63,10.08-29.83,11.16a62.59,62.59,0,0,1-25.06-2.27c-9.48-2.91-16.34-9.44-22-16.72A144.85,144.85,0,0,1,9.17,499.12,77,77,0,0,1,3,478.45C1.29,468.45-.2,458.23,0,448.14a179.86,179.86,0,0,1,4.15-32.29,172.92,172.92,0,0,1,8.94-30.68c3.49-8.48,8.94-16.19,13.87-24a93.61,93.61,0,0,1,10.49-14.29,335.9,335.9,0,0,1,24-23.62c7.29-6.35,15-12.53,23.44-17.18,11.85-6.54,24.18-12.6,36.94-17a491.15,491.15,0,0,1,50.85-14.26c2.13-.41,4.56-.73,6.82-1,11.07-1.51,8.53-1.76,10.22-11.21.71-7,2.39-13.9,3.58-20.86.44-3.47.69-6.67,1.2-10,2.6-16.8,5-33.63,8.06-50.35,2.09-11.45,5.14-22.74,7.77-34.09,3.66-15.79,6.84-31.72,11.16-47.33,3.25-11.73,8-23.05,12.06-34.57,1.87-5.31,3.31-10.84,5.59-15.9,4.54-9.18,9.47-18.2,14.84-26.91,2.54-4.12,6.36-7.49,9.84-11,2.78-2.78,1.72-4.68-1.33-5.28a33.86,33.86,0,0,0-11-.53c-8.36,1.18-16.68,2.75-24.92,4.57-15.33,3.38-30,8.81-43.05,17.54-7.42,5-15.08,10.22-20.75,16.93-5.52,6.55-9.5,14.79-12.58,22.89-3.43,9-6.29,18.62-7.22,28.18-1.32,13.63-.54,27.45-.87,41.19-.18,7.53-.73,15.06-1.19,22.58-.33,5.46-.85,10.91-1.16,16.37-.9,15.86-4.74,31.09-10,46-3.14,9-7.71,17-14.7,23.71-8.8,8.43-22.65,10.58-34.07,6.75-18-6-24-20-26.14-36.71-1.47-11.43.37-22.57,2.79-34a189.84,189.84,0,0,1,8.28-29c3.72-9.67,8.85-18.83,13.68-28a140.53,140.53,0,0,1,10.08-16.81C94,102.1,98,95.39,101.74,90c4.1-5.3,7.79-10.82,12.06-15.94a165.54,165.54,0,0,1,16.06-17.4c8.87-8,17.95-15.84,27.73-22.62,8.76-6.08,18.41-11,28-15.73,7.84-3.92,16.1-7,24.28-10.24,2.91-1.15,6.1-1.6,9.18-2.31,15.33-3.53,30.64-7.53,46.61-4.88a43,43,0,0,1,7.53,2.23c5.54,2,4.47,7,4.53,11.14.19,11.85-.09,23.7-.11,35.55,0,13.77,0,27.53,0,41.29q.09,43.35.22,86.72C277.85,178.48,278,179.35,278.06,181.19ZM186.71,282.75q-3.41.62-5.37,1c-10.28,2.06-20.82,3.4-30.73,6.63a159.56,159.56,0,0,0-29.23,13,79,79,0,0,0-20.17,15.83A83.76,83.76,0,0,0,86.09,344c-4.35,11-5.9,22.48-8.16,33.81-1.53,7.68-.78,15.82-1,23.76-.18,5.62-1,11.32-.36,16.86A205.8,205.8,0,0,0,81.3,447c3,11.57,7.94,22.27,18.44,29.45,7.71,5.26,18.13,5.15,23.24,1,5.42-4.53,10.8-8.84,14.55-15.63,5.71-10.32,12.31-20.16,15.52-31.59,5.82-20.7,11.52-41.44,16.6-62.32,3.59-14.77,6.1-29.8,9.06-44.72C181.27,310.44,184,296.32,186.71,282.75Zm8.62-12.54c1.26,0,1.81.07,2.28,0,19.83-2.51,35.51-12.44,47.67-27.82,6-7.61,11.12-16,16-24.39s10-16.84,9.87-27.1c-.26-17.87-.81-35.73-.87-53.6,0-13.25.53-26.5.76-39.76q.18-10,.1-20c-.05-5.79-.35-11.59-.41-17.39-.12-12.14-.06-24.28-.35-36.41,0-1.66-.61-3.93-2.68-4.72-.71-.28-3.17,1-4.23,2.15A90.25,90.25,0,0,0,247.72,45c-2.18,4.82-4.88,9.43-6.77,14.35-3.15,8.2-6.16,16.49-8.67,24.92-3.84,12.86-7.6,25.78-10.68,38.84-4.14,17.52-7.78,35.17-11.31,52.83-2.85,14.3-5.32,28.67-7.76,43.05C200.82,229,199.4,239.17,198,249.3,197,256.06,196.17,263.48,195.33,270.21Z"/></g></g></svg>