<svg xmlns="http://www.w3.org/2000/svg" viewBox="0 0 648.88 600"><title>Asset 47</title><g id="Layer_2" data-name="Layer 2"><g id="Layer_1-2" data-name="Layer 1"><path d="M299.09.18C368.47,1.32,424.2,9.25,477,31.83c88.75,38,143.38,104.7,164,198.67,14,63.88,9.49,126.91-15,187.83C597.26,490,545.83,539.47,475,569.21c-34.78,14.6-71.18,22.75-108.54,27.25a506.1,506.1,0,0,1-81.89,3.07,285.93,285.93,0,0,1-142.44-44.44C72.34,511,26.76,448.87,8.06,368.44c-36-155,52.27-303.14,195-352.17C238.18,4.2,274.33-1.09,299.09.18Zm1.05,594.14c162,0,293.65-131.85,293.78-294.33C594.05,138,462.27,6.06,300.33,6,137.81,5.91,5.79,137.69,5.76,300S137.75,594.29,300.14,594.32Z"/><path d="M300.35,379.53c-43.64.21-79.6-35.49-79.86-79.28s35.25-80,78.85-80.2c44.22-.21,80.45,35,80.65,78.32C380.21,343.51,345.07,379.32,300.35,379.53Z"/></g></g></svg>