<svg xmlns="http://www.w3.org/2000/svg" viewBox="0 0 444.68 600"><title>Asset 100</title><g id="Layer_2" data-name="Layer 2"><g id="Layer_1-2" data-name="Layer 1"><path d="M323.55,285c4.26,1.11,6.74,1.78,9.23,2.4C355,292.88,376.22,300.81,395,313.9c21.85,15.21,35.92,36.26,43.65,61.77a146.67,146.67,0,0,1,5.94,47c-.47,16.67-1,33.53-3.86,49.89-4.48,25.33-13.55,48.92-31,68.94-14.55,16.73-32.11,28.37-52.22,37-43.71,18.85-89.95,22.06-136.52,21.35-28.4-.44-57.13-1.7-85-6.54-29.79-5.16-58.63-15.5-83-34.76a121.51,121.51,0,0,1-38.18-50.89c-16.52-41.5-18.63-84.38-9.47-127.65a100.65,100.65,0,0,1,25.75-48.65,129.18,129.18,0,0,1,47.48-32.48c13.34-5.22,27-9.57,40.95-14.46-7.19-2.67-14.59-5.25-21.86-8.15C64,262.9,39.73,239.7,29.15,204.81c-10-33.1-12-67.12-.16-100.38S64.46,48,94.55,30.79c26.51-15.12,55.18-23.46,85.34-27.63A303.51,303.51,0,0,1,247.75,1c33.31,2.86,65.61,10.08,95.62,25.55C366.3,38.37,385.85,54,401,75.3c16.82,23.68,23.63,50.08,22.25,78.59-.74,15.38-1.89,31-5.6,45.9A105.92,105.92,0,0,1,393,245.67c-17.51,19.25-39.9,29.9-64.17,37.46C327.65,283.48,326.56,283.93,323.55,285Zm-98.83,76.35a60.53,60.53,0,0,0,7.38,0c11.86-1.5,23.12-3.76,29.43-16,5.15-10,3.52-28.21-4.71-35.49-6.71-5.93-14.91-7.21-23.94-8a124.39,124.39,0,0,0-14.44.08c-11.53.37-21.34,1.53-30.05,7.94-9.56,7-10.73,27.66-2.77,38.71a22.83,22.83,0,0,0,8.47,7.49C207.23,362.07,219.31,361.22,224.72,361.37Zm-3.89-91.85c7.45-.95,13.27-1.13,18.8-2.52,8.61-2.17,15.59-6.57,16.74-16.58s.19-19.4-9.62-25.37c-15.52-9.46-31.54-8.73-47-.78-7.76,4-12,11.44-11.73,20.91.32,9.85,4.41,17.09,13.66,20.7a66.9,66.9,0,0,0,8.22,2.28A53.54,53.54,0,0,0,220.83,269.52Z"/></g></g></svg>