<svg xmlns="http://www.w3.org/2000/svg" viewBox="0 0 810.97 600"><title>Asset 80</title><g id="Layer_2" data-name="Layer 2"><g id="Layer_1-2" data-name="Layer 1"><path d="M.91,589.42c-1.83-6.7-1-12.33,3.61-18.29,12.55-16.14,24.17-33,36.33-49.44,21-28.4,42.21-56.67,63.24-85.07,17.41-23.5,34.63-47.14,52-70.63,9.09-12.24,18.45-24.28,27.67-36.42q10.71-14.07,21.39-28.17c4.26-5.64,4.09-6-.34-11.75-7.56-9.89-14.88-20-22.41-29.86-7.4-9.74-15.08-19.26-22.39-29.06-8-10.69-15.43-21.76-23.5-32.36-13-17-26.35-33.63-39.3-50.62C86.84,134.07,76.92,120,66.57,106.29,56.46,92.89,46,79.79,35.84,66.4,24.92,52,14.29,37.28,3.42,22.79.11,18.39-.35,13.55.55,8.48,1.4,3.72,4.76,1.38,11.36.86,17,.41,22.68,0,28.34,0c35.65.33,71.3.86,107,1.21,41.12.4,82.24.89,123.36.89,10.26,0,16.71,5.13,22.29,12.57,8.48,11.33,16.85,22.74,25.42,34C317.15,62.85,328.09,76.91,339,91c8.48,11,16.89,22.07,25.47,33,7,8.92,14.18,17.7,21.37,26.46a27.79,27.79,0,0,0,5.58,5.47c5.37,3.66,12.77.38,13.14-6.13.73-13,1.06-26.13,1.2-39.2.16-14.63-.13-29.25-.1-43.88,0-6.49,2.36-9.87,6.29-9.66s5.75,3.63,5.75,10c0,21.42.18,42.84.27,64.27,0,3.48-.26,7-.14,10.46a28.44,28.44,0,0,0,1,7.12c2.88,9.62,9.24,11.51,16.5,4.65A125.73,125.73,0,0,0,447.58,140Q466,116.61,484,92.92c3.25-4.27,5.61-9.22,8.87-13.49,12.57-16.42,25.36-32.68,38-49,5.22-6.72,10.29-13.56,15.56-20.23,4.1-5.18,9.55-7,16.19-6.94,28.46.31,56.93.22,85.39.42,41.54.3,83.07.75,124.61,1.1,8.73.07,17.47,0,26.21,0,10.28,0,15.44,9.38,9.81,18.93-4.07,6.91-9.1,13.27-13.88,19.73q-22.9,31-46,61.9c-9.13,12.26-18.42,24.39-27.47,36.71C705.57,163.44,690,185,674.25,206.49q-20.58,28-41.44,55.79c-8.5,11.35-17.21,22.54-25.88,33.87,9.71,13.68,19,26.81,28.34,39.91,13.93,19.54,27.94,39,41.8,58.6,18.65,26.36,37.1,52.87,55.81,79.19,15.83,22.27,32,44.31,47.82,66.57,9.37,13.18,18.42,26.58,27.56,39.92,2.85,4.16,2.82,8.6.59,13-1,1.92-8.75,6.64-11.55,6.63-30.84-.16-61.68-.41-92.52-.58-20.13-.1-40.27,0-60.4-.16-27.76-.15-55.52-.23-83.28-.67-7.63-.12-13.59-4.24-18.15-10.35-11.48-15.38-23.08-30.67-34.46-46.13-8.26-11.22-16-22.83-24.4-33.94-12.46-16.47-25.4-32.59-37.94-49-5.95-7.81-11.28-16.09-17.18-24-5.32-7.1-11-13.91-17.28-21.74-2.91,3.64-5.33,6.59-7.66,9.59-9.37,12.06-18.81,24.07-28,36.24-8.15,10.75-16,21.75-24.11,32.52-3.26,4.34-7.1,8.24-10.39,12.55q-24,31.53-47.89,63.16c-5.14,6.78-10.24,13.6-15.5,20.29a23.28,23.28,0,0,1-19.36,9.36c-31-.29-62.08-.68-93.11-.86-19.26-.11-38.52.25-57.77.1-33-.27-66.07-.76-99.1-1.18C6.61,595.21,1.3,590.88.91,589.42Z"/></g></g></svg>