<svg xmlns="http://www.w3.org/2000/svg" viewBox="0 0 343.92 600"><title>Asset 92</title><g id="Layer_2" data-name="Layer 2"><g id="Layer_1-2" data-name="Layer 1"><path d="M237.75,237.3c0-9.6.53-18.7-.14-27.7-.75-10.12-2.63-20.14-3.94-30.22-1.87-14.33-7.09-27.61-13.65-40.27-5.8-11.21-13.19-21.62-18.77-32.92-6.77-13.7-12.83-27.58-14-43.47a155.67,155.67,0,0,1,1.17-33C190.35,15.16,207.59.62,222.11,0,239-.64,251,7.89,261.8,19c9.74,10.06,18.6,21,28.09,31.28A118.14,118.14,0,0,0,301.73,61.1c11.85,9.79,23.12,20.12,31.34,33.28,5.87,9.39,10.14,19.29,9.1,30.81-.42,4.63.72,9.56-.45,13.93-2,7.64-3.81,16.08-8.38,22.18-10.27,13.7-23.84,22-42.29,21.15-8-.39-16.42,1.62-24.22,4-3.82,1.15-7.65,5-9.77,8.57a62.86,62.86,0,0,0-8.44,31.62q-.41,48.12-.56,96.24c0,14.54-.43,29.12.55,43.6.89,13.23,2.18,26.84,9.71,38.32,6,9.09,15.39,12.79,26.21,12.77,6.1,0,12.21-.31,18.3,0,14.9.66,24.48,9.53,32.24,21.23,9.92,15,10.48,31.16,6.65,48C338,503,327,514.27,315.16,525c-7.87,7.11-16.16,13.88-23.26,21.72-9.21,10.16-17,21.62-26.2,31.77-7.95,8.77-17.54,16.48-29.06,19.42-11.17,2.86-23.16,2.32-32.62-5.82-8.4-7.24-12.88-17.22-14.58-28.07-3.83-24.49,1.88-47.32,13.32-68.91,7.92-15,17.26-29.28,23.87-44.78a135.86,135.86,0,0,0,9.47-37.24c2.2-18.92,2.29-38.08,3.24-57.14.11-2.15-.13-4.32,0-6.46.25-3.52-1.37-4.8-4.77-4.78q-34.71.27-69.43.41c-17.14.1-34.29,0-51.43.4-7.76.17-7.84-.1-7.48,7.44.9,18.87,2.07,37.73,3.1,56.59,1.4,25.81,12.1,48.25,25.08,69.94,5.65,9.43,11.79,18.81,15.65,29s5.6,21.37,7.54,32.25c2.14,12,.66,23.93-3.33,35.42a35.44,35.44,0,0,1-31.85,23.82c-18.12.92-29.94-8.75-41-20.43-10-10.63-19.09-22.21-29.11-32.87-5-5.27-11.11-9.45-16.78-14-9.52-7.71-17-17.06-23.62-27.36-6.39-10-10.53-20.54-10.19-32.47.63-22,11.6-43.82,34.22-52.18,5.47-2,12-1.21,18-1.7,5.83-.48,11.79-.36,17.46-1.57,9.37-2,15.47-7.92,18.84-17.14,8.16-22.32,6.15-45.47,6.14-68.45,0-30.44.12-60.88-.58-91.31-.3-13.3-1-26.87-6.6-39.35-3.68-8.28-10.14-14-19.26-15.52A99.43,99.43,0,0,0,50.78,184c-16.53.45-29.13-5.21-39-19.22C4.37,154.37.21,143.33,0,131.16-.25,116,6,102.67,14.79,90.23c9.46-13.31,22.66-22.5,34-33.71C56.14,49.26,62.15,40.67,69.09,33c11.13-12.35,21.77-25.83,38.28-31,13.07-4.14,28.68-.69,38.08,10.68a44.68,44.68,0,0,1,10.63,28.46c.12,8.88,1.59,17.9.41,26.58-1.13,8.3-4.35,16.47-7.66,24.26-3.54,8.33-8.92,15.88-12.27,24.26-3,7.43-8.19,13.41-11.44,20.6S117.48,151,114.7,158.53a83.53,83.53,0,0,0-4.87,20.76c-1.74,17.92-2.68,35.92-4,53.88-.29,4,1.52,4.75,5.12,4.72,35-.29,70-.42,105-.58C223.22,237.27,230.52,237.3,237.75,237.3Z"/></g></g></svg>