<svg xmlns="http://www.w3.org/2000/svg" viewBox="0 0 570.15 600"><title>Asset 3</title><g id="Layer_2" data-name="Layer 2"><g id="Layer_1-2" data-name="Layer 1"><path d="M415,474.34c.07-26.34.22-45.38.53-53.71,0-.91-.11-4-.35-8.08-.66-11-5.8-19.37-15.29-24.89-5-2.92-10.33-5.32-15.42-8.11a31.52,31.52,0,0,1-7.19-4.82c-4-4-2.74-9.09,2.58-10.7a27.09,27.09,0,0,1,9.21-.83c5.8.33,11.57,1.18,17.35,1.74,42.5,4.15,85,3.11,127.55.52,6.41-.39,12.77-1.59,19.17-2.32a62.19,62.19,0,0,1,8.07-.46c3.67.06,7.15.87,8.6,4.85,1.11,3.05-.75,6.35-5,9.08a50.62,50.62,0,0,1-5.47,3c-4.31,2.06-8.63,4.1-13,6.05-11,4.93-17.26,13.38-18.71,25.27a121.76,121.76,0,0,0-.87,14.28c-.06,21.59.13,43.19,0,64.78-.15,28-.48,56.05-.79,84.08a35.22,35.22,0,0,1-.76,6.79,11.46,11.46,0,0,1-9.57,9.46,50.66,50.66,0,0,1-9.28.89c-24.08.26-48.17.41-72.25.62-6.36.06-12.47-.86-17.68-4.84s-10.54-4.19-16.51-2.39c-8.74,2.64-17.54,5.09-26.37,7.43-21.59,5.75-43.44,9.14-65.91,7.65-6-.4-12,.17-18.05.2-68,.37-129.36-19.53-183.25-61-37.57-28.88-64-66.44-81.8-110.27A296.08,296.08,0,0,1,8.08,370c-.27-1.45-.44-2.92-.74-4.3A323.94,323.94,0,0,1,0,296.56a138.5,138.5,0,0,1,1-18C3.94,255.51,7.06,232.46,13.33,210,34,136,76.81,79.23,143.94,41.35c38.47-21.71,79.81-34.56,123.7-39.79C284.05-.4,300.4.79,316.77.13c19.71-.8,38.91,2.23,58,6.61C388.52,9.9,402.27,13.1,416,16.45c10.59,2.59,21.18,3.78,32.08,2,5.09-.83,10.34-.75,15.52-1,33.73-1.65,67,23.55,75.91,59.12,12.74,50.7-27,99.53-78.62,97.28-26.91-1.18-48-13.5-62.74-36.14-15.31-23.57-16.66-48.54-6.42-74.43a125.9,125.9,0,0,0,5-14.06c3.47-13.25-1-22.6-13.9-27.22A111.45,111.45,0,0,0,358,16.34c-15-1.7-30.17-2.64-45.3-3.4-17.89-.9-35.19,2.87-51.92,8.72-35.5,12.41-64.19,34-86.45,64.51-16.82,23.08-29.23,48.18-38.6,75-13.06,37.41-18.52,76.09-20.47,115.49a537.46,537.46,0,0,0,3.12,90.78c4.23,35.15,12,69.57,26.16,102.24,13.7,31.46,32.38,59.54,58.85,81.62A146.87,146.87,0,0,0,268.88,583c34.13,7,67.73,3.77,101.14-4.23,11.27-2.7,21.16-8.35,30.22-15.57,8.82-7,13.68-16,14-27.3.28-9.76.65-19.51.77-29.27.13-10.58,0-21.17,0-31.76Z"/></g></g></svg>