<svg xmlns="http://www.w3.org/2000/svg" viewBox="0 0 728.5 600"><title>Asset 6</title><g id="Layer_2" data-name="Layer 2"><g id="Layer_1-2" data-name="Layer 1"><path d="M329.57,67.05c-4.08,2.22-5.72,3.37-7.54,4-31.14,11.6-54.76,32.63-71.61,60.56-35.06,58.07-43.7,121-27.83,186.41,10.48,43.2,37.35,72,83,79.9,6,1,12.22,1.16,18.48,3-1.27.47-2.53,1.28-3.83,1.36-48.53,3.07-95.57-1.49-137.88-28.34-49.22-31.24-69.89-86.95-54.4-147.31,11.59-45.19,39.86-78.79,76.35-106.12C239.69,94.06,279.94,78,322.64,67.52,324,67.19,325.46,67.31,329.57,67.05Z"/><path d="M479.06,342.34c-13.42,10.93-28.06,20.35-42.15,30.46.29.4.58.78.87,1.16,2.2-.74,4.47-1.35,6.6-2.24,78.87-33.17,148.4-79.9,206.32-143.16,30.25-33,55.48-69.44,69.68-112.46,7.93-24,11.34-48.75,4.29-73.57C714.33,6.08,681.72-6.06,643.59,2.74c-1.66.29-3.17.36-4.76.6A42,42,0,0,0,628,6.59c-4,1.51-6.41,2.34-8.7,3.41-30.24,14.1-57,33.29-81.2,56.16-47.92,45.35-84.77,99.15-115.23,157.05-32.43,61.63-62.09,124.7-93.22,187-9.36,18.72-19.6,37-29.49,55.57-36.67-10.95-72.38-20.11-109.59-21.5h0c-6.84-.9-13.77-1.73-20.64-2.18a114.91,114.91,0,0,0-22.15.45,5.82,5.82,0,0,0-1,.06c-20.78,2.76-41.78,4.58-62.29,8.73-23.06,4.67-44.71,13.36-63.09,29C-8.06,505.41-8.09,554,27.51,576a123.59,123.59,0,0,0,27.6,12.81c39.34,12.28,78.66,10.44,117.63-2.18,4.78-1.56,9.53-3.25,14.58-5q4.59-1,9.05-2.44A106.15,106.15,0,0,0,215.44,571a63.23,63.23,0,0,0,6.91-2.9,414.08,414.08,0,0,0,83.88-54c5-4.15,8.34-4,13.84-.52,28.79,18.48,57,38.23,87.17,54.11,49.08,25.75,101.69,37.68,157.51,30.12,21.94-3,42.9-9.09,61.2-22.13,26.16-18.63,37.16-45.47,40.46-76.26,4.27-39.9-7.32-74.57-32.29-102.34,4.64,11.68,12.41,24.78,14.88,38.81,6.32,36-4.49,60.8-42.44,71.86a175.46,175.46,0,0,1-34.48,6.1c-56.89,4.81-112.7-2.11-167.64-16.89-19.29-5.17-38.41-11-59.08-17,3.87-4.22,6.42-7.09,9.09-9.85,46.78-48.21,86.72-101.71,116.28-161.91C497.28,254.09,520,198.1,544.5,143c21.48-48.25,39-99,83.71-135.87a.06.06,0,0,0,0,0,32,32,0,0,1,10.63-3.3c1.47-.22,2.68-.38,4.18-.49h.31c17.29,1.48,19.71,12.83,20.47,25,1.64,26.76-3.7,52.63-12.57,77.61C617.26,201.65,557.18,278.65,479.06,342.34ZM211.45,571.64A106.28,106.28,0,0,1,196,577.92,109.45,109.45,0,0,1,184,581c-11.2.17-21.84.73-32.34-.25-24.8-2.25-47.24-10.33-60.84-33-18.79-31.37-8.17-84.9,45.62-99.57,5.12-1.39,10.33-2.43,15.49-3.64,0,0,.69-.12.69-.14a101.36,101.36,0,0,1,19-.67c7,.27,14,1,21,1.77,34.13,7.64,63.62,24.78,92.55,44.42C264.12,521.59,242.56,550.84,211.45,571.64Z"/></g></g></svg>