<svg xmlns="http://www.w3.org/2000/svg" viewBox="0 0 359.23 600"><title>Asset 76</title><g id="Layer_2" data-name="Layer 2"><g id="Layer_1-2" data-name="Layer 1"><path d="M24.48,347.19A57.93,57.93,0,0,1,4.31,322.24,59.56,59.56,0,0,1,.06,297.05a61,61,0,0,1,5-21.44,61.73,61.73,0,0,1,16.5-22.2A111.11,111.11,0,0,1,8.92,211.74C6.64,187,12.78,167.26,25.81,134.81c4.53-11.27,8.78-22.81,14.84-33.25C47.46,89.83,55.72,78.84,64.2,68.21A193.66,193.66,0,0,1,87.73,42.93c14-12.18,29.15-22.57,46.42-30C147.49,7.12,160.85,1.51,175.31.63a267.87,267.87,0,0,1,43.7.55c20,2.07,38.22,10.21,55.41,20.3,16.13,9.47,30.69,20.91,43,35.27C329.18,70.43,339,85.28,344.67,102.2c3.69,11,11.54,36.41-.51,59.5a55,55,0,0,1-6.63,9.89,48.1,48.1,0,0,1,8.15,7.17,51.09,51.09,0,0,1,12.05,25c4.59,23.42-.9,46.63-22.46,61-8.08,5.4-16.79,7.57-26.23,9.17-12.68,2.15-24.3-.86-35-6.3-6.7-3.42-12.16-9.91-17.13-15.88a45.85,45.85,0,0,1-7.85-15.09,60.26,60.26,0,0,1-2.63-27.53c2.48-16.91,11.86-27.84,16.3-32.87a69.68,69.68,0,0,1,5.5-5.57c-.84-1.43-2.13-3.71-3.57-6.57a102.4,102.4,0,0,1-8.25-21.78c-3.95-18-7-36.25-12.62-53.71-5.79-18.06-14.33-35.13-28-49.11-10.79-11.07-25.15-12.46-37.81-3.5-11.43,8.09-19.67,18.58-27.37,30.28-20,30.41-30.44,64.2-38.86,99.09a326,326,0,0,0-7.76,48.89c-.29,3.26-.2,11.36-3.37,21.32a71.33,71.33,0,0,1-8.47,17.69,59.28,59.28,0,0,1,11.25,12.83,62.06,62.06,0,0,1,8.26,20.11c1.18,5.38,4.55,21.87-3.8,39.59a59.06,59.06,0,0,1-16.38,20.71A65.42,65.42,0,0,1,102,367.65,52.84,52.84,0,0,1,104.12,380c.11,23.62,4.29,46.61,10.78,69.18,4.94,17.14,9.8,34.38,16.34,50.93,4.52,11.42,11.58,21.9,18,32.48,4.49,7.33,9.09,14.89,15.06,21,9.31,9.46,20.19,18.14,34.63,14.79,6.3-1.46,12.48-6.11,17.31-10.76,15.61-15,23.66-34.75,30-54.8,6.67-21.15,3.11-25.91,10.46-46.67a172.88,172.88,0,0,1,12.26-27,62.23,62.23,0,0,1-21.62-34.72c-1.4-6.41-3.79-22.9,4.78-39.62a52.25,52.25,0,0,1,8.2-11.66c17-18.34,42-24.52,64.85-14.06C346,338.62,358.6,355.5,359,380a65.48,65.48,0,0,1-4.54,25.76,52.15,52.15,0,0,1-9,15.35,49.51,49.51,0,0,1-7.94,7.42A63.25,63.25,0,0,1,346.14,445a56.35,56.35,0,0,1,3.48,17.66c.62,19.85-5.5,37.54-14.58,54.31-4.71,8.69-12,16-18,24-10.9,14.33-24.83,25.44-40,34.48-15.59,9.28-31.92,17.81-50.33,20.44-12.64,1.8-25.46,4.68-38,4a151.65,151.65,0,0,1-60.5-16,199.7,199.7,0,0,1-54.22-39.38C63.53,534,55,521.47,46.75,509.11c-6.67-10-12.15-20.81-17.45-31.62a148.53,148.53,0,0,1-9-23.46,309.13,309.13,0,0,1-7.85-32.42c-4.2-23.36-6.1-35.07-2.7-47.76A66,66,0,0,1,24.48,347.19Zm45.9-2a60.68,60.68,0,0,0,9-5c4.57-3.09,12.54-8.47,17.7-18.48,5.56-10.82,4.73-21,4.32-26-.69-8.28-2.7-15.67-7.26-21.86a51.68,51.68,0,0,0-5.6-5.89,96.88,96.88,0,0,0-10.93-9.23c-2.38-1.71-4.46-3-6-4a64.18,64.18,0,0,0,6.07-5.29c3.47-3.42,9.65-9.64,12.91-18.73a40.79,40.79,0,0,0,2.22-11.54c1-12,.86-24.11,3.17-35.79,3.38-17.07,8.68-33.75,12.82-50.68,4.52-18.49,11.94-35.83,20.28-52.83,8.76-17.85,18.92-34.73,34.06-48,19-16.7,46.6-19.49,65.26,3.28,14.93,18.22,23.71,39.35,30.39,61.51,2.77,9.17,4.67,18.61,6.87,27.94a32.66,32.66,0,0,1,.94,6.81c.22,10.53,2.51,15.6,4.81,20.36,3.16,6.55,7.85,11.06,14.18,17.14,1.76,1.69,3.27,3,4.33,3.93a55.7,55.7,0,0,0-8.24,4.16,62.05,62.05,0,0,0-11,8.87c-7.32,7.71-18.42,29.58-9.36,50.61a46.13,46.13,0,0,0,17.44,20.18,44.43,44.43,0,0,0,14.75,5.86c13.51,2.83,25.57,0,36.69-8.41,10.45-7.87,16.41-18.07,17.68-30.87A50.77,50.77,0,0,0,342,194.51a52.79,52.79,0,0,0-24.29-22.16c1.2-1,2.93-2.48,4.95-4.31,4.7-4.26,8.12-7.37,10.53-10.73a30.8,30.8,0,0,0,5.34-14.77c2.88-23.57-5.52-45.1-18.61-63.76-10.07-14.37-22.1-27.61-37.18-37.95C259.58,24.94,234.8,14,206.85,11.2c-25.1-2.5-49.11,2.76-71.52,14A168.84,168.84,0,0,0,106,44.05c-10.58,8.43-21.07,17.43-29.65,27.8A263,263,0,0,0,48.9,112.18a223.43,223.43,0,0,0-18.06,42.61c-4.74,15.51-7.58,31.72-9.92,47.82-1.84,12.67-.67,20.77,1.38,26.61a46.52,46.52,0,0,0,3.61,7.65,46.64,46.64,0,0,0,11.25,13.6,43,43,0,0,0,5.82,4,53.11,53.11,0,0,0-8.7,4.67c-3.7,2.46-15,10.2-20.33,25.31A48.12,48.12,0,0,0,12.2,310.2c.72,3.18,3.37,15,12.42,22.34.9.74,4.4,3.24,11.4,8.26,3,2.14,5.46,3.89,7.12,5.07l-5.51,3.88C33.07,353.26,26,359.8,22.51,370a38.89,38.89,0,0,0-2.16,13.48c.41,23.48,3.19,46.76,12.45,68.74,5.23,12.43,9.68,25.25,15.78,37.23a188.62,188.62,0,0,0,41.56,53.95,192.53,192.53,0,0,0,43.65,30.4c15.56,7.76,32,11.07,48.72,14.36,12,2.36,23.58-.37,35.24-2.22A128.63,128.63,0,0,0,265,568.71c9.1-5.56,17.42-12.37,26.34-18.24,12.13-8,20.52-19.69,28.81-30.93C328.8,507.76,334.34,494,337,479.1c1.68-9.23,3-20.9-3.08-33a44.46,44.46,0,0,0-12.27-14.87l-4.59-3.6,5.92-3.42a47.29,47.29,0,0,0,13.59-10.78,47.13,47.13,0,0,0,9.72-43.92c-4.46-15.73-15-25.33-29.54-30.61-14.92-5.41-28.79-2.91-41.62,7.24-14.71,11.64-19.8,27.2-17.16,44.43,2.12,13.79,11,24.64,23.74,31.61,2.64,1.45,5.18,3.06,8.56,5.06-2.22,2.12-3.75,3.72-5.41,5.15-7.43,6.42-14.1,13.58-16.65,23.24-2.39,9-3.38,18.43-5.47,27.56-2.55,11.19-4.56,22.68-8.71,33.3-4.43,11.34-10.82,22-16.84,32.62-6.71,11.9-15.71,22.15-28,28.26-16.56,8.24-31.38,1.41-45-8.17-13.29-9.38-22-22.81-29.61-36.88-3.1-5.72-5.82-11.66-8.47-17.61-4.57-10.27-9.66-20.38-13.23-31a375.93,375.93,0,0,1-12.15-43.29c-3.43-16.5-6.53-33.27-7.31-50-.74-15.92-4.35-29.43-17-39.7C74.62,349.11,72.86,347.41,70.38,345.2Z"/><circle cx="302.18" cy="217.35" r="37.63"/><circle cx="303.34" cy="381.67" r="37.63"/><circle cx="56.23" cy="300.02" r="37.63"/></g></g></svg>