<svg xmlns="http://www.w3.org/2000/svg" viewBox="0 0 688.15 700"><title>Asset 45</title><g id="Layer_2" data-name="Layer 2"><g id="Layer_1-2" data-name="Layer 1"><path d="M655.37,545l32.78,20.63c-10.71,17.12-22,33.38-35.8,47.7-42.93,44.5-94.94,72.09-155.71,83.27-25.24,4.64-50.6,3.92-76,1.73a345.81,345.81,0,0,1-103.19-25.15c-33.49-13.88-63.88-33.07-93.11-54.25-16.62-12-33.21-24.13-50-36.33-2.92,2.94-5.75,5.75-8.56,8.59-16.63,16.85-34.7,31.69-57.51,39.41-29,9.81-57.13,9-83.34-8.6C13.1,614,4.06,603.64,1.15,589.29c-3.41-16.84.89-32.18,11.31-45.66,13.42-17.38,31.75-27,52.77-31.64,33-7.32,63.66-.15,92.9,15.42,2.93,1.56,5.83,3.16,9.4,5.1l29.62-38.3c-8.24-7.82-16.21-14.82-23.54-22.44C135,431.66,110.16,384.23,100.26,329.5c-13.69-75.7.23-146.3,43.8-209.9C187.49,56.22,247.58,16.67,323.49,4.12,408.89-10,485,12.3,549.86,69.77c47.85,42.36,77.73,95.69,88.19,158.66,14.78,88.88-7.55,168.15-67.31,235.91-39.15,44.39-88.24,72.95-146.26,84.87-67.81,13.93-132,3.3-192.18-31.21-1.2-.68-2.41-1.36-3.71-2.11l-29,37.62c8.6,6.23,17.29,12.5,25.94,18.81,24.7,18,49.3,36.2,76.25,50.87a305.74,305.74,0,0,0,110.35,35.66c23.5,2.85,47.07,4.45,70.63,1.36a240.6,240.6,0,0,0,108.51-42.14,200.9,200.9,0,0,0,59-64.87C651.81,550.56,653.49,548,655.37,545Zm-435.7-84c1.17-1.61,2.08-2.84,3-4.08,17-23.61,34.14-47,54.23-68.15,18.36-19.28,38.63-36.09,63.31-46.66,32.74-14,66.82-19.15,101.36-9,48.13,14.15,77.07,47.65,90.4,95.33,1.4,5,2.24,10.19,3.36,15.4a6.57,6.57,0,0,0,1.05-.59c.8-.78,1.61-1.56,2.34-2.4,52.46-59.82,72.63-129.19,59-207.47C588.1,177.8,561.32,130.9,518.15,94.52,454.38,40.79,381.57,24.84,301.57,48.83,209.15,76.54,141.71,162.56,136.24,264a242.33,242.33,0,0,0,83.43,197ZM251,483.5c1.37.88,2.48,1.67,3.66,2.34,50.77,28.88,104.81,37.67,162,25.86a218.86,218.86,0,0,0,78-33.16c1.54-1,3.41-3,3.47-4.56.9-22.6-2.48-44.36-14.84-63.82-18.6-29.27-45-44.62-80.15-43.41-22.38.76-42.51,8.4-61.25,20.2-16.91,10.65-31.51,24-45.05,38.63C280.08,443.63,265.37,463.28,251,483.5ZM141.16,561.89c-20.8-12-42.64-16.65-66-13.66-9.59,1.23-19.07,3-27,9-7.78,5.9-11.38,13.76-9.29,23.45,1.79,8.24,8.26,12.32,15.6,14.93,10.41,3.7,21.13,3.44,31.8,1.37C109.08,592.62,125.56,578.19,141.16,561.89Z"/></g></g></svg>