<svg xmlns="http://www.w3.org/2000/svg" viewBox="0 0 485.82 600"><title>Asset 79</title><g id="Layer_2" data-name="Layer 2"><g id="Layer_1-2" data-name="Layer 1"><path d="M485.82,69.71c-1.33,4.72-3.31,11.89-5.47,20.67-5.55,22.54-7.67,38.7-9.74,47.48-6.32,26.76-13.47,53.32-20.71,79.86C444.68,236.86,439.36,256,433,274.81c-9.34,27.45-19.37,54.67-29.7,81.77-6.28,16.48-12.77,33-20.8,48.66-9.76,19-21,37.29-32,55.58-13,21.44-27.28,42-44.27,60.56-20.13,22-42.28,41.32-68.42,56.21-28.39,16.17-58.91,22.76-91,22.4,0,0-31.15-.65-71.23-15.92a107.24,107.24,0,0,1-18.1-9c-1.31-.85-4-2.72-9.47-7-7.1-5.59-13-10.18-19.54-17.47a100.48,100.48,0,0,1-16.6-24.11C9.14,520.88,6,513,3.62,500.37c-8.12-42.85,0-77.44,0-77.44,7.94-34,23.66-56.29,38.76-74.86,12.45-15.29,25.46-29.82,41.17-41.79,4.19-3.2,8.16-5.84,10.09-7.09l1.19-.76c1.67-1.11,3-2.07,3.9-2.75L102,301.3c9.36,15.7,14,23.55,15.07,25,13.71,19.74,38.28,27.67,49.22,31.2,3.27,1.06,6,1.79,8,2.26C158,368.16,126,387.62,103.53,425.15a164.13,164.13,0,0,0-21.15,57.24,152.32,152.32,0,0,0-.66,41.21c2.38,20.28,9.7,37.28,25,50.95,9.25,8.29,20.32,11.9,32.17,13.3,29,3.46,54.79-4.59,77.89-22.34,29.61-22.74,50-52.71,66.87-85.26,9.73-18.75,18.67-37.92,27.15-57.26,5.07-11.55,9-23.66,12.68-35.74q12.32-40.23,23.87-80.68A282.4,282.4,0,0,0,355.73,268c-2.64,4.11-5,8.41-8,12.29-16,21-32,42.36-54.48,56.84-17.41,11.2-35.9,20.83-57.28,22.5-24.61,1.91-48.93,1-72.46-7.46s-42.41-22.69-53.66-45.84c-6.72-13.81-6.6-28.28-5-43,4.33-39.05,20.18-74.2,35.77-109.69,9-20.39,15-42.33,20.05-64.1,2-8.46-.19-19.29-4-27.38-5.58-11.85-16-15.94-31.36-10.67-18,6.16-32.26,18.05-46.45,30.8C70.69,89.75,62.84,96.16,57.17,101,60,96.42,64.27,88.43,69.68,81.3,82.28,64.69,90.53,50.58,103.74,38,136.38,6.77,172.47,1.2,177.56.59A94.18,94.18,0,0,1,197,.42a72.68,72.68,0,0,1,8.71,1.46c6,1.4,20.6,5,32.57,17.49,13.88,14.46,16.41,31.2,14.19,49.66-2.84,23.7-13,45.2-21.11,67.25-9.2,24.93-19.94,49.32-28.24,74.52-7.7,23.33-14.59,47.37-11.82,72.37,1.91,17.12,5.24,34.7,20.77,45.58,17.23,12.05,35.21,13.95,55.6,5.4,21.24-8.9,37.73-23.13,52.77-39.4,15.61-16.9,28.55-36,37.34-57.38,6.86-16.66,13.38-33.73,17.41-51.22,5.71-24.8,9.67-50.06,13.26-75.29a15.68,15.68,0,0,0-.51-7.66c-5.06,12.14-10,24.35-15.22,36.45-3.33,7.76-7,15.38-10.61,23a412.57,412.57,0,0,1-48.13,77.7c-21.94,28.27-45.22,55.36-72.88,78.32-3.86,3.21-8,6.1-12.06,9-5.57,4-13.55-.95-18.78-8-8.41-11.37-12.14-22.86-13.77-35.52A113.11,113.11,0,0,1,198,246.57,356.74,356.74,0,0,0,272.55,206c10.1-7.18,54.45-39.19,86.95-88.57a359.85,359.85,0,0,0,30.32-56.29c3.79-8.88,6.75-16.9,6.75-16.9a237.23,237.23,0,0,0,7-23.38A119.83,119.83,0,0,1,439,31.1,122.21,122.21,0,0,1,485.82,69.71Z"/></g></g></svg>