<svg xmlns="http://www.w3.org/2000/svg" viewBox="0 0 822.02 600"><title>Asset 27</title><g id="Layer_2" data-name="Layer 2"><g id="Layer_1-2" data-name="Layer 1"><path d="M238.43,125.32c-2.67-1.24-3.72-2.1-4.82-2.18C193.47,120,157.22,129,125.84,155.75c-18.08,15.41-32,33.85-45.63,53a131.59,131.59,0,0,1-23.58,25.13c-10.67,8.75-23.81,8.77-36.47,4.45-11.77-4-18.53-15.79-19.75-28.15C-3.51,170.3,21,150.23,52.05,134.65c23.7-11.88,49.36-17.64,75.38-20.54,23.26-2.59,46.86-4.3,70.19-3.42,27.06,1,54,5.29,81,8.16l.63,3.11c-5.55,3.8-11.09,7.64-16.66,11.41-41,27.75-77.32,60.36-104.67,102-24.26,37-38.38,77.54-44.23,121.44-4.07,30.5-4.22,60.83.71,90.94,6.36,38.78,20.55,74.52,48.44,103.36,20.08,20.78,44.94,33,73.44,37.16,24.83,3.59,49.56,3.15,74.13-3.37,20.15-5.34,37.38-15.31,53.73-29.79-4.47-3.78-8.72-7-12.59-10.71-27.13-25.68-47.87-56-63.63-89.67-19.3-41.26-29.2-84.83-33.24-130.19-4.11-46.2,4-89.28,28.14-128.81,23.89-39.08,58-65,103.78-72.22,49.34-7.79,92.78,5.95,128.44,41.5,32,31.94,48.16,71.39,51.76,116,5.19,64.19-9,124.66-37.24,182.05C513,496.79,491,526.53,462.13,551c-1.37,1.16-3,2-6.91,4.61,13.36,8.33,23.8,17.23,35.88,22,53.25,20.89,105.44,20.55,153.54-14,29.08-20.9,45.67-51,55.75-84.8,12.15-40.64,13.49-82,7.84-123.92-9.5-70.69-42-128.92-93.38-177.46-22-20.81-46.38-38.52-71.82-54.83-2.21-1.42-4.31-3-7.87-5.49a140.76,140.76,0,0,1,51-1.05c40.84,6.65,76.9-4.43,109-30.25C713.68,70.78,727.54,52,741.31,33a210.8,210.8,0,0,1,19.52-22.83C770.66,0,783.53-1,796.56.59c13.45,1.6,23.79,15.15,25.08,28.67,3.19,33.48-13.8,54.79-40.75,70.44-27.83,16.17-58.39,23.8-90.08,26.87-20.87,2-41.86,3.25-62.82,3.58-12.07.19-24.18-2.12-36.28-3.27-1.38-.13-2.79,0-4.41,0,15,8.27,30.05,15.47,44,24.44C703.57,197.83,753.48,261.6,776,345.08c13.78,51.09,11,101.39-14.43,149-21.31,39.86-54.73,66.34-95.3,84.48-43,19.26-88.65,23.67-135,20.52-29.93-2-58.32-11.65-85.71-23.62-8.51-3.71-15.48-3.74-22.74,1.94-6.69,5.23-14.59,5.74-21.34,1.41-10.55-6.78-19.62-6.42-31.12-1.09-36.65,17-75.43,23.26-116,22.09-41.56-1.19-80.54-10.49-116.93-30.19-48.51-26.28-80.88-65.66-94-119.76-9.56-39.5-6.49-78.62,5.75-117.07,17.05-53.6,46.3-99.61,86.46-139,27.64-27.1,59.21-48.13,94.14-64.4C232.25,128.25,234.67,127.1,238.43,125.32ZM410.69,548.61c2.52-2.23,4.53-3.62,6.07-5.42,23.57-27.71,39.5-59.66,51.25-93.78,9.8-28.45,17.49-57.51,20.08-87.59,2.06-23.94,4.29-48,4.35-72,.06-20.3-2.58-40.64-4.58-60.91a169.28,169.28,0,0,0-18.77-63.4c-20.66-38.88-69.81-41.91-96.87-22.1-17,12.47-25.65,30.56-31.12,50.35-13.76,49.78-13.29,100.52-9.32,151.34a418.45,418.45,0,0,0,35.55,138.64C377.9,507.44,391.19,529.52,410.69,548.61Z"/></g></g></svg>