<svg xmlns="http://www.w3.org/2000/svg" viewBox="0 0 560.97 600"><title>Asset 8</title><g id="Layer_2" data-name="Layer 2"><g id="Layer_1-2" data-name="Layer 1"><path d="M495.47,136.19c22.76-24.35,27.61-51.61,14.3-77.53-7.88-15.35-31.38-26.09-52.58-23.85-24.62,2.6-45.71,13.41-64.33,29-21.92,18.4-38.51,41.1-53.15,65.69C311.43,177,292.44,228,277.2,281c-13.9,48.32-31.34,95.63-47.15,143.41q-22.5,68-44.77,136c-1.27,3.88-1.32,8.16-2.32,14.76,19.24.84,36.71,1.54,54.18,2.38,5.38.25,11.22.78,11.93,7.66.75,7.25-3.92,11.77-10.28,13.51-5,1.36-10.49,1.31-15.77,1.3-40.68-.07-81.36-.32-122-.43-28.31-.07-56.63.09-84.94,0-10.8,0-16.12-3.48-16-9.55.1-7.51,5.57-11.75,17.12-12.15,15.89-.54,31.8-.63,47.7-.73,12.65-.09,15.59-1.52,19.7-13.28,14-40.07,27.75-80.25,41.55-120.4,19.82-57.67,39.86-115.26,59.31-173C198.64,231,215,192.53,221.62,151.23c2.34-14.68,3.48-30,2-44.75C221,80.59,200.22,61,174.44,58.57c-23.39-2.22-45.21.8-64.81,16.79-27.24,22.23-25,89.35,14.33,104.35,2.47.94,6.14,1.15,7.19,2.92,2.06,3.45,4,8,3.54,11.68-.8,6-5.81,8.87-11.78,7.72a38,38,0,0,1-12.29-4.7c-18-10.88-31.21-25.52-36.61-46.57C52.73,67.84,114.94,5.57,182.64.35c16.43-1.27,33.67,1,49.84,4.74,46.15,10.54,73,40.61,82.44,86.62.89,4.32,1.17,8.77,1.68,13.16.48,4.19.9,8.38,1.54,14.39,9.12-2.84,11.38-9.81,14.59-15.43C347.42,78.14,367,56.75,389.91,38.3c28.23-22.68,59.9-32.12,96.42-28.9,33.75,3,66.11,23.54,72.93,65.51,10.88,67-31.2,120.82-90.84,131.1-21.39,3.68-40.49-2.28-57.77-14.19-17-11.76-24.9-39.06-18.22-59.64,7.77-24,25.17-37.8,48.18-38.33,28.88-.66,40.26,7.42,51.07,36.07C492.5,132.08,494.1,134,495.47,136.19Z"/></g></g></svg>