<svg xmlns="http://www.w3.org/2000/svg" viewBox="0 0 559.9 600"><title>Asset 31</title><g id="Layer_2" data-name="Layer 2"><g id="Layer_1-2" data-name="Layer 1"><path d="M302,126.88V1.43H556.7c3.64,11.2,4.52,104.5.84,124.32-6.54.25-13.52.37-20.48.8-14.76.91-29.79.53-44.21,3.29-29.74,5.71-46.64,25.24-52,54.59a200.7,200.7,0,0,0-3.21,34.33c-.31,55.07-.4,110.15.11,165.22a150.85,150.85,0,0,0,4.75,37.4c8.8,32.73,31,49.05,66.32,51.72,15.81,1.2,31.78.21,47.14.21,4.07,13.05,4.78,106.85,1.13,125.78-23.07.07-46.43,3.32-69.7-2.9-31.49-8.43-48.49-35.8-50.76-64.15-.34-4.32-.48-8.66-.75-13.85h-10.6c-.3,2.59-.77,5.2-.9,7.83-.87,18.57-5.55,35.56-18.14,50.06-12.76,14.69-29.53,21.4-47.83,23.06-18,1.64-36.25.36-54.12.36-3.95-11.58-5-102.54-1.41-125.1,8.24-.26,16.85-.61,25.46-.8,15.89-.35,31.66.29,47.24-5.21,17.75-6.26,31.21-16.82,37.84-34.14,4.66-12.15,8.88-25.25,9.34-38.07,1.27-35.75.49-71.58.44-107.38,0-1.58-.71-3.16-1.21-5.24H136.8v16.95c0,24.23-.38,48.48.15,72.7.32,14.79.48,29.88,3.5,44.25,4.73,22.56,17.2,40.23,39.68,49.1,11.34,4.48,22.94,7.3,35.33,6.92,13.66-.41,27.35-.09,40.48-.09,3.86,13.51,4.42,107.31,1,125.35H1.17V474.37c7.31-.29,14.26-.42,21.19-.86,15.31-1,30.8-.92,45.88-3.36,31.82-5.13,49.1-34.7,51.85-60.33,4.35-40.7,1.5-81.37,2.34-122q.78-38-.12-76a139.5,139.5,0,0,0-4.41-32.5c-8.8-32.66-28.49-48.77-65.73-52.26-10.93-1-22-.41-33-.5-5.39,0-10.78,0-15.64,0C-.13,113.32-1.21,30,1.57,2.26,4.87,1.68,8.49.39,12.07.5c18.64.55,37.84-1.14,55.79,2.77,40.06,8.72,52.2,36.16,55.47,63.19.58,4.83.58,9.74.9,15.46h10.64c1.39-7.32,3-14.73,4.19-22.2C144.58,26,166.16,7,198.12,1.59c19.13-3.2,39.24-.58,60-.58V125.74c-7.58.26-15.07.32-22.53.84-15.84,1.1-32.1.58-47.4,4.13-23.59,5.47-39.59,20.93-45.53,45-2.6,10.56-5,21.41-5.47,32.22-.88,19.19-.24,38.46-.24,57.46,12.56,3.37,251.27,4.69,285.2,1.68.39-4,1.28-8.18,1.13-12.35-.83-23,0-46.32-3.32-69-5.7-39.36-30.91-54.9-66.83-58.6C336.83,125.49,320.25,126.88,302,126.88Z"/></g></g></svg>