<svg xmlns="http://www.w3.org/2000/svg" viewBox="0 0 492.74 600"><title>Asset 75</title><g id="Layer_2" data-name="Layer 2"><g id="Layer_1-2" data-name="Layer 1"><path d="M491.74,169.68C490,152.17,484,92.4,436.54,50.06c-28-24.94-58.35-33.16-84.44-40.23A277,277,0,0,0,275.6.45C213.35.71,119,0,0,0Q.86,70.95,1.71,141.9h74v99.78H1.22v138H75.51v83.36H.82V600h334V462H103.66V379.7H268.2a278.67,278.67,0,0,0,57.92-5.42c29.91-6,77.14-15.46,115.83-55.2,5.79-5.95,29.9-31.59,42.76-73.62A195.5,195.5,0,0,0,491.74,169.68Zm-26,23.28a55,55,0,0,1-5.54,19.48c-8.87,17.22-50,29.63-103.92,27.48H103.66l.54-97.84c156.6-.59,269.93-1.17,296.16-1.17,3.8,0,23.86,1.45,30.76,3.87,7.85,2.77,20.19,8,28.15,21.12A47,47,0,0,1,465.76,193Z"/></g></g></svg>