<svg xmlns="http://www.w3.org/2000/svg" viewBox="0 0 359.18 600"><title>Asset 5</title><g id="Layer_2" data-name="Layer 2"><g id="Layer_1-2" data-name="Layer 1"><path d="M340.26,506.42c-18.48,35.08-46.86,60.07-83.4,75.7a206,206,0,0,1-38.65,11.82s0,.08,0,.1c-5.29,1.14-12.44,3.31-21.3,4.58-12.4,1.77-21.41,1.42-30.29,1.2-11-.28-21.21-1.62-30.43-2.61v0c-25.38-3.14-49.64-10.56-72.2-24-21.58-12.92-39.52-29.91-52.36-51.62C-.71,500.56-3.77,477.77,5.06,455c13.12-33.77,49.85-45.1,76.89-27,18.31,12.25,24.33,37.46,13.69,56.83A89.08,89.08,0,0,1,90,494.21C75.3,514.46,87,545,103.29,556a79.64,79.64,0,0,0,23.62,11,74.55,74.55,0,0,0,12.47,2.21h.05c.39.05.78.08,1.16.1,1.48.12,3,.21,4.65.27l1,0a115.56,115.56,0,0,0,26.82-2.22c2.58-.52,5.22-1.15,7.9-1.89a85.59,85.59,0,0,0,10.33-3.65c1.86-.77,3.64-1.59,5.33-2.42l.79-.36,1.18-.57c.76-.35,1.51-.73,2.26-1.12l1.09-.56.06,0c1.34-.7,2.67-1.43,4-2.21,22.54-13.59,36-34.24,44.2-58.64A191.14,191.14,0,0,0,260.36,430c-1-42.23-16.35-78.29-51.08-103.95-23-16.95-49-23-77.3-16.89a89.79,89.79,0,0,1-12.17,2.18c-14.29,1.07-22.67-9.66-18.73-23.55,2.15-7.64,7.45-12.52,14.11-15.85,9.34-4.66,19.06-8.52,28.45-13.1,19-9.24,38.58-17.46,56.5-28.44,23.25-14.23,38.37-35.26,43.36-62.8,6.75-37.2-10.85-71.25-45.71-87C163.67,65.23,129.7,67.57,97.87,86,59.61,108.07,48,147.42,58,185.58c1.9,7.27,5,14.21,7,21.46a58.72,58.72,0,0,1,2.41,15c.1,9-7.36,15.37-16.05,12.91a52,52,0,0,1-17.8-9.19c-8.74-6.95-14.15-16.79-17.43-27.3-12.52-40-12.1-79.62,7-117.59C41.36,44.72,71,21.56,109.14,9,129.6,2.2,150.67.12,172.22,0c34.55-.17,66.29,8.75,94.83,27.83,35.53,23.73,58.46,56.75,62.15,99.6,4.43,51.22-13.26,94.3-56.82,124C258.24,261.08,242.19,267.92,227,276c-2.89,1.53-5.9,2.8-8.88,4.18,0,.61.09,1.22.12,1.84l10.23,2.43c22.77,5.47,44.72,13.22,64.81,25.35,33.45,20.2,54.59,49.52,62.42,87.88C363.44,435.65,358.27,472.29,340.26,506.42Z"/></g></g></svg>