<svg xmlns="http://www.w3.org/2000/svg" viewBox="0 0 519.98 600"><title>Asset 82</title><g id="Layer_2" data-name="Layer 2"><g id="Layer_1-2" data-name="Layer 1"><path d="M19.61,126.22a76.73,76.73,0,0,1,11.5-12.79c32.79-29.09,91.77-30,118.92-4.5,15,14.1,23.17,31.86,25.55,52,2.75,23.19-1,45.48-12.66,66-10.9,19.15-26.55,32.48-48.14,38.6C79,275.67,49.28,265,24.65,238.92c-13.87-14.66-21.79-33-23.72-53.18C-2.8,146.92,4.54,110.18,25.82,77.17,49.92,39.8,84.46,17.11,128.28,9.72c37.4-6.31,72.89,0,105.21,20.47,23.06,14.57,47.64,18.93,74.18,13.29a43.34,43.34,0,0,1,5.09-.37c-3.35,6.52-6.24,12.35-9.32,18.08-19.08,35.53-38.74,70.75-57.15,106.62-14.89,29-22.91,60.12-24.65,92.89-1.22,23-2.18,45.9,2.3,68.6,6.33,32.15,19.91,60.72,44.78,82.67,22.78,20.1,49.7,28.21,80.17,25.07,29.39-3,55.75-13.51,78.48-32a135.63,135.63,0,0,0,36.76-46.35,131.08,131.08,0,0,0,13.26-52.74c.76-18.59-6.7-33.84-19.93-45.77a284.64,284.64,0,0,0-36.69-27.84,193.33,193.33,0,0,1-38-32.17c-15.66-17-27.44-36.63-32.18-59.37-6.74-32.31-4.11-64.26,10.86-93.91,21.24-42.09,65.18-55.31,106-41.74,15.94,5.3,27.43,16.73,35.52,31.33,8.65,15.61,12.48,32.66,14.8,50.23,4.07,30.83,1.75,61.58-.58,92.31-1.7,22.52-3.5,45.07-6.7,67.4a694.58,694.58,0,0,1-20.16,95.69c-12.81,44-29.23,86.6-52.13,126.42-17,29.5-37.2,56.63-62.15,79.9-20.5,19.13-43.73,34.48-70.42,43.43-31.85,10.67-64.2,11.14-96.11-.07-19.3-6.77-36.67-17.21-51.15-31.85-23.72-24-37.21-53.4-43.28-86.13-11.44-61.69-1.64-120.45,27.81-175.56C153.73,277.9,167.21,259,180,239.69c12-18.09,24.52-35.77,36.78-53.66.63-.92.86-2.12,1.84-4.66L187.28,199c.4-6,.71-10.17,1-14.34,1.64-27.19-3.47-52.54-21-74.26A78,78,0,0,0,126.53,83.8c-20.7-5.77-41.42-6.39-61.88.84A81.68,81.68,0,0,0,43.41,95.79c-7,5.11-15.79,11.16-20.85,22.43a43.38,43.38,0,0,0-1.84,4.87Z"/></g></g></svg>