<svg xmlns="http://www.w3.org/2000/svg" viewBox="0 0 360.9 600"><title>Asset 101</title><g id="Layer_2" data-name="Layer 2"><g id="Layer_1-2" data-name="Layer 1"><path d="M11.39,124.32H0C2.26,84.84,4.48,45.83,6.77,5.88h12.4q109.55,0,219.08-.06c26.83,0,53.67,0,80.51.08A91.76,91.76,0,0,0,350.82.55c2.47-.9,6.38-.72,8.4.7,3.07,2.17,1.33,5.78-.49,8.31-11.26,15.68-22.18,31.64-34.15,46.78C313.81,70,301.77,82.54,290.44,95.71c-15.87,18.47-31.86,36.85-47.32,55.66-16.59,20.18-32.74,40.72-48.88,61.27a798.34,798.34,0,0,0-65.66,97.23c-18.28,32-33.9,65.18-40.73,101.81-4.77,25.54-2.75,50.79,3.44,75.88A182.91,182.91,0,0,0,113,539.48a164,164,0,0,0,36.66,41.95c3.36,2.74,6.7,5.51,10.45,8.59l-6.73,10c-6.27-5-12.24-9.16-17.55-14C121.92,573.12,110,558.57,101,541.87a262.29,262.29,0,0,1-14.12-30.44,197.26,197.26,0,0,1-13.25-72.52c.23-29.25,8.24-56.81,19.48-83.48,18-42.63,42.25-81.66,69.22-119,15.48-21.47,31.26-42.75,47.72-63.46,17-21.35,34.84-42,52.43-62.8,11.6-13.76,23.47-27.29,35-41.12,1.46-1.75,2.62-5.13,1.89-6.94s-4.05-3.12-6.26-3.16c-17.4-.26-34.8-.17-52.2-.17-49.7,0-99.4.07-149.09-.08-9.11,0-18.09-.45-27,2.43-10.31,3.34-19.07,9.22-25,17.76C30.14,92.6,21.86,107.32,13,121.63,12.51,122.45,12,123.28,11.39,124.32Z"/></g></g></svg>