<svg xmlns="http://www.w3.org/2000/svg" viewBox="0 0 455.09 576.46"><title>Asset 59</title><g id="Layer_2" data-name="Layer 2"><g id="Layer_1-2" data-name="Layer 1"><path d="M345.73,388.58l108.68,97.78c-.07.18-.15.37-.23.55-2-.23-4-.51-6-.68-16.71-1.42-31.41,4.29-44.51,13.87-13.37,9.77-26.11,20.41-39,30.78-16.74,13.43-34.19,25.69-54.29,33.65-58.65,23.21-133.22,14.87-185-45.58-20.22-23.59-34.61-50.48-45.45-79.39-10-26.56-16.39-54-21.17-81.94-3.27-19.06-13.13-34.77-26.59-48.33A107.27,107.27,0,0,0,2.13,288.12c-.52-.25-1-.56-2.13-1.18l3.22-1.49c25-11.89,42.85-30.51,51.74-56.85,3.07-9.11,4.2-18.88,6.17-28.35,8.14-39.21,19.8-77.17,40.06-112C115.27,64,132.89,43,156.19,27,178.28,11.86,202.8,3.52,229.33.94c28.3-2.75,55.84.38,82.27,11.35,18.52,7.69,35,18.77,50.56,31.2,13.74,10.95,27.26,22.21,41.37,32.66,12.19,9,25.94,14.56,41.5,14.12,3.05-.08,6.09-.55,10.06-.93L345.93,187.57c.34-5.38.8-10.08.9-14.79.82-39.19-4.56-77.32-20.41-113.49-6.92-15.8-16.25-30-30-40.9C279.53,5.07,260.34,1,239.4,4.49,218,8.08,201.92,20.08,188.92,36.81s-21.36,35.76-27.76,55.75c-10.07,31.49-15.12,63.89-16.85,96.84-.59,11.16-.91,22.37-.78,33.55.33,29.54,15.15,49.16,42.09,60.18,3.13,1.28,6.31,2.4,10,3.81-1.11.49-1.74.81-2.4,1.05-13.4,4.89-25.72,11.46-35,22.7-9.05,11-12.74,23.88-13.1,37.79a455.55,455.55,0,0,0,6.23,86.87c3.75,22.61,9.15,44.8,17.67,66.13,7,17.46,15.64,34,28.79,47.65,21.61,22.46,47.52,30.12,77.58,21,16.74-5.11,28.92-16.58,38.75-30.7,11.5-16.54,18.59-35,23.57-54.4a285.75,285.75,0,0,0,8.68-89.71C346.29,393.34,346,391.41,345.73,388.58Z"/></g></g></svg>