<svg xmlns="http://www.w3.org/2000/svg" viewBox="0 0 304.86 670"><title>Asset 53</title><g id="Layer_2" data-name="Layer 2"><g id="Layer_1-2" data-name="Layer 1"><path d="M83.39,452.81q0-68.46,0-136.93a70.51,70.51,0,0,0-.17-7.27C81.45,292.06,70.41,284.06,53.57,287c-8.34,1.48-16.68,3-25,4.43C14.59,293.91,3.3,286.5,1,272.53a47.28,47.28,0,0,1,.27-17.59c3.17-14.43,14.23-20.67,29.17-17.88,19.92,3.71,39.86,7.4,59.88,10.59,27.06,4.31,54.34,3.91,81.64,3.18,34.53-.92,68.19-8.18,102.08-13.68,18.27-3,29.88,5.76,30.76,24.23.29,6.25,0,12.39-2.93,18.16-4.61,9.13-13.8,14-23.64,12.35q-13.43-2.29-26.84-4.66c-17-3-28.46,6-29.52,23.35-.11,1.81-.08,3.63-.08,5.45q0,136.94,0,273.86a65.71,65.71,0,0,0,.76,10.39c2.15,13.3,12.38,20.93,25.77,19.06,9.29-1.29,18.54-2.91,27.76-4.61,15.24-2.82,27.7,6.61,28.46,22.09.26,5.24.29,10.74-1,15.75-3.43,13.18-14,19.17-27.41,16.86-21.47-3.68-42.89-8.09-64.52-10.36-23.16-2.44-46.53-3.08-69.83-3.92C110.49,654,80,659.93,49.43,665.72c-7.13,1.36-14.27,2.71-21.44,3.89-12.19,2-22.1-3.68-26-15.42a37.05,37.05,0,0,1,.31-25c4.27-11.45,14-16.81,26-14.67l25.91,4.66c16.58,3,27.91-5.79,29.07-22.67.19-2.72.1-5.46.1-8.19Q83.41,520.58,83.39,452.81Z"/><path d="M259.29,107.64c-.4,60-47.9,107.49-107.08,107.15C92.69,214.45,45.57,166.2,45.8,106.35A107,107,0,0,1,158.29.12C213.49,2.65,259.77,49.09,259.29,107.64Z"/></g></g></svg>