<svg xmlns="http://www.w3.org/2000/svg" viewBox="0 0 140.82 600"><title>Asset 33</title><g id="Layer_2" data-name="Layer 2"><g id="Layer_1-2" data-name="Layer 1"><path d="M140.43,600l-63.69-5.8v-.06C51.37,595.87,26,597.59.32,599.32c-1-2.91.27-4.84,4.18-6.29A202,202,0,0,0,28,583c12.68-6.64,19.14-17.52,19.51-31.92,0-1.44,0-2.88,0-4.33q0-182.8,0-365.59c0-20.83-7.38-32-26.58-40.17-5.44-2.31-10.86-4.7-16.46-6.53-3.74-1.22-5.12-3.14-4.22-6.3l76.45,5.21c21.15-1.94,42.31-3.86,63.62-5.8,1.15,3.41.22,5.59-3.85,6.93-6,2-11.76,4.48-17.56,6.94C101.77,148.7,93,161.35,93.24,180.37c.31,27.21.08,54.43.08,81.65V546c0,21.31,7.69,32.78,27.44,40.88,5.22,2.15,10.38,4.51,15.76,6.15C140.5,594.26,141.29,596.47,140.43,600Z"/><path d="M114.76,43.45c-.7,21.6-16,38.65-38,41h0c-15,.68-28.15-3.74-37.5-16C28.89,55,26.93,39.88,34.16,24.43,41.54,8.67,54.62.75,72,0c1.58-.06,3.15,0,4.73,0C100.84,2.35,115.42,23,114.76,43.45Z"/></g></g></svg>