<svg xmlns="http://www.w3.org/2000/svg" viewBox="0 0 573.71 600"><title>Asset 90</title><g id="Layer_2" data-name="Layer 2"><g id="Layer_1-2" data-name="Layer 1"><path d="M115.37,353.88c-7.64-2.09-14.1-4.07-20.66-5.6a97.12,97.12,0,0,1-37.78-17.89c-20.75-16.17-33-37.25-36.81-64-2.65-18.82.17-36.44,6.39-53.42,5.49-15,15.74-27.59,27.66-38.52C75.33,155,100.35,144,128.7,140.54c10.18-1.25,20.44-1.9,31.44-2.9,2.36-9.92,4.91-20.19,7.24-30.51C170,95.36,172.62,83.57,175,71.74c2.07-10.2.22-13-12-13.15-11.51-.11-23,1.23-34.54,1.53a35.67,35.67,0,0,1-12.13-1.6C106,55,104,48.94,106.36,35.4c1.7-9.59,7.72-16.53,17.06-20a19,19,0,0,1,6.31-1.22c26.88-.34,53.76-.78,80.64-.79,19.12,0,38.25.77,57.38.88,11.37.06,22.75-.71,34.12-.67a44,44,0,0,1,14,2c2.58.89,5.61,3.83,6.26,6.4,4.17,16.54,0,35.76-23.55,36-14.27.14-28.54-.52-42.82-.85-6.8-.16-11.77,3.38-13.22,10-8.28,37.66-8.87,37.54-17,78.18a66.85,66.85,0,0,0-.91,9.94c1.76,1.93,4.44,4.89,7.71,8.5,24.82,27.46,36.49,41.61,38.69,45.68,3.88,7.22,8.27,14.18,12.52,21.2.43.7,1.54,1,3,1.89,7.24-10.08,14.57-19.84,21.44-29.93,10.34-15.19,20.39-30.57,30.49-45.92,9.67-14.68,19.23-29.44,28.88-44.14,13.07-19.91,27.93-38.55,43.54-56.4,11.2-12.8,22.54-25.86,37.22-35.33,10.65-6.87,21.29-13.37,33.68-16.7,14.71-4,29.39-5.41,44.54-2.57,12.95,2.43,23,9.56,30.75,19.33,13.36,16.9,20.59,36.53,14.38,57.88-7.1,24.44-21.79,43.63-52,47.28-25.08,3-45.91-5.8-61.35-26.7C454.18,94,448.49,89.74,443,86c-10.09-6.8-20.29-4.1-28.86,2.81-7,5.68-13.14,12.69-19,19.66-7.36,8.77-14.27,17.94-21,27.21-9.44,13-18.62,26.22-27.74,39.46-9.83,14.29-19.29,28.83-29.24,43-6.52,9.31-13.55,18.25-20.47,27.27-2.68,3.5-2.71,6.83-1,10.84,7.63,18.28,15.53,36.48,22.38,55,7.35,19.91,13.38,40.3,20.47,60.3q9.19,25.94,19.55,51.46,8.85,21.76,19.09,43a180.77,180.77,0,0,0,14,23.62c5.55,8.1,11.36,16.18,18.16,23.22a77.82,77.82,0,0,0,19.47,14.83c10,5.22,26.35,6.22,36.23-2.18q12.36-10.5,24.07-21.74c9.13-8.78,19.05-14.2,32.46-13.12,10.11.81,17.2,5.84,23.59,12.57,8,8.43,11.67,19.12,12.46,30.34a52.68,52.68,0,0,1-2.92,20.62c-5.07,14.37-13.08,27-26.84,34.85a80.19,80.19,0,0,1-15.12,7c-17,5.4-34.73,4.8-51.61.85a98,98,0,0,1-47.34-26.72,205.93,205.93,0,0,1-37.16-51.4c-6.07-11.66-10.13-24.37-16.13-36.08-10.53-20.56-16-42.92-24-64.37-3.55-9.51-6.07-19.4-9.28-29.05-7.53-22.7-14.77-45.52-23-68-5.92-16.25-13.13-32-19.9-47.95-.89-2.1-2.56-3.88-4.11-6.18-10.9,12-20.6,24-31.67,34.62-15.16,14.49-30.28,29.32-49.58,38.57-10.11,4.84-15.35,12.08-17.12,23.74-3.11,20.53-8.36,40.73-12.63,61.09-3.72,17.77-7.24,35.58-11,53.34-2.21,10.44-4.72,20.81-7,31.23a34.65,34.65,0,0,0-1,6.46c-.14,5.22,2,6.76,7.18,6.34,10.12-.81,20.27-1.39,30.41-1.84,4.71-.2,9.45.39,14.16.18,10.86-.5,18.42,10.63,14.54,22.05-2.48,7.3-5,14.92-13,18.35-3.24,1.4-6.71,3.15-10.09,3.19-24.24.27-48.48.07-72.72.18-33.91.15-67.81.74-101.72.54-13.94-.08-20.29.43-18.74-20,.83-11,6.38-17.94,15.32-23a12.69,12.69,0,0,1,6.19-1.68c14.5.27,29,.87,43.49,1.14a30.62,30.62,0,0,0,9.32-1.31c4.31-1.31,7.34-3.74,8.28-8.94,3-16.87,6.51-33.68,10.08-50.46,3-14.16,6.65-28.2,9.6-42.38,3.59-17.27,6.74-34.64,10.11-52C113.39,362.69,114.32,358.77,115.37,353.88Zm37.2-188c-2.95.36-4,0-6.7.73-13.63,3.1-23.13,10.06-32.52,17.58C98.83,195.8,90.24,211.9,86.29,230.26c-3.6,16.7-3.13,33.09,2.89,49.27,5.51,14.81,13.62,27.67,26.63,37,1.71,1.22,4.12,1.46,6.11,2.13C126.58,307.7,152,172.37,152.57,165.87Zm37.5,152.84c1.65-.41,1.72-.58,3.09-.95a19.69,19.69,0,0,0,3.85-1.34c17.9-9.81,33.84-22.41,48.76-36.15,8.14-7.5,14.92-16.49,22.21-24.89,3.36-3.88,3.34-7.66.92-12.57-9.13-18.5-21.95-34.13-36.85-48-3.35-3.12-7.83-6.87-12.54-8.23-4.92,21.75-10.49,44.64-15.19,66.1C199.66,274,194.58,297.39,190.07,318.71Z"/></g></g></svg>