<svg xmlns="http://www.w3.org/2000/svg" viewBox="0 0 333.99 600"><title>Asset 91</title><g id="Layer_2" data-name="Layer 2"><g id="Layer_1-2" data-name="Layer 1"><path d="M324.24,115.7c-1.9,4.86-3.62,8.45-5.5,12.34-3.83,7.93-7.16,13.93-8.6,16.24-5.32,8.52-11,16.82-16.72,25.07-6.44,9.28-9.85,13.79-14.05,19.06-16.08,20.24-32.53,34.18-49.49,48.54-6.54,5.54-14.51,12-15.56,12.85-8.12,6.58-15,11.94-19.91,15.72-2.41,15.57-4.7,32-7.53,48.27-2.32,13.32-5.42,26.51-7.92,39.81-2.44,12.9-2,13-4,24.56a528.22,528.22,0,0,1-17,69.26c-2.7,8.32-2.65,7.32-9.51,27.61-5,14.9-6.24,18.9-9.52,27-.9,2.22-3.5,8.12-8.65,19.93-2.48,5.68-4.63,11.55-7.59,17-4,7.28-8.4,14.32-13,21.23A127.15,127.15,0,0,1,98.1,575.64c-8.15,9.22-16.42,18.58-29.75,22.45a54.51,54.51,0,0,1-17.86,1.85c-9.1-.31-14.12-.48-20-3-9.18-3.86-14.38-10.64-17.6-15.36-6.52-9.57-10.83-19.92-11.47-31.55S-.48,526.84.19,515.31s3.33-22.71,5.22-34a118.76,118.76,0,0,1,3-14.81c2.84-9.36,5.9-18.67,9.34-27.82A200.28,200.28,0,0,1,40.59,395c6.74-9.74,13.51-19.52,21-28.71,9.18-11.31,18.54-22.58,28.83-32.86C99.86,324,110.5,315.62,121,307.18q19.26-15.53,39.11-30.31c8.41-6.23,17.37-11.71,26.06-17.51,1.34-12.57,2.71-25.19,4-37.81.89-8.53,1.9-17.05,2.52-25.6.95-13.13,1.63-26.28,2.37-39.42.13-2.29.66-8.45.73-16.71,0-1.47,0-2.68,0-3.48-1.33,1.94-3.24,4.83-5.42,8.41-8.29,13.65-9.52,21.2-15.16,30.73a385.74,385.74,0,0,1-22,32.25A183.47,183.47,0,0,1,135,229.28c-9.33,9.23-20.17,17-32.6,21.1-9.49,3.14-19.8,4.46-29.62-.53a23.61,23.61,0,0,1-8.64-7.48c-7-9.87-3.67-21.56-3.21-23.08a27.19,27.19,0,0,1,10.4-14.71c10.79-6.91,23.17-9.66,35.15-13.64,9-3,16.94-8.72,25.76-12.25,16.38-6.55,29.46-17.75,40.64-30.55,8.13-9.31,18.2-17.86,21.62-30.84.37-1.4,4.13-3.07,5.83-2.64s3.75,3.34,3.77,5.19c.09,9.29-.42,18.6-.75,27.9-.4,11.61-.58,23.25-1.32,34.84-.94,14.64-2.19,29.26-3.61,43.85-.83,8.49-2.25,16.92-3.49,26.07a160,160,0,0,0,13.75-9.28c5-3.76,8.62-7,15.27-12.81,3.08-2.71,6.52-5.71,11-9.85,7.72-7.17,13.29-12.86,21.94-21.71,5.84-6,8.84-8.92,10.88-11.31,6-7.07,12.13-14.15,17.62-21.65,6.7-9.16,13.14-18.54,19-28.23a115.44,115.44,0,0,0,10.15-21,228.67,228.67,0,0,0,9.11-31.28c3.36-16.62,2.66-33.09-6.6-48.1A58,58,0,0,0,310,28.77a60.61,60.61,0,0,0-22.08-15.12c-13.2-5.45-26.41-7.2-40.15-2.8-8.32,2.66-16.12,7-20.16,14.63-3.24,6.1-1.37,13.47,0,20.45,1.9,10,3.91,20.24,3.52,30.29-.24,6-3.73,13.1-8.1,17.24a26.24,26.24,0,0,1-17.9,6.83c-13.25.15-20.1-6.46-24.75-17.83-3.65-8.91-1.56-16.84,1.38-25.24,4.81-13.8,14-24.28,24.71-33.51,5.83-5.05,12.93-8.6,19.16-13.23,7.73-5.75,16.67-8,25.82-9.49a77,77,0,0,1,36.08,2.84A55.64,55.64,0,0,1,308.51,15.7c2.93,2.69,11.17,9.06,17.17,19.5,13.89,24.18,6.88,52,3.73,64.45A153.9,153.9,0,0,1,324.24,115.7ZM184.17,271.64c-2.73,1.65-5.07,2.91-7.25,4.41-6.81,4.68-12,8.16-17.47,12.23-8.19,6.14-13.54,10.15-21.53,16.46-6.69,5.28-15.12,12.1-26.15,21.52-2.94,2.51-5.85,5.06-8.69,7.68a291.27,291.27,0,0,0-28.34,29.23c-2.55,3.07-6.55,8.48-14.54,19.29-9.16,12.4-13.8,18.73-17.45,24.63a228.39,228.39,0,0,0-13.33,25.48,234.48,234.48,0,0,0-10.74,27.17c-2.74,8.78-3.76,18.09-6.29,26.95-.89,3.12-1.57,6-2.1,8.67a138.17,138.17,0,0,0-2.35,19c0,.5-.39,6.37-.33,11.9.18,16.21.39,35.77,12,51.26,2.49,3.31,7.6,9.91,16.58,13.17a31.14,31.14,0,0,0,8.16,1.77c9.26.76,18.32,1.13,26.48-4.19,4.24-2.78,8.59-5.58,12.22-9.07A127.08,127.08,0,0,0,97.75,563c4.84-6.59,8.85-13.81,12.92-20.93,4.89-8.57,9.91-17.11,14-26,4.51-9.74,8.25-19.86,12-29.94,3.5-9.4,6.85-18.88,9.76-28.48,2.72-9,4.84-18.13,7.12-27.23,4.61-18.42,9.42-36.81,13.65-55.33,2.28-10,4-19.77,7.61-39.31,4.28-23.06,5.79-32.89,7-42.35C183,284.35,183.72,276.85,184.17,271.64Z"/></g></g></svg>