<svg xmlns="http://www.w3.org/2000/svg" viewBox="0 0 631.01 600"><title>Asset 44</title><g id="Layer_2" data-name="Layer 2"><g id="Layer_1-2" data-name="Layer 1"><path d="M54.75,599.72H0V.33C1.18.25,2.37.1,3.57.1,83,.09,162.48-.17,241.94.19c56.11.26,111.84,5.1,166.75,17.31C452,27.14,493.83,41,532.13,64c31.9,19.17,59,43.38,76.84,76.54,21.44,39.79,27.58,82.28,16.93,126C613.33,318.24,579,350,528.72,365.21c-14.93,4.53-30.35,6.25-46.41,6.74,31.65,76.05,63.17,151.77,94.88,228H571c-19.69,0-39.39-.07-59.08.07-3,0-4.52-.75-5.77-3.74Q470.7,510.94,434.9,425.74c-8.37-19.85-18.81-38.6-33.37-54.76a107.15,107.15,0,0,0-28.78-23c-26.82-14.46-53.65-28.91-80.71-42.92-22-11.38-44.92-20.48-69.77-23.32-41.86-4.79-81.21,2.54-116.82,25.87-27.07,17.73-42.89,43.08-47.18,75a412.9,412.9,0,0,0-3.33,51.79c-.42,53.38-.18,106.77-.19,160.15ZM55,276.06c1.25-.9,2.12-1.49,3-2.14,38-30,81.48-45.27,129.46-48.44,36.72-2.43,71.92,4.58,105.18,19.7,25.43,11.56,50,25,74.91,37.76,22.57,11.59,45.24,22.92,70.16,28.68,27.42,6.34,54.93,7.51,82.21-.49s44.85-25.62,52-53.17c4.6-17.56,4.49-35.4,1.56-53.22-5.79-35.19-24.28-62.59-52.22-84-28.64-21.95-61.54-34.83-96-44.15C373.66,62.66,320.91,56.88,267.74,56.11c-69.73-1-139.48-.51-209.23-.64a35.31,35.31,0,0,0-3.54.34Z"/></g></g></svg>