<svg xmlns="http://www.w3.org/2000/svg" viewBox="0 0 1058.34 600"><title>Asset 81</title><g id="Layer_2" data-name="Layer 2"><g id="Layer_1-2" data-name="Layer 1"><path d="M808.84,287.05q8.88,50.31,17.76,100.62c7.77,43.56,15.44,87.13,23.56,130.62,2.84,15.17,9.35,30,6.64,45.67a117.84,117.84,0,0,1-6.29,24.1,31.46,31.46,0,0,1-7.65,7.46,7.77,7.77,0,0,1-3.18,1.28c-10.9,1.75-20.27,3.06-31.37,3.11-70.75.27-141.51-.12-212.27-.37a154.91,154.91,0,0,1-18.66-1c-19.87-2.52-33.72-13.76-39.83-32.3-13.45-40.83-25.65-82.07-38.41-123.13q-21.22-68.29-42.53-136.56-18.06-58-36.09-116.06c-1.46-4.69-3.31-9.28-5-13.91l-2,.36c1.11,7.62,2,15.27,3.38,22.84q24.92,138,49.95,276c4.55,25.12,9.52,50.18,13.76,75.36,3.34,19.84-2.88,34.88-18.26,42.12a57.11,57.11,0,0,1-23.43,4.94c-56.74.23-113.47-.19-170.21-.31-18.7,0-37.4.44-56.1.29-27.91-.21-45-12.82-53.28-39.58Q125,448.34,91,338C74.27,284.12,57.35,230.31,40.65,176.43,28,135.65,15.11,94.94,3.18,54-7,18.91,7.47-.07,43.76,0Q148,.21,252.26,1.13C277,1.32,293,12.6,300.6,36.25c12.28,38,23.82,76.14,35.62,114.25q37.47,121,74.91,242c7.94,25.58,16.13,51.1,24.27,76.63.83,2.62,2.09,5.1,3.14,7.65l1.89-.37c-2.12-13.55-4-27.15-6.42-40.64-5.61-31.28-11.52-62.5-17.26-93.76q-16.47-89.67-32.86-179.34C377.18,125.88,370.44,89.09,364,52.25c-2.11-12.1-2.57-24.32,5-35.15C377.92,4.43,391.38,1.78,405.4,1.72c44.58-.19,89.16,0,133.73.15,29.3.12,58.6.68,87.89.74A53.07,53.07,0,0,1,677.68,40c14.5,47,28.72,94.15,43.25,141.18Q748.37,270,776.11,358.73q17.77,57.09,35.65,114.15c.81,2.59,2,5.07,3,7.6l1.92-.31c-.4-3.44-.63-6.91-1.23-10.32-5.1-28.53-10.15-57.06-15.43-85.56-7.67-41.34-15.66-82.63-23.23-124-4.43-24.22-8.2-48.56-12.48-72.81-6.38-36.21-13-72.39-19.46-108.58-2.08-11.62-5.31-23.18-6-34.88-1.43-25.56,13.92-41.29,39.55-41.29,44.89,0,89.78.43,134.66.56,30.86.1,61.72-.15,92.58.05,8.69,0,17.52.33,26,1.95C1049,8.59,1058.55,20,1058.34,37.45c-.11,8.56-2,17.33-4.43,25.61-6.27,21.21-13.35,42.17-20,63.27-12.18,38.61-24.13,77.29-36.47,115.85-15.19,47.46-30.76,94.8-46,142.25-7.91,24.61-15,49.5-23.44,73.93a93.53,93.53,0,0,1-13.65,25.19c-8.06,10.73-22.91,12-31.92,2.05A81.68,81.68,0,0,1,865.82,458c-10.79-31.86-19.91-64.28-30.06-96.36-8-25.14-16.47-50.1-24.73-75.14Z"/></g></g></svg>