<svg xmlns="http://www.w3.org/2000/svg" viewBox="0 0 547.82 650"><title>Asset 37</title><g id="Layer_2" data-name="Layer 2"><g id="Layer_1-2" data-name="Layer 1"><path d="M375.51,650H343.15v-5.91q0-171.58-.09-343.17a18.29,18.29,0,0,0-1.94-8.2Q269.9,157.12,198.49,21.63c-2.73-5.2-5.43-10.43-8.47-16.26,10.88,0,21.1-.11,31.31.16,1.11,0,2.48,2.08,3.22,3.47q26.87,50.82,53.61,101.71c9.62,18.28,19.25,36.57,29.27,54.83-11.62-35.77-9.46-70.35,9.56-103S364.26,9.13,401.45,2.12c59.35-11.18,117.86,22.74,139,79.6,20.36,54.71-2.77,118-53.81,148.24-53.46,31.72-124.23,19.71-164.14-35.58.4,1,.72,2,1.21,3Q348.89,245.14,374,293a13.74,13.74,0,0,1,1.56,6.14q.12,173.76.08,347.52C375.67,647.6,375.58,648.6,375.51,650Z"/><path d="M0,5.35c10.57,0,20.65-.1,30.73.15,1.18,0,2.71,1.79,3.41,3.1Q54.5,46.93,74.67,85.33q54.24,103.08,108.39,206.21a21.2,21.2,0,0,1,2.38,9.41q.18,172,.11,344v4.91H152.92V644q0-171.58-.07-343.17a18.33,18.33,0,0,0-1.94-8.21Q76.68,151.31,2.24,10.06C1.52,8.68.9,7.26,0,5.35Z"/><path d="M126.67,5.34c10.57,0,20.42-.14,30.25.16,1.44,0,3.33,1.91,4.13,3.4q26.74,50.42,53.26,100.94,47.61,90.42,95.1,180.9a24.89,24.89,0,0,1,2.77,11q.21,171,.11,341.93v6.2H279.73v-5.09q0-171.18-.12-342.37A25.56,25.56,0,0,0,276.8,291Q204,152.26,131,13.7C129.61,11.17,128.34,8.61,126.67,5.34Z"/><path d="M63.39,5.37c10.63,0,20.73-.11,30.82.14,1.17,0,2.68,1.85,3.39,3.18Q115.92,43.19,134,77.77q56.58,107.52,113.1,215.06a15.55,15.55,0,0,1,1.77,7q.12,173.57.07,347.12v2.91H216.29v-4.93q0-172.26-.08-344.51a17.41,17.41,0,0,0-1.93-7.77Q140,151.25,65.61,10C64.89,8.61,64.27,7.2,63.39,5.37Z"/></g></g></svg>