<svg xmlns="http://www.w3.org/2000/svg" viewBox="0 0 644.16 687.94"><title>Asset 70</title><g id="Layer_2" data-name="Layer 2"><g id="Layer_1-2" data-name="Layer 1"><path d="M262.2,626.15c-.54-11-1.12-21.55-1.55-32.11-2.82-68.79,5.76-136.23,24.49-202.39,24-84.91,62.89-162.86,111.25-236.32q6.09-9.26,12.36-18.4c4.08-6,8.26-11.88,12.41-17.85-8.29,2.52-16.43,5.29-24.72,7.47-36.74,9.67-74.16,15.94-111.59,22.23-19.78,3.32-40,5.26-59.17,10.85-43.78,12.78-74.32,40.41-86.36,85.58-2.71,10.15-3.07,21-3.92,31.56-1.28,15.83-13.92,26.91-29,24.54-10.56-1.65-16.66-8.63-19.35-18.44-3.89-14.23-1.22-28.21,3.23-41.81,8.6-26.32,26.42-45.42,48.89-60.57,27-18.24,57.23-28.61,89-34.39,32.83-6,65.9-10.65,98.62-17.1A612.78,612.78,0,0,0,395,111.94c20.93-6.69,38.76-20,56.7-32.52a16,16,0,0,0,2.67-2.93Q485.85,39.23,517.33,2c.9-1,2.7-2.12,3.93-2,15.68,1.85,31.33,3.91,47.82,6-1.61,1.8-2.81,3.19-4.06,4.53a992.73,992.73,0,0,0-162.61,235c-34.42,69-60.47,141-75.45,216.83-10.7,54.18-15.39,108.8-10.9,164,.7,8.54,1.52,17.08,2.67,25.56.21,1.54,2,3.43,3.57,4.13a241.91,241.91,0,0,0,82.95,20.55c41.14,2.86,80.71-3.5,118.58-19.78,35.56-15.3,65.24-37.91,86.44-70.84,5.12-7.95,13.75-10.58,22-7.24,8.69,3.51,13.32,12.74,11.45,23.05-1.59,8.78-6.39,15.81-12.43,22.07-13.5,14-30.16,23.19-47.64,31-37.28,16.59-76.48,26-116.94,30.58a377.38,377.38,0,0,1-124.26-6.26c-31.3-6.92-60-20.24-88.18-35.11-18.14-9.57-36.33-19.35-55.37-26.79C147.12,597,87,606.39,46,662.22c-3.23,4.4-6.35,8.9-9.31,13.48-6.48,10-15.06,13.43-24.79,9.71C2.72,681.92-1.48,673.13.47,661.65c1.9-11.23,7.76-20.35,15.4-28.4,16.6-17.49,37.31-28.21,59.88-35.74,37-12.36,74.17-10.33,111.33-.53a362,362,0,0,1,70.59,27C259.09,624.73,260.54,625.37,262.2,626.15Z"/></g></g></svg>