<svg xmlns="http://www.w3.org/2000/svg" viewBox="0 0 533.75 600"><title>Asset 12</title><g id="Layer_2" data-name="Layer 2"><g id="Layer_1-2" data-name="Layer 1"><path d="M349,416.41l5.42-11.35-81.3-226.34c14.9-39.06,28.47-79.45,45.59-118.28C340,12.27,395.87-10.45,446.7,4.6c39,11.54,66.15,35.15,80.57,73.38,10.4,27.57,7.49,54.73-3.13,81.16-36.94,91.94-74.4,183.67-111.64,275.49-11.92,29.38-24.06,58.67-35.59,88.21-18.65,47.76-63.85,79.8-113.08,77C212.61,596.9,176.53,570.65,157,523c-28.4-69.36-56.23-138.95-84.32-208.44C52.72,265.13,32.19,215.9,13,166.15,6.6,149.55-.22,131.57,0,114.32c.29-22.75,7.89-45,21.67-64.55,39.49-55.89,122-66.21,171.43-21,14.16,13,23.29,29.18,29.74,47.05q54.54,151,109.08,302c4.62,12.78,9.57,25.45,14.36,38.18Z"/></g></g></svg>