<svg xmlns="http://www.w3.org/2000/svg" viewBox="0 0 633.39 600"><title>Asset 34</title><g id="Layer_2" data-name="Layer 2"><g id="Layer_1-2" data-name="Layer 1"><path d="M196.21,269.93c18,5.15,34.6,1.67,49.68-8.44,17.81-11.93,28.77-29,34.74-49.32a9.41,9.41,0,0,1,11.91-6.54c4.59,1.48,6.94,7,4.85,11.84C286.17,243.68,266,260,239.65,269.41c-15.83,5.68-32,6.28-48.54,3.36-4.15-.74-8.68.46-13,1-42.77,4.92-93.74-19.94-105-76-8.71-43.24,3.24-81.77,30.1-115.86,28.37-36,65.83-58.7,109.27-72,28.15-8.61,57-11.11,86.31-9.35,11,.66,22.18-.8,33.22-.21C380.29,2.88,423.84,18,459.45,51.79c32.05,30.43,48.71,68,48.92,112.38.13,30.39-5.13,59.76-18.62,87.3-14.74,30.08-37.46,53-64.67,71.83-26.79,18.56-56.09,32.41-85.82,45.4-33.95,14.85-68.23,29-101.92,44.41-37.53,17.17-72.9,38-103.49,66.16-4.38,4-8.34,8.51-11.59,11.85,10.37-1.59,21.75-4.07,33.24-4.88,9.79-.69,19.71.59,29.57.88a58.07,58.07,0,0,0,7.56-.43c39.21-3.9,75.11,5.65,107.35,27.84,17.35,11.94,33.68,25.38,50.31,38.34,19,14.83,38.51,28.88,61.6,36.71,8.8,3,17.93,5.72,27.11,6.66,7.61.78,15.65-.62,23.27-2.16,29.81-6,56-18.9,76.72-41.72,19.69-21.74,30.07-47.54,32.69-76.63,1.8-20-.38-39.51-8.49-58-12.38-28.18-33.83-46.06-63.35-54.34a9.66,9.66,0,0,0-5.06-.09c-29,8.52-51.12,25.35-63.79,53.41a16.45,16.45,0,0,0-1.29,4.16c-.54,3.49-2.28,6.16-5.65,7.06s-6.72.48-9.11-2.53a8.37,8.37,0,0,1-1.24-9.34c6.76-14.5,17.69-25.24,30.63-34.17,13.2-9.1,27.72-15.35,43.16-20.65-3.9-.39-7.83-1.34-11.68-1.08-38.19,2.58-67.7,19.25-86,53.73a32,32,0,0,0-2.63,7.48c-1.29,5.51-5.39,8.08-10.76,6.49a8.25,8.25,0,0,1-5.32-11.48c5.78-13.57,15.5-23.95,27.32-32.32,25.48-18,53.74-27.92,85.17-26.18,10,.55,19.78.35,29.73.07,36.14-1,68.21,9.75,93.7,36.35,17.17,17.92,25.37,39.81,26.27,64.5,2,55-30.71,104.33-87.06,126.55-24.13,9.52-49.29,13.85-75.09,14.33-20.14.37-40.31.48-60.45-.08-34.74-1-66.87-11.14-95.38-30.93-19.28-13.38-37.46-28.34-56-42.73-16-12.4-32.5-23.9-51.71-30.82a137,137,0,0,0-17.69-5,22,22,0,0,0-9,.19c-33.07,7.12-57.82,26.33-77,53.49-11.09,15.7-19.27,32.89-25.51,51-.9,2.58-2,3.55-4.82,3.37-10.23-.63-20.48-1-31.22-1.53A321.09,321.09,0,0,1,65.2,540.07c-.58.66-1.2,1.28-1.71,2a215,215,0,0,0-27.36,52.31c-1.12,3.09-2.55,4-5.74,3.82-10-.66-20-1-30.39-1.51.42-1.67.69-3,1.1-4.35,13.29-41.69,35-78.32,66-109.3,24.56-24.55,53-43.9,83.31-60.5,34.23-18.72,70.23-33.59,106.05-48.84,34.12-14.53,68.24-29.05,99.73-48.91,26.62-16.78,50-36.93,66.69-64.1,13.64-22.24,21-46.55,23.79-72.37,2.56-23.31,2-46.44-4.44-69.08C428.27,70,397,36,350.11,16.16A154.58,154.58,0,0,0,301.4,3.91c-6.74-.51-13.79,1.18-20.53,2.64-49.67,10.7-91.14,34.92-120.65,76.82C130.86,125,123.39,170.91,139.55,219.6c7.38,22.25,22.23,38.64,44.2,48a9.91,9.91,0,0,0,9.07-.19c23.3-11.53,37.66-30.41,45.25-54.83,1.6-5.13,7.16-8.59,12.19-7,4.55,1.43,6.71,7.19,4.47,12.34-10.55,24.2-28.76,40.29-53,49.92C199.87,268.57,198,269.24,196.21,269.93ZM23,579.11l.82.37c.33-.57.7-1.12,1-1.7,14.09-29.17,34.22-53,61.78-70.34A19,19,0,0,0,90,504.15c10.11-10.64,19.64-21.89,30.4-31.81,29.82-27.51,64.44-47.9,101-64.79C257,391.12,293.16,376,329,360.15c30.31-13.36,60-27.93,86.76-47.74,23.74-17.56,43.44-38.67,56.32-65.55,14.54-30.35,19.3-62.54,17-95.84-2.8-40.53-18.24-75.48-48.08-103.4-34.24-32-75.85-44.54-121.86-44.76a18.27,18.27,0,0,0,4.08,1.29,197.71,197.71,0,0,1,41.94,13.07c40.31,18,70.87,46.07,88.89,86.87,12.38,28,14.52,57.34,11,87.46-5.47,47.29-26.09,86.32-62.5,117-24.29,20.49-51.71,35.95-80.49,48.9-33.92,15.25-68.28,29.5-102.36,44.4C184,417.52,149.19,434.9,117.49,458c-35.91,26.11-64.83,58.23-84.37,98.37C29.48,563.79,26.34,571.51,23,579.11Zm257.5-576-.11-1c-10.21.91-20.52,1.27-30.64,2.83-50.95,7.85-94,30.43-126.32,71s-42.64,86.6-28.53,136.67c9.59,34,32,55.38,68.43,59.63a38.94,38.94,0,0,0,17.67-2,16.28,16.28,0,0,0-3.75-1.69c-29-10.58-48.85-30.27-58.7-59.67-6.74-20.09-7.17-40.66-3.47-61.3,5.73-31.93,21.62-58.58,44.1-81.45C186.52,38.28,219.56,19.9,256.88,9,264.66,6.75,272.6,5.06,280.47,3.1ZM460.32,597.69a189.49,189.49,0,0,0,50.75-5.29c25.66-6.33,48.67-17.8,67.08-37,27.52-28.73,38.87-63.41,36-102.89C610.79,406,579.67,370.76,534,361.93c-8.49-1.64-17.1-2.4-25.77-.88a17.58,17.58,0,0,0,3.62,1.43c27.06,8.1,49.37,22.85,64.33,47.25,16.32,26.61,18.33,55.45,10.77,85-10.77,42.11-37.84,70.5-76.81,88.29C494.29,590.28,477.51,594.47,460.32,597.69ZM197.73,488.9l6.56,1.56c26.65,6.33,49.57,19.94,71,36.41,18.09,13.91,35.71,28.46,54.26,41.72,29.07,20.78,61.62,31,97.84,29.18-.78-.31-1.36-.59-2-.76-.76-.22-1.55-.37-2.33-.53a180,180,0,0,1-48-17.22c-20.81-10.93-39.09-25.44-57.23-40.17-16.58-13.47-33.09-27.05-52.21-36.9C244.29,491.2,221.74,486,197.73,488.9Zm-21-.37a22,22,0,0,0-3.06-.73c-19.68-.71-38.9,1.35-57,9.86a14.57,14.57,0,0,0-4.69,3.55A256.31,256.31,0,0,0,67.68,574c-.48,1.18-.82,2.41-1.22,3.61C89.88,531.87,125.1,500.91,176.75,488.53Z"/></g></g></svg>