<svg xmlns="http://www.w3.org/2000/svg" viewBox="0 0 731.42 609.47"><title>Asset 58</title><g id="Layer_2" data-name="Layer 2"><g id="Layer_1-2" data-name="Layer 1"><path d="M431.71,409.91a3.33,3.33,0,0,1,.25.5c.74,7.21.74,7.2-6.38,7.68-22.48,1.5-38.47,13.24-49.59,32.1-11.4,19.33-14.81,40.45-12.86,62.61,1.42,16.21,6.18,31.29,15.36,44.82,11.46,16.9,27.4,27.93,46.37,34.88,18.63,6.83,38,9.08,57.7,8.68,33-.67,64.19-8.55,93.29-24.28,35.22-19,62.58-46.31,83.36-80.34,17.94-29.4,29.2-61.3,35.18-95.17a337.36,337.36,0,0,0,1.37-106.55c-7.88-55.6-28.18-106.08-63.73-149.94C603.21,109.32,567.62,82.53,525.77,64a323.48,323.48,0,0,0-43.09-15.3c-2.78-.78-4.37-.19-6.21,1.78-15.87,17-28.23,36.44-38.67,57.12-16.93,33.54-29.14,68.9-39,105-10.23,37.54-19.3,75.38-29.12,113-8.56,32.81-17,65.67-26.36,98.24-8.68,30-20,59.16-35,86.7-14.56,26.66-32.35,50.65-56.93,69a146.28,146.28,0,0,1-63.82,27.25,165.07,165.07,0,0,1-47.17,1.56,134,134,0,0,1-69.53-29C46,559.54,29.4,533.79,18.09,504.4,4.94,470.22.2,434.62,0,398.14c-.22-42.33,8.33-82.9,23.23-122.25,24.4-64.39,62.71-119,116.24-162.53,33.88-27.58,71.75-48,113.1-62a407.89,407.89,0,0,1,79.81-18.29c30.5-3.88,61.12-5.23,91.81-2.73,11.83,1,23.59,2.75,35.4,4a6.62,6.62,0,0,0,4.32-1.19,151.5,151.5,0,0,1,70.37-29.8C546.89,1.48,559.71,1.07,572.43,0a30.81,30.81,0,0,1,3.37.14,38.45,38.45,0,0,1-.14,6.56c-.11.65-1.84,1.45-2.83,1.46a141,141,0,0,0-32.94,3.91,124.74,124.74,0,0,0-50.77,26.5,22.08,22.08,0,0,1-1.87,1.21c5.69,1.59,10.55,2.89,15.37,4.3C559.5,60.72,609.1,89.52,649.79,132.9c36.07,38.45,60.06,83.51,72.71,134.7,7.22,29.22,9.61,58.86,8.76,88.86C730,399.73,719.51,440.59,699,478.66c-25.52,47.31-62.28,83.2-110.9,106.49-40.25,19.28-82.83,26.54-127.24,23.56-23.72-1.59-46.64-6.56-68.15-17-23.19-11.21-42-27.15-53.57-50.69-23.35-47.63.87-106.82,50.82-124.65a121.13,121.13,0,0,1,38.75-6.74c.7,0,1.4,0,2.1,0A7,7,0,0,1,431.71,409.91ZM453.07,42.43c-1.3-.33-1.84-.53-2.4-.6C443.84,41,437,40,430.17,39.24c-34.39-3.55-68.65-2-102.71,3.49a346.29,346.29,0,0,0-86.64,25.82c-46.54,20.85-86.07,51-119,89.83A375.34,375.34,0,0,0,60.28,260.54C45.1,297.89,35.35,336.54,33,376.86c-2.25,37.84.75,75.25,10.71,111.93,6.73,24.77,16.79,48,32.57,68.49,13.58,17.6,30.15,31.29,51.35,38.82,14,5,28.42,5.88,43.13,4.52,21.44-2,41.1-8.62,58.51-21.51,15.93-11.79,28-26.9,38.22-43.69,12.9-21.26,22.26-44.13,30.44-67.52,10.65-30.44,19.25-61.47,27.19-92.7,7.71-30.35,15.14-60.77,23-91.07,7.77-29.81,15.6-59.62,24.1-89.23,8.65-30.14,19.4-59.55,33.61-87.59,11.39-22.5,25.1-43.37,43.16-61.17C450.14,45,451.41,43.93,453.07,42.43Z"/></g></g></svg>