<svg xmlns="http://www.w3.org/2000/svg" viewBox="0 0 616.72 600"><title>Asset 87</title><g id="Layer_2" data-name="Layer 2"><g id="Layer_1-2" data-name="Layer 1"><path d="M182.41,159.9c-2,1-3.61,2.26-5.36,2.49-4.66.63-5.42,3.5-5.42,7.51,0,18.23-.12,36.47-.2,54.71q-.59,123.9-1.16,247.8c0,8.38-.38,16.78.09,25.14.12,2.22,2.5,4.5,4.22,6.4,3.27,3.61,7.52,6.53,10,10.57,2,3.16,3.66,4.44,7.23,4.43q28.29-.12,56.59.09c8.35,0,9.42,1.13,9.36,9.46-.15,20.53-.56,41.06-.51,61.59,0,6-2.07,8.06-8.09,8q-118.55-.71-237.09-1.1c-1.88,0-3.78-.33-5.65-.21-4.61.29-6.47-1.91-6.44-6.35.13-21.59.25-43.18.25-64.77,0-5.93,2.57-7.87,8.48-7.73,18,.41,36,.21,54,.45,4.6.06,7.59-1,10-5.54A20.55,20.55,0,0,1,82,504.09c4.49-1.89,5.21-4.38,5.23-8.54q.39-99.36,1-198.7.38-66.66.87-133.31c.12-20.74,0-41.49.21-62.23,0-3.8-1.15-5.64-4.63-7.71A30.25,30.25,0,0,1,74.57,83.14c-1.91-3.21-3.62-4.49-7.19-4.49-18.86,0-37.73-.09-56.6-.17-7.53,0-8.28-.83-8.25-8.28Q2.68,41,2.74,11.71C2.76.08,2.79-.06,14.7,0Q92,.44,169.38,1c6.91,0,13.82.31,20.72.09,4.87-.15,7.72,2.16,10,6.11q22.24,38.31,44.64,76.52,28.58,48.78,57.21,97.54c13.84,23.67,27.5,47.44,41.36,71.1,18,30.69,36.13,61.29,54.11,92q15.54,26.54,30.74,53.26c1.79,3.13,3.12,5.49,7.66,4.05,4.35-1.38,7-2.29,7.05-8.06.16-69.39.73-138.78,1.1-208.17q.47-87.41.75-174.82c0-6.74,1.39-8,8.91-8q73.26.27,146.52.61c16.56.07,16.59,0,16.56,16.7,0,17.61-.16,35.22-.24,52.83,0,7.45-1.16,8.91-8.7,8.94-18.43.09-36.88,0-55.31-.33-4.8-.09-8,.49-10.49,5.44a20,20,0,0,1-9.09,9c-4.64,2-5.64,4.47-5.63,9,0,27.25-.14,54.5-.28,81.76q-.57,107.22-1.17,214.46c-.17,32.07-.32,64.14-.63,96.21,0,4.66.76,7.58,5.9,9.45,3.29,1.19,6.57,4.89,8,8.25,2.12,5.13,5.53,6.23,10.26,6.24,15.92,0,31.85.28,47.78.15,16.45-.14,16.44-.29,16.38,15.9-.08,18-.11,36-.23,54.07,0,8.24-.68,8.85-9.07,8.81-50.93-.24-101.87-.58-152.8-.65-6.41,0-10-2.07-13.27-7.93-9.86-17.72-20.71-34.88-31.05-52.34-10.45-17.64-20.66-35.42-31.13-53.05-13.86-23.36-27.92-46.6-41.79-70C324,399,314,381.77,304,364.62q-15.56-26.53-31.14-53.06-22.83-38.7-45.76-77.33-20.62-34.86-41.26-69.73C184.85,162.93,183.62,161.53,182.41,159.9Z"/></g></g></svg>