<svg xmlns="http://www.w3.org/2000/svg" viewBox="0 0 677.86 600"><title>Asset 32</title><g id="Layer_2" data-name="Layer 2"><g id="Layer_1-2" data-name="Layer 1"><path d="M662.22,544.21v36.6H424.08V544.38c3.13-.38,6.35-.57,9.49-1.19,16.44-3.2,26.64-14.49,28.65-31.26,1.52-12.54-.28-24.67-4.14-36.57-23.95-73.9-53.56-145.54-86.7-215.75-5.84-12.36-11.9-24.61-17.86-36.91a9.56,9.56,0,0,0-2.34-3.26c.76,6.3,1.5,12.61,2.27,18.91,3.13,25.41,3.47,51,3,76.49-.65,39.15-4,78-12.53,116.35-7.71,34.67-19.22,67.88-39.23,97.61-25.85,38.42-61.24,62.37-107.35,69.07-40,5.81-78,.22-112.23-22.69-30.41-20.34-50-49-61.84-83.14-11.18-32.23-15.47-65.58-11.47-99.35,7-58.89,35.26-104.84,88.93-131.75,44.32-22.23,89.12-19.8,131.25,7.2,22.58,14.48,35.94,36.54,44.44,61.6,8.72,25.73,9.88,52.32,8.56,79.16a28.14,28.14,0,0,1-.5,2.9H246.24c.39-5.18.93-10.3,1.14-15.43,1.15-27.29-3.16-53.36-19.06-76.27-18.66-26.88-45.16-38.61-77.25-35.76-43.11,3.83-71.76,28.74-90.2,66.43-11.25,23-14.21,47.63-12.94,73,1.3,26.13,5.52,51.57,17.08,75.26,18.67,38.26,49.16,59.75,91.83,63.23,24.83,2,48.89-1.3,71.55-12.09,26.09-12.44,44.26-32.94,57.65-58C300,466,307.65,437.85,312.75,408.88c5.21-29.58,7.23-59.43,8.16-89.42,1.51-48.89-3.06-97-15.92-144.31-7.77-28.53-18.35-55.91-34.62-80.78-13.56-20.72-30.15-38.22-53.12-48.75-16.83-7.71-34.49-9.34-52.69-7.61-21.78,2.06-42.2,7.9-59.94,21.25C91.11,69.43,81.48,82.42,76.72,98.77c-5.56,19.14,1.64,35.74,19.34,45,14,7.31,29.21,9.2,44.69,9.28,24.77.13,49.55,0,74.32,0h4.49v35.82H0V153.24c3.28-.45,6.39-.7,9.43-1.32,9.65-2,16.16-8.11,19.37-17a328.86,328.86,0,0,0,10.65-34.64C49.92,56.71,77,27.62,117.88,11.58c35.28-13.83,71.44-16,107.61-2.46,22,8.26,40.91,21.59,58.1,37.43,27.46,25.31,49.05,55.27,68.38,87,29.44,48.27,53,99.47,74.06,151.79,17.47,43.31,34,87,51,130.5.41,1.05.91,2.07,1.44,3.28,0-7.68.19-15.09,0-22.49-1.58-54.88-1.19-109.72,4.27-164.4,3.9-39.07,10.37-77.67,23.13-115,3.74-10.94,7.57-21.89,10.43-33.08,1.38-5.4,1.17-11.4.71-17-.85-10.54-6.85-17.75-16.35-22.08-10.21-4.66-21.15-5.21-32.12-5.36-9.5-.14-19,0-28.8,0V3.06H677.86V39.62h-4.52c-16.54.16-33.13-.37-49.63.64-26.66,1.64-47,14.66-61.53,37-12.9,19.74-21,41.48-27.25,64-8.75,31.74-13.5,64.17-16.64,96.88C515,272,513.73,306,513.85,340q.24,69.38,5.15,138.6c.87,12.18,2.12,24.18,7.71,35.22,9.56,18.88,25.85,28.18,46.17,29.48,20.13,1.28,40.38.72,60.57.9C642.94,544.28,652.44,544.21,662.22,544.21Z"/></g></g></svg>