<svg xmlns="http://www.w3.org/2000/svg" viewBox="0 0 629.28 753.32"><title>Asset 62</title><g id="Layer_2" data-name="Layer 2"><g id="Layer_1-2" data-name="Layer 1"><path d="M55.11,376.88a178.38,178.38,0,0,1-33-45.6C9.11,305.39,2.93,277.79,1.76,249c-1.82-44.5,8-86.17,31.35-124.32C56.82,86,89.78,57.33,129.48,36.08A296.34,296.34,0,0,1,252.33.89C322-3.36,388.94,7.29,451.16,40.62c50,26.77,89.34,64.94,119.09,113.09,26.87,43.48,43.23,90.92,52.09,141.06,7.16,40.52,8.33,81.38,5.56,122.34-3.3,48.67-14,95.65-33.64,140.41C567.08,619.55,526,669.73,467.64,705c-34.72,21-72.39,34.08-112.15,41.59-33.75,6.38-67.83,7.8-102,6-56.57-3-109.34-18.3-155.33-52.55-50.92-37.92-82-88.61-93.84-150.85-7-36.83-6-73.5,6.27-109.29,8.36-24.36,21.54-45.58,42.14-61.64A25.36,25.36,0,0,1,55.11,376.88Zm549.7,2.46,1.24-.13c-2.16-23.51-3.63-47.11-6.62-70.51a365,365,0,0,0-32.94-111.94C537.14,135.48,493.28,88.05,431.85,58,373.42,29.45,311.34,20.7,247,26.16A273,273,0,0,0,131.09,62.52c-36.57,21.34-65.75,50-84.7,88.19-19.26,38.84-24,79.91-17.26,122.45,7.07,44.31,28.54,79.93,65.47,105.71,36.3,25.35,77.64,35.72,121,39.36a420.48,420.48,0,0,0,83.63-1.61c30.6-3.54,60.46-10.05,88.93-22.14,30.33-12.88,56.83-30.67,75.06-59a12.11,12.11,0,0,1,5.08-4,11.93,11.93,0,0,1,14,3.46c3.51,4.33,3.63,9.58.27,14.78-17.15,26.57-41.05,45.42-68.89,59.57-36.37,18.48-75.32,27.86-115.66,32.21-40.16,4.34-80.2,4.12-120-3.65-36.92-7.22-71.44-20.26-101.86-42.9-2.37-1.77-3.79-1.18-5.76.26C52.92,408,41.29,425.11,33.62,445.08c-11.9,31-13.62,63-8.1,95.44,9.55,56.18,36.85,102,82,136.72,42.22,32.53,91.12,46.83,143.53,50.58a395.26,395.26,0,0,0,112.31-8c44-9.53,84.43-27.06,120.11-54.86,41.06-32,70.34-72.84,90.35-120.6C595.9,491.61,604.46,436.24,604.81,379.34Z"/><path d="M274.92,263.82a196.4,196.4,0,0,1-78.51-17.14C188.17,243.05,184.81,236,188,229c3-6.49,10.35-8.61,18.25-5.14,15.85,7,32.18,12.22,49.43,14.56,33.4,4.55,63.81-2.92,91.67-21.76a21.76,21.76,0,0,1,11-3.64c5.42-.15,9.31,3.72,10.51,8.55a12.91,12.91,0,0,1-5.39,14.35,155.08,155.08,0,0,1-45.73,21.77A162.92,162.92,0,0,1,274.92,263.82Z"/></g></g></svg>