<svg xmlns="http://www.w3.org/2000/svg" viewBox="0 0 788.51 551.23"><title>Asset 61</title><g id="Layer_2" data-name="Layer 2"><g id="Layer_1-2" data-name="Layer 1"><path d="M546.21.25c-2.78,2.54-5.46,4.87-8,7.32-17.46,16.8-30.12,36.88-40.06,58.8-10.72,23.66-17.83,48.46-23,73.85-7.39,36.32-10.57,73.11-11.81,110.1,0,.67.07,1.36.14,2.47,5-1.17,9.88-2.16,14.66-3.45,25.23-6.77,49.07-16.69,70.78-31.41a224,224,0,0,0,53.17-50.18c9.87-13,18.71-26.84,27.88-40.39,3.39-5,8.29-7.56,13.1-6.2,7.62,2.16,10.8,10.53,5.9,17.27-8.38,11.54-16.71,23.21-26.11,33.9-30.1,34.23-67.66,57.2-111,70.69-15.39,4.79-31.28,8-46.94,12-.47.12-.95.22-1.95.44,0,5.77,0,11.53,0,17.29a705.4,705.4,0,0,0,4,87.68c3.58,31.22,9.46,61.95,20.8,91.4C497.08,475.9,509.58,498,528.56,516c18.47,17.47,40.46,27.74,65.49,31.8a156.8,156.8,0,0,0,46.28.7c36.44-4.92,66.45-21.55,89.62-50.28,15.32-19,25.55-40.62,33.38-63.53,2.54-7.42,9-10.87,15.95-8.65s11.16,9.62,8.38,16.52A189.36,189.36,0,0,1,774.43,470c-24.19,39.78-60,63.78-104.6,75.31-24.29,6.27-49,7.06-73.77,4.86-26.15-2.31-50.69-9.67-73-23.88-21.71-13.84-38.19-32.56-50.87-54.77-13-22.83-21.27-47.46-26.91-73-9.78-44.29-11.74-89.23-11.06-134.39,0-1.27,0-2.55,0-4.13-5.29.61-10.3,1.29-15.32,1.76q-29.39,2.73-58.77,5.36c-4.08.37-8.16.81-12.25.92-2.41.06-2.63,1.85-3.21,3.31-6.12,15.39-12.05,30.85-18.3,46.19-11.69,28.72-23.06,57.58-35.48,86-12.21,27.94-26.85,54.64-45.2,79.15C230.43,503,212.9,521.05,190.65,534a124.51,124.51,0,0,1-61.87,17.19c-24.23.32-47.6-3.26-69.54-13.86-32.64-15.77-53-41.1-58.15-77.47C-3.23,429,5.43,401.54,24.14,377c15.2-19.93,34.49-35.13,55.89-47.81,28.55-16.9,59.3-28.41,91.14-37.28a572.17,572.17,0,0,1,77.07-15.82c20.08-2.7,40.28-4.47,60.43-6.65a25,25,0,0,1,5.07-.42c4.67.51,6.35-2.07,7.92-6,12.47-31.44,25.52-62.65,40.34-93.08,13.88-28.5,29.31-56.09,48.57-81.39C431,61.78,455,39.1,484.54,22.66A226.8,226.8,0,0,1,543.64.22,9.45,9.45,0,0,1,545.12,0,5.42,5.42,0,0,1,546.21.25ZM318.6,270.17c-5.83.56-11,1-16.14,1.53-25.83,2.57-51.59,5.61-77.11,10.5-26.8,5.14-53.12,11.94-78.58,21.86-27,10.52-52.23,24-73.77,43.69-19.23,17.57-33.13,38.52-39.87,63.88-5.11,19.22-5.56,38.72-2.37,58.26,2.74,16.79,8.46,32.56,19.35,45.85,24.56,29.93,57.17,37.63,93.79,32.34,19.48-2.81,35.67-12.77,49.79-26.28,14.95-14.32,26.42-31.24,36.65-49,18-31.39,32.27-64.61,46.11-98,11.16-26.9,21.88-54,32.77-81C312.31,286.15,315.31,278.46,318.6,270.17Zm28.21-4c1.35,0,2.34.08,3.32,0q41-3.89,82-7.77c1.9-.18,2.2-1,2.27-2.66.37-9.88.72-19.77,1.3-29.64,2-34.55,6.3-68.78,15.27-102.31,8.21-30.72,20.4-59.63,39.2-85.48,4.42-6.08,9.25-11.88,13.85-17.76-.1,0-.32-.07-.47,0-.44.22-.87.49-1.29.75-22.05,13.64-39.9,31.8-55.79,52-21.38,27.22-38.38,57.14-53.79,88-16.32,32.69-30.45,66.35-44.09,100.23C348,263,347.46,264.51,346.81,266.18Z"/></g></g></svg>