<svg xmlns="http://www.w3.org/2000/svg" viewBox="0 0 498.27 600"><title>Asset 43</title><g id="Layer_2" data-name="Layer 2"><g id="Layer_1-2" data-name="Layer 1"><path d="M0,591.11l146.92-255,16.79,9.64c-3.73,8.34-7.86,16.17-10.82,24.41-16.14,45-14,88.36,13.42,128.73,18.35,27,44.42,43.31,75.79,51.11,32.25,8,64.66,9.24,96.69-1.07s56.73-29.75,69.86-61.41c15.79-38.1,13.21-92.11-31.84-128.68C358,343.65,337,332.27,315.53,321.61c-25.46-12.62-51.16-24.78-76.28-38-20.52-10.82-39.17-24.47-54.81-41.88-20.51-22.84-31.28-49.74-33.75-80.18-2.22-27.45,2-53.7,14.17-78.53a9.35,9.35,0,0,0,.16-1.72c-7.68-2-15.45-4.48-23.4-6-12.51-2.4-25.13-3.1-37.67.29C85,80.65,73.29,96.12,74.05,114.92c.51,12.45,8.4,23.69,19,25.68,10.82,2,20.76.06,28.36-9.56l13.71,5.63c-1.55,3.25-2.67,6.4-4.42,9.15-13.42,21-32.84,29.8-57.38,27.87-13.71-1.08-26.29-5.25-36.72-14.57-18.08-16.17-23.88-45-13.63-69C33.69,65,53.31,51.49,80.2,48.71,106.73,46,132,51.93,156.72,61.07c5.58,2.07,11.06,4.4,16.44,6.56,5.1-6.12,9.85-12.49,15.27-18.23,21.81-23.1,48.66-37.56,79.49-44.25C310.3-4.06,351.86-1.21,392,16A109.24,109.24,0,0,1,426,39.1c29.25,29,23.64,68.66,4.7,92.57-14.49,18.3-34.09,28-56.76,31-40.7,5.36-78.87-3.43-114.24-23.67-16.89-9.66-32.8-21-49.15-31.65-1.52-1-3-2-5.17-3.49a105.46,105.46,0,0,0,4,29.59c6.94,24,22.37,41.72,42,56.28,19,14.07,40.07,24.28,61.32,34.29,28.05,13.23,56.32,26.06,84,40.1,23.6,12,44.88,27.5,62.63,47.44,23.78,26.72,35.74,58.26,38.38,93.68,1.82,24.43-.2,48.42-8.12,71.68-15.8,46.33-47.26,78-92.1,96.56C365.24,586.84,331.52,590.24,297,588c-32.1-2.06-61.57-12.51-90-26.79-15.08-7.58-30.37-14.75-46.86-18.92-51.74-13.08-107.33,6.91-139.18,50.13-1.76,2.38-3.48,4.8-5.48,7.56ZM208.11,84.91c1.24.68,2.28,1.32,3.38,1.85,13.33,6.37,26.56,12.93,40,19,21.82,9.9,44.47,17,68.46,19.29,15.16,1.43,30.28,1.75,45.09-2.6,11.65-3.43,21.93-9.09,28.05-20,8.19-14.66,6.69-29.49-1-43.74-9-16.54-23.47-26.68-40.73-33.08-22.85-8.47-46.21-8.34-69.7-3.17-21.88,4.82-41.08,14.63-56.28,31.45A76.32,76.32,0,0,0,208.11,84.91Z"/></g></g></svg>