<svg xmlns="http://www.w3.org/2000/svg" viewBox="0 0 413.12 600"><title>Asset 93</title><g id="Layer_2" data-name="Layer 2"><g id="Layer_1-2" data-name="Layer 1"><path d="M412.68,232.91a126.29,126.29,0,0,1-4.92,22.58c-6.38,19.45-16.06,32-27,45-13.39,16-28.38,30.57-45.77,42.07-9.81,6.49-21,11.06-31.91,15.66-13.69,5.77-27.67,10.91-41.67,15.87-6.74,2.39-13.87,3.66-20.76,5.64-6.57,1.88-13.05,4.07-19.59,6-7.91,2.36-15.85,4.62-24,7-2.61,10.77-4.9,21.68-7.93,32.37-6.19,21.79-12.8,43.46-19.22,65.18-6.22,21.06-16,40.55-27.43,59.1-11.13,18.1-25.28,34-44.39,43.9-9.63,5-20.54,6.9-31.95,6.71-10.7-.18-21.08-.42-31.22-4.23a48.47,48.47,0,0,1-29.21-29.2c-10.18-26.85-6.53-52.34,8.51-76.89,9.14-14.91,21.25-26.9,34.62-37.3,16.39-12.76,33.69-24.57,53.23-32.48,15.73-6.37,31.28-13.23,47.11-19.35,10.17-3.94,20.78-6.74,31-10.5,1.84-.68,3.7-3.39,4.11-5.45,1.7-8.49,2.83-17.08,4.18-25.64.24-1.54.5-3.07.84-5.09-7.55,1.83-14.81,3.52-22,5.35-17.59,4.44-35.52,6.54-53.37,3.48C98.31,360,83.14,355.43,69.16,347,45.52,332.62,29,312.37,18,287.61c-10-22.39-15.35-46-14.72-70.79.95-37.91,9.76-73.73,28.11-106.94A211,211,0,0,1,71.19,58.77c16.42-15.57,34.43-28.77,55-38C139.73,14.72,153.7,9.07,168,5.51A193.37,193.37,0,0,1,215.87,0c10.15.06,20.48-.16,30.42,1.48,15.57,2.55,31.2,5.24,46.28,10C306.93,16,319,23.72,330.28,32.89c10.24,8.29,18.8,18.94,20.93,31.87,2,11.92-1.23,24.22-10.83,33.09-16.69,15.42-35.75,15-55.17,6.41-4.46-2-8.08-6.58-11.22-10.64-7.39-9.53-10-21.16-13.69-32.4-4.62-14.27-7-29.46-15.92-42.1-6.12-8.63-14.38-13.2-25-13.6a115.84,115.84,0,0,0-63,15.56c-9.18,5.24-18.63,10.31-26.8,16.9s-15.39,14.9-22.52,22.88C101,67.66,94.93,74.63,90.17,82.33a261.75,261.75,0,0,0-18,33.75c-5.81,13.49-10.42,26.59-15,40.59-2.85,8.79-5.81,18.76-6.65,27.88-1.42,15.36-1.17,30.88-1.64,46.33A190.62,190.62,0,0,0,60.19,302.4c4.92,13.53,12.13,25.81,23.24,35.83,14.64,13.21,31.19,19.25,50.83,19s37.88-5,56.59-12.74c.88-10.32,1.73-21,2.71-31.73,1.17-12.7,2.16-25.42,3.73-38.06,2.28-18.31,4.48-36.66,7.69-54.82,3.43-19.49,8.33-38.71,21.08-54.63,9.68-12.09,21.35-19.33,38.1-18.39,13.13.74,24.17,3.92,32,14.56,6.76,9.12,9.2,19.82,9.12,31.11-.13,18.16-2.89,35.88-9.51,52.84a212.66,212.66,0,0,1-23.46,43.23c-7.5,10.88-15.55,21.23-25.71,29.45-11.38,9.23-23.82,17.17-35.84,25.62A37.69,37.69,0,0,1,206,346.1c-2.33,12.75-4.74,25.95-7.29,39.93,13.34-3.66,26-7,38.57-10.6,19-5.43,36.57-14.25,53.94-23.41a54.56,54.56,0,0,0,14-10.62,223.56,223.56,0,0,0,20.55-24.35c8.57-12.16,11.42-26.34,13.2-41.05,1.34-11.07,0-21.59-2.67-32-2.09-8.08-6.34-15.59-9-23.55a49.91,49.91,0,0,1,.84-35.34A34.94,34.94,0,0,1,351.82,164a54.17,54.17,0,0,1,27.07-.87,45.35,45.35,0,0,1,13,5.17C417.26,184,413,230.34,412.68,232.91ZM207.91,336.19c16-8.61,28.73-19.94,40.5-32.15,12.45-12.93,22.33-28,30.14-44.08,9.3-19.09,16.51-39,16.42-60.9-.08-18-2.54-34.53-20.68-43.75-5.76-2.93-11.65-3.81-18-.94-12.49,5.66-18.69,16.79-24,28.16a109.21,109.21,0,0,0-8.73,27.84c-3.6,21.95-6.05,44.08-8.87,66.15-1,8-1.68,16-2.6,24C210.8,312.1,209.39,323.68,207.91,336.19Z"/></g></g></svg>