<svg xmlns="http://www.w3.org/2000/svg" viewBox="0 0 672.94 600"><title>Asset 85</title><g id="Layer_2" data-name="Layer 2"><g id="Layer_1-2" data-name="Layer 1"><path d="M672.89,393H654.33c-.65-125-1.3-249.53-2-374.84L344.19,19.73c-.31,7.09-.87,13.66-.83,20.22.12,20.67.58,41.34.7,62q.27,43.44.21,86.89c0,18.83-.37,37.66-.35,56.49q0,51.37.36,102.73c.13,17.67,1,35.33,1,53,.21,39.72.15,79.45.23,119.17q0,24.79.17,49.59c0,2.74.32,5.49.55,9.17,5.52.29,10.92.8,16.33.82,20.2.05,40.4-.08,60.6-.1,19.48,0,39,0,58.46,0q36.85,0,73.73,0c16.72,0,33.45.24,50.18.12,16.06-.11,32.11-.59,48.17-.81,2.71,0,5.43.43,8.92.74V596a45.66,45.66,0,0,1-6.48,1.07c-19,.17-38.1.31-57.16.32-20.86,0-41.73-.29-62.6-.14-37.15.27-74.31.87-111.46,1.13-28.73.2-57.47-.08-86.2.17-17.66.16-35.3,1.12-53,1.36-14.15.19-28.31-.13-42.46-.26-34.85-.31-69.69-.83-104.54-.89-24.09,0-48.19.61-72.28.78-14.87.11-29.73-.11-44.6-.17H6.63c.28-6,.51-11.1.77-16.75,3.13-.61,5.76-1.57,8.4-1.57,23,0,45.89.2,68.84.16,23.87,0,47.75-.32,71.62-.48,15.63-.11,31.26-.16,46.89-.31,19.51-.19,39-.56,58.54-.64,17.69-.07,35.38.16,53.06.25,3.85,0,7.7,0,12.72,0-.77-187-1.53-373.07-2.29-559.91-10.5,0-20.31,0-30.12,0-18.61.07-37.27,1.08-55.82.08-35.11-1.89-70.19-.31-105.28-.4-36.05-.08-72.11.22-108.16.4-2.24,0-4.47.49-7.61.85.68,123.9,1.35,247.35,2,371.66H2.87c-.4-1.82-1.13-3.55-1.11-5.27.18-14.2.66-28.4.74-42.59.07-12.57-.29-25.14-.4-37.71-.21-22.24-.31-44.47-.57-66.7C1.32,223,.72,205.55.65,188.08c-.1-22.48.31-45,.2-67.44C.7,85.5.28,50.36,0,15.22,0,10.9-.46,6.37,5,1.8L669,0c.37,7.33.91,13.87,1,20.42.24,17.23.28,34.45.39,51.68.13,19.24.2,38.48.39,57.72.17,16.53.49,33.06.71,49.59.1,7.56.19,15.11.2,22.66,0,6.62-.22,13.23-.2,19.84.07,16.71.15,33.42.35,50.13.31,25.26.79,50.53,1.06,75.8C673,362.52,672.89,377.21,672.89,393Z"/></g></g></svg>