<svg xmlns="http://www.w3.org/2000/svg" viewBox="0 0 594.79 789.1"><title>Asset 67</title><g id="Layer_2" data-name="Layer 2"><g id="Layer_1-2" data-name="Layer 1"><path d="M201.66,393.56c2.3-10.41,4.89-20.39,6.66-30.52,8.14-46.52,15.88-93.12,24.08-139.64,7.47-42.37,17-84.22,34.88-123.65,11.78-25.95,26.87-49.6,48.87-68.27C336.94,13.84,361.06,3.82,388.06,1c36.8-3.81,71.54,2.79,103.22,22.52,27.81,17.32,47.37,41.92,61.31,71.24a234.8,234.8,0,0,1,18.65,59.26H554.12c-2.62-6.19-4.84-12.62-7.94-18.6-13.62-26.21-35-44.09-62-55-41.55-16.71-84.32-19.88-127.6-7.68-34.43,9.7-58.86,32.21-76.23,62.9-14.12,24.93-22.81,51.91-28.21,79.83C245.84,248,241,280.73,235,313.24c-5.34,28.87-11.5,57.59-17.14,86.41-.33,1.65.07,4.37,1.19,5.22q41.57,31.71,83.42,63.05c11.95,8.93,24.21,17.43,36.35,26.11.92.66,1.93,1.19,3.61,2.21V266H457.35v271.9c2.64.32,4.79.69,6.95.81,26.63,1.44,53,.73,77.42-11.9,18.87-9.74,32.57-23.83,36.95-45.39.79-3.88,1.16-7.85,1.75-12h14c5.18,61.64-46.59,139.21-136.84,135.74V789.1H342.47v-5.22q0-102.64.11-205.3c0-4.63-1.16-7.34-5.23-9.91-23.07-14.58-43.28-32.83-63.85-50.61-21.59-18.68-43.49-36.93-68.72-50.66-1.27-.7-2.57-1.37-4.24-2.25-2,5.61-3.89,11-5.88,16.35-10.22,27.53-22.35,54.07-41.21,77-12.76,15.47-27.86,27.69-47.63,33.07-32,8.73-67.2-4.35-86-32.33C2,532.66-2.61,503,1.28,471.9c3.78-30.25,17.25-55.71,40.8-75.29,25.77-21.43,55.75-29.28,88.88-26.26,24.25,2.22,46.58,10.26,67.79,21.86C199.48,392.62,200.28,392.92,201.66,393.56Zm-21.08,63.9c-1.73-.72-2.92-1.26-4.13-1.73-20-7.77-40.82-11.63-62.13-13.1-19.27-1.32-38.38-1-56.8,5.93-13.47,5-25.76,11.9-34.94,23.29-10.13,12.55-9.09,27.35,2.55,38.51a45.25,45.25,0,0,0,7,5.44c11,7,23.25,10,36,11.39,18.57,2.09,36.87,1.66,54.27-6.37C150.35,507.88,166.58,484.14,180.58,457.46Z"/></g></g></svg>