<svg xmlns="http://www.w3.org/2000/svg" viewBox="0 0 391.56 600"><title>Asset 84</title><g id="Layer_2" data-name="Layer 2"><g id="Layer_1-2" data-name="Layer 1"><path d="M342.05,1.8a359.14,359.14,0,0,0-90.88,22.38c-77.62,30.59-126.31,84.59-147,108.3Q56.94,186.62,30.4,250.18A436.11,436.11,0,0,0,6.26,330.55c-2.49,12.76-4,23.66-5,31.75a296.08,296.08,0,0,0,5.29,89.8c5,23.29,13.9,61.55,41.26,94.3,9.63,11.53,21.89,21.06,33.79,30.45,13,10.29,26.05,14.06,30.95,15.89,5.53,2.06,10.33,3.47,14,4.43,29.4,3.76,52.34,3.27,63.78,1.44a148.77,148.77,0,0,0,18.11-4.15s6.55-2.07,13.19-4.87c23.94-10.1,43.88-25.87,60.76-46.46,31.59-38.56,43.38-82.93,39.19-131.77-1.58-18.41-4-37.15-9.33-54.78-13.73-45.84-41.24-81.3-86.7-99.23-24.1-9.51-47.95-13.35-71.39-11.51,0,0-32.05,2.46-70,23.3A62.12,62.12,0,0,0,73.93,277c-.75.81-1.45,1.66-1.45,1.66-.37.45-.68.85-.93,1.19.37-1.3.74-2.6,1.1-3.9C74.33,270.52,77.1,262.1,81,252c5-12.84,27.49-68.74,84.59-129.94a468.86,468.86,0,0,1,51.25-47.91c42.55-33.73,89.36-57.82,143-65q10.46-1.41,21.27-1.92c5.2-.25,7.22-.28,9.34-.23.4-2.57.72-4.14,1.11-6.72A338.15,338.15,0,0,0,342.05,1.8ZM85.58,313.37c21.31-28.13,48.74-45,85.16-42.58,23.61,1.54,43.14,12.77,59.09,29.69,33.69,35.76,46,79.57,46.68,127.48a179.87,179.87,0,0,1-15.36,78.92C249.36,533.3,231.81,554.72,205,568c-23,11.36-46.43,12.57-70.18,4.78-22.15-7.24-39.24-22-52.22-41.12-28.08-41.45-35.71-87.37-28.93-136.31C57.82,365.44,67.24,337.6,85.58,313.37Z"/></g></g></svg>