<svg xmlns="http://www.w3.org/2000/svg" viewBox="0 0 477.47 654.49"><title>Asset 68</title><g id="Layer_2" data-name="Layer 2"><g id="Layer_1-2" data-name="Layer 1"><path d="M385.65,476.89V451.44H143.53c-59,0-108.55-39-122.35-96.43C4.66,286.32,51.85,215.7,121.66,204.87a148.49,148.49,0,0,1,22.49-1.7Q262.08,203,380,203.1h5.54V176.71h-5.7q-162.72,0-325.44,0c-8.78,0-17.44-.54-25.63-4C12.62,165.85,5.27,152.45,2,136.14a35.75,35.75,0,0,1-1-7c0-27.47-.26-54.94.26-82.39.12-6.32,2.21-12.86,4.59-18.81C13.52,8.75,29,.9,48.74.09c4.42-.18,8.86,0,13.3,0H425.6c30.89,0,48.12,15.75,50.82,46.58.51,5.88.77,11.8.78,17.7.08,32.22-.59,64.45.24,96.65.67,25.7-10.14,44.29-31.23,57.67-13.7,8.7-26.18,18.71-36.29,31.52-45.25,57.33-32,139.89,29,180.91a192.22,192.22,0,0,1,21.15,16c11.6,10.41,17.06,24,17.13,39.47.19,37.54.22,75.08-.1,112.62a88.88,88.88,0,0,1-3.2,21.83c-5.58,21-20.46,32.46-42.11,33.39-1.62.07-3.25.06-4.87.06q-187.32,0-374.65-.08a69.83,69.83,0,0,1-17.53-2.07c-19.24-5-28.87-18.9-32.59-37.49a98.26,98.26,0,0,1-1.82-18c-.22-20.25-.62-40.52.15-60.74a106.15,106.15,0,0,1,5.12-29.45c6.37-19,20.93-28.16,40.61-29.55,3.24-.23,6.5-.17,9.75-.18H385.65Z"/></g></g></svg>