<svg xmlns="http://www.w3.org/2000/svg" viewBox="0 0 937.34 600"><title>Asset 21</title><g id="Layer_2" data-name="Layer 2"><g id="Layer_1-2" data-name="Layer 1"><path d="M153.56,198c1.09-5,2.13-10.65,3.54-16.18,10.64-41.59,37.35-71.69,70.56-96.63,51.38-38.6,110.18-60.5,172.5-73.25C524.12-13.49,643,1.49,755.81,59.48c45.94,23.62,86.31,54.8,118.85,95.31,43.63,54.32,64.93,116,62.49,186.17-1.92,55.1-18.13,104.62-51.95,148.16-30.14,38.79-69,66.29-114.37,84.12C694.32,603.3,616.27,609.14,537.2,584c-46.7-14.88-86.9-39.78-116.24-80.15-.4-.55-1.14-.84-3.35-2.4-1.4,2-2.86,4.41-4.61,6.56-40.62,50-92.67,81.38-156.54,89.21-67.55,8.29-132.61-.46-188.8-43.24C24,520.72,2.05,476,.18,421c-1.35-39.59,4.65-77.58,22.52-113.15,26.32-52.43,67.5-88,123.12-106.73,1.7-.57,3.42-1.11,5.11-1.73A27.31,27.31,0,0,0,153.56,198Zm280,284.44c11.54,13.73,22.52,29.53,36.15,42.56,65.34,62.46,142.94,82,230.42,61.88,75.64-17.39,129.61-61.71,160-133.64,19.17-45.4,24.51-93.13,21.94-141.86-3.47-66.09-25.64-125.23-68.34-176.08-56.91-67.79-131.38-105-216.8-122-59-11.77-118.31-10.4-177.27.43-55,10.1-107.16,28.3-153.55,60.48-33.2,23-60.29,51.39-74,90.41-3.11,8.87-4.7,18.28-6.83,26.79,2.25,1.29,2.55,1.6,2.86,1.62a25,25,0,0,0,3.24,0c41.79-3.8,76.42,10.92,104.21,41.6,12.5,13.8,23.44,29,35.78,44.45,2.26-3.78,4.75-7.58,6.87-11.58,9.94-18.7,15-38.79,17.54-59.73,1.32-11,8.75-16.67,18.38-15.15a15.73,15.73,0,0,1,12.57,20.31c-4.86,16.09-9.55,32.61-17.36,47.33-7.1,13.38-18.26,24.59-27.66,36.8l77.72,156.91,2.63-.63c56.68-124,65.78-256.18,68.29-390.57-19.84,1-36.1,7.3-51.76,15.72-3.82,2-8.06,3.32-13.79,5.62-.4-5.24-.62-8.15-.87-11.37,4.78-2.1,8.6-4.08,12.63-5.5a161.81,161.81,0,0,1,93.58-4.74c16.57,4,32.28,10.17,45.81,20.92,6.84,5.43,8.11,10.71,4,15.4-4.31,5-10.49,4.14-16.88-1.82C555,89.29,547,81.53,538.25,74.69c-4.47-3.5-10.38-5.18-16.06-7.89-.53,2.76-.85,3.8-.91,4.86-2.7,47.44-4.08,95-8.34,142.29-6.49,72-21.23,142.45-50,209.23C454.67,442.29,444.48,460.56,433.6,482.39ZM153.26,207.64c-30.15,12.39-58.56,40-72.76,72.74C49.91,350.79,45,423.42,68,496.63c13.92,44.49,44,76.7,89.58,89.35,85.26,23.64,158.62,1.89,218.22-63.78,11.47-12.65,20.95-27.1,29.93-38.85-29.67-59.79-58.06-117-86.62-174.55C279.8,325.66,242.26,323,206.39,304,168.67,284,152.37,250.82,153.26,207.64Zm32-8.47c-1.65,18.46-.76,36.26,4.24,53.67,10.52,36.61,36.44,58.34,74.35,61.76,18.23,1.64,34.51-4,49.07-16.41-3.85-6.81-7.2-13.1-10.88-19.19-13.23-21.92-27.54-43.05-47.34-59.71S212.5,193.88,185.23,199.17Z"/></g></g></svg>