<svg xmlns="http://www.w3.org/2000/svg" viewBox="0 0 584.98 600"><title>Asset 20</title><g id="Layer_2" data-name="Layer 2"><g id="Layer_1-2" data-name="Layer 1"><path d="M579.13,246.05c-10.81-63.63-39.71-119.12-83.72-166.58-2-2.19-4-6.16-3.41-8.76,2.43-11.25,5.8-22.3,9.17-34.71h0a.05.05,0,0,1,0,0,.27.27,0,0,1,0-.12.15.15,0,0,1,0-.07c-.4-.26-.79-.54-1.18-.79-2.42-1.53-4.91-2.94-7.39-4.37-3.65-2.11-7.16-4.52-10.84-6.6,0,.06,0,.11,0,.17s-.06.22-.09.34h0a.14.14,0,0,0,0,.06c0,.09,0,.18-.07.27l0,.08c0,.08,0,.16,0,.24s-.06.18-.09.27a.27.27,0,0,1,0,.09c-1.55,10.93-4.6,21.65-7.39,33.72-4.86-3.81-8.25-6.52-11.69-9.16-39.15-30-83.06-48-132.56-49.94-51-2-93.39,15.36-123.88,58-1.83,2.55-6.6,4.31-10,4.26-59.34-.77-106.66,23.51-142,70.18C4.44,198.07-8.15,273.8,4.69,352.32c17,104.19,77.12,178.44,172.74,223.16,55.89,26.13,114.78,29.2,174.81,19.35,59.23-9.71,111.61-34,152.78-78.2C576.75,439.7,596.34,347.29,579.13,246.05ZM216.2,85c44.54,12.65,76.74,38.59,94.64,81.08,3,7.2,7.5,9.88,14.59,7.85,6.4-1.82,8.35-8.65,4.7-16.55q-29.5-63.88-95.61-88.16c-2.84-1-5.72-2-9.52-3.38,16.87-23.7,39.57-37.08,66.51-42.14,53.09-10,101.26,4.47,145.86,33,9,5.72,17.2,12.62,25.4,19.43,1.87,1.55,3.68,5.52,3,7.48-16,45-39.14,85.48-81.32,110.7-41.68,24.92-85.51,25.19-128,1.93C218.92,175.68,200.89,124.22,216.2,85ZM564.85,328.49c-3.83,57.81-21,111.23-57.53,157.15-36.75,46.22-84.91,74.49-142.25,87-82.95,18.08-161.31,7.63-230.52-43.88C49.77,465.64,12.74,380,21.83,274.75c4.19-48.41,18.89-93.41,49.55-131.9,29.7-37.27,68.06-58.48,116.51-59.4a62.12,62.12,0,0,1,6.27.55c-6.25,23.14-5.31,45.84,2.78,67.74C214,198,249,223,296.48,230.3c61.7,9.52,110.11-15.07,146.65-63.29,16.12-21.28,28.13-45.68,42.63-69.68,8.2,10.79,18.07,22.48,26.52,35.1C552,191.76,569.56,257.35,564.85,328.49Z"/></g></g></svg>