<svg xmlns="http://www.w3.org/2000/svg" viewBox="0 0 544.51 600"><title>Asset 30</title><g id="Layer_2" data-name="Layer 2"><g id="Layer_1-2" data-name="Layer 1"><path d="M360.55,313.34h-177c-3.53,9.5-7.11,18.58-10.31,27.79q-18.1,52-36,104c-1.07,3.11-2.15,6.22-3,9.39-5.16,19.24,3.27,31.31,23.34,32.17,15.89.67,31.82.15,47.73.17,7.69,0,15.39-.31,23.05.12,11.33.64,16.24,5.17,16.37,16.15q.5,40.33,0,80.67c-.16,11.26-4.8,15.25-16.38,16-3.82.26-7.68.08-11.52.08H27.45c-3.84,0-7.71.17-11.52-.16C5.49,598.88.46,594.66.31,584.56q-.63-41.14,0-82.31C.47,491.87,6,487.18,17.57,487c23.59-.32,47.19,0,70.78-.14,17.13-.07,29.31-7.47,35.12-24.17,1.26-3.62,3.19-7,4.45-10.62q51.42-147.34,102.6-294.77c2.45-7.08,3.34-14.89,3.83-22.43.56-8.75-4.26-14.66-12.76-16.75a80.15,80.15,0,0,0-17.69-2.64c-20.85-.31-41.71,0-62.56-.15-18.36-.17-24.82-6.39-25.1-24.64-.32-20.85-.27-41.71,0-62.56.27-20.32,7.59-27.78,28-28C177.15-.14,210.08.06,243,.06c46.09,0,92.19-.1,138.28.1A246.28,246.28,0,0,1,410.63,2.1C422.77,3.6,427,8.3,427,20.55q0,38.66-.85,77.31c-.27,12.82-4.93,17.22-18.54,17.41-21.95.32-43.9.09-65.85.11a91.8,91.8,0,0,0-11.5.22c-17.11,2.19-25.45,15.14-20.37,31.87,3.49,11.52,7.29,23,11.28,34.33q42.5,120.85,85.15,241.67c4.37,12.39,8.73,24.79,13.35,37.09,7.09,18.9,16.91,26,37.12,26.23,21.94.28,43.9,0,65.84.12,18.45.13,21.79,3.58,21.85,22.34q.13,34.56,0,69.14c-.07,18.42-2.71,21.21-20.65,21.5-13.16.21-26.34.05-39.5.05H327.9a131.14,131.14,0,0,1-13.16-.21c-9.55-1-14.59-5.19-14.73-14.34-.42-28-.47-56,.05-83.95.18-10.18,5.7-14.21,18-14.43,18.65-.33,37.31-.09,56-.1,4.39,0,8.79.2,13.16-.11,19.87-1.42,28.51-13.49,23.28-32.43-.87-3.16-2-6.25-3.11-9.35q-21.19-60.45-42.43-120.9C363.68,320.56,362.1,317.13,360.55,313.34Zm-2.79-8.18c-16.42-47.6-32.24-93.68-48.24-139.7-3.95-11.36-7.7-22.9-12.87-33.71-9.69-20.26-33.46-22.25-46.37-4-4,5.69-6.69,12.54-9.05,19.19q-22.8,64.25-45.14,128.66c-3.3,9.48-6.17,19.12-9.51,29.55Z"/></g></g></svg>