<svg xmlns="http://www.w3.org/2000/svg" viewBox="0 0 544.37 600"><title>Asset 78</title><g id="Layer_2" data-name="Layer 2"><g id="Layer_1-2" data-name="Layer 1"><path d="M543.34,451.63a71.76,71.76,0,0,1-7.11,16.22l0,0a44.83,44.83,0,0,1-2.33,4,158.41,158.41,0,0,0-8.78,16.29,17.9,17.9,0,0,1-.7,1.76c-5.62,12.07-12.34,23.65-17.6,35.87-4.07,9.39-3.15,18.62,2.59,28,4.55,7.46,7,16.37,9.33,24.93,1,3.71-.31,8.28-1.33,12.25-1.29,5.13-4.59,7.93-10.42,7.94-42.6.07-85.2.35-127.81.55q-48.51.24-97,.44c-11.86,0-23.73-.43-35.58-.14-25.11.59-50.2-.14-75.3-.22-42.15-.14-84.31-1.12-126.47-1.66-7.71-.1-15.43.3-23.16.26-8.91,0-16-3.73-19.63-12-3.83-8.61-1.73-16.93,3.52-24.27,24.14-33.79,48.46-67.44,72.67-101.17,22.87-31.86,45.61-63.79,68.53-95.61q35.7-49.59,71.59-99.06c1.08-1.49,1.87-3.21,3.34-5.79-6.82-3.06-13.26-6.29-19.94-8.82-4.41-1.67-9.18-3.26-13.8-3.3-10.61-.08-15.06,5.81-14.71,16.49s.83,21.75-.43,32.45c-3,25.25-23.13,50.63-47.89,57.27-19.78,5.32-36.72-.59-51.39-13.89-30.52-27.66-26.1-65.91-2.57-92.79,13.31-15.21,30.3-23.59,49.91-27.65,23.17-4.8,45,1.13,66.36,8.45,13.56,4.64,26.51,11.09,39.6,17,3.38,1.53,5.38,1.9,7.56-1.82a99.73,99.73,0,0,1,7.89-11.77c1.6-2,3.12-3.41,4.58-5.43,7.08-9.82,14.57-19.36,21.23-29.45,2.12-3.19,5.62-8,6.41-9a108.36,108.36,0,0,0,6.7-8.74c11.21-15.57,22.16-31.32,33.4-46.85,13.32-18.38,26.86-36.59,40.26-54.89q18.84-25.7,37.59-51.45a17.53,17.53,0,0,0,1.24-3c-9.21,0-17.85,0-26.5,0-49.9.2-99.82.52-149.73.55-27.18,0-47.84,13-63.33,33.72-13.32,17.79-24.52,37.2-36.34,56.09-10.82,17.32-20.41,35.46-32.09,52.15C77,178,65.68,187.88,48.31,186.65c-13.16-.92-19.5-9-21.54-19.68-2.19-11.5,2.65-21.18,8-30.75,9.48-16.91,19.26-33.67,28.1-50.91,5.89-11.49,5.3-22.78-2.53-34.23-4.39-6.4-6.6-14.88-7.88-22.73C50.6,16.83,56.11,9.07,66.77,3.92c11-5.36,22.66-4.26,33.85-2.33C132.24,7.07,164,8.27,196,8c37.14-.28,74.28-.23,111.41-.11q94.51.27,189,.84c4.58,0,9.19.21,13.76.62,16.79,1.52,24.94,16.7,16.53,31.38-3.6,6.3-8.23,12-12.5,18C500.19,78.12,486,97.41,472.06,116.9c-9,12.53-17.55,25.37-26.51,37.93-12.09,17-24.47,33.74-36.57,50.72-13.53,19-26.77,38.18-40.37,57.1-10.69,14.88-21.78,29.47-32.65,44.22-1.23,1.65-2.24,3.48-3.63,5.68a32.87,32.87,0,0,0,24.38,4.92c11.9-2.08,19.2-10.64,25.05-20.2,5.53-9,10-18.73,15-28.09,19.56-36.44,58-45.88,92.23-22.64,20.37,13.84,30.35,37.6,24.5,60.49-4,15.8-14.28,27.47-27.37,36.87-12.88,9.24-27.23,14.21-42.84,16.19-2.12.27-6.43.86-8.47.86a187.23,187.23,0,0,1-22.07-2.05c-24.53-3.27-47.12-12.18-69.12-22.92-5.61-2.73-11.45-5-16.88-8-3.28-1.84-4.83-.7-6.66,1.79-6.89,9.42-14,18.7-20.81,28.16-10.12,14-20,28.15-30.13,42.16Q235,447.35,200.81,494.53c-16.89,23.14-34.11,46-51.12,69.08-4.75,6.45-9.3,13-14.51,20.39,10.94,0,20.65,0,30.37,0,24.41-.13,48.83-.2,73.26-.47,20.22-.22,40.43-.87,60.66-.95,16.87-.06,33.75.29,50.61.74,28.6.75,50.68-11.22,66.9-34.25,11.6-16.49,23.07-33.08,33.87-50.09,8.58-13.54,15.62-28.06,24.17-41.63,5.74-9.11,12.11-18.13,19.64-25.76,9.83-9.93,25.64-15.66,38.68-7.81C542,429,546.56,440.61,543.34,451.63Z"/></g></g></svg>