<svg xmlns="http://www.w3.org/2000/svg" viewBox="0 0 422.37 650"><title>Asset 107</title><g id="Layer_2" data-name="Layer 2"><g id="Layer_1-2" data-name="Layer 1"><path d="M213.53,0a129.89,129.89,0,0,0,8.91,35.68c3.24,7.93,7.71,22.92,20.95,34.16,8.79,7.47,18,15,28.33,20,35.52,17,66.74,39.2,92.06,69.56a238.88,238.88,0,0,1,47.86,92c13.87,51.41,13.92,103.07,2.28,154.68a236.59,236.59,0,0,1-34.71,80.51c-13.59,20.17-30.07,37.7-49,53.44-21.95,18.31-47.15,30.29-72.07,43.28-4.53,2.36-13.92,8.45-24,18.59a110.52,110.52,0,0,0-18,23.47,104.91,104.91,0,0,0-10,24.63,97,97,0,0,0-17.61-42.23C182.27,599.39,176.1,590.6,155,579a574.07,574.07,0,0,1-51-31.27c-25.86-18-46.85-40.91-63.88-67.57A247.17,247.17,0,0,1,3.85,382.71c-6.94-46.1-4.83-91.87,9.06-136.46,15.17-48.7,43.66-88.61,83.6-120.41,19.28-15.36,40.33-27.72,62.5-38.33a91.33,91.33,0,0,0,24.13-16.6c16.74-16.14,23-35.35,25.34-42.71A112.12,112.12,0,0,0,213.53,0Zm.24,183.43-1.54-.06c-.87-2.47-1.9-4.89-2.58-7.41-4.35-16.14-10.82-31.25-21.49-44.31-13.66-16.73-34-21.56-49.93-10.28-7.6,5.4-13.74,13.37-19.29,21.08C96.86,173.08,85,208,78.43,244.75c-12.89,72.17-12.12,144,8.24,215,7.2,25.09,17.5,48.93,34,69.37,18.6,23,47.06,27.59,66.18,2.95,8.54-11,13-25.22,19.07-38.07A90.39,90.39,0,0,0,210,483.23a64.62,64.62,0,0,1,3.4,9.57c3.72,13.92,9.41,26.77,18,38.34,4.22,5.72,9.95,11.23,16.23,14.34,20.15,10,39.25,2.11,52.6-14.59,8.07-10.1,14.7-21.61,20.49-33.22,11.73-23.54,18.61-48.87,23.56-74.57,5.81-30.17,7.66-60.77,7.86-91.5.34-50.86-5.07-100.71-23.52-148.6-6.51-16.9-14.66-32.82-26.17-46.8-17.5-21.24-46.07-24.79-65.31-2.66-9.23,10.62-15,23.27-19.1,36.68C216.65,174.64,215.18,179,213.77,183.43Z"/><path d="M210.4,417.32c-9.77-43.63-33.82-73.81-78.38-86.73,44.78-12.15,69.38-41.81,79.83-85.38,6.76,19.78,13,38.94,26.49,54.82,13.7,16.08,32.28,23.62,52.93,31.71-20.11,8.56-39.28,15.19-53.33,31S217.68,397.6,210.4,417.32Z"/></g></g></svg>