<svg xmlns="http://www.w3.org/2000/svg" viewBox="0 0 557.57 800"><title>Asset 66</title><g id="Layer_2" data-name="Layer 2"><g id="Layer_1-2" data-name="Layer 1"><path d="M188.61,177.65V358.19l7.22-6c27.95-23.11,60.17-37,95.62-43.43,106.62-19.36,205.35,41.77,246.47,138.92A246.25,246.25,0,0,1,474.69,728.4c-43.37,38.58-93.92,62.25-151.45,69.05C238,807.53,160.3,788.16,93.87,732.06,48.47,693.71,21,644.2,7.52,586.54.66,557.07-1.24,527.15.74,497.17c3.16-47.57,18.53-91.4,43.73-131.79a292.27,292.27,0,0,1,69.06-76.65l1.76-1.34c2.9-2.19,6-4.3,9.71-2.45s4.17,5.42,4.16,9.13c0,10.2-.18,20.4.09,30.59.19,7.19-2.62,12.79-7.48,17.78-29.35,30.13-50.58,65.14-63.06,105.38-9.3,30-12,60.65-9.57,91.91,2.57,32.86,10.16,64.34,25.23,93.76C100.42,684.34,141,718.93,194.86,737c63.66,21.3,127.55,21.81,189.77-5.41,60.71-26.55,102.25-71.3,118-136.53C518,531.37,508,471.62,467.06,419.15c-29.33-37.64-68.53-58.93-116-64.31-40.19-4.55-77.94,2.67-112.25,24.76-20.07,12.93-35.7,30.06-45.45,52-8,17.89-24.46,20.34-39.26,15.21-10.23-3.54-14.28-12.15-15.11-22.48-.06-.73,0-1.48,0-2.22q0-143.44,0-286.91c0-20.32,20.38-35.66,40.14-30.41,6.6,1.76,11.42,6,15.52,11.22,25.32,32,58.43,50.85,98.36,58,24.24,4.34,48.48,4.77,72.45-1.81C382.57,167.45,397.83,159.3,409,145c16.31-21,17.16-50.93,1.47-75.6-5.57-8.74-13.25-16.14-20-24.11-1.62-1.91-3.66-3.47-5.18-5.45-4.69-6.08-4.74-13.1-.15-19.2,3.56-4.72,7.35-9.25,10.94-13.94,6.78-8.86,16.34-8.41,23.65-1.52,21.65,20.41,38.95,43.6,47.1,72.64,12.54,44.66-3.59,89.51-41.91,117.23-24.93,18-52.94,27.75-83.51,29.67C288.22,228,239.58,215,196.24,183.54,193.86,181.82,191.59,180,188.61,177.65Z"/><path d="M274.8,252.26c0,4.29.12,8.58,0,12.86-.27,7.66-3.95,10.71-11.47,11.87-14.83,2.29-29.59,5.14-44.32,8-4.16.81-8.06,2.9-12.21,3.8-5.92,1.28-10.23-1.6-10.51-7.61-.48-10.32-.59-20.69-.08-31,.35-7,5.53-12.15,12.62-13.47,17.23-3.21,34.49-6.27,51.79-9.05,8.53-1.37,14,3.56,14.22,12.15.12,4.14,0,8.28,0,12.42Z"/></g></g></svg>