<svg xmlns="http://www.w3.org/2000/svg" viewBox="0 0 737.98 600"><title>Asset 89</title><g id="Layer_2" data-name="Layer 2"><g id="Layer_1-2" data-name="Layer 1"><path d="M732.82,59.34c-1-3.12-2-6.11-3.17-8.94a7.68,7.68,0,0,1-1.58-2.12A84,84,0,0,0,706.26,22q-15.18-12-36-16.27C656.6,2.83,643-.9,628.83.2q-11.51.87-22.92,2.59c-5.65.85-11.2,2.33-16.8,3.57-20,4.45-37.52,14.13-54.22,25.46-8.39,5.69-16.54,11.72-24.52,18-3.12,2.45-5.27,6.13-8.25,8.82-12.76,11.54-23.58,24.75-33.88,38.45a509.42,509.42,0,0,0-35.13,53.68c-8.27,14.5-15.71,29.39-23.41,44.17q-7,13.44-13.2,27.27c-2,4.41-4.42,5.41-9,3.93-21.26-6.87-40.49-17-53.53-35.71-4.6-6.63-7.37-14.76-9.91-22.54-5.12-15.66-1.1-30.83,3.23-46,4.5-15.87,10.79-31.41,9.22-48.51-1.36-15-5.6-29-16.43-39.73-9.38-9.31-20.34-15.76-34.19-17.84-10-1.5-19.46-.55-28.94,1C246,18.48,236.47,24,227.79,31,215,41.35,209,55.76,205.85,70.92c-4.2,20.52-1.18,40.74,6.82,60.34,6.47,15.81,16.22,29.25,27.56,41.64,4.21,4.61,9.79,8,14.73,11.93,31.49,25.14,62.61,36.3,72.57,40.22a326,326,0,0,0,36.12,11.83,95.62,95.62,0,0,1,14.86,2.47c3.13.78,6,1.67,8.68,2.61-.65,2-1.63,4.83-3,8.14-1,2.48-1.9,4.38-2.77,6.28-2.2,4.81-4.11,8.6-6,12.49-3.38,6.84-6.55,13.77-9.77,20.68-6.18,13.28-12.28,26.59-18.48,39.85C343.46,337.27,339.47,345,336,353c-2.07,4.67-5.07,6.33-10,5.36-11.17-2.18-22.34-4.37-33.58-6.06-5.79-.85-12-1.11-17.84-1.39-21.73-1-43.16-1.52-64.68.71-9.57,1-18.63,2.51-27.87,4.23-12.91,2.41-25.82,5-38.61,7.9-6,1.36-11.69,3.74-17.51,5.65-4.84,1.6-9.93,2.67-14.43,4.91C99.82,380,88.28,385.84,77.21,392.45A197,197,0,0,0,50.67,411C39.15,420.74,28,431,20.06,444c-.54.87-2,2.61-3.85,5.57-5.31,8.56-9,14.89-9.8,16.89-2.7,6.48-4.77,15.59-6,36.27C-.22,512.48-.9,530.54,5,541.4c0,.08.45.8,1.25,2.26,3.21,5.92,6.16,12,9.82,17.66,7.39,11.4,17.66,19.68,29.63,26.07C66.72,598.61,89.4,600,112.55,600A173.17,173.17,0,0,0,161,593.4c11.78-3.43,22.92-10,33.42-16.66a208.53,208.53,0,0,0,30.69-23.64c8.88-8.29,15.92-18.54,24.26-27.46,12-12.83,20.64-28,30.29-42.43,7.86-11.76,14.36-24.45,21.36-36.77,6.06-10.68,12.12-21.36,17.94-32.18,6-11.21,12-22.48,17.51-33.92,2-4.2,4.28-5.13,8.5-3.61A184.46,184.46,0,0,1,387.67,399a67,67,0,0,1,19.42,21.59,66,66,0,0,1,7.62,20.65,67.15,67.15,0,0,1-1.94,31.47c-3.54,12.21-7.66,24.37-9.76,36.85-4.1,24.32,1.9,46.13,20.81,62.85,8.31,7.32,18.31,12.54,29.82,13.12,13.14.63,26.57,2.09,38.92-3.83a74.75,74.75,0,0,0,18.34-11.9c14.25-13.2,21.05-30,22.46-49.46,1-13.94.58-27.63-4.34-40.73-9-24-23.64-43.84-45-58.52-7.33-5-13.76-11.6-21.52-15.77-16-8.63-32.35-16.77-49.08-23.88-14-5.92-28.6-9.81-43.08-14.44-5-1.6-10.47-2.28-15.68-3.29-2-.4-3.93-1.29-7.58-2.53,3.73-9,6.76-17.05,10.41-24.83,4.32-9.21,9.41-18,13.71-27.26q12.5-26.79,24.44-53.86c6.11-13.86,4.92-11.05,18.46-9.56,13.28,1.47,26.58,3,39.93,3.87,13.91.88,27.89,1.41,41.83,1.21,9.22-.13,18.42-1.8,27.62-2.86,8.39-1,16.87-1.52,25.13-3.19,14.32-2.91,28.64-6,42.65-10A249,249,0,0,0,624.7,222.3c16.57-7.48,33.4-14.68,47.72-26.37,8.68-7.08,18.11-13.33,26.2-21,7.48-7.08,13.72-15.49,20.33-23.47a73.55,73.55,0,0,0,9.3-14.2,71,71,0,0,0,4.9-12.65,8.9,8.9,0,0,1,1.71-2.94A121.15,121.15,0,0,0,732.82,59.34Zm-417.88,336Q301,421,286.62,446.44a179.62,179.62,0,0,1-13.17,20.25c-7.16,9.34-14.27,18.92-22.69,27.06-12.67,12.24-26.51,22.35-45.25,25a98.72,98.72,0,0,1-37.66-2c-15.59-3.81-27.71-13.22-35-28.07-8.63-17.57-10-35.83-4.57-54.45C133,418.17,142,405,154.85,394c14.23-12.15,30.56-18.92,48-24.82,18.53-6.26,37.25-5.43,56.05-5.29a362.75,362.75,0,0,1,37.41,2.33c9.49,1.06,18.83,3.47,30.23,5.67C322.23,380.66,318.85,388.13,314.94,395.33ZM612.69,154.55c-3.32,17.29-12.51,30.69-24.37,42.77-10.37,10.56-22.86,18.23-36.16,24.22-2.4,1.09-14.29,4.67-38.09,11.79,0,0-23.46,5.64-37,5.57-.19,0-2.5-.3-5.66-.61,0,0-3-.33-5.67-.53-4-.29-8.05-.24-12.06-.58-10.1-.9-20.16-1.89-30.24-2.91-2.75-.28-5.47-.86-8.21-1.18-7-.8-8.42-2.42-5.81-9,2.95-7.47,7.14-14.45,10.23-21.89,8.29-20,21.32-37.12,33.19-54.86,8.67-12.95,18.55-25.54,29.89-36.16,14.88-13.93,31.79-26.34,53-28.29s42.33-.33,59.34,15c8,7.2,13.75,16.52,15.59,27.07C612.38,134.58,614.68,144.2,612.69,154.55Z"/></g></g></svg>