<svg xmlns="http://www.w3.org/2000/svg" viewBox="0 0 438.23 787.75"><title>Asset 63</title><g id="Layer_2" data-name="Layer 2"><g id="Layer_1-2" data-name="Layer 1"><path d="M402.11,613.35h30.6v82.93H350.84V613.35h31c-22.05-7.64-35.92-21.76-35-45.9.92-23.73,14.65-38.35,38.21-45.77H350.8V440h81.82V521.6h-33.8c25.13,8.35,40.11,23.94,39,50C437,593.85,422.52,606.32,402.11,613.35Z"/><path d="M265.36,382V351.51h81v82.71h-80.7V400.37c-9.35,24-25.7,37.83-52.15,35.7-19.26-1.55-33.54-15.87-39.57-36.94v34H90.71V351.46h83.07v33c8-25.06,23.18-38.06,44-38.6C239,345.31,255.68,358.13,265.36,382Z"/><path d="M346.42,4.92V87.68h-81V52.48c-8.8,24.76-24.54,39.12-50.32,37.23C192.85,88.08,179.86,74,173.88,52.83V86.69H90.79V4.94h82.83V36.58c6.59-20.68,19-34.87,41.51-36.43,26-1.79,41.47,12.31,50.28,36.86V4.92Z"/><path d="M90.83,700.85h82.91v33.76c6.79-22.58,21.11-36.84,45.1-36.89s38.71,14,46.49,37.49V700h81V782.6H265.57V751.82c-9.42,25-26.67,38.84-53.71,35.41C191.33,784.61,179.42,770.7,174,751v31.64H90.83Z"/><path d="M384.4,267c-27-11.76-38.76-27.28-37.86-49,.83-20.34,12.66-34.15,36.94-42.41H350.94V92.45h81.71v82.9H400.79c26,7.1,36.08,25.44,37.3,40.87,1,12-2.8,22.75-10.15,32.2-7.19,9.24-16.6,15.21-27.87,18.55h32.57v80.65H350.82V267Z"/><path d="M4.6,266H37.19C23.66,262.06,13,254.48,6,242.16A44.44,44.44,0,0,1,.23,215.31c2-19.53,15.43-34,36.15-39.68H4.67V92.55H86.13v82.89H54.68c21,6.72,35.19,19.58,35.71,42.56.58,25.26-13.54,40.37-38.2,48.05h34v81.63H4.6Z"/><path d="M38.48,521.63H4.65V439.86H86.13v81.69h-34c25.21,7.94,39.43,23.49,38.2,49.35-1.06,22.27-15.08,34.82-35.66,41.24H86.21v83H4.61V612.34H36.3C15.16,605.84,1.14,592.76.35,570.15-.54,544.83,13.59,529.36,38.48,521.63Z"/></g></g></svg>