<svg xmlns="http://www.w3.org/2000/svg" viewBox="0 0 649.89 600"><title>Asset 16</title><g id="Layer_2" data-name="Layer 2"><g id="Layer_1-2" data-name="Layer 1"><path d="M606.23,398.83l-77.29-76.17c3.5-.46,5.47-1,7.45-1,14.63.05,29.49-1.41,43.83.7,21.18,3.11,35.58,17.57,46.69,34.89,18.17,28.33,23.94,59.72,22.23,93.05-1.65,32.3-11.19,61.56-31.07,87.16-24.88,32-58.07,51.29-97.52,57.78a320.29,320.29,0,0,1-69.47,3.24c-34-1.91-66.27-11.66-91.43-36.23-11.07-10.82-19.59-24.26-29.13-36.61-1.93-2.5-3.25-5.46-5.3-9-5.7,9-10.37,17.42-16.05,25.11-20.81,28.17-48.45,46-82.92,52.53-40.33,7.66-80.75,8.92-119.94-5.11C48.11,568.42,11.54,527.8,2.22,466c-6.05-40-.26-78.78,23.9-112.95,10.6-15,23.74-27.87,42.45-30.18,16.62-2.05,33.69-.43,52.8-.43L43.76,399.2,45,401.4c12.09,0,24.17,0,36.25,0,9.69,0,10.91,2,7.21,11.13C77,440.85,80.57,467.64,98,492.2c9.17,12.89,23.34,18.9,38.58,21.79,24.89,4.71,49.79,5.48,74.35-1.94,28.32-8.57,44.34-29.45,54.27-55.86A224.62,224.62,0,0,0,279.9,384.6c1.57-45.41,3.67-90.87,2.85-136.27-.6-33.8-4.42-67.69-15.79-100.1-16.29-46.43-47.46-67.49-96.9-65.73-16.5.58-32.83,1.33-48.36,7.88-23.3,9.82-34.27,28.19-38.14,52.33C81,159,82.12,174.27,89.24,189.26c3.21,6.76,1.09,9.25-6.66,9.31-12.44.1-24.89,0-38.26,0l77.41,75.54-2.28,3.33a44.36,44.36,0,0,1-5.79.83c-8.39.11-16.82-.39-25.17.19-29.93,2.07-50.65-12.5-65.62-36.59-18.45-29.69-24.46-62.2-21.63-97,2.41-29.64,11.35-56.59,29.15-80.24,23.93-31.8,56.1-51.38,94.87-59.2,41.37-8.35,82.7-7.76,122.93,6.5,32.66,11.58,55.72,34.49,72.42,64.32,1.28,2.28,2.55,4.57,3.8,6.8,7.66-11,14.4-22.13,22.5-32.12C367.13,26,393.71,11,425.12,5.33c43.13-7.83,86-8.3,127.49,8.61,54.77,22.34,87.18,63.47,95.27,121.55,5.5,39.56.43,78.46-24.41,112.13-14.78,20-33.35,32.84-59.8,30.87-10.92-.82-22-.14-32.94-.14l-.88-2,76.68-75.09-1.5-2.61c-11.78,0-23.57,0-35.35,0s-12.41-1.14-8.11-11.83c11.65-28.93,7.35-56-11.09-80.66-7.85-10.5-19.81-15.89-32.25-19.14a155.66,155.66,0,0,0-69.85-1.72c-29.25,5.76-49,24-60.66,51.18-10.45,24.29-15.68,49.85-17.49,76.06-2,28.56-4.65,57.2-4.25,85.77.71,50.42.06,101.23,15.82,150.1,8.47,26.27,21.93,48.84,48.73,60.66,14.39,6.34,29.47,8.36,45,8.32,18.1-.05,36-.71,53.13-8.05,23.05-9.88,33.6-28.21,37.74-51.73,2.94-16.72,1.52-32.65-6.23-47.95-3.1-6.14,0-8.28,6-8.23,12.92.11,25.85,0,38.78,0Z"/></g></g></svg>