<svg xmlns="http://www.w3.org/2000/svg" viewBox="0 0 567.12 600"><title>Asset 24</title><g id="Layer_2" data-name="Layer 2"><g id="Layer_1-2" data-name="Layer 1"><path d="M497.39,179.42c-29.72,16.76-61.54,21-94.87,16.34-42.23-5.89-69.79-32.11-91.57-66.22C298,109.33,286.49,88.13,272.21,69c-9.87-13.24-22-25.74-35.47-35.18C194.93,4.49,148,12.23,116.26,52.31,90.12,85.33,81.19,124,80.92,165.15c-.21,31.89,3.5,63,22.13,90.17,20.76,30.23,53.31,42.57,89.89,23.9a52.37,52.37,0,0,0,26.67-31.15c5-16.21,9.49-32.79,11.9-49.55,3.61-25.15,26.11-39.35,47.41-28.11,12,6.33,18.28,16.92,17.18,30.26-3,36.32-19.24,65.17-51.13,83.89-39.61,23.25-82,23.34-125.07,12.94-33.69-8.13-61.22-27-79.67-55.79-14.56-22.7-21.89-48.93-23-76.6C13.88,86.27,60.92,30.34,119.05,9.41c60.31-21.7,158.48-7.48,207.14,59.47,15.48,21.31,28.77,44.2,43.2,66.27,6.55,10,12.79,20.36,20.28,29.66,15.9,19.74,37.61,22.31,56.45,5.21,10.43-9.46,19.36-21.41,26.27-33.75,16.74-29.87,24-63.13,31-96.32C509.09,13.4,535.6,2.6,555.25,18.84c9,7.41,12.69,17.28,11.72,28.81-5.76,68.11-33.28,124.36-89.69,165-34.59,24.94-72.73,42.63-112.43,57.68-44.17,16.75-88.46,33.38-131.69,52.36-47.3,20.77-91.27,47.63-130.81,81.26-1.09.92-2.75,1.16-2.49,3.13,14.11-1.38,28.2-3.45,42.34-4,45.56-1.77,80.18,18.41,105.76,55,11,15.7,19.87,32.9,31.16,48.36,13.19,18.05,26.06,37.06,42.48,51.88,26,23.45,57.37,32.56,91.65,18.48,26.87-11,44-32.76,56.14-58.05,12.61-26.22,17.17-54.29,17.42-83.58.21-24.85-4.2-48.36-12.36-71.46-9.75-27.61-35.71-49.19-58.74-50.37-47.51-2.43-63.43,23-74,55.79-3.44,10.71-4.46,22.27-5.93,33.53-1.82,14-8.08,24.37-22,28.81-14.08,4.5-26.65.89-35.29-10.7-4.12-5.52-6.91-13.81-6.51-20.63,3.17-53.76,39.88-91.43,93-101.26,34.53-6.4,69.17-4.46,102.35,8.87,21.77,8.75,39,23.43,53.58,41.62,26.69,33.33,31.92,71.66,28.62,112.87-2.79,34.88-16.76,64.17-40.1,89.11-28.28,30.21-63.63,46.31-105.08,48.32-43.86,2.12-85.28-6.43-122.67-30.21-28.09-17.86-46.34-44.76-63.77-72.22C204.76,476.53,192.61,455,178,435.35c-15.14-20.47-36.41-22-56.4-5.91-20.19,16.24-30.95,38.89-38.75,62.66C75.71,514,70.27,536.45,65,558.88c-4.64,19.61-18.13,31.41-35.77,29.55-17-1.79-29.76-17.1-29.17-36.29,1.52-49,22.38-89.37,56.33-123.75,36.7-37.16,80.19-64.63,126.59-87.58,31.12-15.4,62.71-30,94.76-43.29,31.88-13.24,64.87-23.79,96.87-36.76,38.72-15.69,76.24-33.83,107.39-62.69,5.88-5.44,12-10.63,18-15.94Z"/></g></g></svg>