<svg xmlns="http://www.w3.org/2000/svg" viewBox="0 0 544.31 700"><title>Asset 46</title><g id="Layer_2" data-name="Layer 2"><g id="Layer_1-2" data-name="Layer 1"><path d="M75.31,667.74c-3.6,16-12,26.83-27.32,30.89C23.14,705.2,0,687.12,0,661.32q0-129.51,0-259Q0,221.14,0,40C0,22.89,10,8.06,25.32,2.33c19-7.11,39.92,2.57,47.27,21.9,1,2.74,1.78,5.61,3,9.61,2.7-11,7.45-19.61,15.73-25.95A37.4,37.4,0,0,1,119.29.31c16,1.83,28.64,14.82,32.54,33.71C158,11.16,171.79-2.24,195.46.6c20,2.4,29.23,17.15,32.51,36.68,8.28-17.83,21.64-27.11,40.85-25.31,19.78,1.85,30.69,14,34.7,34.13,5.07-9.56,11.84-16.22,21.36-19.52,9.34-3.24,18.77-3.44,28,.38,16.41,6.79,23.37,20.81,22.22,44.93C390,56,407,50.59,426.3,62.09c17,10.09,20.54,24.61,14.52,52.38,18-10.68,35.54-8.76,48.57,5.33,13.7,14.81,13.86,35.09,0,54.52,23.28-1.32,39.22,8,43.59,31.42,3.49,18.71-4.79,32.64-23.77,43.88,21.17,7.1,33.78,21.84,35,41.07.71,11.24-1.81,21.66-8.37,30.95s-15.59,14.39-26.69,17.2c19.53,11,27.73,27.14,23.72,45.82-4.07,19-16.58,27.8-43.17,30,7.62,11.11,12.33,22.87,9.1,36.42A39,39,0,0,1,487,471.21c-9.74,8.92-26.79,15.26-46.59,3.3,3.84,10.33,5.77,20.34,2.36,30.72a38.68,38.68,0,0,1-19.14,23c-16,8.5-32.87,4.57-48.54-11.4,2.82,22.38-4.33,39.16-26.65,46.19-17.12,5.39-32.25-1.8-45-20.07-3.82,19.47-14.36,32.63-34.51,34.61-20,2-32.61-9.17-41.18-27.84v6.77c0,34.77.07,69.54,0,104.31-.05,19.56-11.77,34.48-29.86,38.38a38,38,0,0,1-44.6-27.59c-.32-1.23-.72-2.45-1.28-4.36-4.66,19.33-17.17,31.29-33.26,32.45C97.52,701.18,84.66,691.91,75.31,667.74ZM261.62,242.09c-21.36,0-38.73,17.54-38.83,39.22a39,39,0,0,0,38.93,39.08c20.91-.11,37.63-17.56,37.53-39.17S282.38,242.09,261.62,242.09Z"/></g></g></svg>