<svg xmlns="http://www.w3.org/2000/svg" viewBox="0 0 484.03 600"><title>Asset 94</title><g id="Layer_2" data-name="Layer 2"><g id="Layer_1-2" data-name="Layer 1"><path d="M373.77,187h61.94c-2.25,6.59-3.47,11.93-5.82,16.72C421,222,410.53,239.34,395.47,253.23c-10.56,9.74-21.34,19.54-33.25,27.46a659.17,659.17,0,0,1-59.29,35.59c-18.87,9.87-38.92,17.49-58.48,26-7.09,3.11-14.25,6.08-22.87,9.75,0,10,.72,20.3-.14,30.42-2.3,27-4.72,54-8.15,80.8a266.84,266.84,0,0,1-18.07,66.84c-11.94,29.3-29.73,53.93-60.94,64.11-35,11.43-67.79,6.12-96.82-18.31-20.63-17.36-33.19-39.15-36.39-65.5a136.46,136.46,0,0,1,10.24-71.77c14.08-32.55,37.5-56.82,65.46-77.42,27.55-20.3,57.53-36.17,89.35-48.63,22-8.6,44-16.87,66-25.58,34.73-13.81,68.8-29,98.92-51.63C348.52,222.27,363.88,207,373.77,187ZM165.84,376l-2.46-1.86C147.52,383.39,131.27,392,115.91,402c-24.83,16.17-45.27,36.49-55.53,65.25-6.61,18.55-8.72,37.27,2.88,54.5,18,26.74,50.51,31.68,70.91,3.66,10.81-14.85,16.46-32,20.64-49.61,7.3-30.67,9-62.05,11-93.37C166,380.3,165.84,378.15,165.84,376Z"/><path d="M221.89,279.42l-55.57,20.24c0-9.5-.09-16.76,0-24,.23-14.25,1.12-28.51.74-42.74-.49-18.14-1.81-36.26-3.06-54.37-.94-13.52-1.61-27.12-3.7-40.48-2.91-18.63-6.13-37.25-15.73-54.1-5.83-10.23-14.21-16.24-25.55-18.6-13.8,1-25.82,6.66-32.16,19.12a121.19,121.19,0,0,0-11,33.31c-2.9,16.31-3.64,33-5.41,50.66h-55c0-9.19-1.07-18.53.22-27.53,2.77-19.5,5.39-39.19,10.57-58.12,6.28-22.95,18.72-43.31,38.51-57C86.93,10.38,111.91,5,139.05,11.35c34.64,8.06,52.52,32.49,63.9,63.55,3.26,8.92,5.67,18.14,8.57,27.56,4-5.36,8.09-10.68,12.06-16.06,17.3-23.46,37.84-43.29,63-58.4,38-22.81,78.86-31.46,122.73-26.77C436.18,4.11,460.18,14.51,484,29.68a536,536,0,0,1-26.29,49.63c-8-4.21-15.33-8.3-22.84-11.91-20-9.61-41-11.83-62.94-9.1a147.14,147.14,0,0,0-59.14,20.94,155.76,155.76,0,0,0-35.08,29,200.5,200.5,0,0,0-41.68,72.65c-5.76,17.83-8.91,36.64-11.7,55.24C222.28,249.92,222.67,264.08,221.89,279.42Z"/></g></g></svg>