<svg xmlns="http://www.w3.org/2000/svg" viewBox="0 0 397.09 600"><title>Asset 97</title><g id="Layer_2" data-name="Layer 2"><g id="Layer_1-2" data-name="Layer 1"><path d="M391.55,493c-.88,2.29-1.11,2.59-2.23,5.27-2.12,5.38-2.94,6.77-5.23,12.06-10,23.14-25.24,41.31-45.93,55.77-27.44,19.17-58,29-90.81,30.64-40.32,2-80.74,2.27-121.12,2.82-35.78.48-71.57.35-107.35.41a125.74,125.74,0,0,1-15.53-.82A4,4,0,0,1,0,595.66c-.19-2.57,2.05-6.24,3.85-6.69,12.29-3.07,17-10.38,17-23.06-.31-48.43.27-96.85.12-145.28,0-14.91-.68-29.74-.71-44.65,0-11.3.64-22.66,1.13-34,.53-12.32.56-24.66.65-37,.19-26.76.26-53.52.41-80.27.15-29.06.74-58.13.3-87.17-.15-10-5.6-17.36-16.43-19.59-1.87-.39-4.63-3-4.61-4.51,0-2.1,2.23-5.88,3.68-6,17.33-1.08,24.9-14.31,33.46-26.24,24-33.55,54-59.89,93.44-73.44C163.77-3,196.12-2.3,227.54,8.14c16,5.33,33.1,11.47,45.75,22,25,20.81,43.72,46.61,47.79,81,2.63,22.15,2.09,44-5.78,64.39-4.76,12.38-13.65,23.69-22.57,33.82-15.28,17.36-36.48,26.39-57.61,34-13.78,4.94-29,5.91-43.51,8.79-13.16,2.61-26.46,4.81-39.33,8.45-4,1.12-10.6,4.9-9.89,10,.41,2.88,2.83,4.84,4.6,5.73,7.18,3.59,15.83,3.32,23.83,3.69,30.08,1.38,60.3,1,90.26,3.7,28,2.49,55,10.09,78.09,27.28a137.52,137.52,0,0,1,39.5,45.55c15.74,29,19.91,59.62,18,91.6C395.75,463.22,393.28,478.27,391.55,493ZM153.62,290c-2.65-.75-5.1-1.49-7.9-2.37-9.2-2.89-14.58-8.36-14.33-18.41.29-11.43,8.93-16.59,17.55-19,17.89-5.07,36.7-7,54.43-12.52,11.78-3.66,23.95-9.43,33.09-17.5,18.94-16.73,26.48-39.51,28-64.6,2.07-34.6,3.5-69-14-100.77-2.63-4.75-4.82-9.24-8.39-14-10.53-15.3-23.54-22.7-38-26.15-31.14-7.46-61.73-3.68-89,15.44C94.82,44.25,80,61.8,79.75,88c-.27,32,0,63.9.1,95.84.13,44.36.42,88.73.43,133.09,0,26.08-.53,52.16-.57,78.24,0,24.17.47,48.34.37,72.5-.16,38.82-.68,77.65-.76,116.47,0,1.48,3,4.22,4.65,4.26,8.73.2,17.48-.54,26.22-.45,18.2.19,36.44,1.52,54.6.86,25-.89,50.1-1.66,74.73-5.35,22.47-3.36,41.84-14.57,59-30.46a113.91,113.91,0,0,0,29-43.08,226.65,226.65,0,0,0,7.28-22.05,142.08,142.08,0,0,0,3.87-18.12c-.06-25.34,1.47-51.14-2.74-75.89-4.61-27.1-16.3-51.95-38.45-71.16s-47.69-28.35-76.36-29.89c-19-1-37.93-1.42-56.91-1.89C160.64,290.78,158.17,290.45,153.62,290Z"/></g></g></svg>