<svg xmlns="http://www.w3.org/2000/svg" viewBox="0 0 795.13 585.55"><title>Asset 51</title><g id="Layer_2" data-name="Layer 2"><g id="Layer_1-2" data-name="Layer 1"><path d="M517.43,292.86c15.1,1,33.72,1.14,52,3.8,69.89,10.18,131.76,37.25,180.54,89.85,23.73,25.6,39.31,55.51,44.07,90.61,6.57,48.36-16.09,79.93-53.18,96.68-32.59,14.72-66,16.75-98.69-.48-18-9.51-32.38-23.69-43.84-40.22-15.93-23-31-46.58-45.78-70.28-19.46-31.1-38.83-62.24-64.45-88.8-9-9.33-19-17.7-28.59-26.44a24.64,24.64,0,0,0-4.94-3.37c-11.53-6.22-22.48-1-24.79,11.83a60.65,60.65,0,0,0-.79,10.44c-.13,41.33.21,82.67-.46,124-.34,21-6,40.85-19.55,57.62-16,19.87-37.94,28.12-62.45,30.37-11.58,1.06-23.3,1-34.95,1-40.34-.16-80.72.61-121-1.14-55-2.39-105.08-20-147.78-55.66-20.14-16.81-35.45-37.4-40.49-63.72-6.2-32.32.81-61.18,27.06-82.9,20.28-16.78,43.84-17.49,68.2-11.1,24.67,6.48,43.81,21.25,57.86,41.89C169,426.73,181,447.69,193.34,468.43c14.54,24.44,30.28,47.87,52.11,66.57a54.37,54.37,0,0,0,5.52,4.29c11.29,7.32,22,3.2,25.29-9.86a40.55,40.55,0,0,0,1.11-9.89q.08-227.5,0-455a51.34,51.34,0,0,0-.83-9.43c-2.74-14.63-16-19.68-27.27-9.92A242.76,242.76,0,0,0,225.9,68.4c-16.08,18.21-27.69,39.45-40.11,60.17-11,18.4-22,37-34.76,54.13-18.19,24.38-43.76,36.79-74,39.5-32,2.87-62-17.73-72.43-50.67C-5.2,140.6,1,112,19.6,85.86c17.47-24.52,41.3-41.34,68-54.36,35.84-17.5,73.74-26.85,113.68-27,47-.22,94-.41,141,.17a90.06,90.06,0,0,1,51.19,16.22c21.3,14.89,30.88,36.47,34.1,61.36a197.18,197.18,0,0,1,1.32,24.43c.13,38,0,76,.16,114a42.79,42.79,0,0,0,2.53,14.6c3.44,9.18,11.67,12.48,20.21,7.8,6.2-3.4,11.83-8,17.23-12.67,28.33-24.37,50.44-54,70.58-85.12,17.9-27.68,35.32-55.67,53.69-83,12-17.93,26.73-33.62,45-45.68,44-29.12,110-19.22,141.62,25.39,13.83,19.55,17.1,41.26,14.32,64.23-5.43,44.79-28.42,80.09-61.18,109.61-38.75,34.92-84.51,56.34-135.11,67.67A399.16,399.16,0,0,1,556,290.06C542.12,291.64,528.1,292.12,517.43,292.86Z"/></g></g></svg>