<svg xmlns="http://www.w3.org/2000/svg" viewBox="0 0 639.58 610"><title>Asset 41</title><g id="Layer_2" data-name="Layer 2"><g id="Layer_1-2" data-name="Layer 1"><path d="M443.52,481A139.51,139.51,0,0,1,404,448.15C387.43,428,377.62,404.63,371,379.72a388.15,388.15,0,0,1-12.16-85.26c-1.3-35.8-1.45-71.65-2.6-107.46-1.16-36.35-3.31-72.64-12.11-108.14-2.93-11.82-6.92-23.24-13.49-33.65C323,33.08,312,27.38,297.85,27.2c-4.71-.07-9.43,0-14.44,0V0h191V27.05H451.67c25.53,11.39,35.41,33.89,42.43,58.27,5.66,19.66,8.08,39.91,10,60.23,4.31,44.65,2.51,89.47,4.06,134.18.78,22.41,2.31,44.8,3.55,68l4.74-1.87c30.64-12,61-11.54,89.82,4.62,22,12.32,32.62,32.56,33.23,57.62.84,34.5-17.52,57.3-46.25,73.17-18.66,10.3-39.06,15.09-60.19,15.63-14.28.36-28.61-.91-42.89-1.84-2.85-.18-3.13,1.39-3.9,3a242,242,0,0,1-35.25,53.72c-24,27.34-53,46.64-88.93,54.53-18.94,4.16-38.11,4.38-57.3,2.73-26-2.24-50.69-9.08-73.45-22.14-29.65-17-51.11-41.67-66.62-71.78-14.75-28.64-22.67-59.34-27.65-91-6-38.14-4.14-76.61-5.66-114.94-.9-22.55-2.69-45.06-4.09-67.59,0-.22-.24-.43-.21-.37-8.19,2.42-16.15,5.63-24.42,7C75,253,48.46,249.7,25.46,232,9.11,219.39,1,202.11.09,181.54c-1.75-40,22.88-66.52,54.5-79.6,18.22-7.53,37.33-10.68,56.93-11,24.46-.42,48.57,1.9,71.73,10.45,34.82,12.85,57.73,37.89,72.52,71.16,10.62,23.87,16.42,49,20.26,74.76,5.35,35.8,6.49,71.85,6.55,108,.05,32.33,1.61,64.6,6.49,96.6,3.61,23.67,8.71,47,19.54,68.62,6.89,13.75,15.72,26,29.65,33.42,20.88,11.19,45.65,7.9,64.07-8.28,14.19-12.46,23.77-28.23,32-44.92C437.52,494.34,440.36,487.8,443.52,481Z"/></g></g></svg>