<svg xmlns="http://www.w3.org/2000/svg" viewBox="0 0 454.94 757.99"><title>Asset 64</title><g id="Layer_2" data-name="Layer 2"><g id="Layer_1-2" data-name="Layer 1"><path d="M0,157.71C2.81,107.83,5.58,58.6,8.38,8.88c1.8-.08,3.35-.22,4.91-.22h388c14.25,0,28.28-1.14,41.56-7.1,3.47-1.55,7.83-2.87,10.67.74s1,7.44-1.21,11c-16.44,27.17-36.72,51.4-57.45,75.28-49.5,57-99.37,113.71-145.29,173.71C210,314.1,172.66,367.4,143.56,426c-14,28.21-25.68,57.32-32.16,88.28-9.68,46.26-3.82,91.07,13.67,134.5A215.1,215.1,0,0,0,199.23,744c.71.52,1.39,1.08,2.54,2L193,758c-7.95-6.51-15.9-12.38-23.13-19-32.17-29.7-53.12-66.36-65.65-108C95.23,601,91,570.39,93.66,539.1c2.28-26.65,9.46-52.17,19-77C130.76,415,156,371.69,183.89,329.83c39.16-58.88,83.2-114,128.83-168,20.81-24.59,41.85-49,62.75-73.49a17.4,17.4,0,0,0,2.69-4c2.18-4.78-.11-9-5.31-9.77a53.92,53.92,0,0,0-7.52-.29q-129.48,0-259,0c-16.1,0-31,3.39-44,13.36A91.83,91.83,0,0,0,39.79,113c-8,13.1-15.65,26.41-23.1,39.82-2.06,3.72-4.23,5.62-8.55,5C5.84,157.43,3.46,157.71,0,157.71Z"/></g></g></svg>