<svg xmlns="http://www.w3.org/2000/svg" viewBox="0 0 627.71 608.62"><title>Asset 56</title><g id="Layer_2" data-name="Layer 2"><g id="Layer_1-2" data-name="Layer 1"><path d="M266.81,339c.39-5.27,1-10.53,1.12-15.8a699.69,699.69,0,0,0-3.79-82.89q-4.41-43.54-13-86.45c-1.12-5.64-2.46-11.24-3.79-17.22l-8.85,3.71c-27.51,11.45-56,19.36-85.62,22.73-23,2.6-45.87,2.58-68.49-3-19.47-4.82-37-13.17-50.69-28.34C22.18,118.92,16.3,103.75,14.57,86.78c-4.39-43.05,26.26-73.06,58.78-82,21.47-5.88,42.16-3.11,62.34,5.29,22.84,9.52,41.64,24.65,58.3,42.63,21.38,23.08,37.64,49.53,50.84,78l2.61,5.57c3.05-2.54,5.92-4.89,8.77-7.29C283.4,106.05,310.9,83.52,340,63c26.31-18.6,53.65-35.39,83.74-47.31C452,4.45,481.29-1.39,511.8.28c28.12,1.55,55.06,7.75,78.57,24.1C619.54,44.67,631.6,73.1,626.62,108c-3.38,23.64-17.48,40.63-38.16,51.87-23.47,12.77-48.52,15-74.39,9.28-18.65-4.16-35.73-12.48-52.86-20.6-18.84-8.94-37.67-17.86-57.72-23.89a201.73,201.73,0,0,0-83.21-7.25c-23.12,2.78-45.38,8.87-67.14,17-.73.27-1.43.62-2.24,1,14.16,66.74,22.7,133.91,20,202.86,6.23-1.49,12.25-2.71,18.15-4.35,28.76-8,52.1-24.37,71.09-47,11.55-13.76,22.25-28.24,33.54-42.21,9.73-12,20.54-23,34.78-29.74,15-7.14,30.75-9.45,47-5.91,19.66,4.29,34.83,21.37,38.06,41.72,4,25-4.69,45.45-22.58,62.58-22.79,21.83-50,34.17-81.23,38-21,2.57-42.06,2-63.09,0-26.86-2.54-53.38-7.28-79.84-12.42Z"/><path d="M266.72,338.89a27.06,27.06,0,0,1,.44,4.08c-1.66,47.68-9,94.36-25.38,139.34-10.56,28.89-24.48,55.95-44.42,79.6-14,16.62-30.32,30.34-50.47,39.08-14.22,6.17-29.11,8.17-44.48,7.51-18.4-.78-36-4.55-52.22-13.65-24-13.52-38.88-34.15-45.88-60.56A124.09,124.09,0,0,1,3,475c5.57-25.1,18.43-46.17,36.42-64.24,20.48-20.58,45-35,71.64-45.9a334.91,334.91,0,0,1,69-19.36A459.15,459.15,0,0,1,266.82,339Z"/></g></g></svg>