<svg xmlns="http://www.w3.org/2000/svg" viewBox="0 0 687.97 650"><title>Asset 40</title><g id="Layer_2" data-name="Layer 2"><g id="Layer_1-2" data-name="Layer 1"><path d="M420.78,388.65c-7.94-9-11-18.5-6-29.24,4.53-9.56,12.59-13.72,23.05-13.44-.05-.3,0-.66-.14-.73-12.86-7.55-17-21.14-12.64-36.06a103.83,103.83,0,0,1,10.61-23.49c9.63-16.15,20.15-31.75,30.08-47.72,12.23-19.69,18-41.47,20.53-64.32,2.05-18.13,4.2-36.28,7.46-54.21,1.23-6.77,4.92-13.47,8.84-19.3,7.07-10.54,17.64-13.66,29.94-11.22.65.12,1.32.19,2.11.3-12.35-15.58-7.4-34.66,8.86-41.83-.08-.4-.17-.79-.26-1.19-21.42,4.74-42.8,9.72-64.3,14.1a287.58,287.58,0,0,1-31.22,4.35c-4.17.39-8.65-.65-12.76-1.83-14.53-4.15-22.44-15.94-21.72-31.72s9.72-26.74,25-29.63C451.54-1,464.61,1,477.62,4.12c16.27,4,32.6,7.72,49,11.12,21,4.35,41.71,2.2,62.33-2.76,16.54-4,33-8.32,49.77-11.25C649.43-.65,660.63-.85,671,4.05c10.94,5.16,16.44,13.8,16.92,26,.43,11.06-2,20.73-11.34,27.6-7.27,5.34-15.76,6.9-24.54,7.16-12.75.37-24.85-3.26-37.11-6-18.68-4.24-37.42-8.26-56.41-11.79,12.58,6.53,18.66,16.39,15.26,30.19-3.14,12.73-13,17.42-26.36,17.78,10,7.69,13.36,17.53,11.8,28.76-.86,6.19-2.4,12.67-5.31,18.14-5.83,10.95-12.72,21.35-19.34,31.87-4.82,7.67-9.75,15.29-14.9,22.75-13.49,19.56-19.7,41.46-22.2,64.86-2.09,19.61-4.9,39.16-8.26,58.59-1,6-4.24,12-7.63,17.27-6.83,10.58-16.92,14.66-29.45,12.29a6,6,0,0,0-1.2,0c-.1,0-.2.11-.51.29,8.56,7.27,12.1,16.51,8.68,27.19-3.62,11.33-12.84,15.68-25,16.24,12.59,9.2,15.18,21.27,12.12,34.75a69.84,69.84,0,0,1-6.92,18.5c-5.6,10-12.18,19.48-18.35,29.18-6.39,10.05-13.13,19.89-19.09,30.18-10.52,18.16-14.05,38.33-16.52,58.89s-2.87,41.63-9.76,61.56c-3.95,11.45-11.11,19.93-23.31,22.65-19.25,4.3-32.68-3.55-39.77-21.93-4.27-11-5.2-22.58-6.72-34.09C303,571.55,302,550,295.41,529.29c-5.24-16.46-14.2-30.87-23.43-45.21-6.81-10.58-13.61-21.17-20.29-31.83-6.38-10.18-11.44-20.87-11.78-33.21-.27-10,3.22-18.24,11.23-24.42.4-.31.76-.68,1.31-1.18-27-2.16-31.8-30-15.5-43.54-3.5,0-7.41.39-11.22-.08-9.88-1.23-16.76-7-21.67-15.38-5.59-9.55-7.52-20.15-8.85-30.94-2.34-18.91-4.39-37.88-7.27-56.72-3-19.82-11.38-37.64-22.33-54.33-9.94-15.16-20.11-30.2-29.21-45.85-3.91-6.72-6.2-14.68-7.78-22.37-2.36-11.5,1.45-21.36,11.65-29.17-15.1-.51-25.82-6.57-27.69-22-1.42-11.71,5-19.71,15.3-25.38a37.75,37.75,0,0,0-4.76.43c-20.34,4.31-40.7,8.57-61,13.07-12.76,2.82-25.45,5.2-38.51,2C8.59,59.61-.24,47.88,0,33.48.36,13,12.15,1.25,32.82.42c15.61-.63,30.2,3.85,45.11,7,15.31,3.26,30.58,6.92,46,9.26,18.48,2.8,36.64-.65,54.63-5,15.48-3.75,31-7.79,46.63-10.45a73,73,0,0,1,24.58.48c15.85,2.87,25,15.93,23.94,32.32-1.19,19.24-13,30.13-32.76,30.8-13.61.47-26.49-3.16-39.56-6C184.29,55,167.08,51.54,149.89,48a13.87,13.87,0,0,0-4.19-.07c7.57,4.12,12.53,10,14.12,18.6,1.63,8.79-1.75,15.83-7.69,22.61,2.76-.32,5.05-.66,7.36-.83,10.63-.82,18.94,3.46,25.33,11.75,7.32,9.52,10.48,20.66,12,32.31,2.75,20.91,4.91,41.91,8,62.76,2.65,17.68,10.68,33.27,20.4,48.16,11.24,17.21,22.16,34.64,32.6,52.33a43.86,43.86,0,0,1,5.94,27.32c-1.08,10-6.15,17.39-15.78,23,12.28-.45,21,3.77,25.54,14.45s1.21,20-7,28.21c17.92-2.09,27.75,3.4,35.28,19.3,5.18,10.95,6.56,22.76,8.08,34.58,2.7,21,3.44,42.36,9.63,62.85,5.11,16.88,13.25,32.21,23.54,46.46a6.55,6.55,0,0,0,1.11.92,156.57,156.57,0,0,0,22.4-41.64c4.84-13.73,6.95-28,8.36-42.45q2.31-23.6,5.77-47.06c.71-4.85,2.81-9.61,5-14.09C393.09,392,403.41,386.45,420.78,388.65Z"/></g></g></svg>