<svg xmlns="http://www.w3.org/2000/svg" viewBox="0 0 500.07 600"><title>Asset 25</title><g id="Layer_2" data-name="Layer 2"><g id="Layer_1-2" data-name="Layer 1"><path d="M0,443.53q0-63.12,0-126.24a44.7,44.7,0,0,1,.82-10.62C4.08,293.46,11.39,287.29,26,287q36.33-.76,72.67-.15c16.76.31,24.89,8.62,25,25.28.28,41.23,0,82.47.14,123.71.08,22.38.65,44.75.8,67.13.09,13.59,6.59,24.28,14.61,34.45,22.89,29.06,53.88,43.37,89.51,49.17,28.74,4.68,57.37,4.54,85.42-4,56.67-17.2,88.79-56.37,99-113.79,4.31-24.25,4.25-48.75-4.89-72.35-11.48-29.63-33.37-49.95-60.62-64.22-49.63-26-99.92-50.72-149.88-76.08-29.8-15.12-56-34.26-72.45-64.52-11.36-21-15.34-43.4-14.46-67C113.23,61.26,158.08,18.79,218.51,5,265-5.67,308.85.63,350,25.25c4.88,2.92,10.78,4.5,16.42,5.68,6.19,1.3,9.37-2.37,10.17-8.43C378.36,9.15,382.64,3.65,396,2c12.32-1.49,24.9-1,37.37-1.11,12.23-.15,24.48-.05,36.72,0,17.5,0,30.2,9.14,30,30.32-.54,52.28-.15,104.57-.19,156.85,0,16.94-9.4,27-26.11,27.21q-36.33.47-72.68.07c-15.53-.15-24.46-9.55-24.49-25.12-.06-26.27-1.41-52.64.34-78.79,2.32-34.43-13-58.85-39.33-77.91-41.08-29.7-111.23-33.22-155,3.16C154.73,59.82,143.29,90,145.3,126.05c2.18,39,21.48,68,53.49,87.58C228,231.51,259,246.41,289.57,262c28.8,14.7,59,26.95,86.84,43.19,50.88,29.63,76.29,75,74.82,134.32-1.59,64.42-36.58,107.08-90.77,136.48-39.79,21.6-82.55,27.18-127.24,22.46a222.12,222.12,0,0,1-81.89-25.09,46.67,46.67,0,0,0-9.8-4.11c-11.25-2.94-16.26.56-17.81,12-1.47,10.84-9.18,18.2-20.85,18.36q-40.17.55-80.34.09C9.81,599.52.13,588.1.11,574.37Q0,509,.09,443.53Z"/></g></g></svg>