<svg xmlns="http://www.w3.org/2000/svg" viewBox="0 0 660.7 600"><title>Asset 26</title><g id="Layer_2" data-name="Layer 2"><g id="Layer_1-2" data-name="Layer 1"><path d="M134.09,208.5c3.73-6.67,7.21-13.4,11.14-19.86,27.35-45,64.35-79.3,112.37-101.33,18.9-8.67,38.69-14.43,59.49-16,20.49-1.54,40.35.87,58.39,11.61s28.24,26.72,31.33,47.33c2.67,17.84-.6,35-6.49,51.8-8.49,24.14-22,45.32-38.52,64.7-20,23.43-43.44,42.68-69.82,58.45a12.05,12.05,0,0,0-1,.68L362.42,383c4.18-3.62,8.64-7.3,12.89-11.2,30.74-28.19,55-61.24,73.77-98.39a324.62,324.62,0,0,0,28.2-78.79c4.42-20.68,6.58-41.59,5.05-62.75-1.66-23-7.09-44.91-20-64.43C450,48.78,432.91,36.34,411.72,29.41c-17-5.56-34.55-7-52.33-6-5.63.32-11.24,1.06-16.86,1.5a2.45,2.45,0,0,1-2-.94c-1.29-2.86-2.36-5.81-3.6-9,1.32-.41,2.51-.81,3.72-1.15C370.68,5.25,401.26,0,432.61,0c24.53,0,48.58,3.17,71.64,12q56.82,21.77,79,78.45c10.11,26,13.12,53,11.61,80.58-2.57,47-16.75,90.63-38.1,132.18A398.13,398.13,0,0,1,487,400a359.35,359.35,0,0,1-57.3,47.83c-.66.44-1.29.92-2.21,1.57,3.51,2.89,6.81,5.68,10.18,8.37,18.18,14.49,37.48,27.13,59.2,35.77,21.94,8.72,44.65,12.61,68.23,10.51,12.89-1.15,25.32-4.22,36.39-11.26,19.49-12.4,27.71-30.64,26.3-53.27-1.39-22.27-11.06-41.07-25.93-57.26-5.21-5.66-11.25-10.57-17-15.95l6.36-7.62a191.18,191.18,0,0,1,29,24.37c18.15,18.84,31.63,40.47,37.19,66.23,9.26,43-.39,81.41-30.05,114.07C609.5,582.92,587,594.46,560.8,598.51c-27.67,4.27-53.76-.75-78.44-13.68-20.67-10.83-38.15-25.77-54.2-42.52-18.58-19.39-34.74-40.73-50.08-62.71-1.28-1.84-2.18-2.21-4.38-1.31a283.17,283.17,0,0,1-93.21,21.06c-24.32,1.26-48.39-.26-72-6.83-23.86-6.64-45-18.08-62.09-36.25-13.85-14.69-23.34-31.95-29.69-51-6.3-18.89-9.27-38.36-10.21-58.19-.19-4.1,0-3.38-3.58-3.85-19-2.47-37.41-6.89-54.75-15.2C33.85,321.11,21,312.14,11.56,299.08c-9.86-13.59-14.11-28.56-10-45.22,3.37-13.68,11.81-23.83,23.2-31.67,12.47-8.6,26.53-13.11,41.34-15.45a189.06,189.06,0,0,1,67.37,1.76A3.29,3.29,0,0,0,134.09,208.5Zm133.2,109.22C221.64,338.61,174,347.6,123.53,345.26c2.17,7.95,3.83,15.69,6.39,23.12,9.37,27.24,27.38,46.33,54.59,56.28,21.59,7.9,44,9,66.57,6.58a193.6,193.6,0,0,0,61.81-17.55c5.3-2.46,10.48-5.2,15.84-7.88C309.17,375.52,289.65,345.73,267.29,317.72Zm-28.67-58.64c.88-.77,1.64-1.38,2.33-2.05,3.35-3.27,6.79-6.45,10-9.84C269,228,283.6,206.64,292,181.44c3.7-11.13,5.68-22.51,4-34.3-2.26-15.7-12.45-27-27-29.84-9.05-1.75-17.83-.31-26.44,2.57-18.58,6.22-34.15,17.36-48.36,30.44a213,213,0,0,0-38.7,48.11c-2.61,4.39-5,8.89-7.66,13.58C181.67,221.33,211,238.33,238.62,259.08ZM127.42,223.8c-.75-.16-1.36-.35-2-.42-13.12-1.55-26.22-1.7-39.28.56-12,2.08-23.35,5.69-32.83,13.71-8.28,7-13.1,15.75-12.36,26.82.77,11.59,7,20.19,15.94,27,10.16,7.79,22,11.73,34.36,14,5.36,1,10.8,1.51,16.44,2.28C109.7,278.41,116.58,250.69,127.42,223.8Zm13.92,1.91c-9,14.48-21.09,66.74-19,81.82,37.4-1.62,70.84-14.21,101.27-36.15C199.71,249.48,172.86,233.51,141.34,225.71Z"/></g></g></svg>