<svg xmlns="http://www.w3.org/2000/svg" viewBox="0 0 873.22 650"><title>Asset 38</title><g id="Layer_2" data-name="Layer 2"><g id="Layer_1-2" data-name="Layer 1"><path d="M478.51,95.25c-12.62-4.94-23.94-10.33-35.82-13.86-38.73-11.52-78.31-13.9-118.21-8-55.8,8.23-103.37,32.89-142,74C149.56,182.54,129.15,223.9,123.14,272c-.1.81-.34,1.6-.39,2.41-.2,3.27-1.26,6.09-5.11,5.53-3.6-.52-4.26-3.34-3.94-6.67a326.4,326.4,0,0,1,13.6-68.68C145.92,146.19,177.89,97,228.74,61.79c63.6-44,133.11-53.24,206.77-31C460.82,38.46,482.59,52.6,500.8,72a20.14,20.14,0,0,0,1.5,1.39c11.54-7.72,22.61-15.72,34.24-22.79,41.27-25,86.22-39.7,133.87-46.53a387.06,387.06,0,0,1,88-2.66C778.15,3.05,797.21,7.81,814.9,17,840.76,30.44,858,51.24,866.06,79.18c10.16,35.3,9.4,70.76-1.6,105.67-11.94,37.9-37.8,64.56-71.36,84.38-31.07,18.34-64.94,29.52-99.68,38.31-42.89,10.85-86.5,17.78-130.31,23.54-12.24,1.61-24.5,3.08-36.71,4.93a6.47,6.47,0,0,0-4.11,3.61c-22.15,58.47-55,110.3-96.71,156.68-5.65,6.29-11.24,12.68-17.48,18.35-3.91,3.56-3.52,6.07-1,10.12,20.86,33.82,50.45,56.27,88.67,66.45,44.78,11.92,89.41,10.54,132.34-7.63,48.78-20.64,77.16-57.81,84.72-110.52A160,160,0,0,0,712,425c-.3-1.93-.64-3.86-.78-5.8-.26-3.45.93-6.52,4.54-7,3.82-.49,6,2.18,6.47,5.81,8.88,67.87-4.16,129.71-52.47,180.62C638.06,632.07,598.53,649.48,552,650c-73.09.8-123-34.54-154.46-98.8-2.85-5.81-5.24-11.84-8-18.21-4,3.56-7.83,7-11.71,10.31C334,581.06,285.89,611.73,231,631c-39.18,13.78-79.29,18.34-120.47,12.06-17.76-2.71-34.93-7.45-50.88-16C32,612.41,14.31,589.64,6.31,559.55c-8.49-31.9-8.54-64,.62-95.8,10.83-37.58,35.07-65,67.23-86.05,29.11-19.05,61.24-31.21,94.44-40.8,35.48-10.24,71.65-17.34,108.18-22.51,31.52-4.47,63.12-8.34,94.72-12.17,4.42-.53,5.77-2.12,6.54-6.33,9.78-53.62,27.93-104,58.28-149.63A323.34,323.34,0,0,1,478.51,95.25ZM370.32,353.76c-7.26.89-13.69,1.71-20.14,2.48-53.69,6.4-107.28,13.53-160.25,24.62-34,7.13-67.64,15.9-99.56,30.06C69,420.41,48.9,432,33.11,449.71,12.84,472.41,5.5,499,11.17,528.82c4.6,24.16,20.72,39,42.14,48.9,19.72,9.09,40.76,13,62.19,15.06,34,3.23,67.78,3.22,101.24-4.92,60.39-14.69,113-44.31,161-83.05,1.2-1,1.88-3.58,1.61-5.23-1.18-7-3-14-4.25-21-6.17-34.24-7.33-68.76-5.82-103.44C369.56,368.23,369.94,361.29,370.32,353.76Zm168.74-71c1.49-.15,2.43-.19,3.36-.33,26.48-4,53-7.65,79.43-12.06,39.24-6.57,78.09-15,116-27.3,29.76-9.67,58.65-21.28,84.07-40,22.63-16.67,39.64-37.29,42.33-66.52,3.21-34.81-10.09-61.64-44-74.56-18.73-7.14-38.38-9.14-58.22-10.43-72.3-4.68-140.52,9.55-204.52,43.56-10,5.31-19.56,11.39-29.27,17.07C553.39,168,549.9,224.85,539.06,282.79ZM391.15,299.94l18-2q57.38-6.5,114.75-12.93c3.18-.35,4.65-1.64,5.46-4.86A321.83,321.83,0,0,0,539,213.72c.84-21.84-1.58-43.14-10.71-63.3a102.7,102.7,0,0,0-16.56-26.2C452,169.48,411.78,227.48,391.15,299.94ZM508.92,338c-11.26,1.29-21.56,2.48-31.86,3.65-30.63,3.5-61.26,7.08-91.92,10.39-3.51.38-4.67,1.66-5,4.91-3.41,34.74-3.84,69.41,3.06,103.8,2.14,10.68,5.41,21.14,8.4,32.62C441.55,449,481.06,398.59,508.92,338Z"/></g></g></svg>