<svg xmlns="http://www.w3.org/2000/svg" viewBox="0 0 369.61 600"><title>Asset 99</title><g id="Layer_2" data-name="Layer 2"><g id="Layer_1-2" data-name="Layer 1"><path d="M122.07,356.16c-3.64-1.77-6.88-3.48-10.24-4.93A177.24,177.24,0,0,1,44.21,300,179.62,179.62,0,0,1,6,218c-4.75-25.6-4.63-51,1.3-76.12,8.61-36.53,26.27-68.19,54.52-93.22A219.24,219.24,0,0,1,94.75,24.32,171.11,171.11,0,0,1,160.46,1.76c33.54-4.41,66-.61,97.22,12.33A181.73,181.73,0,0,1,362,129.51c9.13,30.86,9.83,62.12,3.36,93.38-4.19,20.26-12.49,39.25-21.71,57.78-8.14,16.36-16,32.89-24.29,49.17-8.13,15.92-16.81,31.56-25,47.43s-16,31.67-24.16,47.4c-5.3,10.2-11.09,20.14-16.46,30.3-8.3,15.72-16.42,31.55-24.66,47.3-8.72,16.66-17.14,33-27.82,53-9.87,18.49-18.26,33.83-24.3,44.77L0,599.65c3.05-6.52,7.45-15.84,12.87-27,3.41-7,14.13-28.29,28.85-57.12,5.69-11.14,11.75-22.09,17.4-33.26,5.33-10.54,10.25-21.3,15.51-31.87,7.31-14.7,14.79-29.3,22.17-44C105.15,389.87,113.47,373.26,122.07,356.16Zm62.69-133.07c21.81.68,40-17,40.65-39.27.72-23.06-18-41.17-40-41.6a41,41,0,0,0-41.42,39.44C143.21,204.33,161,222.35,184.76,223.09Z"/></g></g></svg>