<svg xmlns="http://www.w3.org/2000/svg" viewBox="0 0 458.05 600"><title>Asset 102</title><g id="Layer_2" data-name="Layer 2"><g id="Layer_1-2" data-name="Layer 1"><path d="M458,413.23c-.35,19.32-1.87,55.24-21,94-13.93,28.17-34.49,50.55-61.9,66.5-19.78,11.51-41.2,17.55-63.48,22-21.86,4.35-43.8,3.47-65.77,3.8s-44.06-.23-66.1.3c-19.78.48-39.6-.19-59.4-.26-17.13-.07-34.29.64-51.38-.16-20.35-1-40.67.35-61-.2C1,599,0,598.55,0,591.65q-.08-53.05,0-106.11c0-18.44,0-36.88,0-55.33,0-7.6.34-7.94,7.86-7.94q111,0,222.09,0c11.83,0,23.65,0,35.47-.11,10.66-.11,17.9-7.48,17.82-17.93-.08-9.93-7.05-16.18-18-16.18q-74.2,0-148.41-.07c-36.92,0-73.84-.06-110.75.1-5.38,0-5.14-3.38-5.14-6.8,0-15.76.05-31.53.05-47.29Q1,245.85,1,157.7q0-72,.16-144.07a9.63,9.63,0,0,0,0-1.07C-.17,1.56-1.84,0,13.8.06,52.68.3,91.57.16,130.45.13c25.8,0,51.6-.16,77.4-.12,35.47,0,70.93.32,106.4.33,31.51,0,63-.2,94.54-.34,7.57,0,8.45.68,8.44,8,0,27.38-.14,54.77-.16,82.16s-.05,54.81.2,82.22c0,5.1-2.89,5-6.23,5q-31.74,0-63.48,0L184,177.3c-8,0-8.29.27-8.39,8-.09,6.45.14,12.91-.08,19.35-.16,4.57,1.47,6.37,6.22,6.35,30.29-.14,60.58-.19,90.86,0,31.75.21,62.34,6.12,91,20.24,30.38,15,53.42,37.59,69.7,67.45,17.56,32.21,21.12,62.17,23.32,83.62A262.11,262.11,0,0,1,458,413.23Z"/></g></g></svg>