<svg xmlns="http://www.w3.org/2000/svg" viewBox="0 0 562.28 600"><title>Asset 11</title><g id="Layer_2" data-name="Layer 2"><g id="Layer_1-2" data-name="Layer 1"><path d="M219.39,383.66c5.83,3.14,9.22,3.94,13.61,3.91q19.53.6,39.08,0c23.62-.81,27.16-4.4,27.4-27.4.28-26.92.35-53.85.38-80.77.06-47.78-.22-95.56.14-143.33.2-27.31,6.63-53.26,20-77.24C341.51,20.35,375.92,3.19,418.4.48c12.92-.83,26.09.18,39,1.64C496.65,6.55,524.91,27.28,543.09,62c12.73,24.34,18.66,50.64,18.77,77.78.43,107.72.85,215.44-.48,323.15-.26,21.17-5.75,43.22-13.31,63.17-13.73,36.21-40.58,59.94-79,69-32.06,7.55-64.08,6.8-94.56-5.74-41.56-17.11-61.5-52.06-70.43-93.84-3.41-16-3-32.77-4.16-49.21-.47-6.92.23-14-.61-20.8-1.13-9.19-5.88-14.07-15.11-15.25-7.72-1-15.6-.84-23.41-.84-46,0-92.08.2-138.12,0-37.9-.15-69.4-14.63-92.94-44.47C16,347.65,9.1,326.84,4.85,305.42A214.24,214.24,0,0,1,.67,266.63C.16,224.94-.67,183.19,1,141.56A228.37,228.37,0,0,1,11.88,80.34C25.63,38.39,54.85,12,98.94,3.22a166.15,166.15,0,0,1,72.39,1.63c53.37,13,78.87,51.69,87.61,102,4.85,28,3.91,57.05,4.6,85.64.61,25.17-.07,50.37-.34,75.56-.34,31-7.93,60.21-23.32,87.09C234.39,364.75,227,373.22,219.39,383.66Z"/></g></g></svg>