<svg xmlns="http://www.w3.org/2000/svg" viewBox="0 0 194.37 168.21"><defs><style>.cls-1{fill:#1e1e1c;}</style></defs><title>c00</title><g id="Layer_2" data-name="Layer 2"><g id="Layer_1-2" data-name="Layer 1"><g id="Layer_2-2" data-name="Layer 2"><g id="Layer_1-2-2" data-name="Layer 1-2"><path class="cls-1" d="M81,60.34a.51.51,0,0,0-.3-.07H75.55l5.58-9.59a.48.48,0,0,0-.19-.66.48.48,0,0,0-.23-.07H62V70.61l3.66,0h9.9L81.16,61A.49.49,0,0,0,81,60.34ZM63,51h8l-4.84,8.32H63Zm3.25,18.62L63,69.6V60.27h8.66Z"/></g></g><g id="Layer_2-3" data-name="Layer 2"><g id="Layer_1-2-3" data-name="Layer 1-2"><path class="cls-1" d="M104.69,60,99,50.22a.48.48,0,0,0-.42-.25H88.94L84.18,60.29,89,70.59h9.61a.5.5,0,0,0,.43-.24l5.7-9.82A.48.48,0,0,0,104.69,60ZM89.56,69.53l-4.27-9.24,4.28-9.24,5.37,9.24Z"/></g></g><g id="Layer_2-4" data-name="Layer 2"><g id="Layer_1-2-4" data-name="Layer 1-2"><path class="cls-1" d="M132.34,60.38l-6.11,10.29h-8.67a.48.48,0,0,1-.26.06h-8.25a.71.71,0,0,1-.71-.72.73.73,0,0,1,.09-.35l5.18-8.9a.75.75,0,0,0,0-.71l-5.18-8.92a.71.71,0,0,1,.27-1,.74.74,0,0,1,.35-.1h8.29a.75.75,0,0,1,.58.35l5.59,9.6a.75.75,0,0,1,0,.71l-5.17,8.94h7.35l5.49-9.3-5.84-10.55h1Z"/></g></g><g id="Layer_2-5" data-name="Layer 2"><g id="Layer_1-2-5" data-name="Layer 1-2"><path class="cls-1" d="M79,102.57v1H59.28a.51.51,0,0,1-.51-.49.59.59,0,0,1,.07-.26l5.56-9.56-5.56-9.58A.49.49,0,0,1,59,83a.5.5,0,0,1,.26-.08H68a.5.5,0,0,1,.43.25L74.16,93a.48.48,0,0,1,0,.49l-5.27,9.07Z"/></g></g><g id="Layer_2-6" data-name="Layer 2"><g id="Layer_1-2-6" data-name="Layer 1-2"><path class="cls-1" d="M100.77,102.94,95.06,83.3a.49.49,0,0,0-.48-.36H85.05l-4.13,20.62h1l1.29-6.4h6l1.76,6a.5.5,0,0,0,.48.36h8.86l.13,0A.5.5,0,0,0,100.77,102.94ZM83.4,96.17,85.65,85,88.9,96.17Z"/></g></g><g id="Layer_2-7" data-name="Layer 2"><g id="Layer_1-2-7" data-name="Layer 1-2"><path class="cls-1" d="M135.54,93.51l-5.71,9.81a.52.52,0,0,1-.43.25h-9.79V94.94l-4.85,8.38a.53.53,0,0,1-.44.25h-8.73a.52.52,0,0,1-.51-.52.42.42,0,0,1,.07-.24l5.56-9.55-5.56-9.56a.5.5,0,0,1,.44-.76h8.73a.51.51,0,0,1,.44.25l5.85,10.07v8.89l5.18-8.89-5.56-9.56a.49.49,0,0,1,.43-.76h8.74a.5.5,0,0,1,.43.25L135.54,93A.53.53,0,0,1,135.54,93.51Z"/></g></g><g id="Layer_2-8" data-name="Layer 2"><g id="Layer_1-2-8" data-name="Layer 1-2"><path class="cls-1" d="M86,125.71l-6.55,10.81H69.83a.47.47,0,0,1-.43-.25l-5.71-9.81a.48.48,0,0,1,0-.49l5.71-9.83a.53.53,0,0,1,.44-.25H83.21v1H78.87l-5.42,9.32,5.43,9.33,5.35-8.83H78.56v-1Z"/><polygon class="cls-1" points="79.45 136.52 79.43 136.55 79.38 136.52 79.45 136.52"/></g></g><g id="Layer_2-9" data-name="Layer 2"><g id="Layer_1-2-9" data-name="Layer 1-2"><path class="cls-1" d="M107.78,115.9v1H103l-5.13,8.82h5.71v1H97.9l5.13,8.82h4.75v1H94a.53.53,0,0,1-.47-.27l-5.7-9.79a.52.52,0,0,1,0-.51l5.73-9.85a.49.49,0,0,1,.39-.22Z"/></g></g><g id="Layer_2-10" data-name="Layer 2"><g id="Layer_1-2-10" data-name="Layer 1-2"><path class="cls-1" d="M130.68,135.79l-5.57-9.57,5.56-9.56a.51.51,0,0,0-.43-.76h-17.3v20.64h1v-9.82h1.56l5.56,9.57a.5.5,0,0,0,.43.25h8.76a.49.49,0,0,0,.49-.5A.54.54,0,0,0,130.68,135.79ZM113.94,116.9h6.69l-5.13,8.82h-1.56Z"/></g></g><g id="Layer_2-11" data-name="Layer 2"><g id="Layer_1-2-11" data-name="Layer 1-2"><path class="cls-1" d="M53.78,16.91,44.87,32.24a.79.79,0,0,1-.68.38H30.5a.76.76,0,0,1-.65-1.16l8.69-15L30.72,3.06V16.49a.31.31,0,0,1-.3.32.33.33,0,0,1-.23-.09L17.69,4.83,24,15.77a.78.78,0,0,1,0,.78l-8.9,15.33a.82.82,0,0,1-.69.39H.81a.79.79,0,0,1-.79-.8.87.87,0,0,1,.1-.39L8.81,16.16l-8.7-15a.76.76,0,0,1,.27-1A.71.71,0,0,1,.78,0H14.84L29.1,13.57V.38H43.76A1.56,1.56,0,0,1,45,1.11l8.7,15A.84.84,0,0,1,53.78,16.91Z"/></g></g><g id="Layer_2-12" data-name="Layer 2"><g id="Layer_1-2-12" data-name="Layer 1-2"><path class="cls-1" d="M88.18,31.44,79.26.75a.78.78,0,0,0-.75-.56H63.61L57.16,32.43h1.53l2-10h9.37l2.76,9.44a.79.79,0,0,0,.75.56H87.43l.21,0A.78.78,0,0,0,88.18,31.44ZM61,20.86,64.55,3.42l5.08,17.44Z"/></g></g><g id="Layer_2-13" data-name="Layer 2"><g id="Layer_1-2-13" data-name="Layer 1-2"><path class="cls-1" d="M124,31.26l-8.7-15L124,1.37a.8.8,0,0,0-.26-1.08.88.88,0,0,0-.42-.11h-27V32.44h1.56V17.09h2.44l8.69,15a.82.82,0,0,0,.67.39h13.69a.78.78,0,0,0,.67-1.18ZM97.85,1.74h10.46l-8,13.79H97.85Z"/></g></g><g id="Layer_2-14" data-name="Layer 2"><g id="Layer_1-2-14" data-name="Layer 1-2"><path class="cls-1" d="M156.72,31.26a.77.77,0,0,1-.29,1.06.76.76,0,0,1-.38.11H133.2V30.87H141l-8.23-14.16a.76.76,0,0,1,0-.77L141,1.75h-6.44V.19h21.52a.79.79,0,0,1,.79.8.87.87,0,0,1-.1.39L148,16.32Z"/></g></g><g id="Layer_2-15" data-name="Layer 2"><g id="Layer_1-2-15" data-name="Layer 1-2"><path class="cls-1" d="M194.37.18V1.74H187l-8,13.79h8.92v1.56h-8.92l8,13.78h7.42v1.57H172.86a.88.88,0,0,1-.73-.43l-8.91-15.3a.8.8,0,0,1,0-.79l9-15.4a.72.72,0,0,1,.61-.34Z"/></g></g><g id="Layer_2-16" data-name="Layer 2"><g id="Layer_1-2-16" data-name="Layer 1-2"><path class="cls-1" d="M95.36,160.62l-4.1-7.06a.35.35,0,0,0-.3-.17H84l-3.42,7.4,3.43,7.39h7.11l4.2-7.23A.33.33,0,0,0,95.36,160.62Zm-14,.18,3.08-6.64,1.87,3.21-3.42,6.74Zm6.84.18-3.76,6.46-1.17-2.53h0l3.44-6.81,1.57,2.69h.2A.34.34,0,0,0,88.25,161Z"/></g></g><g id="Layer_2-17" data-name="Layer 2"><g id="Layer_1-2-17" data-name="Layer 1-2"><path class="cls-1" d="M78.31,161l-3.79,6.51H78.3v.72H67.64a.35.35,0,0,1-.36-.34.32.32,0,0,1,0-.19l4-6.88-3.9-6.66L64.24,161l-.65-.31,3.4-7.28H73.9a.36.36,0,0,1,.31.17l4.1,7.06A.33.33,0,0,1,78.31,161Z"/></g></g><g id="Layer_2-18" data-name="Layer 2"><g id="Layer_1-2-18" data-name="Layer 1-2"><path class="cls-1" d="M113.05,161l-3.79,6.51H113v.72H102.38a.35.35,0,0,1-.36-.34.32.32,0,0,1,0-.19l4-6.88-3.9-6.66L99,161l-.65-.31,3.4-7.28h6.91a.36.36,0,0,1,.31.17l4.1,7.06A.33.33,0,0,1,113.05,161Z"/></g></g><g id="Layer_2-19" data-name="Layer 2"><g id="Layer_1-2-19" data-name="Layer 1-2"><path class="cls-1" d="M130.76,167.76l-4.11-14.12a.35.35,0,0,0-.34-.25h-6.85l-3.63,7.87h5.92l2,6.69a.34.34,0,0,0,.34.26h6.49A.35.35,0,0,0,130.76,167.76ZM117,160.54l2.82-6.07,1.76,6.07Z"/></g></g></g></g></svg>