<svg xmlns="http://www.w3.org/2000/svg" viewBox="0 0 219.28 123.54"><defs><style>.cls-1{fill:#1e1e1c;}</style></defs><title>c02</title><g id="Layer_2" data-name="Layer 2"><g id="Layer_1-2" data-name="Layer 1"><g id="Layer_2-2" data-name="Layer 2"><g id="Layer_1-2-2" data-name="Layer 1-2"><path class="cls-1" d="M19,65.32a.51.51,0,0,0-.3-.07H13.52l5.58-9.59a.48.48,0,0,0-.19-.66.48.48,0,0,0-.23-.07H0V75.59l3.66,0h9.9L19.13,66A.49.49,0,0,0,19,65.32ZM1,55.93H9L4.2,64.25H1ZM4.25,74.55,1,74.58V65.25H9.66Z"/></g></g><g id="Layer_2-3" data-name="Layer 2"><g id="Layer_1-2-3" data-name="Layer 1-2"><path class="cls-1" d="M42.67,65,37,55.2a.5.5,0,0,0-.42-.25H26.92L22.16,65.27l4.77,10.3h9.61a.52.52,0,0,0,.43-.24l5.7-9.82A.53.53,0,0,0,42.67,65ZM27.54,74.51l-4.27-9.24L27.55,56l5.37,9.24Z"/></g></g><g id="Layer_2-4" data-name="Layer 2"><g id="Layer_1-2-4" data-name="Layer 1-2"><path class="cls-1" d="M70.32,65.37,64.21,75.66H55.54a.62.62,0,0,1-.26.06H47a.73.73,0,0,1-.72-.73.79.79,0,0,1,.1-.34l5.18-8.9a.81.81,0,0,0,0-.71l-5.18-8.92a.7.7,0,0,1,.26-1,.74.74,0,0,1,.36-.09h8.29a.71.71,0,0,1,.58.35L61.49,65a.81.81,0,0,1,0,.71l-5.17,8.94h7.35l5.49-9.3L63.32,54.81h1Z"/></g></g><g id="Layer_2-5" data-name="Layer 2"><g id="Layer_1-2-5" data-name="Layer 1-2"><path class="cls-1" d="M93,98.56v1H73.28a.5.5,0,0,1-.44-.75l5.56-9.56-5.56-9.58A.5.5,0,0,1,73,79a.41.41,0,0,1,.26-.07H82a.48.48,0,0,1,.43.25L88.16,89a.48.48,0,0,1,0,.49l-5.27,9.07Z"/></g></g><g id="Layer_2-6" data-name="Layer 2"><g id="Layer_1-2-6" data-name="Layer 1-2"><path class="cls-1" d="M114.77,98.92l-5.71-19.64a.49.49,0,0,0-.48-.36H99.05L94.92,99.55h1l1.29-6.4h6l1.76,6a.5.5,0,0,0,.48.36h8.86l.13,0A.5.5,0,0,0,114.77,98.92ZM97.4,92.15,99.65,81l3.25,11.16Z"/></g></g><g id="Layer_2-7" data-name="Layer 2"><g id="Layer_1-2-7" data-name="Layer 1-2"><path class="cls-1" d="M149.54,89.49l-5.71,9.81a.5.5,0,0,1-.43.25h-9.79V90.92l-4.85,8.38a.51.51,0,0,1-.44.25h-8.73a.51.51,0,0,1-.51-.51.45.45,0,0,1,.07-.25l5.56-9.55-5.56-9.56a.5.5,0,0,1,.19-.69.43.43,0,0,1,.25-.07h8.73a.53.53,0,0,1,.44.25l5.85,10.07v8.89l5.18-8.89-5.56-9.56a.5.5,0,0,1,.16-.69.5.5,0,0,1,.27-.07h8.74a.52.52,0,0,1,.43.25L149.54,89A.53.53,0,0,1,149.54,89.49Z"/></g></g><g id="Layer_2-8" data-name="Layer 2"><g id="Layer_1-2-8" data-name="Layer 1-2"><path class="cls-1" d="M174.54,112.7,168,123.51h-9.62a.5.5,0,0,1-.43-.25l-5.71-9.81a.48.48,0,0,1,0-.49l5.71-9.83a.5.5,0,0,1,.44-.25h13.37v1h-4.34L162,113.2l5.43,9.33,5.35-8.83H167.1v-1Z"/><polygon class="cls-1" points="167.99 123.51 167.97 123.54 167.92 123.51 167.99 123.51"/></g></g><g id="Layer_2-9" data-name="Layer 2"><g id="Layer_1-2-9" data-name="Layer 1-2"><path class="cls-1" d="M196.32,102.89v1h-4.75l-5.13,8.82h5.71v1h-5.71l5.13,8.82h4.75v1H182.56a.54.54,0,0,1-.47-.27l-5.7-9.79a.52.52,0,0,1,0-.51l5.73-9.85a.44.44,0,0,1,.39-.22Z"/></g></g><g id="Layer_2-10" data-name="Layer 2"><g id="Layer_1-2-10" data-name="Layer 1-2"><path class="cls-1" d="M219.22,122.78l-5.57-9.57,5.56-9.56A.51.51,0,0,0,219,103a.48.48,0,0,0-.26-.07h-17.3v20.64h1v-9.82H204l5.56,9.57a.53.53,0,0,0,.43.25h8.76a.51.51,0,0,0,.49-.51A.5.5,0,0,0,219.22,122.78Zm-16.74-18.89h6.69L204,112.71h-1.56Z"/></g></g><g id="Layer_2-11" data-name="Layer 2"><g id="Layer_1-2-11" data-name="Layer 1-2"><path class="cls-1" d="M60.67,19.08,50.62,36.37a.88.88,0,0,1-.76.43H34.41a.87.87,0,0,1-.86-.87,1,1,0,0,1,.12-.44l9.81-16.87L34.66,3.46V18.6a.35.35,0,0,1-.34.37.4.4,0,0,1-.26-.1L20,5.45l7.15,12.34a.87.87,0,0,1,0,.88L17.06,36a.89.89,0,0,1-.77.44H.91A.91.91,0,0,1,0,35.5a.82.82,0,0,1,.12-.43l9.8-16.84L.12,1.3A.86.86,0,0,1,.42.12.93.93,0,0,1,.88,0H16.75L32.83,15.3V.42H49.37a1.76,1.76,0,0,1,1.44.83l9.82,16.93A.93.93,0,0,1,60.67,19.08Z"/></g></g><g id="Layer_2-12" data-name="Layer 2"><g id="Layer_1-2-12" data-name="Layer 1-2"><path class="cls-1" d="M99.49,35.47,89.42.85a.88.88,0,0,0-.85-.64H71.77v0L64.49,36.59h1.72L68.49,25.3H79.07L82.17,36a.9.9,0,0,0,.85.64H98.64a.93.93,0,0,0,.23,0A.89.89,0,0,0,99.49,35.47ZM68.86,23.54l4-19.68,5.73,19.68Z"/></g></g><g id="Layer_2-13" data-name="Layer 2"><g id="Layer_1-2-13" data-name="Layer 1-2"><path class="cls-1" d="M139.91,35.27,130.09,18.4l9.8-16.86A.89.89,0,0,0,139.6.33a1,1,0,0,0-.47-.13h-30.5V36.59h1.76V19.28h2.75L123,36.15a.87.87,0,0,0,.75.44h15.45a.88.88,0,0,0,.88-.88A1.07,1.07,0,0,0,139.91,35.27ZM110.39,2h11.8l-9,15.55h-2.75Z"/></g></g><g id="Layer_2-14" data-name="Layer 2"><g id="Layer_1-2-14" data-name="Layer 1-2"><path class="cls-1" d="M176.81,35.26a.9.9,0,0,1-.33,1.21,1.06,1.06,0,0,1-.43.12H150.27V34.82h8.82l-9.3-16a.9.9,0,0,1,0-.87L159.1,2h-7.26V.21h24.28a.91.91,0,0,1,.89.91.82.82,0,0,1-.12.43L167,18.41Z"/></g></g><g id="Layer_2-15" data-name="Layer 2"><g id="Layer_1-2-15" data-name="Layer 1-2"><path class="cls-1" d="M219.28.2V2h-8.37l-9,15.55h10.07v1.76H201.86l9,15.55h8.37v1.76H195a1,1,0,0,1-.83-.47L184.14,18.86a1,1,0,0,1,0-.9L194.25.59a.81.81,0,0,1,.68-.39Z"/></g></g><g id="Layer_2-16" data-name="Layer 2"><g id="Layer_1-2-16" data-name="Layer 1-2"><path class="cls-1" d="M193.29,51.37l-3-5.19a.25.25,0,0,0-.22-.13H185l-2.52,5.44L185,56.92h5.22l3.09-5.31A.3.3,0,0,0,193.29,51.37Zm-10.24.13,2.25-4.88L186.67,49l-2.5,5Zm5,.13-2.76,4.74-.86-1.85h0l2.53-5,1.15,2h.14A.26.26,0,0,0,188.06,51.63Z"/></g></g><g id="Layer_2-17" data-name="Layer 2"><g id="Layer_1-2-17" data-name="Layer 1-2"><path class="cls-1" d="M180.77,51.63,178,56.41h2.77v.53h-7.83a.26.26,0,0,1-.26-.26.22.22,0,0,1,0-.13l2.94-5-2.87-4.89-2.34,5L170,51.4l2.5-5.35h5.07a.25.25,0,0,1,.23.14l3,5.18A.24.24,0,0,1,180.77,51.63Z"/></g></g><g id="Layer_2-18" data-name="Layer 2"><g id="Layer_1-2-18" data-name="Layer 1-2"><path class="cls-1" d="M206.27,51.63l-2.78,4.78h2.77v.53h-7.82a.26.26,0,0,1-.27-.26.22.22,0,0,1,0-.13l2.94-5-2.87-4.89-2.34,5-.47-.23L198,46.05H203a.25.25,0,0,1,.23.14l3,5.18A.24.24,0,0,1,206.27,51.63Z"/></g></g><g id="Layer_2-19" data-name="Layer 2"><g id="Layer_1-2-19" data-name="Layer 1-2"><path class="cls-1" d="M219.27,56.61l-3-10.37a.26.26,0,0,0-.24-.19h-5l-2.67,5.78h4.35l1.42,4.92a.28.28,0,0,0,.26.19h4.76A.26.26,0,0,0,219.27,56.61ZM209.14,51.3l2.07-4.45,1.29,4.45Z"/></g></g></g></g></svg>