<svg xmlns="http://www.w3.org/2000/svg" viewBox="0 0 220.06 85.8"><defs><style>.cls-1{fill:#1e1e1c;}</style></defs><title>c05</title><g id="Layer_2" data-name="Layer 2"><g id="Layer_1-2" data-name="Layer 1"><g id="Layer_2-2" data-name="Layer 2"><g id="Layer_1-2-2" data-name="Layer 1-2"><path class="cls-1" d="M70.87,38.24l-8,13.83a.72.72,0,0,1-.61.34H49.88a.71.71,0,0,1-.69-.7.74.74,0,0,1,.1-.35l7.84-13.49L50.08,25.75V37.86a.29.29,0,0,1-.27.29.3.3,0,0,1-.21-.08L38.32,27.34,44,37.21a.68.68,0,0,1,0,.7L36,51.74a.72.72,0,0,1-.62.35H23.1a.72.72,0,0,1-.72-.72.86.86,0,0,1,.09-.35l7.84-13.46L22.46,24a.7.7,0,0,1,.24-1,.69.69,0,0,1,.37-.1H35.75L48.61,35.22V23.32H61.84A1.42,1.42,0,0,1,63,24l7.85,13.54A.71.71,0,0,1,70.87,38.24Z"/></g></g><g id="Layer_2-3" data-name="Layer 2"><g id="Layer_1-2-3" data-name="Layer 1-2"><path class="cls-1" d="M101.91,51.35l-8-27.69a.7.7,0,0,0-.68-.51H79.75v0L73.93,52.24h1.38l1.82-9h8.45l2.48,8.52a.73.73,0,0,0,.68.51h12.49l.19,0A.7.7,0,0,0,101.91,51.35ZM77.42,41.8l3.17-15.73L85.18,41.8Z"/></g></g><g id="Layer_2-4" data-name="Layer 2"><g id="Layer_1-2-4" data-name="Layer 1-2"><path class="cls-1" d="M134.23,51.19l-7.85-13.5,7.83-13.47a.7.7,0,0,0-.23-1,.61.61,0,0,0-.37-.1H109.22V52.24h1.41V38.4h2.2l7.84,13.49a.71.71,0,0,0,.6.35h12.35a.7.7,0,0,0,.7-.71A.67.67,0,0,0,134.23,51.19Zm-23.6-26.63h9.43L112.83,37h-2.2Z"/></g></g><g id="Layer_2-5" data-name="Layer 2"><g id="Layer_1-2-5" data-name="Layer 1-2"><path class="cls-1" d="M163.73,51.18a.69.69,0,0,1-.26,1,.67.67,0,0,1-.34.1H142.51V50.83h7.05l-7.43-12.78a.71.71,0,0,1,0-.69l7.45-12.8h-5.81V23.15h19.41a.72.72,0,0,1,.71.73.67.67,0,0,1-.09.34L155.91,37.7Z"/></g></g><g id="Layer_2-6" data-name="Layer 2"><g id="Layer_1-2-6" data-name="Layer 1-2"><path class="cls-1" d="M197.69,23.15v1.41H191L183.77,37h8V38.4h-8L191,50.83h6.69v1.41H178.3a.76.76,0,0,1-.67-.38l-8-13.8a.71.71,0,0,1,0-.72l8.08-13.88a.63.63,0,0,1,.55-.31Z"/></g></g><g id="Layer_2-7" data-name="Layer 2"><g id="Layer_1-2-7" data-name="Layer 1-2"><path class="cls-1" d="M19,75.4a.51.51,0,0,0-.3-.07H13.52l5.58-9.59a.48.48,0,0,0-.19-.66.48.48,0,0,0-.23-.07H0V85.67l3.66,0h9.9l5.57-9.57A.49.49,0,0,0,19,75.4ZM1,66H9L4.2,74.33H1ZM4.25,84.63,1,84.66V75.33H9.66Z"/></g></g><g id="Layer_2-8" data-name="Layer 2"><g id="Layer_1-2-8" data-name="Layer 1-2"><path class="cls-1" d="M42.67,75.1,37,65.28a.5.5,0,0,0-.42-.25H26.92L22.16,75.35l4.77,10.3h9.61a.52.52,0,0,0,.43-.24l5.7-9.82A.53.53,0,0,0,42.67,75.1ZM27.54,84.59l-4.27-9.24,4.28-9.24,5.37,9.24Z"/></g></g><g id="Layer_2-9" data-name="Layer 2"><g id="Layer_1-2-9" data-name="Layer 1-2"><path class="cls-1" d="M70.32,75.45,64.21,85.74H55.54a.62.62,0,0,1-.26.06H47a.74.74,0,0,1-.72-.73.79.79,0,0,1,.1-.34l5.18-8.9a.8.8,0,0,0,0-.71L46.41,66.2a.7.7,0,0,1,.26-1,.64.64,0,0,1,.36-.09h8.29a.71.71,0,0,1,.58.35l5.59,9.6a.8.8,0,0,1,0,.71l-5.17,8.94h7.35l5.49-9.3L63.32,64.89h1Z"/></g></g><g id="Layer_2-10" data-name="Layer 2"><g id="Layer_1-2-10" data-name="Layer 1-2"><path class="cls-1" d="M93.72,84.66v1H74a.5.5,0,0,1-.5-.49.58.58,0,0,1,.06-.26l5.56-9.56-5.56-9.58a.5.5,0,0,1,.16-.68A.59.59,0,0,1,74,65h8.76a.49.49,0,0,1,.43.25l5.71,9.83a.48.48,0,0,1,0,.49l-5.27,9.07Z"/></g></g><g id="Layer_2-11" data-name="Layer 2"><g id="Layer_1-2-11" data-name="Layer 1-2"><path class="cls-1" d="M115.48,85l-5.71-19.64a.49.49,0,0,0-.48-.36H99.76L95.63,85.66h1l1.29-6.4h6l1.76,6a.5.5,0,0,0,.48.36H115l.13,0A.5.5,0,0,0,115.48,85ZM98.11,78.26l2.25-11.16,3.25,11.16Z"/></g></g><g id="Layer_2-12" data-name="Layer 2"><g id="Layer_1-2-12" data-name="Layer 1-2"><path class="cls-1" d="M150.24,75.6l-5.71,9.81a.5.5,0,0,1-.43.25h-9.79V77l-4.85,8.38a.52.52,0,0,1-.44.25h-8.73a.53.53,0,0,1-.51-.52.48.48,0,0,1,.07-.24l5.56-9.55-5.56-9.56a.52.52,0,0,1,.19-.7.54.54,0,0,1,.25-.06H129a.51.51,0,0,1,.44.25l5.85,10.07v8.89l5.18-8.89-5.56-9.56a.5.5,0,0,1,.16-.69.42.42,0,0,1,.27-.07h8.74a.48.48,0,0,1,.43.25l5.71,9.83A.48.48,0,0,1,150.24,75.6Z"/></g></g><g id="Layer_2-13" data-name="Layer 2"><g id="Layer_1-2-13" data-name="Layer 1-2"><path class="cls-1" d="M175.32,74.83l-6.55,10.81h-9.62a.47.47,0,0,1-.43-.25L153,75.58a.48.48,0,0,1,0-.49l5.71-9.83a.52.52,0,0,1,.44-.25h13.37v1h-4.34l-5.42,9.32,5.43,9.33,5.35-8.83h-5.67v-1Z"/><polygon class="cls-1" points="168.77 85.64 168.75 85.67 168.7 85.64 168.77 85.64"/></g></g><g id="Layer_2-14" data-name="Layer 2"><g id="Layer_1-2-14" data-name="Layer 1-2"><path class="cls-1" d="M197.09,65v1h-4.75l-5.13,8.82h5.71v1h-5.71l5.13,8.82h4.75v1H183.33a.55.55,0,0,1-.47-.27l-5.7-9.79a.52.52,0,0,1,0-.51l5.73-9.85a.48.48,0,0,1,.39-.22Z"/></g></g><g id="Layer_2-15" data-name="Layer 2"><g id="Layer_1-2-15" data-name="Layer 1-2"><path class="cls-1" d="M220,84.91l-5.57-9.57L220,65.78a.5.5,0,0,0-.17-.69.59.59,0,0,0-.26-.07h-17.3V85.66h1V75.84h1.56l5.56,9.57a.5.5,0,0,0,.43.25h8.76a.5.5,0,0,0,.5-.5A.55.55,0,0,0,220,84.91ZM203.25,66h6.69l-5.13,8.82h-1.56Z"/></g></g><g id="Layer_2-16" data-name="Layer 2"><g id="Layer_1-2-16" data-name="Layer 1-2"><path class="cls-1" d="M108.69,5.31l-3-5.18a.26.26,0,0,0-.22-.13h-5.08L97.87,5.44l2.52,5.43h5.21l3.09-5.3A.26.26,0,0,0,108.69,5.31Zm-10.24.13L100.71.57l1.37,2.36L99.57,7.87Zm5,.13-2.76,4.74-.86-1.85h0l2.53-5,1.15,2h.15A.25.25,0,0,0,103.47,5.57Z"/></g></g><g id="Layer_2-17" data-name="Layer 2"><g id="Layer_1-2-17" data-name="Layer 1-2"><path class="cls-1" d="M96.18,5.58l-2.79,4.78h2.77v.52H88.34a.26.26,0,0,1-.26-.25.35.35,0,0,1,0-.14l2.94-5L88.19.55l-2.34,5-.48-.22L87.87,0h5.07a.28.28,0,0,1,.23.13l3,5.18A.32.32,0,0,1,96.18,5.58Z"/></g></g><g id="Layer_2-18" data-name="Layer 2"><g id="Layer_1-2-18" data-name="Layer 1-2"><path class="cls-1" d="M121.68,5.58l-2.78,4.78h2.77v.52h-7.83a.26.26,0,0,1-.26-.25.35.35,0,0,1,0-.14l2.94-5L113.69.55l-2.34,5-.48-.22L113.37,0h5.07a.28.28,0,0,1,.23.13l3,5.18A.32.32,0,0,1,121.68,5.58Z"/></g></g><g id="Layer_2-19" data-name="Layer 2"><g id="Layer_1-2-19" data-name="Layer 1-2"><path class="cls-1" d="M134.68,10.55l-3-10.37a.25.25,0,0,0-.25-.18h-5l-2.66,5.78h4.34l1.43,4.91a.26.26,0,0,0,.25.19h4.76A.25.25,0,0,0,134.68,10.55Zm-10.13-5.3L126.62.8l1.29,4.45Z"/></g></g></g></g></svg>