<svg xmlns="http://www.w3.org/2000/svg" viewBox="0 0 194.37 136.55"><defs><style>.cls-1{fill:#1e1e1c;}</style></defs><title>c06</title><g id="Layer_2" data-name="Layer 2"><g id="Layer_1-2" data-name="Layer 1"><g id="Layer_2-2" data-name="Layer 2"><g id="Layer_1-2-2" data-name="Layer 1-2"><path class="cls-1" d="M143,60.34a.51.51,0,0,0-.3-.07h-5.14l5.58-9.59A.48.48,0,0,0,143,50a.48.48,0,0,0-.23-.07H124.05V70.61l3.66,0h9.9L143.18,61A.49.49,0,0,0,143,60.34Zm-18-9.39h8l-4.84,8.32h-3.2Zm3.25,18.62-3.25,0V60.27h8.66Z"/></g></g><g id="Layer_2-3" data-name="Layer 2"><g id="Layer_1-2-3" data-name="Layer 1-2"><path class="cls-1" d="M166.72,60,161,50.22a.48.48,0,0,0-.42-.25H151l-4.76,10.32L151,70.59h9.61a.5.5,0,0,0,.43-.24l5.7-9.82A.5.5,0,0,0,166.72,60Zm-15.13,9.49-4.27-9.24,4.28-9.24L157,60.29Z"/></g></g><g id="Layer_2-4" data-name="Layer 2"><g id="Layer_1-2-4" data-name="Layer 1-2"><path class="cls-1" d="M194.37,60.38l-6.11,10.29h-8.67a.48.48,0,0,1-.26.06h-8.25a.71.71,0,0,1-.71-.72.73.73,0,0,1,.09-.35l5.18-8.9a.75.75,0,0,0,0-.71l-5.18-8.92a.72.72,0,0,1,.62-1.06h8.29a.75.75,0,0,1,.58.35l5.59,9.6a.75.75,0,0,1,0,.71l-5.17,8.94h7.35l5.49-9.3-5.84-10.55h1Z"/></g></g><g id="Layer_2-5" data-name="Layer 2"><g id="Layer_1-2-5" data-name="Layer 1-2"><path class="cls-1" d="M137.79,102.57v1H118.05a.5.5,0,0,1-.51-.49.48.48,0,0,1,.07-.26l5.56-9.56-5.56-9.58a.48.48,0,0,1,.15-.67.5.5,0,0,1,.27-.08h8.76a.5.5,0,0,1,.43.25L132.93,93a.48.48,0,0,1,0,.49l-5.27,9.07Z"/></g></g><g id="Layer_2-6" data-name="Layer 2"><g id="Layer_1-2-6" data-name="Layer 1-2"><path class="cls-1" d="M159.54,102.94,153.83,83.3a.49.49,0,0,0-.48-.36h-9.53l-4.13,20.62h1l1.29-6.4h6l1.76,6a.5.5,0,0,0,.48.36h8.86l.13,0A.5.5,0,0,0,159.54,102.94Zm-17.37-6.77L144.42,85l3.25,11.16Z"/></g></g><g id="Layer_2-7" data-name="Layer 2"><g id="Layer_1-2-7" data-name="Layer 1-2"><path class="cls-1" d="M194.3,93.51l-5.71,9.81a.49.49,0,0,1-.43.25h-9.79V94.94l-4.85,8.38a.52.52,0,0,1-.44.25h-8.73a.51.51,0,0,1-.5-.52.5.5,0,0,1,.06-.24l5.56-9.55-5.56-9.56a.51.51,0,0,1,.2-.7.5.5,0,0,1,.24-.06h8.73a.5.5,0,0,1,.44.25l5.85,10.07v8.89l5.18-8.89L179,83.7a.5.5,0,0,1,.17-.69.48.48,0,0,1,.26-.07h8.74a.48.48,0,0,1,.43.25L194.3,93A.48.48,0,0,1,194.3,93.51Z"/></g></g><g id="Layer_2-8" data-name="Layer 2"><g id="Layer_1-2-8" data-name="Layer 1-2"><path class="cls-1" d="M149.63,125.71l-6.55,10.81h-9.62a.46.46,0,0,1-.43-.25l-5.71-9.81a.48.48,0,0,1,0-.49l5.71-9.83a.52.52,0,0,1,.44-.25h13.37v1H142.5l-5.42,9.32,5.43,9.33,5.35-8.83h-5.67v-1Z"/><polygon class="cls-1" points="143.08 136.52 143.06 136.55 143.01 136.52 143.08 136.52"/></g></g><g id="Layer_2-9" data-name="Layer 2"><g id="Layer_1-2-9" data-name="Layer 1-2"><path class="cls-1" d="M171.4,115.9v1h-4.75l-5.13,8.82h5.71v1h-5.71l5.13,8.82h4.75v1H157.64a.55.55,0,0,1-.47-.27l-5.7-9.79a.52.52,0,0,1,0-.51l5.73-9.85a.51.51,0,0,1,.39-.22Z"/></g></g><g id="Layer_2-10" data-name="Layer 2"><g id="Layer_1-2-10" data-name="Layer 1-2"><path class="cls-1" d="M194.3,135.79l-5.57-9.57,5.56-9.56a.49.49,0,0,0-.16-.68.53.53,0,0,0-.27-.08h-17.3v20.64h1v-9.82h1.56l5.56,9.57a.52.52,0,0,0,.43.25h8.76a.5.5,0,0,0,.5-.5A.45.45,0,0,0,194.3,135.79ZM177.56,116.9h6.69l-5.13,8.82h-1.56Z"/></g></g><g id="Layer_2-11" data-name="Layer 2"><g id="Layer_1-2-11" data-name="Layer 1-2"><path class="cls-1" d="M53.78,16.91,44.87,32.24a.79.79,0,0,1-.68.38H30.5a.76.76,0,0,1-.65-1.16l8.69-15L30.72,3.06V16.49a.31.31,0,0,1-.3.32.33.33,0,0,1-.23-.09L17.69,4.83,24,15.77a.78.78,0,0,1,0,.78l-8.9,15.33a.82.82,0,0,1-.69.39H.81a.79.79,0,0,1-.79-.8.87.87,0,0,1,.1-.39L8.81,16.16l-8.7-15a.76.76,0,0,1,.27-1A.71.71,0,0,1,.78,0H14.84L29.1,13.57V.38H43.76A1.56,1.56,0,0,1,45,1.11l8.7,15A.84.84,0,0,1,53.78,16.91Z"/></g></g><g id="Layer_2-12" data-name="Layer 2"><g id="Layer_1-2-12" data-name="Layer 1-2"><path class="cls-1" d="M88.18,31.44,79.26.75a.78.78,0,0,0-.75-.56H63.61L57.16,32.43h1.53l2-10h9.37l2.76,9.44a.79.79,0,0,0,.75.56H87.43l.21,0A.78.78,0,0,0,88.18,31.44ZM61,20.86,64.55,3.42l5.08,17.44Z"/></g></g><g id="Layer_2-13" data-name="Layer 2"><g id="Layer_1-2-13" data-name="Layer 1-2"><path class="cls-1" d="M124,31.26l-8.7-15L124,1.37a.8.8,0,0,0-.26-1.08.88.88,0,0,0-.42-.11h-27V32.44h1.56V17.09h2.44l8.69,15a.82.82,0,0,0,.67.39h13.69a.78.78,0,0,0,.67-1.18ZM97.85,1.74h10.46l-8,13.79H97.85Z"/></g></g><g id="Layer_2-14" data-name="Layer 2"><g id="Layer_1-2-14" data-name="Layer 1-2"><path class="cls-1" d="M156.72,31.26a.77.77,0,0,1-.29,1.06.76.76,0,0,1-.38.11H133.2V30.87H141l-8.23-14.16a.76.76,0,0,1,0-.77L141,1.75h-6.44V.19h21.52a.79.79,0,0,1,.79.8.87.87,0,0,1-.1.39L148,16.32Z"/></g></g><g id="Layer_2-15" data-name="Layer 2"><g id="Layer_1-2-15" data-name="Layer 1-2"><path class="cls-1" d="M194.37.18V1.74H187l-8,13.79h8.92v1.56h-8.92l8,13.78h7.42v1.57H172.86a.88.88,0,0,1-.73-.43l-8.91-15.3a.8.8,0,0,1,0-.79l9-15.4a.72.72,0,0,1,.61-.34Z"/></g></g></g></g></svg>