<svg xmlns="http://www.w3.org/2000/svg" viewBox="0 0 194.37 136.55"><defs><style>.cls-1{fill:#1e1e1c;}</style></defs><title>c09</title><g id="Layer_2" data-name="Layer 2"><g id="Layer_1-2" data-name="Layer 1"><g id="Layer_2-2" data-name="Layer 2"><g id="Layer_1-2-2" data-name="Layer 1-2"><path class="cls-1" d="M19,60.34a.51.51,0,0,0-.3-.07H13.52l5.58-9.59a.48.48,0,0,0-.19-.66.48.48,0,0,0-.23-.07H0V70.61l3.66,0h9.9L19.13,61A.49.49,0,0,0,19,60.34ZM1,51H9L4.2,59.27H1ZM4.25,69.57,1,69.6V60.27H9.66Z"/></g></g><g id="Layer_2-3" data-name="Layer 2"><g id="Layer_1-2-3" data-name="Layer 1-2"><path class="cls-1" d="M42.67,60,37,50.22a.5.5,0,0,0-.42-.25H26.92L22.16,60.29l4.77,10.3h9.61a.52.52,0,0,0,.43-.24l5.7-9.82A.53.53,0,0,0,42.67,60ZM27.54,69.53l-4.27-9.24,4.28-9.24,5.37,9.24Z"/></g></g><g id="Layer_2-4" data-name="Layer 2"><g id="Layer_1-2-4" data-name="Layer 1-2"><path class="cls-1" d="M70.32,60.38,64.21,70.67H55.54a.5.5,0,0,1-.26.06H47a.72.72,0,0,1-.72-.72.88.88,0,0,1,.1-.35l5.18-8.9a.8.8,0,0,0,0-.71l-5.18-8.92a.69.69,0,0,1,.26-1,.75.75,0,0,1,.36-.1h8.29a.76.76,0,0,1,.58.35L61.49,60a.8.8,0,0,1,0,.71l-5.17,8.94h7.35l5.49-9.3L63.32,49.82h1Z"/></g></g><g id="Layer_2-5" data-name="Layer 2"><g id="Layer_1-2-5" data-name="Layer 1-2"><path class="cls-1" d="M20.25,102.57v1H.51a.49.49,0,0,1-.5-.49.58.58,0,0,1,.06-.26l5.56-9.56L.07,83.68A.49.49,0,0,1,.23,83a.5.5,0,0,1,.26-.08H9.25a.49.49,0,0,1,.43.25L15.39,93a.48.48,0,0,1,0,.49l-5.27,9.07Z"/></g></g><g id="Layer_2-6" data-name="Layer 2"><g id="Layer_1-2-6" data-name="Layer 1-2"><path class="cls-1" d="M42,102.94,36.3,83.3a.49.49,0,0,0-.48-.36H26.29l-4.13,20.62h1l1.29-6.4h6l1.76,6a.5.5,0,0,0,.48.36h8.86l.13,0A.5.5,0,0,0,42,102.94ZM24.64,96.17,26.89,85l3.25,11.16Z"/></g></g><g id="Layer_2-7" data-name="Layer 2"><g id="Layer_1-2-7" data-name="Layer 1-2"><path class="cls-1" d="M76.77,93.51l-5.71,9.81a.5.5,0,0,1-.43.25H60.84V94.94L56,103.32a.52.52,0,0,1-.44.25H46.82a.53.53,0,0,1-.51-.52.51.51,0,0,1,.07-.24l5.56-9.55L46.38,83.7a.52.52,0,0,1,.19-.7.54.54,0,0,1,.25-.06h8.73a.51.51,0,0,1,.44.25l5.85,10.07v8.89L67,93.26,61.46,83.7a.49.49,0,0,1,.17-.69.46.46,0,0,1,.26-.07h8.74a.48.48,0,0,1,.43.25L76.77,93A.48.48,0,0,1,76.77,93.51Z"/></g></g><g id="Layer_2-8" data-name="Layer 2"><g id="Layer_1-2-8" data-name="Layer 1-2"><path class="cls-1" d="M22.38,125.71l-6.55,10.81H6.21a.46.46,0,0,1-.43-.25L.07,126.46a.48.48,0,0,1,0-.49l5.71-9.83a.52.52,0,0,1,.44-.25H19.59v1H15.25l-5.42,9.32,5.43,9.33,5.35-8.83H14.94v-1Z"/><polygon class="cls-1" points="15.83 136.52 15.81 136.55 15.76 136.52 15.83 136.52"/></g></g><g id="Layer_2-9" data-name="Layer 2"><g id="Layer_1-2-9" data-name="Layer 1-2"><path class="cls-1" d="M44.15,115.9v1H39.4l-5.13,8.82H40v1H34.27l5.13,8.82h4.75v1H30.39a.55.55,0,0,1-.47-.27l-5.7-9.79a.52.52,0,0,1,0-.51L30,116.12a.51.51,0,0,1,.39-.22Z"/></g></g><g id="Layer_2-10" data-name="Layer 2"><g id="Layer_1-2-10" data-name="Layer 1-2"><path class="cls-1" d="M67.05,135.79l-5.57-9.57L67,116.66a.49.49,0,0,0-.16-.68.5.5,0,0,0-.27-.08H49.31v20.64h1v-9.82h1.56l5.56,9.57a.52.52,0,0,0,.43.25h8.76a.5.5,0,0,0,.5-.5A.45.45,0,0,0,67.05,135.79ZM50.31,116.9H57l-5.13,8.82H50.31Z"/></g></g><g id="Layer_2-11" data-name="Layer 2"><g id="Layer_1-2-11" data-name="Layer 1-2"><path class="cls-1" d="M53.78,16.91,44.87,32.24a.79.79,0,0,1-.68.38H30.5a.76.76,0,0,1-.65-1.16l8.69-15L30.72,3.06V16.49a.31.31,0,0,1-.3.32.33.33,0,0,1-.23-.09L17.69,4.83,24,15.77a.78.78,0,0,1,0,.78l-8.9,15.33a.82.82,0,0,1-.69.39H.81a.79.79,0,0,1-.79-.8.87.87,0,0,1,.1-.39L8.81,16.16l-8.7-15a.76.76,0,0,1,.27-1A.71.71,0,0,1,.78,0H14.84L29.1,13.57V.38H43.76A1.56,1.56,0,0,1,45,1.11l8.7,15A.84.84,0,0,1,53.78,16.91Z"/></g></g><g id="Layer_2-12" data-name="Layer 2"><g id="Layer_1-2-12" data-name="Layer 1-2"><path class="cls-1" d="M88.18,31.44,79.26.75a.78.78,0,0,0-.75-.56H63.61L57.16,32.43h1.53l2-10h9.37l2.76,9.44a.79.79,0,0,0,.75.56H87.43l.21,0A.78.78,0,0,0,88.18,31.44ZM61,20.86,64.55,3.42l5.08,17.44Z"/></g></g><g id="Layer_2-13" data-name="Layer 2"><g id="Layer_1-2-13" data-name="Layer 1-2"><path class="cls-1" d="M124,31.26l-8.7-15L124,1.37a.8.8,0,0,0-.26-1.08.88.88,0,0,0-.42-.11h-27V32.44h1.56V17.09h2.44l8.69,15a.82.82,0,0,0,.67.39h13.69a.78.78,0,0,0,.67-1.18ZM97.85,1.74h10.46l-8,13.79H97.85Z"/></g></g><g id="Layer_2-14" data-name="Layer 2"><g id="Layer_1-2-14" data-name="Layer 1-2"><path class="cls-1" d="M156.72,31.26a.77.77,0,0,1-.29,1.06.76.76,0,0,1-.38.11H133.2V30.87H141l-8.23-14.16a.76.76,0,0,1,0-.77L141,1.75h-6.44V.19h21.52a.79.79,0,0,1,.79.8.87.87,0,0,1-.1.39L148,16.32Z"/></g></g><g id="Layer_2-15" data-name="Layer 2"><g id="Layer_1-2-15" data-name="Layer 1-2"><path class="cls-1" d="M194.37.18V1.74H187l-8,13.79h8.92v1.56h-8.92l8,13.78h7.42v1.57H172.86a.88.88,0,0,1-.73-.43l-8.91-15.3a.8.8,0,0,1,0-.79l9-15.4a.72.72,0,0,1,.61-.34Z"/></g></g><g id="Layer_2-16" data-name="Layer 2"><g id="Layer_1-2-16" data-name="Layer 1-2"><path class="cls-1" d="M159,57.06,154.85,50a.36.36,0,0,0-.3-.18h-6.92v0l-3.42,7.4,3.43,7.39h7.11l4.2-7.23A.33.33,0,0,0,159,57.06ZM145,57.24l3.08-6.64L150,53.81l-3.42,6.74Zm6.84.17-3.76,6.47-1.17-2.53h0l3.44-6.81,1.57,2.69h.2A.35.35,0,0,0,151.84,57.41Z"/></g></g><g id="Layer_2-17" data-name="Layer 2"><g id="Layer_1-2-17" data-name="Layer 1-2"><path class="cls-1" d="M141.9,57.42l-3.79,6.51h3.78v.72H131.23a.35.35,0,0,1-.36-.34.32.32,0,0,1,0-.19l4-6.88L131,50.58l-3.19,6.83-.65-.3,3.4-7.29h6.91a.37.37,0,0,1,.31.18l4.1,7.06A.33.33,0,0,1,141.9,57.42Z"/></g></g><g id="Layer_2-18" data-name="Layer 2"><g id="Layer_1-2-18" data-name="Layer 1-2"><path class="cls-1" d="M176.64,57.42l-3.79,6.51h3.78v.72H166a.35.35,0,0,1-.36-.34.32.32,0,0,1,0-.19l4-6.88-3.9-6.66-3.19,6.83-.65-.3,3.4-7.29h6.91a.4.4,0,0,1,.32.18l4.09,7.06A.33.33,0,0,1,176.64,57.42Z"/></g></g><g id="Layer_2-19" data-name="Layer 2"><g id="Layer_1-2-19" data-name="Layer 1-2"><path class="cls-1" d="M194.35,64.2l-4.11-14.12a.35.35,0,0,0-.34-.26h-6.85l-3.62,7.87h5.91l1.95,6.7a.35.35,0,0,0,.34.26h6.49A.35.35,0,0,0,194.35,64.2ZM180.55,57l2.82-6.07L185.13,57Z"/></g></g></g></g></svg>