<svg xmlns="http://www.w3.org/2000/svg" viewBox="0 0 220.1 91.38"><defs><style>.cls-1{fill:#1e1e1c;}</style></defs><title>c11</title><g id="Layer_2" data-name="Layer 2"><g id="Layer_1-2" data-name="Layer 1"><g id="Layer_2-2" data-name="Layer 2"><g id="Layer_1-2-2" data-name="Layer 1-2"><path class="cls-1" d="M48.51,15.25l-8,13.83a.71.71,0,0,1-.6.34H27.52a.69.69,0,0,1-.69-.69.7.7,0,0,1,.09-.35l7.84-13.49-7-12.13V14.87a.28.28,0,0,1-.27.3.3.3,0,0,1-.21-.09L16,4.36l5.72,9.86a.7.7,0,0,1,0,.71l-8,13.83a.71.71,0,0,1-.62.35H.73A.71.71,0,0,1,0,28.39.7.7,0,0,1,.11,28L8,14.58.1,1A.68.68,0,0,1,.34.1.65.65,0,0,1,.7,0H13.39L26.25,12.24V.34H39.47A1.41,1.41,0,0,1,40.63,1l7.85,13.53A.77.77,0,0,1,48.51,15.25Z"/></g></g><g id="Layer_2-3" data-name="Layer 2"><g id="Layer_1-2-3" data-name="Layer 1-2"><path class="cls-1" d="M79.54,28.36,71.5.68a.7.7,0,0,0-.68-.51H57.38L51.56,29.25h1.38l1.82-9h8.46l2.48,8.51a.72.72,0,0,0,.68.51H78.87a.57.57,0,0,0,.18,0A.69.69,0,0,0,79.54,28.36ZM55.06,18.82,58.23,3.09l4.58,15.73Z"/></g></g><g id="Layer_2-4" data-name="Layer 2"><g id="Layer_1-2-4" data-name="Layer 1-2"><path class="cls-1" d="M111.86,28.2,104,14.71l7.84-13.48a.71.71,0,0,0-.23-1,.83.83,0,0,0-.38-.1H86.86v29.1h1.41V15.42h2.19L98.3,28.91a.75.75,0,0,0,.61.35h12.35a.7.7,0,0,0,.7-.71A.64.64,0,0,0,111.86,28.2ZM88.27,1.57H97.7L90.46,14H88.27Z"/></g></g><g id="Layer_2-5" data-name="Layer 2"><g id="Layer_1-2-5" data-name="Layer 1-2"><path class="cls-1" d="M141.37,28.2a.71.71,0,0,1-.26,1,.73.73,0,0,1-.35.09H120.15V27.84h7l-7.43-12.77a.66.66,0,0,1,0-.69l7.44-12.8h-5.8V.17h19.41a.72.72,0,0,1,.71.72.7.7,0,0,1-.09.35l-7.9,13.48Z"/></g></g><g id="Layer_2-6" data-name="Layer 2"><g id="Layer_1-2-6" data-name="Layer 1-2"><path class="cls-1" d="M175.33.16V1.57h-6.7L161.4,14h8v1.41h-8l7.23,12.43h6.7v1.41h-19.4a.78.78,0,0,1-.66-.38l-8-13.8a.76.76,0,0,1,0-.72L155.31.47a.68.68,0,0,1,.55-.31Z"/></g></g><g id="Layer_2-7" data-name="Layer 2"><g id="Layer_1-2-7" data-name="Layer 1-2"><path class="cls-1" d="M19,52.42a.51.51,0,0,0-.3-.07H13.56l5.58-9.59A.48.48,0,0,0,19,42.1a.48.48,0,0,0-.23-.07H0V62.69l3.66,0h9.9l5.57-9.57A.49.49,0,0,0,19,52.42ZM1,43h8L4.24,51.35H1ZM4.29,61.65,1,61.68V52.35H9.7Z"/></g></g><g id="Layer_2-8" data-name="Layer 2"><g id="Layer_1-2-8" data-name="Layer 1-2"><path class="cls-1" d="M42.71,52.12,37,42.3a.46.46,0,0,0-.42-.25H27L22.2,52.37,27,62.67h9.61a.5.5,0,0,0,.43-.24l5.7-9.82A.5.5,0,0,0,42.71,52.12ZM27.58,61.61l-4.27-9.24,4.28-9.24L33,52.37Z"/></g></g><g id="Layer_2-9" data-name="Layer 2"><g id="Layer_1-2-9" data-name="Layer 1-2"><path class="cls-1" d="M70.36,52.46,64.25,62.75H55.58a.58.58,0,0,1-.26.06H47.07a.71.71,0,0,1-.71-.73.69.69,0,0,1,.09-.34l5.18-8.9a.75.75,0,0,0,0-.71l-5.18-8.92a.72.72,0,0,1,.27-1,.7.7,0,0,1,.35-.09h8.29a.7.7,0,0,1,.58.35l5.59,9.6a.75.75,0,0,1,0,.71l-5.17,8.94h7.35l5.49-9.3L63.36,41.9h1Z"/></g></g><g id="Layer_2-10" data-name="Layer 2"><g id="Layer_1-2-10" data-name="Layer 1-2"><path class="cls-1" d="M93.77,61.68v1H74a.51.51,0,0,1-.51-.5.43.43,0,0,1,.07-.25l5.56-9.56-5.56-9.58a.49.49,0,0,1,.15-.68A.5.5,0,0,1,74,42h8.76a.48.48,0,0,1,.43.25l5.71,9.83a.48.48,0,0,1,0,.49l-5.27,9.07Z"/></g></g><g id="Layer_2-11" data-name="Layer 2"><g id="Layer_1-2-11" data-name="Layer 1-2"><path class="cls-1" d="M115.52,62,109.81,42.4a.49.49,0,0,0-.48-.36H99.8L95.67,62.67h1l1.29-6.4h6l1.76,6a.5.5,0,0,0,.48.36H115l.13,0A.5.5,0,0,0,115.52,62ZM98.15,55.27l2.25-11.16,3.25,11.16Z"/></g></g><g id="Layer_2-12" data-name="Layer 2"><g id="Layer_1-2-12" data-name="Layer 1-2"><path class="cls-1" d="M150.28,52.61l-5.71,9.81a.46.46,0,0,1-.43.25h-9.79V54l-4.85,8.38a.5.5,0,0,1-.44.25h-8.73a.5.5,0,0,1-.5-.51.54.54,0,0,1,.06-.25l5.56-9.55-5.56-9.56a.5.5,0,0,1,.2-.69.51.51,0,0,1,.24-.07h8.73a.52.52,0,0,1,.44.25l5.85,10.07v8.89l5.18-8.89L135,42.8a.51.51,0,0,1,.17-.69.59.59,0,0,1,.26-.07h8.74a.5.5,0,0,1,.43.25l5.71,9.83A.48.48,0,0,1,150.28,52.61Z"/></g></g><g id="Layer_2-13" data-name="Layer 2"><g id="Layer_1-2-13" data-name="Layer 1-2"><path class="cls-1" d="M175.36,51.85l-6.55,10.81h-9.62a.5.5,0,0,1-.43-.25l-5.71-9.81a.48.48,0,0,1,0-.49l5.71-9.83a.5.5,0,0,1,.44-.25h13.37v1h-4.34l-5.42,9.32,5.43,9.33,5.35-8.83h-5.67v-1Z"/><polygon class="cls-1" points="168.81 62.66 168.79 62.69 168.74 62.66 168.81 62.66"/></g></g><g id="Layer_2-14" data-name="Layer 2"><g id="Layer_1-2-14" data-name="Layer 1-2"><path class="cls-1" d="M197.14,42v1h-4.75l-5.13,8.82H193v1h-5.71l5.13,8.82h4.75v1H183.38a.54.54,0,0,1-.47-.27l-5.7-9.79a.52.52,0,0,1,0-.51l5.73-9.85a.44.44,0,0,1,.39-.22Z"/></g></g><g id="Layer_2-15" data-name="Layer 2"><g id="Layer_1-2-15" data-name="Layer 1-2"><path class="cls-1" d="M220,61.93l-5.57-9.57L220,42.8a.51.51,0,0,0-.17-.69.48.48,0,0,0-.26-.07H202.3V62.68h1V52.86h1.56l5.56,9.57a.53.53,0,0,0,.43.25h8.76a.51.51,0,0,0,.43-.75ZM203.3,43H210l-5.13,8.82H203.3Z"/></g></g><g id="Layer_2-16" data-name="Layer 2"><g id="Layer_1-2-16" data-name="Layer 1-2"><path class="cls-1" d="M31.77,83.79l-4.1-7.06a.37.37,0,0,0-.31-.18H20.44v0L17,84l3.43,7.39h7.11l4.2-7.23A.33.33,0,0,0,31.77,83.79ZM17.82,84l3.08-6.64,1.86,3.21-3.41,6.74Zm6.84.17L20.9,90.61l-1.18-2.53h0l3.44-6.81L24.76,84H25A.35.35,0,0,0,24.66,84.14Z"/></g></g><g id="Layer_2-17" data-name="Layer 2"><g id="Layer_1-2-17" data-name="Layer 1-2"><path class="cls-1" d="M14.72,84.15l-3.79,6.51h3.78v.72H4.05A.35.35,0,0,1,3.69,91a.32.32,0,0,1,.05-.19l4-6.88-3.9-6.66L.65,84.14,0,83.84l3.4-7.29h6.91a.37.37,0,0,1,.31.18l4.1,7.06A.38.38,0,0,1,14.72,84.15Z"/></g></g><g id="Layer_2-18" data-name="Layer 2"><g id="Layer_1-2-18" data-name="Layer 1-2"><path class="cls-1" d="M49.46,84.15l-3.79,6.51h3.78v.72H38.79a.35.35,0,0,1-.36-.34.32.32,0,0,1,0-.19l4-6.88-3.9-6.66-3.19,6.83-.65-.3,3.4-7.29h6.91a.37.37,0,0,1,.31.18l4.1,7.06A.33.33,0,0,1,49.46,84.15Z"/></g></g><g id="Layer_2-19" data-name="Layer 2"><g id="Layer_1-2-19" data-name="Layer 1-2"><path class="cls-1" d="M67.17,90.93,63.06,76.81a.34.34,0,0,0-.34-.26H55.87l-3.63,7.87h5.92l2,6.7a.34.34,0,0,0,.34.26h6.48A.35.35,0,0,0,67.17,90.93Zm-13.8-7.22,2.82-6.07L58,83.71Z"/></g></g></g></g></svg>