<svg xmlns="http://www.w3.org/2000/svg" viewBox="0 0 192.87 339.59"><defs><style>.cls-1{fill:#1e1e1c;}</style></defs><title>c14</title><g id="Layer_2" data-name="Layer 2"><g id="Layer_1-2" data-name="Layer 1"><g id="Layer_2-2" data-name="Layer 2"><g id="Layer_1-2-2" data-name="Layer 1-2"><path class="cls-1" d="M53.36,295.74,44.52,311a.78.78,0,0,1-.67.37H30.27a.76.76,0,0,1-.65-1.15l8.62-14.84L30.49,282v13.32a.31.31,0,0,1-.53.23l-12.41-11.8,6.3,10.85a.78.78,0,0,1,0,.78L15,310.6a.8.8,0,0,1-.68.39H.8a.79.79,0,0,1-.78-.8.86.86,0,0,1,.1-.38L8.74,295,.11,280.11a.75.75,0,0,1,.26-1,.7.7,0,0,1,.4-.1h14l14.14,13.46V279.34H43.42a1.53,1.53,0,0,1,1.27.73L53.33,295A.8.8,0,0,1,53.36,295.74Z"/></g></g><g id="Layer_2-3" data-name="Layer 2"><g id="Layer_1-2-3" data-name="Layer 1-2"><path class="cls-1" d="M87.5,310.17l-8.85-30.46a.78.78,0,0,0-.75-.56H63.12v0l-6.4,32h1.52l2-9.92h9.3l2.73,9.37a.8.8,0,0,0,.75.55H86.76a.69.69,0,0,0,.2,0A.76.76,0,0,0,87.5,310.17Zm-26.93-10.5,3.48-17.31,5,17.31Z"/></g></g><g id="Layer_2-4" data-name="Layer 2"><g id="Layer_1-2-4" data-name="Layer 1-2"><path class="cls-1" d="M123.05,310l-8.63-14.84L123,280.32a.77.77,0,0,0-.26-1.06.73.73,0,0,0-.41-.12H95.54v32h1.55V295.92h2.42l8.63,14.84a.79.79,0,0,0,.66.39h13.59a.77.77,0,0,0,.77-.78A.76.76,0,0,0,123.05,310Zm-26-29.3h10.38l-8,13.68H97.09Z"/></g></g><g id="Layer_2-5" data-name="Layer 2"><g id="Layer_1-2-5" data-name="Layer 1-2"><path class="cls-1" d="M155.51,310a.77.77,0,0,1-.29,1.06.7.7,0,0,1-.38.1H132.17v-1.55h7.75l-8.17-14a.74.74,0,0,1,0-.76l8.19-14.08h-6.39v-1.55H154.9a.8.8,0,0,1,.79.8.86.86,0,0,1-.1.38l-8.69,14.83Z"/></g></g><g id="Layer_2-6" data-name="Layer 2"><g id="Layer_1-2-6" data-name="Layer 1-2"><path class="cls-1" d="M192.87,279.14v1.55H185.5l-7.95,13.68h8.85v1.55h-8.85l7.95,13.68h7.37v1.55H171.53a.84.84,0,0,1-.73-.42L162,295.55a.8.8,0,0,1,0-.79l8.89-15.27a.75.75,0,0,1,.6-.35Z"/></g></g><g id="Layer_2-7" data-name="Layer 2"><g id="Layer_1-2-7" data-name="Layer 1-2"><path class="cls-1" d="M114.54,10.39a.51.51,0,0,0-.3-.07H109.1L114.68.73a.48.48,0,0,0-.19-.66.48.48,0,0,0-.23-.07H95.58V20.66l3.66,0h9.9l5.57-9.57A.49.49,0,0,0,114.54,10.39ZM96.58,1h8L99.78,9.32h-3.2Zm3.25,18.62-3.25,0V10.32h8.66Z"/></g></g><g id="Layer_2-8" data-name="Layer 2"><g id="Layer_1-2-8" data-name="Layer 1-2"><path class="cls-1" d="M116.09,45l-5.71-9.82a.48.48,0,0,0-.42-.25h-9.62L95.58,45.21l4.77,10.3H110a.5.5,0,0,0,.43-.24l5.7-9.82A.48.48,0,0,0,116.09,45ZM101,54.45l-4.27-9.24L101,36l5.37,9.24Z"/></g></g><g id="Layer_2-9" data-name="Layer 2"><g id="Layer_1-2-9" data-name="Layer 1-2"><path class="cls-1" d="M119.58,80,113.47,90.3H104.8a.58.58,0,0,1-.26.06H96.29a.73.73,0,0,1-.71-.73,1,1,0,0,1,.09-.34l5.18-8.9a.75.75,0,0,0,0-.71l-5.18-8.92a.72.72,0,0,1,.27-1,.73.73,0,0,1,.35-.09h8.29a.7.7,0,0,1,.58.35l5.59,9.6a.75.75,0,0,1,0,.71l-5.17,8.94h7.35l5.49-9.3-5.84-10.55h1Z"/></g></g><g id="Layer_2-10" data-name="Layer 2"><g id="Layer_1-2-10" data-name="Layer 1-2"><path class="cls-1" d="M115.84,124.21v1H96.1a.5.5,0,0,1-.51-.49.48.48,0,0,1,.07-.26l5.56-9.56-5.56-9.58a.49.49,0,0,1,.15-.68.5.5,0,0,1,.27-.07h8.76a.52.52,0,0,1,.43.25l5.71,9.83a.48.48,0,0,1,0,.49l-5.27,9.07Z"/></g></g><g id="Layer_2-11" data-name="Layer 2"><g id="Layer_1-2-11" data-name="Layer 1-2"><path class="cls-1" d="M115.43,159.43l-5.71-19.64a.49.49,0,0,0-.48-.36H99.71l-4.13,20.62h1l1.29-6.4h6l1.76,6a.5.5,0,0,0,.48.36H115l.13,0A.5.5,0,0,0,115.43,159.43Zm-17.37-6.77,2.25-11.16,3.25,11.16Z"/></g></g><g id="Layer_2-12" data-name="Layer 2"><g id="Layer_1-2-12" data-name="Layer 1-2"><path class="cls-1" d="M126,184.85l-5.71,9.81a.48.48,0,0,1-.43.25h-9.79v-8.63l-4.85,8.38a.5.5,0,0,1-.44.25H96.09a.5.5,0,0,1-.44-.76l5.56-9.55L95.65,175a.52.52,0,0,1,.19-.7.54.54,0,0,1,.25-.06h8.73a.53.53,0,0,1,.44.25l5.85,10.07v8.89l5.18-8.89L110.73,175a.5.5,0,0,1,.17-.69.46.46,0,0,1,.26-.07h8.74a.5.5,0,0,1,.43.25l5.71,9.83A.48.48,0,0,1,126,184.85Z"/></g></g><g id="Layer_2-13" data-name="Layer 2"><g id="Layer_1-2-13" data-name="Layer 1-2"><path class="cls-1" d="M118,218.92l-6.55,10.81h-9.62a.48.48,0,0,1-.43-.25l-5.71-9.81a.48.48,0,0,1,0-.49l5.71-9.83a.5.5,0,0,1,.44-.25h13.37v1h-4.34l-5.42,9.32,5.43,9.33,5.35-8.83h-5.67v-1Z"/><polygon class="cls-1" points="111.41 229.73 111.39 229.76 111.34 229.73 111.41 229.73"/></g></g><g id="Layer_2-14" data-name="Layer 2"><g id="Layer_1-2-14" data-name="Layer 1-2"><path class="cls-1" d="M115.58,244v1h-4.75l-5.13,8.82h5.71v1H105.7l5.13,8.82h4.75v1H101.82a.57.57,0,0,1-.47-.27l-5.7-9.79a.52.52,0,0,1,0-.51l5.73-9.85a.44.44,0,0,1,.39-.22Z"/></g></g><g id="Layer_2-15" data-name="Layer 2"><g id="Layer_1-2-15" data-name="Layer 1-2"><path class="cls-1" d="M157.45,332l-4.1-7.07a.35.35,0,0,0-.3-.17h-6.92l-3.42,7.4,3.43,7.39h7.11l4.2-7.23A.32.32,0,0,0,157.45,332Zm-13.95.17,3.08-6.64,1.87,3.22L145,335.49Zm6.84.18-3.76,6.46-1.17-2.52h0l3.44-6.8,1.57,2.68h.2A.34.34,0,0,0,150.34,332.36Z"/></g></g><g id="Layer_2-16" data-name="Layer 2"><g id="Layer_1-2-16" data-name="Layer 1-2"><path class="cls-1" d="M140.4,332.36l-3.79,6.52h3.78v.71H129.73a.35.35,0,0,1-.36-.34.34.34,0,0,1,0-.19l4-6.88-3.9-6.66-3.19,6.84-.65-.3,3.4-7.29H136a.34.34,0,0,1,.31.18l4.1,7.06A.32.32,0,0,1,140.4,332.36Z"/></g></g><g id="Layer_2-17" data-name="Layer 2"><g id="Layer_1-2-17" data-name="Layer 1-2"><path class="cls-1" d="M175.14,332.36l-3.79,6.52h3.78v.71H164.47a.35.35,0,0,1-.36-.34.34.34,0,0,1,0-.19l4-6.88-3.9-6.66-3.19,6.84-.65-.3,3.4-7.29h6.91a.37.37,0,0,1,.32.18l4.09,7.06A.32.32,0,0,1,175.14,332.36Z"/></g></g><g id="Layer_2-18" data-name="Layer 2"><g id="Layer_1-2-18" data-name="Layer 1-2"><path class="cls-1" d="M192.85,339.14,188.74,325a.35.35,0,0,0-.34-.25h-6.85l-3.63,7.87h5.92l1.95,6.7a.35.35,0,0,0,.34.25h6.49A.35.35,0,0,0,192.85,339.14Zm-13.8-7.22,2.82-6.07,1.76,6.07Z"/></g></g></g></g></svg>