<svg xmlns="http://www.w3.org/2000/svg" viewBox="0 0 220.06 106.1"><defs><style>.cls-1{fill:#1e1e1c;}</style></defs><title>c15</title><g id="Layer_2" data-name="Layer 2"><g id="Layer_1-2" data-name="Layer 1"><g id="Layer_2-2" data-name="Layer 2"><g id="Layer_1-2-2" data-name="Layer 1-2"><path class="cls-1" d="M184.64,98.51l-4.1-7.06a.36.36,0,0,0-.3-.18h-6.93v0l-3.42,7.4,3.43,7.39h7.11l4.2-7.23A.33.33,0,0,0,184.64,98.51Zm-13.95.18,3.08-6.64,1.87,3.21L172.22,102Zm6.84.17-3.76,6.46-1.17-2.52h0L176.06,96l1.57,2.69h.2A.33.33,0,0,0,177.53,98.86Z"/></g></g><g id="Layer_2-3" data-name="Layer 2"><g id="Layer_1-2-3" data-name="Layer 1-2"><path class="cls-1" d="M167.59,98.87l-3.79,6.51h3.78v.72H156.92a.35.35,0,0,1-.36-.34.32.32,0,0,1,.05-.19l4-6.88L156.71,92l-3.19,6.83-.65-.3,3.4-7.29h6.91a.37.37,0,0,1,.31.18l4.1,7.06A.33.33,0,0,1,167.59,98.87Z"/></g></g><g id="Layer_2-4" data-name="Layer 2"><g id="Layer_1-2-4" data-name="Layer 1-2"><path class="cls-1" d="M202.33,98.87l-3.79,6.51h3.78v.72H191.66a.35.35,0,0,1-.36-.34.32.32,0,0,1,0-.19l4-6.88L191.45,92l-3.19,6.83-.65-.3,3.4-7.29h6.91a.37.37,0,0,1,.31.18l4.1,7.06A.33.33,0,0,1,202.33,98.87Z"/></g></g><g id="Layer_2-5" data-name="Layer 2"><g id="Layer_1-2-5" data-name="Layer 1-2"><path class="cls-1" d="M220,105.65l-4.11-14.13a.35.35,0,0,0-.34-.25h-6.85l-3.63,7.87H211l1.95,6.7a.34.34,0,0,0,.34.26h6.49A.35.35,0,0,0,220,105.65Zm-13.8-7.23,2.82-6.06,1.76,6.06Z"/></g></g><g id="Layer_2-6" data-name="Layer 2"><g id="Layer_1-2-6" data-name="Layer 1-2"><path class="cls-1" d="M60.94,19.12,50.87,36.46a.89.89,0,0,1-.76.42H34.63a.87.87,0,0,1-.87-.87,1,1,0,0,1,.12-.44l9.83-16.91L34.87,3.46V18.64a.35.35,0,0,1-.34.37.37.37,0,0,1-.26-.1L20.14,5.46l7.17,12.37a.89.89,0,0,1,0,.89L17.24,36.05a.92.92,0,0,1-.78.44H1.05a.89.89,0,0,1-.89-.91.92.92,0,0,1,.11-.43L10.1,18.27.25,1.31A.88.88,0,0,1,.56.12.89.89,0,0,1,1,0H16.92L33,15.34V.42H49.61a1.76,1.76,0,0,1,1.45.83l9.85,17A.93.93,0,0,1,60.94,19.12Z"/></g></g><g id="Layer_2-7" data-name="Layer 2"><g id="Layer_1-2-7" data-name="Layer 1-2"><path class="cls-1" d="M99.85,35.56,89.76.85a.88.88,0,0,0-.85-.64H72.07v0l-7.3,36.44H66.5l2.28-11.31h10.6L82.5,36a.87.87,0,0,0,.84.64H99l.23,0A.88.88,0,0,0,99.85,35.56Zm-30.7-12,4-19.72,5.74,19.72Z"/></g></g><g id="Layer_2-8" data-name="Layer 2"><g id="Layer_1-2-8" data-name="Layer 1-2"><path class="cls-1" d="M140.37,35.35l-9.85-16.91,9.83-16.89a.89.89,0,0,0-.3-1.22.94.94,0,0,0-.46-.13H109V36.68h1.77V19.33h2.76l9.82,16.91a1,1,0,0,0,.76.44h15.49a.88.88,0,0,0,.87-.89A1,1,0,0,0,140.37,35.35ZM110.78,2H122.6l-9.06,15.59h-2.76Z"/></g></g><g id="Layer_2-9" data-name="Layer 2"><g id="Layer_1-2-9" data-name="Layer 1-2"><path class="cls-1" d="M177.35,35.35a.88.88,0,0,1-.76,1.32H150.75V34.9h8.84l-9.31-16a.83.83,0,0,1,0-.86l9.33-16h-7.28V.21h24.33a.9.9,0,0,1,.89.91,1,1,0,0,1-.11.44l-9.9,16.89Z"/></g></g><g id="Layer_2-10" data-name="Layer 2"><g id="Layer_1-2-10" data-name="Layer 1-2"><path class="cls-1" d="M219.93.2V2h-8.4l-9.06,15.59h10.09v1.77H202.47l9.06,15.58h8.4v1.77H195.61a1,1,0,0,1-.83-.48L184.7,18.9a1,1,0,0,1,0-.9L194.83.59a.84.84,0,0,1,.69-.39Z"/></g></g><g id="Layer_2-11" data-name="Layer 2"><g id="Layer_1-2-11" data-name="Layer 1-2"><path class="cls-1" d="M19,59.87a.51.51,0,0,0-.3-.07H13.52l5.58-9.59a.48.48,0,0,0-.19-.66.48.48,0,0,0-.23-.07H0V70.14l3.66,0h9.9l5.57-9.57A.49.49,0,0,0,19,59.87ZM1,50.48H9L4.2,58.8H1ZM4.25,69.1,1,69.13V59.8H9.66Z"/></g></g><g id="Layer_2-12" data-name="Layer 2"><g id="Layer_1-2-12" data-name="Layer 1-2"><path class="cls-1" d="M42.67,59.57,37,49.75a.5.5,0,0,0-.42-.25H26.92L22.16,59.82l4.77,10.3h9.61a.52.52,0,0,0,.43-.24l5.7-9.82A.53.53,0,0,0,42.67,59.57ZM27.54,69.06l-4.27-9.24,4.28-9.24,5.37,9.24Z"/></g></g><g id="Layer_2-13" data-name="Layer 2"><g id="Layer_1-2-13" data-name="Layer 1-2"><path class="cls-1" d="M70.32,59.92,64.21,70.21H55.54a.62.62,0,0,1-.26.06H47a.73.73,0,0,1-.72-.73.79.79,0,0,1,.1-.34l5.18-8.9a.81.81,0,0,0,0-.71l-5.18-8.92a.7.7,0,0,1,.26-1,.74.74,0,0,1,.36-.09h8.29a.71.71,0,0,1,.58.35l5.59,9.6a.81.81,0,0,1,0,.71l-5.17,8.94h7.35l5.49-9.3L63.32,49.36h1Z"/></g></g><g id="Layer_2-14" data-name="Layer 2"><g id="Layer_1-2-14" data-name="Layer 1-2"><path class="cls-1" d="M93.72,69.13v1H74a.49.49,0,0,1-.5-.49.58.58,0,0,1,.06-.26l5.56-9.56-5.56-9.58a.49.49,0,0,1,.16-.67.5.5,0,0,1,.26-.08h8.76a.49.49,0,0,1,.43.25l5.71,9.83a.48.48,0,0,1,0,.49l-5.27,9.07Z"/></g></g><g id="Layer_2-15" data-name="Layer 2"><g id="Layer_1-2-15" data-name="Layer 1-2"><path class="cls-1" d="M115.48,69.5l-5.71-19.64a.49.49,0,0,0-.48-.36H99.76L95.63,70.13h1l1.29-6.4h6l1.76,6a.5.5,0,0,0,.48.36H115l.13,0A.5.5,0,0,0,115.48,69.5ZM98.11,62.73l2.25-11.16,3.25,11.16Z"/></g></g><g id="Layer_2-16" data-name="Layer 2"><g id="Layer_1-2-16" data-name="Layer 1-2"><path class="cls-1" d="M150.24,60.07l-5.71,9.81a.5.5,0,0,1-.43.25h-9.79V61.5l-4.85,8.38a.52.52,0,0,1-.44.25h-8.73a.53.53,0,0,1-.51-.52.51.51,0,0,1,.07-.24l5.56-9.55-5.56-9.56a.52.52,0,0,1,.19-.7.54.54,0,0,1,.25-.06H129a.51.51,0,0,1,.44.25l5.85,10.07v8.89l5.18-8.89-5.56-9.56a.49.49,0,0,1,.43-.76h8.74a.48.48,0,0,1,.43.25l5.71,9.83A.48.48,0,0,1,150.24,60.07Z"/></g></g><g id="Layer_2-17" data-name="Layer 2"><g id="Layer_1-2-17" data-name="Layer 1-2"><path class="cls-1" d="M175.32,59.3l-6.55,10.81h-9.62a.47.47,0,0,1-.43-.25L153,60.05a.48.48,0,0,1,0-.49l5.71-9.83a.52.52,0,0,1,.44-.25h13.37v1h-4.34l-5.42,9.32,5.43,9.33,5.35-8.83h-5.67v-1Z"/><polygon class="cls-1" points="168.77 70.11 168.75 70.14 168.7 70.11 168.77 70.11"/></g></g><g id="Layer_2-18" data-name="Layer 2"><g id="Layer_1-2-18" data-name="Layer 1-2"><path class="cls-1" d="M197.09,49.49v1h-4.75l-5.13,8.82h5.71v1h-5.71l5.13,8.82h4.75v1H183.33a.55.55,0,0,1-.47-.27l-5.7-9.79a.52.52,0,0,1,0-.51l5.73-9.85a.48.48,0,0,1,.39-.22Z"/></g></g><g id="Layer_2-19" data-name="Layer 2"><g id="Layer_1-2-19" data-name="Layer 1-2"><path class="cls-1" d="M220,69.38l-5.57-9.57L220,50.25a.51.51,0,0,0-.17-.69.59.59,0,0,0-.26-.07h-17.3V70.13h1V60.31h1.56l5.56,9.57a.5.5,0,0,0,.43.25h8.76a.5.5,0,0,0,.5-.5A.55.55,0,0,0,220,69.38ZM203.25,50.49h6.69l-5.13,8.82h-1.56Z"/></g></g></g></g></svg>