<svg xmlns="http://www.w3.org/2000/svg" viewBox="0 0 171.81 123.6"><defs><style>.cls-1{fill:#1e1e1c;}</style></defs><title>c17</title><g id="Layer_2" data-name="Layer 2"><g id="Layer_1-2" data-name="Layer 1"><g id="Layer_2-2" data-name="Layer 2"><g id="Layer_1-2-2" data-name="Layer 1-2"><path class="cls-1" d="M19,55.38a.51.51,0,0,0-.3-.07H13.52l5.58-9.59a.48.48,0,0,0-.19-.66.48.48,0,0,0-.23-.07H0V65.65l3.66,0h9.9l5.57-9.57A.49.49,0,0,0,19,55.38ZM1,46H9L4.2,54.31H1ZM4.25,64.61,1,64.64V55.31H9.66Z"/></g></g><g id="Layer_2-3" data-name="Layer 2"><g id="Layer_1-2-3" data-name="Layer 1-2"><path class="cls-1" d="M42.67,55.08,37,45.26a.5.5,0,0,0-.42-.25H26.92L22.16,55.33l4.77,10.3h9.61a.52.52,0,0,0,.43-.24l5.7-9.82A.53.53,0,0,0,42.67,55.08ZM27.54,64.57l-4.27-9.24,4.28-9.24,5.37,9.24Z"/></g></g><g id="Layer_2-4" data-name="Layer 2"><g id="Layer_1-2-4" data-name="Layer 1-2"><path class="cls-1" d="M70.32,55.43,64.21,65.72H55.54a.62.62,0,0,1-.26.06H47a.73.73,0,0,1-.72-.73.79.79,0,0,1,.1-.34l5.18-8.9a.81.81,0,0,0,0-.71l-5.18-8.92a.7.7,0,0,1,.26-1,.74.74,0,0,1,.36-.09h8.29a.71.71,0,0,1,.58.35l5.59,9.6a.81.81,0,0,1,0,.71l-5.17,8.94h7.35l5.49-9.3L63.32,44.87h1Z"/></g></g><g id="Layer_2-5" data-name="Layer 2"><g id="Layer_1-2-5" data-name="Layer 1-2"><path class="cls-1" d="M70.57,93.62v1H50.83a.5.5,0,0,1-.51-.5.43.43,0,0,1,.07-.25L56,84.31l-5.56-9.58a.49.49,0,0,1,.15-.68.42.42,0,0,1,.27-.07h8.76a.48.48,0,0,1,.43.25l5.71,9.83a.48.48,0,0,1,0,.49l-5.27,9.07Z"/></g></g><g id="Layer_2-6" data-name="Layer 2"><g id="Layer_1-2-6" data-name="Layer 1-2"><path class="cls-1" d="M92.32,94,86.61,74.34a.49.49,0,0,0-.48-.36H76.6L72.47,94.61h1l1.29-6.4h6l1.76,6a.5.5,0,0,0,.48.36h8.86l.13,0A.5.5,0,0,0,92.32,94ZM75,87.21,77.2,76.05l3.25,11.16Z"/></g></g><g id="Layer_2-7" data-name="Layer 2"><g id="Layer_1-2-7" data-name="Layer 1-2"><path class="cls-1" d="M127.08,84.55l-5.71,9.81a.47.47,0,0,1-.43.25h-9.79V86l-4.85,8.38a.5.5,0,0,1-.44.25H97.13a.5.5,0,0,1-.5-.51.54.54,0,0,1,.06-.25l5.56-9.55-5.56-9.56a.5.5,0,0,1,.2-.69.42.42,0,0,1,.24-.07h8.73a.52.52,0,0,1,.44.25l5.85,10.07v8.89l5.18-8.89-5.56-9.56a.5.5,0,0,1,.17-.69.59.59,0,0,1,.26-.07h8.74a.5.5,0,0,1,.43.25l5.71,9.83A.48.48,0,0,1,127.08,84.55Z"/></g></g><g id="Layer_2-8" data-name="Layer 2"><g id="Layer_1-2-8" data-name="Layer 1-2"><path class="cls-1" d="M127,112.76l-6.55,10.81h-9.62a.5.5,0,0,1-.43-.25l-5.71-9.81a.48.48,0,0,1,0-.49l5.71-9.83a.51.51,0,0,1,.44-.25h13.37v1h-4.34l-5.42,9.32,5.43,9.33,5.35-8.83h-5.67v-1Z"/><polygon class="cls-1" points="120.45 123.57 120.43 123.6 120.38 123.57 120.45 123.57"/></g></g><g id="Layer_2-9" data-name="Layer 2"><g id="Layer_1-2-9" data-name="Layer 1-2"><path class="cls-1" d="M148.78,103v1H144l-5.13,8.82h5.71v1H138.9l5.13,8.82h4.75v1H135a.57.57,0,0,1-.47-.27l-5.7-9.79a.52.52,0,0,1,0-.51l5.73-9.85A.44.44,0,0,1,135,103Z"/></g></g><g id="Layer_2-10" data-name="Layer 2"><g id="Layer_1-2-10" data-name="Layer 1-2"><path class="cls-1" d="M171.68,122.84l-5.57-9.57,5.56-9.56a.5.5,0,0,0-.17-.69.48.48,0,0,0-.26-.07h-17.3v20.64h1v-9.82h1.56l5.56,9.57a.53.53,0,0,0,.43.25h8.76a.51.51,0,0,0,.5-.51A.67.67,0,0,0,171.68,122.84ZM154.94,104h6.69l-5.13,8.82h-1.56Z"/></g></g><g id="Layer_2-11" data-name="Layer 2"><g id="Layer_1-2-11" data-name="Layer 1-2"><path class="cls-1" d="M47.53,15,39.66,28.5a.69.69,0,0,1-.59.33H27a.67.67,0,0,1-.67-.68.67.67,0,0,1,.09-.34l7.69-13.22L27.16,2.71V14.57a.28.28,0,0,1-.27.29.26.26,0,0,1-.2-.08l-11-10.51,5.61,9.67a.71.71,0,0,1,0,.69L13.37,28.18a.73.73,0,0,1-.61.35H.72a.7.7,0,0,1-.7-.71.67.67,0,0,1,.09-.34l7.68-13.2L.09,1A.69.69,0,0,1,.33.09.74.74,0,0,1,.69,0H13.12l12.6,12V.33h13A1.37,1.37,0,0,1,39.81,1l7.7,13.26A.72.72,0,0,1,47.53,15Z"/></g></g><g id="Layer_2-12" data-name="Layer 2"><g id="Layer_1-2-12" data-name="Layer 1-2"><path class="cls-1" d="M78,27.8,70.06.66A.68.68,0,0,0,69.4.17H56.23l-5.7,28.49h1.35l1.78-8.85H62l2.43,8.35a.71.71,0,0,0,.67.5H77.29l.18,0A.69.69,0,0,0,78,27.8ZM54,18.44,57.06,3l4.49,15.41Z"/></g></g><g id="Layer_2-13" data-name="Layer 2"><g id="Layer_1-2-13" data-name="Layer 1-2"><path class="cls-1" d="M109.62,27.64l-7.69-13.22,7.68-13.21a.69.69,0,0,0-.23-.95.69.69,0,0,0-.37-.1H85.11V28.67H86.5V15.11h2.15l7.68,13.22a.7.7,0,0,0,.6.34H109a.68.68,0,0,0,.68-.69A.67.67,0,0,0,109.62,27.64ZM86.5,1.54h9.24L88.65,13.73H86.5Z"/></g></g><g id="Layer_2-14" data-name="Layer 2"><g id="Layer_1-2-14" data-name="Layer 1-2"><path class="cls-1" d="M138.53,27.63a.69.69,0,0,1-.25.94.67.67,0,0,1-.34.1h-20.2V27.28h6.91l-7.28-12.51a.64.64,0,0,1,0-.68l7.29-12.54H119V.17h19a.7.7,0,0,1,.7.71.69.69,0,0,1-.09.34l-7.73,13.2Z"/></g></g><g id="Layer_2-15" data-name="Layer 2"><g id="Layer_1-2-15" data-name="Layer 1-2"><path class="cls-1" d="M171.81.16V1.54h-6.56l-7.08,12.19h7.88v1.38h-7.88l7.08,12.18h6.56v1.38h-19a.74.74,0,0,1-.65-.37l-7.88-13.53a.73.73,0,0,1,0-.7L152.2.46a.64.64,0,0,1,.54-.3Z"/></g></g></g></g></svg>