<svg xmlns="http://www.w3.org/2000/svg" viewBox="0 0 194.95 315.46"><defs><style>.cls-1{fill:#1e1e1c;}</style></defs><title>c18</title><g id="Layer_2" data-name="Layer 2"><g id="Layer_1-2" data-name="Layer 1"><g id="Layer_2-2" data-name="Layer 2"><g id="Layer_1-2-2" data-name="Layer 1-2"><path class="cls-1" d="M159.54,197.53l-4.11-7.07a.36.36,0,0,0-.3-.17h-6.92v0l-3.42,7.4,3.42,7.39h0v0h7.12l4.21-7.23A.38.38,0,0,0,159.54,197.53Zm-13.95.18,3.07-6.64,1.87,3.21L147.12,201Zm6.83.17-3.76,6.46-1.17-2.52h0L151,195l1.57,2.69h.2A.34.34,0,0,0,152.42,197.88Z"/></g></g><g id="Layer_2-3" data-name="Layer 2"><g id="Layer_1-2-3" data-name="Layer 1-2"><path class="cls-1" d="M142.49,197.89l-3.79,6.51h3.77v.72H131.81a.36.36,0,0,1-.36-.35.37.37,0,0,1,.05-.18l4-6.88-3.91-6.66-3.19,6.83-.64-.3,3.4-7.29h6.9a.38.38,0,0,1,.32.18l4.1,7.06A.38.38,0,0,1,142.49,197.89Z"/></g></g><g id="Layer_2-4" data-name="Layer 2"><g id="Layer_1-2-4" data-name="Layer 1-2"><path class="cls-1" d="M177.23,197.89l-3.79,6.51h3.77v.72H166.55a.36.36,0,0,1-.36-.35.37.37,0,0,1,.05-.18l4-6.88-3.91-6.66-3.19,6.83-.64-.3,3.4-7.29h6.9a.38.38,0,0,1,.32.18l4.1,7.06A.38.38,0,0,1,177.23,197.89Z"/></g></g><g id="Layer_2-5" data-name="Layer 2"><g id="Layer_1-2-5" data-name="Layer 1-2"><path class="cls-1" d="M194.94,204.67l-4.11-14.13a.35.35,0,0,0-.34-.25h-6.85L180,198.16h5.91l2,6.7a.36.36,0,0,0,.35.26h6.38a.16.16,0,0,0,.1,0A.35.35,0,0,0,194.94,204.67Zm-13.8-7.23,2.81-6.06,1.77,6.06Z"/></g></g><g id="Layer_2-6" data-name="Layer 2"><g id="Layer_1-2-6" data-name="Layer 1-2"><path class="cls-1" d="M53.94,158.35,45,173.72a.78.78,0,0,1-.67.38H30.6a.76.76,0,0,1-.66-1.16l8.71-15-7.83-13.48v13.46a.32.32,0,0,1-.31.33.33.33,0,0,1-.23-.09L17.74,146.23l6.37,11a.8.8,0,0,1,0,.79l-8.94,15.37a.82.82,0,0,1-.69.4H.81A.81.81,0,0,1,0,173a.87.87,0,0,1,.1-.39l8.72-15-8.73-15a.77.77,0,0,1,.27-1.06.7.7,0,0,1,.4-.1H14.89L29.19,155V141.76h14.7a1.56,1.56,0,0,1,1.28.74l8.74,15.05A.84.84,0,0,1,53.94,158.35Z"/></g></g><g id="Layer_2-7" data-name="Layer 2"><g id="Layer_1-2-7" data-name="Layer 1-2"><path class="cls-1" d="M88.45,172.93l-9-30.79a.78.78,0,0,0-.76-.57H63.81v0l-6.48,32.32h1.54l2-10H70.3l2.75,9.47a.8.8,0,0,0,.76.56H87.69a.71.71,0,0,0,.21,0A.78.78,0,0,0,88.45,172.93ZM61.22,162.31l3.53-17.49,5.09,17.49Z"/></g></g><g id="Layer_2-8" data-name="Layer 2"><g id="Layer_1-2-8" data-name="Layer 1-2"><path class="cls-1" d="M124.38,172.74l-8.73-15,8.72-15a.79.79,0,0,0-.26-1.08.88.88,0,0,0-.42-.11H96.58v32.35h1.56V158.53h2.45l8.71,15a.82.82,0,0,0,.68.39h13.73a.78.78,0,0,0,.67-1.18ZM98.14,143.13h10.49l-8,13.83H98.14Z"/></g></g><g id="Layer_2-9" data-name="Layer 2"><g id="Layer_1-2-9" data-name="Layer 1-2"><path class="cls-1" d="M157.19,172.74a.78.78,0,0,1-.29,1.07.76.76,0,0,1-.39.1H133.6v-1.56h7.84l-8.27-14.21a.74.74,0,0,1,0-.76l8.28-14.24H135v-1.57h21.59a.81.81,0,0,1,.79.81.87.87,0,0,1-.1.39l-8.78,15Z"/></g></g><g id="Layer_2-10" data-name="Layer 2"><g id="Layer_1-2-10" data-name="Layer 1-2"><path class="cls-1" d="M195,141.57v1.56h-7.44l-8,13.83h8.95v1.57h-8.95l8,13.82H195v1.57H173.38a.84.84,0,0,1-.73-.42l-8.94-15.35a.81.81,0,0,1,0-.8l9-15.44a.75.75,0,0,1,.62-.34Z"/></g></g><g id="Layer_2-11" data-name="Layer 2"><g id="Layer_1-2-11" data-name="Layer 1-2"><path class="cls-1" d="M76.17,10.39a.55.55,0,0,0-.31-.07H70.73L76.3.73a.47.47,0,0,0-.19-.66A.42.42,0,0,0,75.88,0H57.21V20.66l3.65,0h9.91l5.57-9.57A.49.49,0,0,0,76.17,10.39ZM58.21,1h8L61.41,9.32h-3.2Zm3.25,18.62-3.25,0V10.32h8.65Z"/></g></g><g id="Layer_2-12" data-name="Layer 2"><g id="Layer_1-2-12" data-name="Layer 1-2"><path class="cls-1" d="M77.72,45,72,35.14a.5.5,0,0,0-.42-.25H62L57.21,45.21,62,55.51h9.61a.52.52,0,0,0,.43-.24l5.7-9.82A.53.53,0,0,0,77.72,45ZM62.59,54.45l-4.27-9.24L62.6,36,68,45.21Z"/></g></g><g id="Layer_2-13" data-name="Layer 2"><g id="Layer_1-2-13" data-name="Layer 1-2"><path class="cls-1" d="M81.21,80,75.1,90.3H66.43a.58.58,0,0,1-.26.06H57.92a.72.72,0,0,1-.71-.73.67.67,0,0,1,.09-.34l5.18-8.9a.75.75,0,0,0,0-.71L57.3,70.76a.7.7,0,0,1,.27-1,.68.68,0,0,1,.35-.09h8.29a.7.7,0,0,1,.58.35l5.59,9.6a.75.75,0,0,1,0,.71L67.21,89.3h7.35L80.05,80,74.21,69.45h1Z"/></g></g><g id="Layer_2-14" data-name="Layer 2"><g id="Layer_1-2-14" data-name="Layer 1-2"><path class="cls-1" d="M77.46,124.21v1H57.72a.51.51,0,0,1-.51-.49.48.48,0,0,1,.07-.26l5.56-9.56-5.56-9.58a.5.5,0,0,1,.16-.68.46.46,0,0,1,.26-.07h8.76a.5.5,0,0,1,.43.25l5.71,9.83a.48.48,0,0,1,0,.49l-5.27,9.07Z"/></g></g><g id="Layer_2-15" data-name="Layer 2"><g id="Layer_1-2-15" data-name="Layer 1-2"><path class="cls-1" d="M87.66,200.85,82,210.66a.47.47,0,0,1-.43.25H71.73v-8.63l-4.85,8.38a.5.5,0,0,1-.44.25H57.71a.52.52,0,0,1-.44-.76l5.56-9.55L57.27,191a.51.51,0,0,1,.2-.7.48.48,0,0,1,.24-.06h8.73a.52.52,0,0,1,.44.25l5.85,10.07v8.89l5.18-8.89L72.35,191a.5.5,0,0,1,.17-.69.48.48,0,0,1,.26-.07h8.74a.5.5,0,0,1,.43.25l5.71,9.83A.48.48,0,0,1,87.66,200.85Z"/></g></g><g id="Layer_2-16" data-name="Layer 2"><g id="Layer_1-2-16" data-name="Layer 1-2"><path class="cls-1" d="M79.58,234.92,73,245.73H63.41a.48.48,0,0,1-.43-.25l-5.71-9.81a.48.48,0,0,1,0-.49L63,225.35a.53.53,0,0,1,.44-.25H76.79v1H72.45L67,235.42l5.43,9.33,5.35-8.83H72.14v-1Z"/><polygon class="cls-1" points="73.03 245.73 73.01 245.76 72.96 245.73 73.03 245.73"/></g></g><g id="Layer_2-17" data-name="Layer 2"><g id="Layer_1-2-17" data-name="Layer 1-2"><path class="cls-1" d="M77.2,260v1H72.45l-5.13,8.82H73v1H67.32l5.13,8.82H77.2v1H63.44a.55.55,0,0,1-.47-.27l-5.7-9.79a.52.52,0,0,1,0-.51L63,260.19a.46.46,0,0,1,.39-.22Z"/></g></g><g id="Layer_2-18" data-name="Layer 2"><g id="Layer_1-2-18" data-name="Layer 1-2"><path class="cls-1" d="M75,314.71l-5.57-9.57,5.56-9.56a.51.51,0,0,0-.17-.69.48.48,0,0,0-.26-.07H57.21v20.64h1v-9.82h1.56l5.56,9.57a.53.53,0,0,0,.43.25h8.76A.5.5,0,0,0,75,315,.51.51,0,0,0,75,314.71ZM58.21,295.82H64.9l-5.13,8.82H58.21Z"/></g></g></g></g></svg>