<svg xmlns="http://www.w3.org/2000/svg" viewBox="0 0 202.53 311.46"><defs><style>.cls-1{fill:#1e1e1c;}</style></defs><title>c19</title><g id="Layer_2" data-name="Layer 2"><g id="Layer_1-2" data-name="Layer 1"><g id="Layer_2-2" data-name="Layer 2"><g id="Layer_1-2-2" data-name="Layer 1-2"><path class="cls-1" d="M31.78,226.42l-4.1-7.06a.35.35,0,0,0-.3-.17H20.46L17,226.6,20.47,234h7.11l4.2-7.23A.33.33,0,0,0,31.78,226.42Zm-14,.18L20.91,220l1.87,3.22-3.42,6.73Zm6.84.18-3.76,6.46-1.17-2.52h0l3.44-6.8,1.57,2.68H25A.34.34,0,0,0,24.67,226.78Z"/></g></g><g id="Layer_2-3" data-name="Layer 2"><g id="Layer_1-2-3" data-name="Layer 1-2"><path class="cls-1" d="M14.73,226.78l-3.79,6.52h3.78V234H4.06a.35.35,0,0,1-.36-.34.32.32,0,0,1,0-.19l4-6.88-3.9-6.66L.66,226.78,0,226.47l3.4-7.28h6.91a.37.37,0,0,1,.32.18l4.09,7A.33.33,0,0,1,14.73,226.78Z"/></g></g><g id="Layer_2-4" data-name="Layer 2"><g id="Layer_1-2-4" data-name="Layer 1-2"><path class="cls-1" d="M49.47,226.78l-3.78,6.52h3.77V234H38.8a.35.35,0,0,1-.36-.34.41.41,0,0,1,.05-.19l4-6.88-3.9-6.66-3.19,6.84-.65-.31,3.4-7.28h6.91a.37.37,0,0,1,.32.18l4.09,7A.33.33,0,0,1,49.47,226.78Z"/></g></g><g id="Layer_2-5" data-name="Layer 2"><g id="Layer_1-2-5" data-name="Layer 1-2"><path class="cls-1" d="M67.18,233.56l-4.11-14.12a.34.34,0,0,0-.33-.25H55.89l-3.63,7.87h5.91l1.95,6.7a.35.35,0,0,0,.34.25H67A.35.35,0,0,0,67.18,233.56Zm-13.8-7.22,2.82-6.07L58,226.34Z"/></g></g><g id="Layer_2-6" data-name="Layer 2"><g id="Layer_1-2-6" data-name="Layer 1-2"><path class="cls-1" d="M56,260.92l-9.28,16a.82.82,0,0,1-.7.39H31.78a.79.79,0,0,1-.79-.8.87.87,0,0,1,.11-.41l9-15.58L32,246.5v14a.32.32,0,0,1-.31.34.34.34,0,0,1-.24-.09l-13-12.39L25,259.74a.79.79,0,0,1,0,.81l-9.28,16a.84.84,0,0,1-.72.41H.84a.83.83,0,0,1-.71-1.24l9-15.55L.11,244.51a.8.8,0,0,1,.28-1.09.79.79,0,0,1,.42-.12H15.47l14.85,14.14V243.7H45.59a1.62,1.62,0,0,1,1.34.76L56,260.09A.85.85,0,0,1,56,260.92Z"/></g></g><g id="Layer_2-7" data-name="Layer 2"><g id="Layer_1-2-7" data-name="Layer 1-2"><path class="cls-1" d="M91.88,276.07l-9.3-32a.79.79,0,0,0-.78-.59H66.28v0l-6.72,33.57h1.59l2.11-10.42H73l2.86,9.84a.83.83,0,0,0,.78.58H91.1a.71.71,0,0,0,.21,0A.8.8,0,0,0,91.88,276.07ZM63.6,265l3.66-18.17L72.55,265Z"/></g></g><g id="Layer_2-8" data-name="Layer 2"><g id="Layer_1-2-8" data-name="Layer 1-2"><path class="cls-1" d="M129.22,275.88l-9.07-15.58,9-15.57a.82.82,0,0,0-.7-1.24H100.33V277.1H102v-16h2.54l9,15.58a.84.84,0,0,0,.7.41h14.27a.82.82,0,0,0,.81-.82A.92.92,0,0,0,129.22,275.88ZM102,245.12h10.89l-8.35,14.36H102Z"/></g></g><g id="Layer_2-9" data-name="Layer 2"><g id="Layer_1-2-9" data-name="Layer 1-2"><path class="cls-1" d="M163.29,275.87A.8.8,0,0,1,163,277a.74.74,0,0,1-.41.11h-23.8v-1.62h8.14l-8.58-14.76a.77.77,0,0,1,0-.8l8.6-14.78h-6.71V243.5h22.42a.82.82,0,0,1,.82.84.91.91,0,0,1-.1.4l-9.12,15.56Z"/></g></g><g id="Layer_2-10" data-name="Layer 2"><g id="Layer_1-2-10" data-name="Layer 1-2"><path class="cls-1" d="M202.53,243.49v1.63h-7.74l-8.35,14.36h9.3v1.63h-9.3l8.35,14.36h7.74v1.63H180.12a.89.89,0,0,1-.77-.44l-9.28-15.94a.87.87,0,0,1,0-.83l9.33-16a.79.79,0,0,1,.64-.36Z"/></g></g><g id="Layer_2-11" data-name="Layer 2"><g id="Layer_1-2-11" data-name="Layer 1-2"><path class="cls-1" d="M202.29,10.39a.51.51,0,0,0-.3-.07h-5.14L202.43.73a.48.48,0,0,0-.19-.66A.48.48,0,0,0,202,0H183.33V20.66l3.66,0h9.9l5.57-9.57A.49.49,0,0,0,202.29,10.39ZM184.33,1h8l-4.84,8.32h-3.2Zm3.25,18.62-3.25,0V10.32H193Z"/></g></g><g id="Layer_2-12" data-name="Layer 2"><g id="Layer_1-2-12" data-name="Layer 1-2"><path class="cls-1" d="M202.46,45l-5.71-9.82a.48.48,0,0,0-.42-.25h-9.62L182,45.21l4.77,10.3h9.61a.5.5,0,0,0,.43-.24l5.7-9.82A.48.48,0,0,0,202.46,45Zm-15.13,9.49-4.27-9.24L187.34,36l5.37,9.24Z"/></g></g><g id="Layer_2-13" data-name="Layer 2"><g id="Layer_1-2-13" data-name="Layer 1-2"><path class="cls-1" d="M202.53,80,196.42,90.3h-8.67a.62.62,0,0,1-.26.06h-8.25a.73.73,0,0,1-.72-.73.79.79,0,0,1,.1-.34l5.18-8.9a.81.81,0,0,0,0-.71l-5.18-8.92a.71.71,0,0,1,.26-1,.74.74,0,0,1,.36-.09h8.29a.71.71,0,0,1,.58.35l5.59,9.6a.81.81,0,0,1,0,.71l-5.17,8.94h7.35l5.49-9.3-5.84-10.55h1Z"/></g></g><g id="Layer_2-14" data-name="Layer 2"><g id="Layer_1-2-14" data-name="Layer 1-2"><path class="cls-1" d="M202.53,124.21v1H182.79a.5.5,0,0,1-.51-.49.48.48,0,0,1,.07-.26l5.56-9.56-5.56-9.58a.49.49,0,0,1,.15-.68.5.5,0,0,1,.27-.07h8.76a.52.52,0,0,1,.43.25l5.71,9.83a.48.48,0,0,1,0,.49l-5.27,9.07Z"/></g></g><g id="Layer_2-15" data-name="Layer 2"><g id="Layer_1-2-15" data-name="Layer 1-2"><path class="cls-1" d="M202.51,159.43l-5.71-19.64a.49.49,0,0,0-.48-.36h-9.53l-4.13,20.62h1l1.29-6.4h6l1.76,6a.5.5,0,0,0,.48.36H202l.13,0A.5.5,0,0,0,202.51,159.43Zm-17.37-6.77,2.25-11.16,3.25,11.16Z"/></g></g><g id="Layer_2-16" data-name="Layer 2"><g id="Layer_1-2-16" data-name="Layer 1-2"><path class="cls-1" d="M202.46,184.85l-5.71,9.81a.48.48,0,0,1-.43.25h-9.79v-8.63l-4.85,8.38a.5.5,0,0,1-.44.25h-8.73a.5.5,0,0,1-.44-.76l5.56-9.55L172.07,175a.52.52,0,0,1,.19-.7.54.54,0,0,1,.25-.06h8.73a.53.53,0,0,1,.44.25l5.85,10.07v8.89l5.18-8.89L187.15,175a.5.5,0,0,1,.17-.69.46.46,0,0,1,.26-.07h8.74a.5.5,0,0,1,.43.25l5.71,9.83A.48.48,0,0,1,202.46,184.85Z"/></g></g><g id="Layer_2-17" data-name="Layer 2"><g id="Layer_1-2-17" data-name="Layer 1-2"><path class="cls-1" d="M202.53,218.92,196,229.73h-9.62a.47.47,0,0,1-.43-.25l-5.71-9.81a.48.48,0,0,1,0-.49l5.71-9.83a.5.5,0,0,1,.44-.25h13.37v1H195.4L190,219.42l5.43,9.33,5.35-8.83h-5.67v-1Z"/><polygon class="cls-1" points="195.98 229.73 195.96 229.76 195.91 229.73 195.98 229.73"/></g></g><g id="Layer_2-18" data-name="Layer 2"><g id="Layer_1-2-18" data-name="Layer 1-2"><path class="cls-1" d="M202.46,310.71l-5.57-9.57,5.56-9.56a.5.5,0,0,0-.17-.69.48.48,0,0,0-.26-.07h-17.3v20.64h1v-9.82h1.56l5.56,9.57a.53.53,0,0,0,.43.25H202a.51.51,0,0,0,.5-.5A.66.66,0,0,0,202.46,310.71Zm-16.74-18.89h6.69l-5.13,8.82h-1.56Z"/></g></g></g></g></svg>