<svg xmlns="http://www.w3.org/2000/svg" viewBox="0 0 220.06 52.26"><defs><style>.cls-1{fill:#1e1e1c;}</style></defs><title>c21</title><g id="Layer_2" data-name="Layer 2"><g id="Layer_1-2" data-name="Layer 1"><g id="Layer_2-2" data-name="Layer 2"><g id="Layer_1-2-2" data-name="Layer 1-2"><path class="cls-1" d="M82.25,10.82l-5.7,9.81a.5.5,0,0,1-.43.24H67.36a.49.49,0,0,1-.49-.49.55.55,0,0,1,.07-.25l5.56-9.57L67.5,2v8.59a.2.2,0,0,1-.19.21.22.22,0,0,1-.15-.06l-8-7.61,4.06,7a.5.5,0,0,1,0,.5l-5.7,9.81a.52.52,0,0,1-.44.25H48.36a.5.5,0,0,1-.5-.51.54.54,0,0,1,.06-.25l5.56-9.55L47.91.74a.49.49,0,0,1,.17-.67A.48.48,0,0,1,48.34,0h9l9.12,8.68V.24h9.38a1,1,0,0,1,.82.47l5.57,9.6A.49.49,0,0,1,82.25,10.82Z"/></g></g><g id="Layer_2-3" data-name="Layer 2"><g id="Layer_1-2-3" data-name="Layer 1-2"><path class="cls-1" d="M104.27,20.12,98.56.48a.49.49,0,0,0-.48-.36H88.55L84.42,20.75h1l1.29-6.4h6l1.76,6a.5.5,0,0,0,.48.36h8.86l.13,0A.5.5,0,0,0,104.27,20.12ZM86.9,13.35,89.15,2.19,92.4,13.35Z"/></g></g><g id="Layer_2-4" data-name="Layer 2"><g id="Layer_1-2-4" data-name="Layer 1-2"><path class="cls-1" d="M127.2,20l-5.57-9.57L127.19.88A.51.51,0,0,0,127,.19a.41.41,0,0,0-.26-.07h-17.3V20.76h1V10.94H112l5.56,9.57a.53.53,0,0,0,.43.25h8.76a.51.51,0,0,0,.49-.51A.5.5,0,0,0,127.2,20ZM110.46,1.12h6.69L112,9.94h-1.56Z"/></g></g><g id="Layer_2-5" data-name="Layer 2"><g id="Layer_1-2-5" data-name="Layer 1-2"><path class="cls-1" d="M148.12,20a.49.49,0,0,1-.18.68.45.45,0,0,1-.25.07H133.07v-1h5l-5.27-9.06a.48.48,0,0,1,0-.49l5.28-9.08H134v-1h13.77a.51.51,0,0,1,.51.51.52.52,0,0,1-.07.25l-5.6,9.56Z"/></g></g><g id="Layer_2-6" data-name="Layer 2"><g id="Layer_1-2-6" data-name="Layer 1-2"><path class="cls-1" d="M172.21.12v1h-4.75l-5.13,8.82H168v1h-5.71l5.13,8.82h4.75v1H158.45a.59.59,0,0,1-.47-.27l-5.7-9.79a.52.52,0,0,1,0-.51L158,.34a.47.47,0,0,1,.39-.22Z"/></g></g><g id="Layer_2-7" data-name="Layer 2"><g id="Layer_1-2-7" data-name="Layer 1-2"><path class="cls-1" d="M19,41.87a.51.51,0,0,0-.3-.07H13.52l5.58-9.59a.48.48,0,0,0-.19-.66.48.48,0,0,0-.23-.07H0V52.14l3.66,0h9.9l5.57-9.57A.49.49,0,0,0,19,41.87ZM1,32.48H9L4.2,40.8H1ZM4.25,51.1,1,51.13V41.8H9.66Z"/></g></g><g id="Layer_2-8" data-name="Layer 2"><g id="Layer_1-2-8" data-name="Layer 1-2"><path class="cls-1" d="M42.67,41.57,37,31.75a.48.48,0,0,0-.42-.25H26.92L22.16,41.82l4.77,10.3h9.61a.58.58,0,0,0,.43-.24l5.7-9.82A.53.53,0,0,0,42.67,41.57ZM27.54,51.06l-4.27-9.24,4.28-9.24,5.37,9.24Z"/></g></g><g id="Layer_2-9" data-name="Layer 2"><g id="Layer_1-2-9" data-name="Layer 1-2"><path class="cls-1" d="M70.32,41.91,64.21,52.2H55.54a.62.62,0,0,1-.26.06H47a.73.73,0,0,1-.72-.73.79.79,0,0,1,.1-.34l5.18-8.9a.81.81,0,0,0,0-.71l-5.18-8.92a.71.71,0,0,1,.26-1A.74.74,0,0,1,47,31.6h8.29a.71.71,0,0,1,.58.35l5.59,9.6a.81.81,0,0,1,0,.71L56.32,51.2h7.35l5.49-9.3L63.32,31.35h1Z"/></g></g><g id="Layer_2-10" data-name="Layer 2"><g id="Layer_1-2-10" data-name="Layer 1-2"><path class="cls-1" d="M93.72,51.13v1H74a.5.5,0,0,1-.5-.5.51.51,0,0,1,.06-.25l5.56-9.56-5.56-9.58a.5.5,0,0,1,.16-.68.41.41,0,0,1,.26-.07h8.76a.47.47,0,0,1,.43.25l5.71,9.83a.48.48,0,0,1,0,.49l-5.27,9.07Z"/></g></g><g id="Layer_2-11" data-name="Layer 2"><g id="Layer_1-2-11" data-name="Layer 1-2"><path class="cls-1" d="M115.48,51.49l-5.71-19.64a.49.49,0,0,0-.48-.36H99.76L95.63,52.12h1l1.29-6.4h6l1.76,6a.5.5,0,0,0,.48.36H115l.13,0A.5.5,0,0,0,115.48,51.49ZM98.11,44.72l2.25-11.16,3.25,11.16Z"/></g></g><g id="Layer_2-12" data-name="Layer 2"><g id="Layer_1-2-12" data-name="Layer 1-2"><path class="cls-1" d="M150.24,42.06l-5.71,9.81a.48.48,0,0,1-.43.25h-9.79V43.49l-4.85,8.38a.5.5,0,0,1-.44.25h-8.73a.51.51,0,0,1-.51-.51.55.55,0,0,1,.07-.25l5.56-9.55-5.56-9.56a.5.5,0,0,1,.19-.69.45.45,0,0,1,.25-.07H129a.53.53,0,0,1,.44.25l5.85,10.07V50.7l5.18-8.89-5.56-9.56a.5.5,0,0,1,.16-.69.5.5,0,0,1,.27-.07h8.74a.5.5,0,0,1,.43.25l5.71,9.83A.48.48,0,0,1,150.24,42.06Z"/></g></g><g id="Layer_2-13" data-name="Layer 2"><g id="Layer_1-2-13" data-name="Layer 1-2"><path class="cls-1" d="M175.32,41.3l-6.55,10.81h-9.62a.49.49,0,0,1-.43-.25L153,42.05a.48.48,0,0,1,0-.49l5.71-9.83a.5.5,0,0,1,.44-.25h13.37v1h-4.34l-5.42,9.32,5.43,9.33,5.35-8.83h-5.67v-1Z"/><polygon class="cls-1" points="168.77 52.1 168.75 52.13 168.7 52.1 168.77 52.1"/></g></g><g id="Layer_2-14" data-name="Layer 2"><g id="Layer_1-2-14" data-name="Layer 1-2"><path class="cls-1" d="M197.09,31.49v1h-4.75l-5.13,8.82h5.71v1h-5.71l5.13,8.82h4.75v1H183.33a.59.59,0,0,1-.47-.27l-5.7-9.79a.52.52,0,0,1,0-.51l5.73-9.85a.46.46,0,0,1,.39-.22Z"/></g></g><g id="Layer_2-15" data-name="Layer 2"><g id="Layer_1-2-15" data-name="Layer 1-2"><path class="cls-1" d="M220,51.38l-5.57-9.57L220,32.25a.5.5,0,0,0-.17-.69.41.41,0,0,0-.26-.07h-17.3V52.13h1V42.31h1.56l5.56,9.57a.53.53,0,0,0,.43.25h8.76a.5.5,0,0,0,.43-.75ZM203.25,32.49h6.69l-5.13,8.82h-1.56Z"/></g></g></g></g></svg>