<svg xmlns="http://www.w3.org/2000/svg" viewBox="0 0 220.06 62.81"><defs><style>.cls-1{fill:#1e1e1c;}</style></defs><title>c24</title><g id="Layer_2" data-name="Layer 2"><g id="Layer_1-2" data-name="Layer 1"><g id="Layer_2-2" data-name="Layer 2"><g id="Layer_1-2-2" data-name="Layer 1-2"><path class="cls-1" d="M93.24,15.25l-8,13.83a.72.72,0,0,1-.61.34H72.24a.68.68,0,0,1-.68-.69.7.7,0,0,1,.09-.35l7.84-13.49-7-12.13V14.87a.28.28,0,0,1-.27.3.29.29,0,0,1-.21-.09L60.68,4.36l5.73,9.86a.75.75,0,0,1,0,.71l-8,13.83a.71.71,0,0,1-.62.35H45.46A.72.72,0,0,1,44.84,28l7.84-13.46L44.82,1A.69.69,0,0,1,45.07.1a.65.65,0,0,1,.36-.1H58.12L71,12.24V.34H84.2A1.41,1.41,0,0,1,85.36,1l7.85,13.53A.77.77,0,0,1,93.24,15.25Z"/></g></g><g id="Layer_2-3" data-name="Layer 2"><g id="Layer_1-2-3" data-name="Layer 1-2"><path class="cls-1" d="M124.27,28.36l-8-27.68a.68.68,0,0,0-.67-.51H102.11L96.29,29.25h1.38l1.82-9H108l2.48,8.51a.71.71,0,0,0,.68.51H123.6l.18,0A.69.69,0,0,0,124.27,28.36ZM99.79,18.82,103,3.09l4.58,15.73Z"/></g></g><g id="Layer_2-4" data-name="Layer 2"><g id="Layer_1-2-4" data-name="Layer 1-2"><path class="cls-1" d="M156.59,28.2l-7.85-13.49,7.84-13.48a.71.71,0,0,0-.24-1,.79.79,0,0,0-.37-.1H131.58v29.1H133V15.42h2.2L143,28.91a.75.75,0,0,0,.61.35H156a.7.7,0,0,0,.7-.71A.74.74,0,0,0,156.59,28.2ZM133,1.57h9.43L135.19,14H133Z"/></g></g><g id="Layer_2-5" data-name="Layer 2"><g id="Layer_1-2-5" data-name="Layer 1-2"><path class="cls-1" d="M186.1,28.2a.72.72,0,0,1-.26,1,.73.73,0,0,1-.35.09H164.88V27.84h7.05L164.5,15.07a.66.66,0,0,1,0-.69l7.44-12.8h-5.81V.17h19.42a.72.72,0,0,1,.71.72.7.7,0,0,1-.09.35l-7.9,13.48Z"/></g></g><g id="Layer_2-6" data-name="Layer 2"><g id="Layer_1-2-6" data-name="Layer 1-2"><path class="cls-1" d="M220.06.16V1.57h-6.7L206.13,14h8.05v1.41h-8.05l7.23,12.43h6.7v1.41h-19.4a.78.78,0,0,1-.66-.38l-8-13.8a.76.76,0,0,1,0-.72L200,.47a.68.68,0,0,1,.55-.31Z"/></g></g><g id="Layer_2-7" data-name="Layer 2"><g id="Layer_1-2-7" data-name="Layer 1-2"><path class="cls-1" d="M19,52.42a.51.51,0,0,0-.3-.07H13.52l5.58-9.59a.48.48,0,0,0-.19-.66.48.48,0,0,0-.23-.07H0V62.69l3.66,0h9.9l5.57-9.57A.49.49,0,0,0,19,52.42ZM1,43H9L4.2,51.35H1ZM4.25,61.65,1,61.68V52.35H9.66Z"/></g></g><g id="Layer_2-8" data-name="Layer 2"><g id="Layer_1-2-8" data-name="Layer 1-2"><path class="cls-1" d="M42.67,52.12,37,42.3a.48.48,0,0,0-.42-.25H26.92L22.16,52.37l4.77,10.3h9.61a.52.52,0,0,0,.43-.24l5.7-9.82A.53.53,0,0,0,42.67,52.12ZM27.54,61.61l-4.27-9.24,4.28-9.24,5.37,9.24Z"/></g></g><g id="Layer_2-9" data-name="Layer 2"><g id="Layer_1-2-9" data-name="Layer 1-2"><path class="cls-1" d="M70.32,52.46,64.21,62.75H55.54a.62.62,0,0,1-.26.06H47a.73.73,0,0,1-.72-.73.83.83,0,0,1,.1-.34l5.18-8.9a.81.81,0,0,0,0-.71l-5.18-8.92a.71.71,0,0,1,.26-1,.74.74,0,0,1,.36-.09h8.29a.71.71,0,0,1,.58.35l5.59,9.6a.81.81,0,0,1,0,.71l-5.17,8.94h7.35l5.49-9.3L63.32,41.9h1Z"/></g></g><g id="Layer_2-10" data-name="Layer 2"><g id="Layer_1-2-10" data-name="Layer 1-2"><path class="cls-1" d="M93.72,61.68v1H74a.5.5,0,0,1-.5-.5.51.51,0,0,1,.06-.25l5.56-9.56-5.56-9.58a.5.5,0,0,1,.16-.68A.48.48,0,0,1,74,42h8.76a.47.47,0,0,1,.43.25l5.71,9.83a.48.48,0,0,1,0,.49l-5.27,9.07Z"/></g></g><g id="Layer_2-11" data-name="Layer 2"><g id="Layer_1-2-11" data-name="Layer 1-2"><path class="cls-1" d="M115.48,62,109.77,42.4a.49.49,0,0,0-.48-.36H99.76L95.63,62.67h1l1.29-6.4h6l1.76,6a.5.5,0,0,0,.48.36H115l.13,0A.5.5,0,0,0,115.48,62ZM98.11,55.27l2.25-11.16,3.25,11.16Z"/></g></g><g id="Layer_2-12" data-name="Layer 2"><g id="Layer_1-2-12" data-name="Layer 1-2"><path class="cls-1" d="M150.24,52.61l-5.71,9.81a.47.47,0,0,1-.43.25h-9.79V54l-4.85,8.38a.5.5,0,0,1-.44.25h-8.73a.51.51,0,0,1-.51-.51.55.55,0,0,1,.07-.25l5.56-9.55-5.56-9.56a.51.51,0,0,1,.19-.69.55.55,0,0,1,.25-.07H129a.53.53,0,0,1,.44.25l5.85,10.07v8.89l5.18-8.89-5.56-9.56a.5.5,0,0,1,.16-.69.6.6,0,0,1,.27-.07h8.74a.5.5,0,0,1,.43.25l5.71,9.83A.48.48,0,0,1,150.24,52.61Z"/></g></g><g id="Layer_2-13" data-name="Layer 2"><g id="Layer_1-2-13" data-name="Layer 1-2"><path class="cls-1" d="M175.32,51.85l-6.55,10.81h-9.62a.49.49,0,0,1-.43-.25L153,52.6a.48.48,0,0,1,0-.49l5.71-9.83a.5.5,0,0,1,.44-.25h13.37v1h-4.34l-5.42,9.32,5.43,9.33,5.35-8.83h-5.67v-1Z"/><polygon class="cls-1" points="168.77 62.66 168.75 62.69 168.7 62.66 168.77 62.66"/></g></g><g id="Layer_2-14" data-name="Layer 2"><g id="Layer_1-2-14" data-name="Layer 1-2"><path class="cls-1" d="M197.09,42v1h-4.75l-5.13,8.82h5.71v1h-5.71l5.13,8.82h4.75v1H183.33a.57.57,0,0,1-.47-.27l-5.7-9.79a.52.52,0,0,1,0-.51l5.73-9.85a.46.46,0,0,1,.39-.22Z"/></g></g><g id="Layer_2-15" data-name="Layer 2"><g id="Layer_1-2-15" data-name="Layer 1-2"><path class="cls-1" d="M220,61.93l-5.57-9.57L220,42.8a.5.5,0,0,0-.17-.69.48.48,0,0,0-.26-.07h-17.3V62.68h1V52.86h1.56l5.56,9.57a.53.53,0,0,0,.43.25h8.76a.5.5,0,0,0,.5-.51A.51.51,0,0,0,220,61.93ZM203.25,43h6.69l-5.13,8.82h-1.56Z"/></g></g></g></g></svg>