<svg xmlns="http://www.w3.org/2000/svg" viewBox="0 0 256.63 53.26"><defs><style>.cls-1{fill:#1e1e1c;}</style></defs><title>c27</title><g id="Layer_2" data-name="Layer 2"><g id="Layer_1-2" data-name="Layer 1"><g id="Layer_2-2" data-name="Layer 2"><g id="Layer_1-2-2" data-name="Layer 1-2"><path class="cls-1" d="M34.41,10.82l-5.7,9.81a.51.51,0,0,1-.43.24H19.52a.49.49,0,0,1-.49-.49.45.45,0,0,1,.07-.25l5.56-9.57-5-8.6v8.59a.21.21,0,0,1-.19.21.2.2,0,0,1-.15-.06l-8-7.61,4.06,7a.5.5,0,0,1,0,.5L9.68,20.4a.52.52,0,0,1-.44.25H.52A.51.51,0,0,1,0,20.14a.55.55,0,0,1,.07-.25l5.56-9.55L.07.74A.49.49,0,0,1,.24.07.48.48,0,0,1,.5,0h9l9.12,8.68V.24H28a1,1,0,0,1,.82.47l5.57,9.6A.54.54,0,0,1,34.41,10.82Z"/></g></g><g id="Layer_2-3" data-name="Layer 2"><g id="Layer_1-2-3" data-name="Layer 1-2"><path class="cls-1" d="M56.42,20.12,50.71.48a.49.49,0,0,0-.48-.36H40.7L36.57,20.75h1l1.29-6.4h6l1.76,6a.5.5,0,0,0,.48.36h8.86l.13,0A.5.5,0,0,0,56.42,20.12ZM39.05,13.35,41.3,2.19l3.25,11.16Z"/></g></g><g id="Layer_2-4" data-name="Layer 2"><g id="Layer_1-2-4" data-name="Layer 1-2"><path class="cls-1" d="M79.35,20l-5.57-9.57L79.34.88a.5.5,0,0,0-.17-.69.41.41,0,0,0-.26-.07H61.61V20.76h1V10.94h1.56l5.56,9.57a.53.53,0,0,0,.43.25h8.76a.5.5,0,0,0,.43-.75ZM62.61,1.12H69.3L64.17,9.94H62.61Z"/></g></g><g id="Layer_2-5" data-name="Layer 2"><g id="Layer_1-2-5" data-name="Layer 1-2"><path class="cls-1" d="M100.28,20a.5.5,0,0,1-.18.68.47.47,0,0,1-.25.07H85.23v-1h5L85,10.69a.48.48,0,0,1,0-.49l5.28-9.08H86.12v-1H99.89a.5.5,0,0,1,.5.51.51.51,0,0,1-.06.25l-5.6,9.56Z"/></g></g><g id="Layer_2-6" data-name="Layer 2"><g id="Layer_1-2-6" data-name="Layer 1-2"><path class="cls-1" d="M124.37.12v1h-4.75l-5.13,8.82h5.71v1h-5.71l5.13,8.82h4.75v1H110.61a.59.59,0,0,1-.47-.27l-5.7-9.79a.52.52,0,0,1,0-.51L110.17.34a.44.44,0,0,1,.39-.22Z"/></g></g><g id="Layer_2-7" data-name="Layer 2"><g id="Layer_1-2-7" data-name="Layer 1-2"><path class="cls-1" d="M55.53,42.87a.51.51,0,0,0-.3-.07H50.09l5.58-9.59a.48.48,0,0,0-.19-.66.48.48,0,0,0-.23-.07H36.57V53.14l3.66,0h9.9l5.57-9.57A.49.49,0,0,0,55.53,42.87Zm-18-9.39h8L40.77,41.8h-3.2ZM40.82,52.1l-3.25,0V42.8h8.66Z"/></g></g><g id="Layer_2-8" data-name="Layer 2"><g id="Layer_1-2-8" data-name="Layer 1-2"><path class="cls-1" d="M79.24,42.57l-5.71-9.82a.46.46,0,0,0-.42-.25H63.49L58.73,42.82l4.77,10.3h9.61a.54.54,0,0,0,.43-.24l5.7-9.82A.48.48,0,0,0,79.24,42.57ZM64.11,52.06l-4.27-9.24,4.28-9.24,5.37,9.24Z"/></g></g><g id="Layer_2-9" data-name="Layer 2"><g id="Layer_1-2-9" data-name="Layer 1-2"><path class="cls-1" d="M106.89,42.91,100.78,53.2H92.11a.58.58,0,0,1-.26.06H83.6a.71.71,0,0,1-.71-.73.67.67,0,0,1,.09-.34l5.18-8.9a.75.75,0,0,0,0-.71L83,33.66a.72.72,0,0,1,.27-1,.73.73,0,0,1,.35-.09h8.29a.7.7,0,0,1,.58.35l5.59,9.6a.75.75,0,0,1,0,.71L92.89,52.2h7.35l5.49-9.3L99.89,32.35h1Z"/></g></g><g id="Layer_2-10" data-name="Layer 2"><g id="Layer_1-2-10" data-name="Layer 1-2"><path class="cls-1" d="M130.3,52.13v1H110.56a.51.51,0,0,1-.51-.5.43.43,0,0,1,.07-.25l5.56-9.56-5.56-9.58a.5.5,0,0,1,.15-.68.44.44,0,0,1,.27-.07h8.76a.48.48,0,0,1,.43.25l5.71,9.83a.48.48,0,0,1,0,.49l-5.27,9.07Z"/></g></g><g id="Layer_2-11" data-name="Layer 2"><g id="Layer_1-2-11" data-name="Layer 1-2"><path class="cls-1" d="M152.05,52.49l-5.71-19.64a.49.49,0,0,0-.48-.36h-9.53L132.2,53.12h1l1.29-6.4h6l1.76,6a.5.5,0,0,0,.48.36h8.86l.13,0A.5.5,0,0,0,152.05,52.49Zm-17.37-6.77,2.25-11.16,3.25,11.16Z"/></g></g><g id="Layer_2-12" data-name="Layer 2"><g id="Layer_1-2-12" data-name="Layer 1-2"><path class="cls-1" d="M186.81,43.06l-5.71,9.81a.47.47,0,0,1-.43.25h-9.79V44.49L166,52.87a.5.5,0,0,1-.44.25h-8.73a.5.5,0,0,1-.5-.51.54.54,0,0,1,.06-.25L162,42.81l-5.56-9.56a.5.5,0,0,1,.2-.69.42.42,0,0,1,.24-.07h8.73a.52.52,0,0,1,.44.25l5.85,10.07V51.7l5.18-8.89-5.56-9.56a.5.5,0,0,1,.17-.69.59.59,0,0,1,.26-.07h8.74a.5.5,0,0,1,.43.25l5.71,9.83A.48.48,0,0,1,186.81,43.06Z"/></g></g><g id="Layer_2-13" data-name="Layer 2"><g id="Layer_1-2-13" data-name="Layer 1-2"><path class="cls-1" d="M211.89,42.3l-6.55,10.81h-9.62a.5.5,0,0,1-.43-.25l-5.71-9.81a.48.48,0,0,1,0-.49l5.71-9.83a.5.5,0,0,1,.44-.25H209.1v1h-4.34l-5.42,9.32,5.43,9.33,5.35-8.83h-5.67v-1Z"/><polygon class="cls-1" points="205.34 53.1 205.32 53.13 205.27 53.1 205.34 53.1"/></g></g><g id="Layer_2-14" data-name="Layer 2"><g id="Layer_1-2-14" data-name="Layer 1-2"><path class="cls-1" d="M233.67,32.49v1h-4.75l-5.13,8.82h5.71v1h-5.71l5.13,8.82h4.75v1H219.91a.56.56,0,0,1-.47-.27l-5.7-9.79a.52.52,0,0,1,0-.51l5.73-9.85a.44.44,0,0,1,.39-.22Z"/></g></g><g id="Layer_2-15" data-name="Layer 2"><g id="Layer_1-2-15" data-name="Layer 1-2"><path class="cls-1" d="M256.57,52.38,251,42.81l5.56-9.56a.51.51,0,0,0-.17-.69.41.41,0,0,0-.26-.07h-17.3V53.13h1V43.31h1.56L247,52.88a.53.53,0,0,0,.43.25h8.76a.51.51,0,0,0,.49-.51A.5.5,0,0,0,256.57,52.38ZM239.83,33.49h6.69l-5.13,8.82h-1.56Z"/></g></g></g></g></svg>