<svg xmlns="http://www.w3.org/2000/svg" viewBox="0 0 124.37 119.68"><defs><style>.cls-1{fill:#1e1e1c;}</style></defs><title>c29</title><g id="Layer_2" data-name="Layer 2"><g id="Layer_1-2" data-name="Layer 1"><g id="Layer_2-2" data-name="Layer 2"><g id="Layer_1-2-2" data-name="Layer 1-2"><path class="cls-1" d="M73,43.47a.51.51,0,0,0-.3-.07H67.57l5.58-9.59a.48.48,0,0,0-.19-.66.48.48,0,0,0-.23-.07H54.05V53.74l3.66,0h9.9l5.57-9.57A.49.49,0,0,0,73,43.47Zm-18-9.39h8L58.25,42.4h-3.2ZM58.3,52.7l-3.25,0V43.4h8.66Z"/></g></g><g id="Layer_2-3" data-name="Layer 2"><g id="Layer_1-2-3" data-name="Layer 1-2"><path class="cls-1" d="M96.72,43.17,91,33.35a.46.46,0,0,0-.42-.25H81L76.21,43.42,81,53.72h9.61a.52.52,0,0,0,.43-.24l5.7-9.82A.5.5,0,0,0,96.72,43.17ZM81.59,52.66l-4.27-9.24,4.28-9.24L87,43.42Z"/></g></g><g id="Layer_2-4" data-name="Layer 2"><g id="Layer_1-2-4" data-name="Layer 1-2"><path class="cls-1" d="M124.37,43.51,118.26,53.8h-8.67a.58.58,0,0,1-.26.06h-8.25a.71.71,0,0,1-.71-.73.69.69,0,0,1,.09-.34l5.18-8.9a.75.75,0,0,0,0-.71l-5.18-8.92a.72.72,0,0,1,.27-1,.7.7,0,0,1,.35-.09h8.29a.7.7,0,0,1,.58.35l5.59,9.6a.75.75,0,0,1,0,.71l-5.17,8.94h7.35l5.49-9.3L117.37,33h1Z"/></g></g><g id="Layer_2-5" data-name="Layer 2"><g id="Layer_1-2-5" data-name="Layer 1-2"><path class="cls-1" d="M67.79,85.7v1H48.05a.51.51,0,0,1-.51-.49.46.46,0,0,1,.07-.26l5.56-9.56-5.56-9.58a.5.5,0,0,1,.15-.68.52.52,0,0,1,.27-.07h8.76a.48.48,0,0,1,.43.25l5.71,9.83a.48.48,0,0,1,0,.49L57.66,85.7Z"/></g></g><g id="Layer_2-6" data-name="Layer 2"><g id="Layer_1-2-6" data-name="Layer 1-2"><path class="cls-1" d="M89.54,86.06,83.83,66.42a.49.49,0,0,0-.48-.36H73.82L69.69,86.69h1L72,80.29h6l1.76,6a.5.5,0,0,0,.48.36h8.86l.13,0A.5.5,0,0,0,89.54,86.06ZM72.17,79.29l2.25-11.16,3.25,11.16Z"/></g></g><g id="Layer_2-7" data-name="Layer 2"><g id="Layer_1-2-7" data-name="Layer 1-2"><path class="cls-1" d="M124.3,76.63l-5.71,9.81a.46.46,0,0,1-.43.25h-9.79V78.06l-4.85,8.38a.48.48,0,0,1-.44.25H94.35a.5.5,0,0,1-.5-.51.54.54,0,0,1,.06-.25l5.56-9.55-5.56-9.56a.5.5,0,0,1,.2-.69.51.51,0,0,1,.24-.07h8.73a.52.52,0,0,1,.44.25l5.85,10.07v8.89l5.18-8.89L109,66.82a.51.51,0,0,1,.43-.76h8.74a.5.5,0,0,1,.43.25l5.71,9.83A.48.48,0,0,1,124.3,76.63Z"/></g></g><g id="Layer_2-8" data-name="Layer 2"><g id="Layer_1-2-8" data-name="Layer 1-2"><path class="cls-1" d="M79.63,108.84l-6.55,10.81H63.46a.47.47,0,0,1-.43-.25l-5.71-9.81a.48.48,0,0,1,0-.49L63,99.27a.52.52,0,0,1,.44-.25H76.84v1H72.5l-5.42,9.32,5.43,9.33,5.35-8.83H72.19v-1Z"/><polygon class="cls-1" points="73.08 119.65 73.06 119.68 73.01 119.65 73.08 119.65"/></g></g><g id="Layer_2-9" data-name="Layer 2"><g id="Layer_1-2-9" data-name="Layer 1-2"><path class="cls-1" d="M101.4,99v1H96.65l-5.13,8.82h5.71v1H91.52l5.13,8.82h4.75v1H87.64a.55.55,0,0,1-.47-.27l-5.7-9.79a.52.52,0,0,1,0-.51l5.73-9.85a.46.46,0,0,1,.39-.22Z"/></g></g><g id="Layer_2-10" data-name="Layer 2"><g id="Layer_1-2-10" data-name="Layer 1-2"><path class="cls-1" d="M124.3,118.92l-5.57-9.57,5.56-9.56a.5.5,0,0,0-.16-.69.5.5,0,0,0-.27-.07h-17.3v20.64h1v-9.82h1.56l5.56,9.57a.54.54,0,0,0,.43.25h8.76a.5.5,0,0,0,.5-.5A.43.43,0,0,0,124.3,118.92ZM107.56,100h6.69l-5.13,8.82h-1.56Z"/></g></g><g id="Layer_2-11" data-name="Layer 2"><g id="Layer_1-2-11" data-name="Layer 1-2"><path class="cls-1" d="M34.41,10.82l-5.7,9.81a.51.51,0,0,1-.43.24H19.52a.49.49,0,0,1-.49-.49.45.45,0,0,1,.07-.25l5.56-9.57-5-8.6v8.59a.21.21,0,0,1-.19.21.2.2,0,0,1-.15-.06l-8-7.61,4.06,7a.5.5,0,0,1,0,.5L9.68,20.4a.52.52,0,0,1-.44.25H.52A.51.51,0,0,1,0,20.14a.55.55,0,0,1,.07-.25l5.56-9.55L.07.74A.49.49,0,0,1,.24.07.48.48,0,0,1,.5,0h9l9.12,8.68V.24H28a1,1,0,0,1,.82.47l5.57,9.6A.54.54,0,0,1,34.41,10.82Z"/></g></g><g id="Layer_2-12" data-name="Layer 2"><g id="Layer_1-2-12" data-name="Layer 1-2"><path class="cls-1" d="M56.42,20.12,50.71.48a.49.49,0,0,0-.48-.36H40.7L36.57,20.75h1l1.29-6.4h6l1.76,6a.5.5,0,0,0,.48.36h8.86l.13,0A.5.5,0,0,0,56.42,20.12ZM39.05,13.35,41.3,2.19l3.25,11.16Z"/></g></g><g id="Layer_2-13" data-name="Layer 2"><g id="Layer_1-2-13" data-name="Layer 1-2"><path class="cls-1" d="M79.35,20l-5.57-9.57L79.34.88a.5.5,0,0,0-.17-.69.41.41,0,0,0-.26-.07H61.61V20.76h1V10.94h1.56l5.56,9.57a.53.53,0,0,0,.43.25h8.76a.5.5,0,0,0,.43-.75ZM62.61,1.12H69.3L64.17,9.94H62.61Z"/></g></g><g id="Layer_2-14" data-name="Layer 2"><g id="Layer_1-2-14" data-name="Layer 1-2"><path class="cls-1" d="M100.28,20a.5.5,0,0,1-.18.68.47.47,0,0,1-.25.07H85.23v-1h5L85,10.69a.48.48,0,0,1,0-.49l5.28-9.08H86.12v-1H99.89a.5.5,0,0,1,.5.51.51.51,0,0,1-.06.25l-5.6,9.56Z"/></g></g><g id="Layer_2-15" data-name="Layer 2"><g id="Layer_1-2-15" data-name="Layer 1-2"><path class="cls-1" d="M124.37.12v1h-4.75l-5.13,8.82h5.71v1h-5.71l5.13,8.82h4.75v1H110.61a.59.59,0,0,1-.47-.27l-5.7-9.79a.52.52,0,0,1,0-.51L110.17.34a.44.44,0,0,1,.39-.22Z"/></g></g></g></g></svg>