<svg xmlns="http://www.w3.org/2000/svg" viewBox="0 0 124.37 119.68"><defs><style>.cls-1{fill:#1e1e1c;}</style></defs><title>c30</title><g id="Layer_2" data-name="Layer 2"><g id="Layer_1-2" data-name="Layer 1"><g id="Layer_2-2" data-name="Layer 2"><g id="Layer_1-2-2" data-name="Layer 1-2"><path class="cls-1" d="M19,43.47a.51.51,0,0,0-.3-.07H13.52l5.58-9.59a.48.48,0,0,0-.19-.66.48.48,0,0,0-.23-.07H0V53.74l3.66,0h9.9l5.57-9.57A.49.49,0,0,0,19,43.47ZM1,34.08H9L4.2,42.4H1ZM4.25,52.7,1,52.73V43.4H9.66Z"/></g></g><g id="Layer_2-3" data-name="Layer 2"><g id="Layer_1-2-3" data-name="Layer 1-2"><path class="cls-1" d="M42.67,43.17,37,33.35a.48.48,0,0,0-.42-.25H26.92L22.16,43.42l4.77,10.3h9.61a.55.55,0,0,0,.43-.24l5.7-9.82A.53.53,0,0,0,42.67,43.17ZM27.54,52.66l-4.27-9.24,4.28-9.24,5.37,9.24Z"/></g></g><g id="Layer_2-4" data-name="Layer 2"><g id="Layer_1-2-4" data-name="Layer 1-2"><path class="cls-1" d="M70.32,43.51,64.21,53.8H55.54a.62.62,0,0,1-.26.06H47a.73.73,0,0,1-.72-.73.83.83,0,0,1,.1-.34l5.18-8.9a.81.81,0,0,0,0-.71l-5.18-8.92a.71.71,0,0,1,.26-1A.74.74,0,0,1,47,33.2h8.29a.71.71,0,0,1,.58.35l5.59,9.6a.81.81,0,0,1,0,.71L56.32,52.8h7.35l5.49-9.3L63.32,33h1Z"/></g></g><g id="Layer_2-5" data-name="Layer 2"><g id="Layer_1-2-5" data-name="Layer 1-2"><path class="cls-1" d="M20.25,85.7v1H.51a.5.5,0,0,1-.5-.49A.55.55,0,0,1,.07,86l5.56-9.56L.07,66.81a.5.5,0,0,1,.16-.68.48.48,0,0,1,.26-.07H9.25a.47.47,0,0,1,.43.25l5.71,9.83a.48.48,0,0,1,0,.49L10.12,85.7Z"/></g></g><g id="Layer_2-6" data-name="Layer 2"><g id="Layer_1-2-6" data-name="Layer 1-2"><path class="cls-1" d="M42,86.06,36.3,66.42a.49.49,0,0,0-.48-.36H26.29L22.16,86.69h1l1.29-6.4h6l1.76,6a.5.5,0,0,0,.48.36h8.86l.13,0A.5.5,0,0,0,42,86.06ZM24.64,79.29l2.25-11.16,3.25,11.16Z"/></g></g><g id="Layer_2-7" data-name="Layer 2"><g id="Layer_1-2-7" data-name="Layer 1-2"><path class="cls-1" d="M76.77,76.63l-5.71,9.81a.47.47,0,0,1-.43.25H60.84V78.06L56,86.44a.48.48,0,0,1-.44.25H46.82a.51.51,0,0,1-.51-.51.55.55,0,0,1,.07-.25l5.56-9.55-5.56-9.56a.51.51,0,0,1,.19-.69.55.55,0,0,1,.25-.07h8.73a.53.53,0,0,1,.44.25l5.85,10.07v8.89L67,76.38l-5.56-9.56a.48.48,0,0,1,.17-.68.47.47,0,0,1,.26-.08h8.74a.5.5,0,0,1,.43.25l5.71,9.83A.48.48,0,0,1,76.77,76.63Z"/></g></g><g id="Layer_2-8" data-name="Layer 2"><g id="Layer_1-2-8" data-name="Layer 1-2"><path class="cls-1" d="M22.38,108.84l-6.55,10.81H6.21a.47.47,0,0,1-.43-.25L.07,109.59a.48.48,0,0,1,0-.49l5.71-9.83A.52.52,0,0,1,6.22,99H19.59v1H15.25l-5.42,9.32,5.43,9.33,5.35-8.83H14.94v-1Z"/><polygon class="cls-1" points="15.83 119.65 15.81 119.68 15.76 119.65 15.83 119.65"/></g></g><g id="Layer_2-9" data-name="Layer 2"><g id="Layer_1-2-9" data-name="Layer 1-2"><path class="cls-1" d="M44.15,99v1H39.4l-5.13,8.82H40v1H34.27l5.13,8.82h4.75v1H30.39a.55.55,0,0,1-.47-.27l-5.7-9.79a.52.52,0,0,1,0-.51L30,99.25a.46.46,0,0,1,.39-.22Z"/></g></g><g id="Layer_2-10" data-name="Layer 2"><g id="Layer_1-2-10" data-name="Layer 1-2"><path class="cls-1" d="M67.05,118.92l-5.57-9.57L67,99.79a.5.5,0,0,0-.16-.69.5.5,0,0,0-.27-.07H49.31v20.64h1v-9.82h1.56l5.56,9.57a.54.54,0,0,0,.43.25h8.76a.5.5,0,0,0,.5-.5A.43.43,0,0,0,67.05,118.92ZM50.31,100H57l-5.13,8.82H50.31Z"/></g></g><g id="Layer_2-11" data-name="Layer 2"><g id="Layer_1-2-11" data-name="Layer 1-2"><path class="cls-1" d="M34.41,10.82l-5.7,9.81a.51.51,0,0,1-.43.24H19.52a.49.49,0,0,1-.49-.49.45.45,0,0,1,.07-.25l5.56-9.57-5-8.6v8.59a.21.21,0,0,1-.19.21.2.2,0,0,1-.15-.06l-8-7.61,4.06,7a.5.5,0,0,1,0,.5L9.68,20.4a.52.52,0,0,1-.44.25H.52A.51.51,0,0,1,0,20.14a.55.55,0,0,1,.07-.25l5.56-9.55L.07.74A.49.49,0,0,1,.24.07.48.48,0,0,1,.5,0h9l9.12,8.68V.24H28a1,1,0,0,1,.82.47l5.57,9.6A.54.54,0,0,1,34.41,10.82Z"/></g></g><g id="Layer_2-12" data-name="Layer 2"><g id="Layer_1-2-12" data-name="Layer 1-2"><path class="cls-1" d="M56.42,20.12,50.71.48a.49.49,0,0,0-.48-.36H40.7L36.57,20.75h1l1.29-6.4h6l1.76,6a.5.5,0,0,0,.48.36h8.86l.13,0A.5.5,0,0,0,56.42,20.12ZM39.05,13.35,41.3,2.19l3.25,11.16Z"/></g></g><g id="Layer_2-13" data-name="Layer 2"><g id="Layer_1-2-13" data-name="Layer 1-2"><path class="cls-1" d="M79.35,20l-5.57-9.57L79.34.88a.5.5,0,0,0-.17-.69.41.41,0,0,0-.26-.07H61.61V20.76h1V10.94h1.56l5.56,9.57a.53.53,0,0,0,.43.25h8.76a.5.5,0,0,0,.43-.75ZM62.61,1.12H69.3L64.17,9.94H62.61Z"/></g></g><g id="Layer_2-14" data-name="Layer 2"><g id="Layer_1-2-14" data-name="Layer 1-2"><path class="cls-1" d="M100.28,20a.5.5,0,0,1-.18.68.47.47,0,0,1-.25.07H85.23v-1h5L85,10.69a.48.48,0,0,1,0-.49l5.28-9.08H86.12v-1H99.89a.5.5,0,0,1,.5.51.51.51,0,0,1-.06.25l-5.6,9.56Z"/></g></g><g id="Layer_2-15" data-name="Layer 2"><g id="Layer_1-2-15" data-name="Layer 1-2"><path class="cls-1" d="M124.37.12v1h-4.75l-5.13,8.82h5.71v1h-5.71l5.13,8.82h4.75v1H110.61a.59.59,0,0,1-.47-.27l-5.7-9.79a.52.52,0,0,1,0-.51L110.17.34a.44.44,0,0,1,.39-.22Z"/></g></g></g></g></svg>