<svg xmlns="http://www.w3.org/2000/svg" viewBox="0 0 124.37 119.68"><defs><style>.cls-1{fill:#1e1e1c;}</style></defs><title>c31</title><g id="Layer_2" data-name="Layer 2"><g id="Layer_1-2" data-name="Layer 1"><g id="Layer_2-2" data-name="Layer 2"><g id="Layer_1-2-2" data-name="Layer 1-2"><path class="cls-1" d="M46,43.47a.51.51,0,0,0-.3-.07H40.55l5.58-9.59a.48.48,0,0,0-.19-.66.48.48,0,0,0-.23-.07H27V53.74l3.66,0h9.9l5.57-9.57A.49.49,0,0,0,46,43.47ZM28,34.08h8L31.23,42.4H28ZM31.28,52.7l-3.25,0V43.4h8.66Z"/></g></g><g id="Layer_2-3" data-name="Layer 2"><g id="Layer_1-2-3" data-name="Layer 1-2"><path class="cls-1" d="M69.69,43.17,64,33.35a.46.46,0,0,0-.42-.25H53.94L49.18,43.42,54,53.72h9.61a.52.52,0,0,0,.43-.24l5.7-9.82A.48.48,0,0,0,69.69,43.17ZM54.56,52.66l-4.27-9.24,4.28-9.24,5.37,9.24Z"/></g></g><g id="Layer_2-4" data-name="Layer 2"><g id="Layer_1-2-4" data-name="Layer 1-2"><path class="cls-1" d="M97.34,43.51,91.23,53.8H82.56a.58.58,0,0,1-.26.06H74.05a.72.72,0,0,1-.71-.73.69.69,0,0,1,.09-.34l5.18-8.9a.75.75,0,0,0,0-.71l-5.18-8.92a.72.72,0,0,1,.27-1,.73.73,0,0,1,.35-.09h8.29a.7.7,0,0,1,.58.35l5.59,9.6a.75.75,0,0,1,0,.71L83.34,52.8h7.35l5.49-9.3L90.34,33h1Z"/></g></g><g id="Layer_2-5" data-name="Layer 2"><g id="Layer_1-2-5" data-name="Layer 1-2"><path class="cls-1" d="M44,85.7v1H24.28a.52.52,0,0,1-.51-.49.56.56,0,0,1,.07-.26l5.56-9.56-5.56-9.58a.5.5,0,0,1,.16-.68.48.48,0,0,1,.26-.07H33a.48.48,0,0,1,.43.25l5.71,9.83a.48.48,0,0,1,0,.49L33.89,85.7Z"/></g></g><g id="Layer_2-6" data-name="Layer 2"><g id="Layer_1-2-6" data-name="Layer 1-2"><path class="cls-1" d="M65.77,86.06,60.06,66.42a.49.49,0,0,0-.48-.36H50.05L45.92,86.69h1l1.29-6.4h6l1.76,6a.5.5,0,0,0,.48.36h8.86l.13,0A.5.5,0,0,0,65.77,86.06ZM48.4,79.29l2.25-11.16L53.9,79.29Z"/></g></g><g id="Layer_2-7" data-name="Layer 2"><g id="Layer_1-2-7" data-name="Layer 1-2"><path class="cls-1" d="M100.54,76.63l-5.71,9.81a.48.48,0,0,1-.43.25H84.61V78.06l-4.85,8.38a.49.49,0,0,1-.44.25H70.59a.51.51,0,0,1-.51-.51.45.45,0,0,1,.07-.25l5.56-9.55-5.56-9.56a.5.5,0,0,1,.19-.69.52.52,0,0,1,.25-.07h8.73a.53.53,0,0,1,.44.25l5.85,10.07v8.89l5.18-8.89-5.56-9.56a.49.49,0,0,1,.16-.68.5.5,0,0,1,.27-.08H94.4a.52.52,0,0,1,.43.25l5.71,9.83A.53.53,0,0,1,100.54,76.63Z"/></g></g><g id="Layer_2-8" data-name="Layer 2"><g id="Layer_1-2-8" data-name="Layer 1-2"><path class="cls-1" d="M51,108.84l-6.55,10.81H34.83a.48.48,0,0,1-.43-.25l-5.71-9.81a.48.48,0,0,1,0-.49l5.71-9.83a.53.53,0,0,1,.44-.25H48.21v1H43.87l-5.42,9.32,5.43,9.33,5.35-8.83H43.56v-1Z"/><polygon class="cls-1" points="44.45 119.65 44.43 119.68 44.38 119.65 44.45 119.65"/></g></g><g id="Layer_2-9" data-name="Layer 2"><g id="Layer_1-2-9" data-name="Layer 1-2"><path class="cls-1" d="M72.78,99v1H68l-5.13,8.82h5.71v1H62.9L68,118.67h4.75v1H59a.53.53,0,0,1-.47-.27l-5.7-9.79a.52.52,0,0,1,0-.51l5.73-9.85A.44.44,0,0,1,59,99Z"/></g></g><g id="Layer_2-10" data-name="Layer 2"><g id="Layer_1-2-10" data-name="Layer 1-2"><path class="cls-1" d="M95.68,118.92l-5.57-9.57,5.56-9.56a.5.5,0,0,0-.17-.69.48.48,0,0,0-.26-.07H77.94v20.64h1v-9.82H80.5l5.56,9.57a.53.53,0,0,0,.43.25h8.76a.49.49,0,0,0,.49-.5A.51.51,0,0,0,95.68,118.92ZM78.94,100h6.69l-5.13,8.82H78.94Z"/></g></g><g id="Layer_2-11" data-name="Layer 2"><g id="Layer_1-2-11" data-name="Layer 1-2"><path class="cls-1" d="M34.41,10.82l-5.7,9.81a.51.51,0,0,1-.43.24H19.52a.49.49,0,0,1-.49-.49.45.45,0,0,1,.07-.25l5.56-9.57-5-8.6v8.59a.21.21,0,0,1-.19.21.2.2,0,0,1-.15-.06l-8-7.61,4.06,7a.5.5,0,0,1,0,.5L9.68,20.4a.52.52,0,0,1-.44.25H.52A.51.51,0,0,1,0,20.14a.55.55,0,0,1,.07-.25l5.56-9.55L.07.74A.49.49,0,0,1,.24.07.48.48,0,0,1,.5,0h9l9.12,8.68V.24H28a1,1,0,0,1,.82.47l5.57,9.6A.54.54,0,0,1,34.41,10.82Z"/></g></g><g id="Layer_2-12" data-name="Layer 2"><g id="Layer_1-2-12" data-name="Layer 1-2"><path class="cls-1" d="M56.42,20.12,50.71.48a.49.49,0,0,0-.48-.36H40.7L36.57,20.75h1l1.29-6.4h6l1.76,6a.5.5,0,0,0,.48.36h8.86l.13,0A.5.5,0,0,0,56.42,20.12ZM39.05,13.35,41.3,2.19l3.25,11.16Z"/></g></g><g id="Layer_2-13" data-name="Layer 2"><g id="Layer_1-2-13" data-name="Layer 1-2"><path class="cls-1" d="M79.35,20l-5.57-9.57L79.34.88a.5.5,0,0,0-.17-.69.41.41,0,0,0-.26-.07H61.61V20.76h1V10.94h1.56l5.56,9.57a.53.53,0,0,0,.43.25h8.76a.5.5,0,0,0,.43-.75ZM62.61,1.12H69.3L64.17,9.94H62.61Z"/></g></g><g id="Layer_2-14" data-name="Layer 2"><g id="Layer_1-2-14" data-name="Layer 1-2"><path class="cls-1" d="M100.28,20a.5.5,0,0,1-.18.68.47.47,0,0,1-.25.07H85.23v-1h5L85,10.69a.48.48,0,0,1,0-.49l5.28-9.08H86.12v-1H99.89a.5.5,0,0,1,.5.51.51.51,0,0,1-.06.25l-5.6,9.56Z"/></g></g><g id="Layer_2-15" data-name="Layer 2"><g id="Layer_1-2-15" data-name="Layer 1-2"><path class="cls-1" d="M124.37.12v1h-4.75l-5.13,8.82h5.71v1h-5.71l5.13,8.82h4.75v1H110.61a.59.59,0,0,1-.47-.27l-5.7-9.79a.52.52,0,0,1,0-.51L110.17.34a.44.44,0,0,1,.39-.22Z"/></g></g></g></g></svg>