<svg xmlns="http://www.w3.org/2000/svg" viewBox="0 0 124.37 299.46"><defs><style>.cls-1{fill:#1e1e1c;}</style></defs><title>c32</title><g id="Layer_2" data-name="Layer 2"><g id="Layer_1-2" data-name="Layer 1"><g id="Layer_2-2" data-name="Layer 2"><g id="Layer_1-2-2" data-name="Layer 1-2"><path class="cls-1" d="M34.41,150.13l-5.7,9.81a.51.51,0,0,1-.43.24H19.52a.49.49,0,0,1-.49-.49.43.43,0,0,1,.07-.25l5.56-9.57-5-8.6v8.59a.21.21,0,0,1-.19.21.2.2,0,0,1-.15-.06l-8-7.61,4.06,7a.5.5,0,0,1,0,.5l-5.7,9.81a.52.52,0,0,1-.44.25H.52a.5.5,0,0,1-.44-.76l5.56-9.55-5.57-9.6a.49.49,0,0,1,.17-.67.48.48,0,0,1,.26-.07h9L18.62,148v-8.44H28a1,1,0,0,1,.82.47l5.57,9.6A.54.54,0,0,1,34.41,150.13Z"/></g></g><g id="Layer_2-3" data-name="Layer 2"><g id="Layer_1-2-3" data-name="Layer 1-2"><path class="cls-1" d="M56.42,159.43l-5.71-19.64a.49.49,0,0,0-.48-.36H40.7l-4.13,20.62h1l1.29-6.4h6l1.76,6a.5.5,0,0,0,.48.36h8.86l.13,0A.5.5,0,0,0,56.42,159.43Zm-17.37-6.77L41.3,141.5l3.25,11.16Z"/></g></g><g id="Layer_2-4" data-name="Layer 2"><g id="Layer_1-2-4" data-name="Layer 1-2"><path class="cls-1" d="M79.35,159.31l-5.57-9.57,5.56-9.56a.51.51,0,0,0-.43-.76H61.61v20.64h1v-9.82h1.56l5.56,9.57a.5.5,0,0,0,.43.25h8.76a.5.5,0,0,0,.5-.5A.55.55,0,0,0,79.35,159.31ZM62.61,140.42H69.3l-5.13,8.82H62.61Z"/></g></g><g id="Layer_2-5" data-name="Layer 2"><g id="Layer_1-2-5" data-name="Layer 1-2"><path class="cls-1" d="M100.28,159.31a.5.5,0,0,1-.18.68.59.59,0,0,1-.25.07H85.23v-1h5L85,150a.48.48,0,0,1,0-.49l5.28-9.08H86.12v-1H99.89a.5.5,0,0,1,.5.51.54.54,0,0,1-.06.25l-5.6,9.56Z"/></g></g><g id="Layer_2-6" data-name="Layer 2"><g id="Layer_1-2-6" data-name="Layer 1-2"><path class="cls-1" d="M124.37,139.42v1h-4.75l-5.13,8.82h5.71v1h-5.71l5.13,8.82h4.75v1H110.61a.55.55,0,0,1-.47-.27l-5.7-9.79a.52.52,0,0,1,0-.51l5.73-9.85a.49.49,0,0,1,.39-.22Z"/></g></g><g id="Layer_2-7" data-name="Layer 2"><g id="Layer_1-2-7" data-name="Layer 1-2"><path class="cls-1" d="M56.2,10.39a.51.51,0,0,0-.3-.07H50.76L56.34.73a.48.48,0,0,0-.19-.66A.48.48,0,0,0,55.92,0H37.24V20.66l3.66,0h9.9l5.57-9.57A.49.49,0,0,0,56.2,10.39ZM38.24,1h8L41.44,9.32h-3.2Zm3.25,18.62-3.25,0V10.32H46.9Z"/></g></g><g id="Layer_2-8" data-name="Layer 2"><g id="Layer_1-2-8" data-name="Layer 1-2"><path class="cls-1" d="M56.37,45l-5.71-9.82a.48.48,0,0,0-.42-.25H40.62L35.86,45.21l4.77,10.3h9.61a.5.5,0,0,0,.43-.24l5.7-9.82A.48.48,0,0,0,56.37,45ZM41.24,54.45,37,45.21,41.25,36l5.37,9.24Z"/></g></g><g id="Layer_2-9" data-name="Layer 2"><g id="Layer_1-2-9" data-name="Layer 1-2"><path class="cls-1" d="M56.44,80,50.33,90.3H41.66a.58.58,0,0,1-.26.06H33.15a.72.72,0,0,1-.71-.73.67.67,0,0,1,.09-.34l5.18-8.9a.75.75,0,0,0,0-.71l-5.18-8.92a.71.71,0,0,1,.26-1,.74.74,0,0,1,.36-.09h8.29a.71.71,0,0,1,.58.35l5.59,9.6a.75.75,0,0,1,0,.71L42.44,89.3h7.35L55.28,80,49.44,69.45h1Z"/></g></g><g id="Layer_2-10" data-name="Layer 2"><g id="Layer_1-2-10" data-name="Layer 1-2"><path class="cls-1" d="M56.44,124.21v1H36.7a.5.5,0,0,1-.51-.49.48.48,0,0,1,.07-.26l5.56-9.56-5.56-9.58a.49.49,0,0,1,.15-.68.5.5,0,0,1,.27-.07h8.76a.52.52,0,0,1,.43.25l5.71,9.83a.48.48,0,0,1,0,.49l-5.27,9.07Z"/></g></g><g id="Layer_2-11" data-name="Layer 2"><g id="Layer_1-2-11" data-name="Layer 1-2"><path class="cls-1" d="M56.42,159.43l-5.71-19.64a.49.49,0,0,0-.48-.36H40.7l-4.13,20.62h1l1.29-6.4h6l1.76,6a.5.5,0,0,0,.48.36h8.86l.13,0A.5.5,0,0,0,56.42,159.43Zm-17.37-6.77L41.3,141.5l3.25,11.16Z"/></g></g><g id="Layer_2-12" data-name="Layer 2"><g id="Layer_1-2-12" data-name="Layer 1-2"><path class="cls-1" d="M56.37,184.85l-5.71,9.81a.48.48,0,0,1-.43.25H40.44v-8.63l-4.85,8.38a.5.5,0,0,1-.44.25H26.42a.5.5,0,0,1-.44-.76l5.56-9.55L26,175a.52.52,0,0,1,.19-.7.54.54,0,0,1,.25-.06h8.73a.52.52,0,0,1,.44.25l5.85,10.07v8.89l5.18-8.89L41.06,175a.5.5,0,0,1,.17-.69.48.48,0,0,1,.26-.07h8.74a.5.5,0,0,1,.43.25l5.71,9.83A.48.48,0,0,1,56.37,184.85Z"/></g></g><g id="Layer_2-13" data-name="Layer 2"><g id="Layer_1-2-13" data-name="Layer 1-2"><path class="cls-1" d="M56.44,218.92l-6.55,10.81H40.27a.47.47,0,0,1-.43-.25l-5.71-9.81a.48.48,0,0,1,0-.49l5.71-9.83a.5.5,0,0,1,.44-.25H53.65v1H49.31l-5.42,9.32,5.43,9.33,5.35-8.83H49v-1Z"/><polygon class="cls-1" points="49.89 229.73 49.87 229.76 49.82 229.73 49.89 229.73"/></g></g><g id="Layer_2-14" data-name="Layer 2"><g id="Layer_1-2-14" data-name="Layer 1-2"><path class="cls-1" d="M56.44,244v1H51.69l-5.13,8.82h5.71v1H46.56l5.13,8.82h4.75v1H42.68a.54.54,0,0,1-.47-.27l-5.7-9.79a.52.52,0,0,1,0-.51l5.73-9.85a.44.44,0,0,1,.39-.22Z"/></g></g><g id="Layer_2-15" data-name="Layer 2"><g id="Layer_1-2-15" data-name="Layer 1-2"><path class="cls-1" d="M56.37,298.71l-5.57-9.57,5.56-9.56a.5.5,0,0,0-.17-.69.48.48,0,0,0-.26-.07H38.63v20.64h1v-9.82h1.56l5.56,9.57a.53.53,0,0,0,.43.25h8.76a.5.5,0,0,0,.5-.5A.52.52,0,0,0,56.37,298.71ZM39.63,279.82h6.69l-5.13,8.82H39.63Z"/></g></g></g></g></svg>