<svg xmlns="http://www.w3.org/2000/svg" viewBox="0 0 124.37 299.46"><defs><style>.cls-1{fill:#1e1e1c;}</style></defs><title>c33</title><g id="Layer_2" data-name="Layer 2"><g id="Layer_1-2" data-name="Layer 1"><g id="Layer_2-2" data-name="Layer 2"><g id="Layer_1-2-2" data-name="Layer 1-2"><path class="cls-1" d="M34.41,254.68l-5.7,9.81a.51.51,0,0,1-.43.24H19.52a.49.49,0,0,1-.49-.49.45.45,0,0,1,.07-.25l5.56-9.57-5-8.6v8.59a.21.21,0,0,1-.19.21.2.2,0,0,1-.15-.06l-8-7.61,4.06,7a.5.5,0,0,1,0,.5l-5.7,9.81a.5.5,0,0,1-.44.25H.52A.51.51,0,0,1,0,264a.55.55,0,0,1,.07-.25l5.56-9.55L.07,244.6a.49.49,0,0,1,.17-.67.48.48,0,0,1,.26-.07h9l9.12,8.68V244.1H28a1,1,0,0,1,.82.47l5.57,9.6A.54.54,0,0,1,34.41,254.68Z"/></g></g><g id="Layer_2-3" data-name="Layer 2"><g id="Layer_1-2-3" data-name="Layer 1-2"><path class="cls-1" d="M56.42,264l-5.71-19.64a.49.49,0,0,0-.48-.36H40.7l-4.13,20.62h1l1.29-6.4h6l1.76,6a.5.5,0,0,0,.48.36h8.86l.13,0A.5.5,0,0,0,56.42,264Zm-17.37-6.77,2.25-11.16,3.25,11.16Z"/></g></g><g id="Layer_2-4" data-name="Layer 2"><g id="Layer_1-2-4" data-name="Layer 1-2"><path class="cls-1" d="M79.35,263.87l-5.57-9.57,5.56-9.56a.5.5,0,0,0-.17-.69.48.48,0,0,0-.26-.07H61.61v20.64h1V254.8h1.56l5.56,9.57a.53.53,0,0,0,.43.25h8.76a.5.5,0,0,0,.5-.51A.51.51,0,0,0,79.35,263.87ZM62.61,245H69.3l-5.13,8.82H62.61Z"/></g></g><g id="Layer_2-5" data-name="Layer 2"><g id="Layer_1-2-5" data-name="Layer 1-2"><path class="cls-1" d="M100.28,263.86a.5.5,0,0,1-.18.68.47.47,0,0,1-.25.07H85.23v-1h5L85,254.55a.48.48,0,0,1,0-.49L90.24,245H86.12v-1H99.89a.52.52,0,0,1,.44.76l-5.6,9.56Z"/></g></g><g id="Layer_2-6" data-name="Layer 2"><g id="Layer_1-2-6" data-name="Layer 1-2"><path class="cls-1" d="M124.37,244v1h-4.75l-5.13,8.82h5.71v1h-5.71l5.13,8.82h4.75v1H110.61a.57.57,0,0,1-.47-.27l-5.7-9.79a.52.52,0,0,1,0-.51l5.73-9.85a.44.44,0,0,1,.39-.22Z"/></g></g><g id="Layer_2-7" data-name="Layer 2"><g id="Layer_1-2-7" data-name="Layer 1-2"><path class="cls-1" d="M124.12,10.39a.51.51,0,0,0-.3-.07h-5.14L124.26.73a.48.48,0,0,0-.19-.66.48.48,0,0,0-.23-.07H105.16V20.66l3.66,0h9.9l5.57-9.57A.49.49,0,0,0,124.12,10.39ZM106.16,1h8l-4.84,8.32h-3.2Zm3.25,18.62-3.25,0V10.32h8.66Z"/></g></g><g id="Layer_2-8" data-name="Layer 2"><g id="Layer_1-2-8" data-name="Layer 1-2"><path class="cls-1" d="M124.3,45l-5.71-9.82a.5.5,0,0,0-.42-.25h-9.62l-4.76,10.32,4.77,10.3h9.61a.51.51,0,0,0,.43-.24l5.7-9.82A.53.53,0,0,0,124.3,45Zm-15.13,9.49-4.27-9.24L109.18,36l5.37,9.24Z"/></g></g><g id="Layer_2-9" data-name="Layer 2"><g id="Layer_1-2-9" data-name="Layer 1-2"><path class="cls-1" d="M124.36,80,118.25,90.3h-8.67a.58.58,0,0,1-.26.06h-8.25a.72.72,0,0,1-.71-.73.67.67,0,0,1,.09-.34l5.18-8.9a.75.75,0,0,0,0-.71l-5.18-8.92a.72.72,0,0,1,.27-1,.73.73,0,0,1,.35-.09h8.29a.7.7,0,0,1,.58.35l5.59,9.6a.75.75,0,0,1,0,.71l-5.17,8.94h7.35L123.2,80l-5.84-10.55h1Z"/></g></g><g id="Layer_2-10" data-name="Layer 2"><g id="Layer_1-2-10" data-name="Layer 1-2"><path class="cls-1" d="M124.36,124.21v1H104.62a.52.52,0,0,1-.51-.49.59.59,0,0,1,.07-.26l5.56-9.56-5.56-9.58a.5.5,0,0,1,.16-.68.48.48,0,0,1,.26-.07h8.76a.5.5,0,0,1,.43.25l5.71,9.83a.48.48,0,0,1,0,.49l-5.27,9.07Z"/></g></g><g id="Layer_2-11" data-name="Layer 2"><g id="Layer_1-2-11" data-name="Layer 1-2"><path class="cls-1" d="M124.34,159.43l-5.71-19.64a.49.49,0,0,0-.48-.36h-9.53l-4.13,20.62h1l1.29-6.4h6l1.76,6a.5.5,0,0,0,.48.36h8.86l.13,0A.5.5,0,0,0,124.34,159.43ZM107,152.66l2.25-11.16,3.25,11.16Z"/></g></g><g id="Layer_2-12" data-name="Layer 2"><g id="Layer_1-2-12" data-name="Layer 1-2"><path class="cls-1" d="M124.29,184.85l-5.71,9.81a.47.47,0,0,1-.43.25h-9.79v-8.63l-4.85,8.38a.49.49,0,0,1-.44.25H94.34a.52.52,0,0,1-.44-.76l5.56-9.55L93.9,175a.52.52,0,0,1,.2-.7.5.5,0,0,1,.24-.06h8.73a.52.52,0,0,1,.44.25l5.85,10.07v8.89l5.18-8.89L109,175a.51.51,0,0,1,.17-.69.48.48,0,0,1,.26-.07h8.74a.49.49,0,0,1,.43.25l5.71,9.83A.48.48,0,0,1,124.29,184.85Z"/></g></g><g id="Layer_2-13" data-name="Layer 2"><g id="Layer_1-2-13" data-name="Layer 1-2"><path class="cls-1" d="M124.36,218.92l-6.55,10.81h-9.62a.48.48,0,0,1-.43-.25l-5.71-9.81a.48.48,0,0,1,0-.49l5.71-9.83a.51.51,0,0,1,.44-.25h13.37v1h-4.34l-5.42,9.32,5.43,9.33,5.35-8.83h-5.67v-1Z"/><polygon class="cls-1" points="117.81 229.73 117.79 229.76 117.74 229.73 117.81 229.73"/></g></g><g id="Layer_2-14" data-name="Layer 2"><g id="Layer_1-2-14" data-name="Layer 1-2"><path class="cls-1" d="M124.36,244v1h-4.75l-5.13,8.82h5.71v1h-5.71l5.13,8.82h4.75v1H110.6a.57.57,0,0,1-.47-.27l-5.7-9.79a.52.52,0,0,1,0-.51l5.73-9.85a.46.46,0,0,1,.39-.22Z"/></g></g><g id="Layer_2-15" data-name="Layer 2"><g id="Layer_1-2-15" data-name="Layer 1-2"><path class="cls-1" d="M124.29,298.71l-5.57-9.57,5.56-9.56a.49.49,0,0,0-.43-.76h-17.3v20.64h1v-9.82h1.56l5.56,9.57a.56.56,0,0,0,.43.25h8.76a.5.5,0,0,0,.5-.5A.43.43,0,0,0,124.29,298.71Zm-16.74-18.89h6.69l-5.13,8.82h-1.56Z"/></g></g></g></g></svg>