<svg xmlns="http://www.w3.org/2000/svg" viewBox="0 0 124.37 299.58"><defs><style>.cls-1{fill:#1e1e1c;}</style></defs><title>c34</title><g id="Layer_2" data-name="Layer 2"><g id="Layer_1-2" data-name="Layer 1"><g id="Layer_2-2" data-name="Layer 2"><g id="Layer_1-2-2" data-name="Layer 1-2"><path class="cls-1" d="M34.41,289.53l-5.7,9.81a.51.51,0,0,1-.43.24H19.52a.49.49,0,0,1-.49-.49.45.45,0,0,1,.07-.25l5.56-9.57-5-8.6v8.59a.2.2,0,0,1-.19.21.2.2,0,0,1-.15-.06l-8-7.61,4.06,7a.5.5,0,0,1,0,.5l-5.7,9.81a.5.5,0,0,1-.44.25H.52a.51.51,0,0,1-.51-.51.55.55,0,0,1,.07-.25l5.56-9.55-5.57-9.6a.49.49,0,0,1,.17-.67.48.48,0,0,1,.26-.07h9l9.12,8.68V279H28a1,1,0,0,1,.82.47l5.57,9.6A.54.54,0,0,1,34.41,289.53Z"/></g></g><g id="Layer_2-3" data-name="Layer 2"><g id="Layer_1-2-3" data-name="Layer 1-2"><path class="cls-1" d="M56.42,298.83l-5.71-19.64a.49.49,0,0,0-.48-.36H40.7l-4.13,20.62h1l1.29-6.4h6l1.76,6a.5.5,0,0,0,.48.36h8.86l.13,0A.5.5,0,0,0,56.42,298.83Zm-17.37-6.77L41.3,280.9l3.25,11.16Z"/></g></g><g id="Layer_2-4" data-name="Layer 2"><g id="Layer_1-2-4" data-name="Layer 1-2"><path class="cls-1" d="M79.35,298.72l-5.57-9.57,5.56-9.56a.5.5,0,0,0-.17-.69.48.48,0,0,0-.26-.07H61.61v20.64h1v-9.82h1.56l5.56,9.57a.53.53,0,0,0,.43.25h8.76a.5.5,0,0,0,.5-.51A.51.51,0,0,0,79.35,298.72ZM62.61,279.83H69.3l-5.13,8.82H62.61Z"/></g></g><g id="Layer_2-5" data-name="Layer 2"><g id="Layer_1-2-5" data-name="Layer 1-2"><path class="cls-1" d="M100.28,298.71a.51.51,0,0,1-.18.69.57.57,0,0,1-.25.06H85.23v-1h5L85,289.4a.48.48,0,0,1,0-.49l5.28-9.08H86.12v-1H99.89a.51.51,0,0,1,.5.52.5.5,0,0,1-.06.24l-5.6,9.56Z"/></g></g><g id="Layer_2-6" data-name="Layer 2"><g id="Layer_1-2-6" data-name="Layer 1-2"><path class="cls-1" d="M124.37,278.83v1h-4.75l-5.13,8.82h5.71v1h-5.71l5.13,8.82h4.75v1H110.61a.57.57,0,0,1-.47-.27l-5.7-9.79a.52.52,0,0,1,0-.51l5.73-9.85a.44.44,0,0,1,.39-.22Z"/></g></g><g id="Layer_2-7" data-name="Layer 2"><g id="Layer_1-2-7" data-name="Layer 1-2"><path class="cls-1" d="M79.15,10.39a.51.51,0,0,0-.3-.07H73.71L79.29.73A.48.48,0,0,0,79.1.07.48.48,0,0,0,78.87,0H60.19V20.66l3.66,0h9.9l5.57-9.57A.49.49,0,0,0,79.15,10.39ZM61.19,1h8L64.39,9.32h-3.2Zm3.25,18.62-3.25,0V10.32h8.66Z"/></g></g><g id="Layer_2-8" data-name="Layer 2"><g id="Layer_1-2-8" data-name="Layer 1-2"><path class="cls-1" d="M79.33,45l-5.71-9.82a.48.48,0,0,0-.42-.25H63.58L58.82,45.21l4.77,10.3H73.2a.5.5,0,0,0,.43-.24l5.7-9.82A.5.5,0,0,0,79.33,45ZM64.2,54.45l-4.27-9.24L64.21,36l5.37,9.24Z"/></g></g><g id="Layer_2-9" data-name="Layer 2"><g id="Layer_1-2-9" data-name="Layer 1-2"><path class="cls-1" d="M79.39,80,73.28,90.3H64.61a.58.58,0,0,1-.26.06H56.1a.73.73,0,0,1-.71-.73.78.78,0,0,1,.09-.34l5.18-8.9a.75.75,0,0,0,0-.71l-5.18-8.92a.72.72,0,0,1,.27-1,.73.73,0,0,1,.35-.09h8.29a.7.7,0,0,1,.58.35l5.59,9.6a.75.75,0,0,1,0,.71L65.39,89.3h7.35L78.23,80,72.39,69.45h1Z"/></g></g><g id="Layer_2-10" data-name="Layer 2"><g id="Layer_1-2-10" data-name="Layer 1-2"><path class="cls-1" d="M79.39,124.21v1H59.65a.5.5,0,0,1-.5-.49.58.58,0,0,1,.06-.26l5.56-9.56-5.56-9.58a.5.5,0,0,1,.16-.68.48.48,0,0,1,.26-.07h8.76a.5.5,0,0,1,.43.25l5.71,9.83a.48.48,0,0,1,0,.49l-5.27,9.07Z"/></g></g><g id="Layer_2-11" data-name="Layer 2"><g id="Layer_1-2-11" data-name="Layer 1-2"><path class="cls-1" d="M79.38,159.43l-5.71-19.64a.49.49,0,0,0-.48-.36H63.66l-4.13,20.62h1l1.29-6.4h6l1.76,6a.5.5,0,0,0,.48.36H78.9l.13,0A.5.5,0,0,0,79.38,159.43ZM62,152.66l2.25-11.16,3.25,11.16Z"/></g></g><g id="Layer_2-12" data-name="Layer 2"><g id="Layer_1-2-12" data-name="Layer 1-2"><path class="cls-1" d="M79.33,184.85l-5.71,9.81a.48.48,0,0,1-.43.25H63.4v-8.63l-4.85,8.38a.5.5,0,0,1-.44.25H49.38a.51.51,0,0,1-.51-.52.42.42,0,0,1,.07-.24l5.56-9.55L48.94,175a.52.52,0,0,1,.19-.7.54.54,0,0,1,.25-.06h8.73a.53.53,0,0,1,.44.25L64.4,184.6v8.89l5.18-8.89L64,175a.5.5,0,0,1,.16-.69.5.5,0,0,1,.27-.07h8.74a.52.52,0,0,1,.43.25l5.71,9.83A.48.48,0,0,1,79.33,184.85Z"/></g></g><g id="Layer_2-13" data-name="Layer 2"><g id="Layer_1-2-13" data-name="Layer 1-2"><path class="cls-1" d="M79.39,218.92l-6.55,10.81H63.22a.5.5,0,0,1-.43-.25l-5.71-9.81a.48.48,0,0,1,0-.49l5.71-9.83a.51.51,0,0,1,.44-.25H76.6v1H72.26l-5.42,9.32,5.43,9.33,5.35-8.83H72v-1Z"/><polygon class="cls-1" points="72.84 229.73 72.82 229.76 72.77 229.73 72.84 229.73"/></g></g><g id="Layer_2-14" data-name="Layer 2"><g id="Layer_1-2-14" data-name="Layer 1-2"><path class="cls-1" d="M79.39,244v1H74.64l-5.13,8.82h5.71v1H69.51l5.13,8.82h4.75v1H65.63a.57.57,0,0,1-.47-.27l-5.7-9.79a.52.52,0,0,1,0-.51l5.73-9.85a.46.46,0,0,1,.39-.22Z"/></g></g><g id="Layer_2-15" data-name="Layer 2"><g id="Layer_1-2-15" data-name="Layer 1-2"><path class="cls-1" d="M79.33,298.71l-5.57-9.57,5.56-9.56a.5.5,0,0,0-.17-.69.48.48,0,0,0-.26-.07H61.59v20.64h1v-9.82h1.56l5.56,9.57a.53.53,0,0,0,.43.25H78.9a.49.49,0,0,0,.49-.5A.51.51,0,0,0,79.33,298.71ZM62.59,279.82h6.69l-5.13,8.82H62.59Z"/></g></g></g></g></svg>